<?xml version="1.0" encoding="utf-8"?><svg xmlns="http://www.w3.org/2000/svg" xmlns:xlink="http://www.w3.org/1999/xlink"><symbol fill="none" viewBox="0 0 36 36" id="fb"><rect x=".07" y=".215" width="35.57" height="35.57" rx="17.785" fill="#4800FF"/><g clip-path="url(#aa)"><path d="M18.82 24.198v-5.649h1.896L21 16.347h-2.18v-1.406c0-.637.177-1.071 1.092-1.071h1.165V11.9a15.794 15.794 0 0 0-1.698-.087c-1.681 0-2.832 1.026-2.832 2.91v1.624h-1.901v2.202h1.901v5.649h2.273z" fill="#fff"/></g><defs><clipPath id="aa"><path fill="#fff" transform="translate(11.669 11.813)" d="M0 0h12.384v12.384H0z"/></clipPath></defs></symbol><symbol fill="none" viewBox="0 0 37 36" id="inst"><rect x=".5" y=".215" width="35.57" height="35.57" rx="17.785" fill="#FF00A7"/><path d="M17.983 10.267c-2.018 0-2.271.008-3.064.045-.79.036-1.33.161-1.803.345-.489.19-.903.443-1.316.857a3.648 3.648 0 0 0-.858 1.316c-.184.472-.31 1.012-.345 1.803-.035.793-.045 1.046-.045 3.064s.01 2.27.045 3.063c.037.791.162 1.331.345 1.804.19.488.444.903.857 1.316a3.64 3.64 0 0 0 1.316.858c.473.183 1.013.309 1.804.345.792.036 1.046.045 3.064.045s2.27-.01 3.063-.045c.79-.036 1.331-.162 1.804-.345.489-.19.903-.445 1.316-.858.413-.413.667-.828.857-1.316.183-.473.308-1.013.345-1.804.036-.792.045-1.045.045-3.063 0-2.018-.009-2.271-.045-3.064-.037-.79-.162-1.33-.345-1.803a3.646 3.646 0 0 0-.857-1.316 3.63 3.63 0 0 0-1.316-.857c-.474-.184-1.014-.31-1.805-.345-.793-.037-1.045-.045-3.064-.045h.002zm-.666 1.339h.666c1.984 0 2.22.007 3.003.042.724.034 1.117.155 1.38.256.346.135.593.296.853.556.26.26.421.508.556.854.102.262.223.655.256 1.38.036.783.044 1.018.044 3.001 0 1.983-.008 2.219-.044 3.002-.033.725-.154 1.118-.256 1.38a2.297 2.297 0 0 1-.556.853c-.26.26-.507.42-.854.556-.261.102-.655.223-1.38.256-.782.035-1.018.043-3.002.043-1.984 0-2.219-.008-3.002-.043-.725-.034-1.118-.155-1.38-.257a2.302 2.302 0 0 1-.855-.555 2.303 2.303 0 0 1-.556-.854c-.101-.262-.223-.655-.255-1.38-.036-.783-.043-1.018-.043-3.003 0-1.984.007-2.218.043-3.001.033-.725.154-1.118.255-1.38a2.31 2.31 0 0 1 .556-.854c.26-.26.508-.421.855-.556.262-.102.655-.223 1.38-.256.685-.031.95-.04 2.336-.042v.002zm4.633 1.233a.891.891 0 1 0 0 1.784.891.891 0 0 0 0-1.784zm-3.967 1.042a3.816 3.816 0 1 0 0 7.632 3.816 3.816 0 0 0 0-7.632zm0 1.34a2.477 2.477 0 1 1 0 4.953 2.477 2.477 0 0 1 0-4.954z" fill="#fff"/></symbol><symbol fill="none" viewBox="0 0 37 36" id="link"><rect x=".93" y=".215" width="35.57" height="35.57" rx="17.785" fill="#4800FF"/><g clip-path="url(#ca)"><path d="M24.91 24.198h.003v-4.543c0-2.222-.478-3.933-3.075-3.933-1.25 0-2.087.685-2.43 1.335h-.035v-1.128H16.91v8.268h2.564v-4.094c0-1.078.205-2.12 1.54-2.12 1.315 0 1.334 1.23 1.334 2.19v4.025h2.562zM12.734 15.93H15.3v8.268h-2.567V15.93zm1.282-4.117c-.82 0-1.487.667-1.487 1.488a1.5 1.5 0 0 0 1.487 1.5 1.5 1.5 0 0 0 1.488-1.5 1.489 1.489 0 0 0-1.488-1.488z" fill="#fff"/></g><defs><clipPath id="ca"><path fill="#fff" transform="translate(12.53 11.813)" d="M0 0h12.384v12.384H0z"/></clipPath></defs></symbol><symbol fill="none" viewBox="0 0 6 4" id="switcher"><path d="M3 3.71a.419.419 0 0 1-.297-.123l-2.58-2.58A.42.42 0 1 1 .717.413L3 2.696 5.283.413a.42.42 0 0 1 .594.594l-2.58 2.58A.419.419 0 0 1 3 3.71z" fill="#fff"/></symbol><symbol fill="none" viewBox="0 0 36 36" id="yout"><rect x=".36" y=".215" width="35.57" height="35.57" rx="17.785" fill="#FF00A7"/><g clip-path="url(#ea)"><path d="M24.694 13.365c-.536-.638-1.526-.898-3.418-.898H14.41c-1.935 0-2.942.277-3.476.956-.521.662-.521 1.637-.521 2.987v2.573c0 2.615.618 3.942 3.997 3.942h6.866c1.64 0 2.55-.23 3.137-.792.603-.577.86-1.52.86-3.15V16.41c0-1.424-.04-2.405-.579-3.045zm-4.74 4.686-3.118 1.63a.48.48 0 0 1-.702-.425v-3.249a.479.479 0 0 1 .7-.425l3.118 1.619a.479.479 0 0 1 .001.85z" fill="#fff"/></g><defs><clipPath id="ea"><path fill="#fff" transform="translate(10.413 10.267)" d="M0 0h14.861v14.861H0z"/></clipPath></defs></symbol></svg>