<svg width="116" height="116" viewBox="0 0 116 116" fill="none" xmlns="http://www.w3.org/2000/svg">
<rect width="116" height="116" rx="58" fill="#FF00A7"/>
<path d="M62.3081 9.20546L62.6437 9.36857L63.0042 9.27192L67.6306 8.03145L71.4647 10.9026L71.7634 11.1262L72.1356 11.0996L76.9132 10.7571L80.1346 14.3019L80.3856 14.578L80.7561 14.6223L85.5122 15.1902L88.0045 19.2806L88.1987 19.5992L88.5542 19.7128L93.1169 21.1705L94.79 25.6587L94.9204 26.0083L95.2479 26.1871L99.4523 28.482L100.246 33.2057L100.308 33.5737L100.595 33.8112L104.29 36.8603L104.175 41.6488L104.166 42.0219L104.403 42.3096L107.454 46.0027L106.435 50.6829L106.355 51.0475L106.534 51.375L108.831 55.5786L106.944 59.9815L106.797 60.3245L106.911 60.6799L108.37 65.2421L105.685 69.2084L105.476 69.5174L105.52 69.888L106.089 74.6439L102.702 78.0303L102.438 78.2941L102.411 78.6663L102.07 83.4441L98.1033 86.1282L97.7942 86.3373L97.6977 86.6978L96.4587 91.3247L92.0552 93.2095L91.7122 93.3563L91.5492 93.692L89.457 98.0008L84.7764 99.0182L84.4117 99.0975L84.1881 99.3962L81.3183 103.231L76.5298 103.344L76.1567 103.353L75.8806 103.604L72.3369 106.827L67.6134 106.032L67.2454 105.97L66.9268 106.164L62.8372 108.658L58.3496 106.983L58 106.853L57.6504 106.983L53.1628 108.658L49.0732 106.164L48.7546 105.97L48.3866 106.032L43.6631 106.827L40.1194 103.604L39.8433 103.353L39.4702 103.344L34.6817 103.231L31.8119 99.3962L31.5883 99.0975L31.2236 99.0182L26.543 98.0008L24.4508 93.692L24.2878 93.3563L23.9448 93.2095L19.5413 91.3247L18.3023 86.6978L18.2058 86.3373L17.8967 86.1282L13.9296 83.4441L13.5886 78.6663L13.5621 78.2941L13.2982 78.0303L9.91064 74.6439L10.4801 69.888L10.5244 69.5174L10.3152 69.2084L7.6298 65.2421L9.08901 60.6799L9.20269 60.3245L9.05574 59.9815L7.16947 55.5786L9.46572 51.375L9.64461 51.0475L9.56523 50.6829L8.54629 46.0027L11.5966 42.3096L11.8342 42.0219L11.8253 41.6488L11.7105 36.8603L15.4046 33.8112L15.6924 33.5737L15.7542 33.2057L16.5477 28.482L20.7521 26.1871L21.0796 26.0083L21.21 25.6587L22.8831 21.1705L27.4458 19.7128L27.8013 19.5992L27.9955 19.2806L30.4878 15.1902L35.2439 14.6223L35.6144 14.578L35.8654 14.3019L39.0868 10.7571L43.8644 11.0996L44.2366 11.1262L44.5353 10.9026L48.3694 8.03145L52.9958 9.27192L53.3563 9.36857L53.6919 9.20546L58 7.11183L62.3081 9.20546Z" stroke="#FF99DC" stroke-width="2"/>
<path d="M54.2261 68.5247C51.0345 68.2923 48.0657 66.9379 45.7798 64.652C43.9789 62.8511 42.7564 60.6257 42.2051 58.2018L27 73.407L42.593 89L58.6472 72.9458L54.2261 68.5247ZM73.407 27L58.2018 42.2051C60.6257 42.7564 62.8511 43.9789 64.652 45.7799C66.9379 48.0655 68.2923 51.0345 68.5247 54.2261L72.9457 58.6471L88.9998 42.593L73.407 27ZM64.5986 55.8681C64.6132 55.6519 64.6234 55.4348 64.6234 55.2161C64.6235 52.7031 63.6448 50.3405 61.868 48.5638C60.0912 46.787 57.7287 45.8084 55.2159 45.8084C52.7029 45.8084 50.3405 46.787 48.5637 48.5638C46.7869 50.3407 45.8084 52.7031 45.8082 55.216C45.8082 57.7288 46.7868 60.0913 48.5636 61.8681C50.3404 63.645 52.7029 64.6236 55.2158 64.6236C55.4346 64.6236 55.6516 64.6136 55.8678 64.5988L70.0664 78.7974L71.2633 71.2636L78.7971 70.0667L64.5986 55.8681Z" fill="#FF99DC"/>
</svg>
