<svg width="78" height="78" viewBox="0 0 78 78" fill="none" xmlns="http://www.w3.org/2000/svg">
<rect x="0.278571" y="0.278571" width="77.4429" height="77.4429" rx="38.7214" stroke="white" stroke-width="0.557143"/>
<path d="M46.4987 36.0799H41.5902L42.6646 33.3944C42.8182 33.0118 42.8561 32.5926 42.7736 32.1886C42.691 31.7847 42.4917 31.4139 42.2003 31.1222C42.0364 30.9585 41.8389 30.8324 41.6213 30.7527C41.4038 30.673 41.1716 30.6416 40.9407 30.6607C40.7098 30.6798 40.4859 30.7489 40.2844 30.8632C40.0829 30.9776 39.9087 31.1344 39.774 31.3228L36.9037 35.3389C36.4754 35.9371 35.999 36.4995 35.4793 37.0205L34.56 37.9398C34.5182 37.9816 34.485 38.0312 34.4624 38.0859C34.4397 38.1406 34.4281 38.1991 34.4282 38.2583V45.1678C34.4281 45.2875 34.4755 45.4024 34.56 45.4872L35.5898 46.5216C35.8521 46.7853 36.1642 46.9944 36.5078 47.1367C36.8514 47.2791 37.2199 47.3518 37.5918 47.3509H43.1874C43.6292 47.3505 44.0614 47.2222 44.4319 46.9814C44.8023 46.7407 45.0951 46.3978 45.2748 45.9942L48.0197 39.8183C48.1953 39.4244 48.2855 38.9978 48.2843 38.5666V37.8664C48.2838 37.3929 48.0956 36.9389 47.7608 36.604C47.4261 36.2691 46.9722 36.0806 46.4987 36.0799ZM31.3351 37.3353C30.9049 37.3353 30.4923 37.5062 30.188 37.8104C29.8838 38.1147 29.7129 38.5273 29.7129 38.9575V45.0573C29.7129 45.4875 29.8838 45.9001 30.188 46.2044C30.4923 46.5086 30.9049 46.6795 31.3351 46.6795C31.7653 46.6795 32.178 46.5086 32.4822 46.2044C32.7864 45.9001 32.9573 45.4875 32.9573 45.0573V38.9575C32.9573 38.5273 32.7864 38.1147 32.4822 37.8104C32.178 37.5062 31.7653 37.3353 31.3351 37.3353Z" fill="white"/>
</svg>
