<svg width="131" height="142" viewBox="0 0 131 142" fill="none" xmlns="http://www.w3.org/2000/svg">
<circle cx="65.5" cy="65.5" r="65" fill="white" stroke="#4800FF"/>
<rect x="45" y="112" width="39" height="30" rx="15" fill="#4800FF"/>
<path d="M69.6547 122.357L62.479 128.934L59.3304 125.786C59.2053 125.656 59.0558 125.553 58.8904 125.482C58.725 125.411 58.5472 125.374 58.3672 125.372C58.1872 125.371 58.0088 125.405 57.8422 125.473C57.6756 125.541 57.5243 125.642 57.397 125.769C57.2697 125.896 57.1691 126.048 57.1009 126.214C57.0328 126.381 56.9985 126.559 57.0001 126.739C57.0016 126.919 57.039 127.097 57.11 127.262C57.1811 127.428 57.2843 127.577 57.4138 127.702L61.4801 131.769C61.7271 132.016 62.0599 132.158 62.4092 132.165C62.7585 132.173 63.0972 132.045 63.3546 131.809L71.4872 124.354C71.7522 124.111 71.9097 123.773 71.9252 123.414C71.9407 123.055 71.8129 122.704 71.5699 122.439C71.3269 122.174 70.9886 122.017 70.6294 122.001C70.2702 121.986 69.9196 122.114 69.6547 122.357Z" fill="white"/>
<path d="M79.9054 51.7536C76.549 49.8646 71.1615 49.6835 65.918 54.6272C59.776 48.8184 53.3186 49.8357 49.8383 53.3309C46.3581 56.826 45.3338 63.3254 51.0901 69.511C50.7471 70.0042 50.5521 70.5863 50.5283 71.188C50.5045 71.7897 50.6529 72.3856 50.9559 72.9047C51.2588 73.4238 51.7035 73.8442 52.237 74.1159C52.7705 74.3876 53.3703 74.499 53.965 74.437C53.9044 74.9144 53.9533 75.3994 54.1079 75.8548C54.2626 76.3101 54.5189 76.7237 54.8571 77.0636C55.1954 77.4035 55.6065 77.6608 56.0589 77.8156C56.5113 77.9704 56.9929 78.0186 57.4667 77.9564C57.4152 78.4525 57.4818 78.9537 57.661 79.4187C57.8402 79.8836 58.1267 80.2988 58.497 80.63C58.8673 80.9611 59.3105 81.1986 59.7901 81.3227C60.2696 81.4469 60.7716 81.4542 61.2545 81.3439C61.2491 81.9316 61.4076 82.509 61.712 83.0103C62.0164 83.5116 62.4545 83.9167 62.9764 84.1795C63.4982 84.4422 64.0828 84.5521 64.6636 84.4965C65.2444 84.4409 65.798 84.2221 66.2614 83.865L72.6765 77.5186C73.0859 77.5593 73.4992 77.5139 73.8903 77.3854C74.2814 77.2569 74.6418 77.048 74.9487 76.772C75.2556 76.496 75.5023 76.1589 75.6732 75.7819C75.8441 75.405 75.9355 74.9964 75.9417 74.5821C76.4259 74.6883 76.929 74.6703 77.4045 74.5297C77.8801 74.3891 78.313 74.1304 78.6634 73.7773C78.9738 73.4744 79.2115 73.1041 79.3583 72.6946C79.5051 72.2851 79.5571 71.8473 79.5105 71.4144C79.9545 71.4686 80.405 71.4208 80.8281 71.2747C81.2511 71.1285 81.6359 70.8876 81.9534 70.5703C82.2709 70.2529 82.5129 69.8673 82.6613 69.4423C82.8097 69.0172 82.8606 68.5639 82.8102 68.1162C83.2362 68.1533 83.665 68.0962 84.0668 67.9488C84.4685 67.8014 84.8334 67.5673 85.1358 67.2629C85.6895 66.6979 86 65.9358 86 65.1419C86 64.3479 85.6895 63.5859 85.1358 63.0208L84.567 62.4491C85.0269 60.3986 84.8225 58.2535 83.9835 56.3286C83.1445 54.4037 81.7153 52.8003 79.9054 51.7536ZM65.3453 82.8418C65.0035 83.0648 64.5956 83.1615 64.1909 83.1154C63.7863 83.0693 63.4101 82.8833 63.1264 82.5891C62.8428 82.2948 62.6692 81.9105 62.6354 81.5018C62.6015 81.093 62.7095 80.6851 62.9408 80.3476L67.4095 75.8429C67.4729 75.7791 67.5232 75.7033 67.5575 75.6199C67.5917 75.5365 67.6094 75.4472 67.6094 75.3569C67.6094 75.2666 67.5917 75.1772 67.5575 75.0939C67.5232 75.0105 67.4729 74.9347 67.4095 74.8709C67.3462 74.807 67.2709 74.7564 67.1882 74.7219C67.1054 74.6873 67.0166 74.6695 66.927 74.6695C66.8374 74.6695 66.7487 74.6873 66.6659 74.7219C66.5831 74.7564 66.5079 74.807 66.4445 74.8709L61.8181 79.5311C61.4911 79.8686 61.0445 80.0615 60.5763 80.0673C60.1082 80.073 59.6569 79.8913 59.3218 79.5619C58.9867 79.2325 58.7952 78.7826 58.7895 78.311C58.7838 77.8395 58.9642 77.3849 59.2912 77.0474L63.8348 72.4305C63.9564 72.2998 64.0226 72.1265 64.0193 71.9474C64.0161 71.7684 63.9436 71.5977 63.8173 71.4716C63.691 71.3455 63.5209 71.274 63.3431 71.2723C63.1653 71.2705 62.9939 71.3387 62.8652 71.4623L58.3138 76.0878C57.9837 76.4212 57.5356 76.6089 57.0682 76.6096C56.6007 76.6103 56.1521 76.4239 55.8211 76.0914C55.49 75.7589 55.3037 75.3075 55.303 74.8367C55.3023 74.3658 55.4874 73.9139 55.8175 73.5804L60.4439 68.9202C60.5659 68.79 60.6327 68.6171 60.6302 68.438C60.6276 68.259 60.5558 68.088 60.4301 67.9614C60.3043 67.8349 60.1345 67.7627 59.9568 67.7602C59.7791 67.7577 59.6074 67.8251 59.4782 67.9482L54.8648 72.5959C54.5299 72.9243 54.0792 73.1052 53.6118 73.0989C53.1445 73.0925 52.6988 72.8995 52.3728 72.5621C52.0467 72.2247 51.8671 71.7707 51.8734 71.3C51.8797 70.8292 52.0714 70.3802 52.4063 70.0518L56.316 66.1136C56.4381 65.9835 56.505 65.8106 56.5026 65.6315C56.5001 65.4525 56.4284 65.2815 56.3028 65.1548C56.1771 65.0281 56.0074 64.9558 55.8297 64.9532C55.6519 64.9506 55.4802 65.018 55.3509 65.1409L52.0277 68.4883C46.9758 62.9932 47.7956 57.3255 50.8021 54.3049C53.9076 51.1859 59.8125 50.4041 65.4554 56.087L68.4449 58.7827C67.0075 59.7278 64.9263 59.6674 63.7996 58.5332C63.4686 58.1394 62.9161 57.6537 62.4313 58.1125L59.1895 61.2749C59.0666 61.4032 58.9979 61.5746 58.998 61.7529C58.9981 61.9312 59.0669 62.1025 59.1899 62.2307C59.313 62.3589 59.4806 62.434 59.6575 62.4401C59.8345 62.4462 60.0068 62.3828 60.1383 62.2634L62.9011 59.5677C64.7295 61.3254 68.0722 61.2086 69.9749 59.2927C70.04 59.2262 70.091 59.1472 70.125 59.0603C70.159 58.9735 70.1752 58.8806 70.1727 58.7873C70.1701 58.694 70.1488 58.6021 70.1102 58.5173C70.0715 58.4325 70.0162 58.3564 69.9475 58.2937L66.915 55.5566C71.6065 51.1793 76.3235 51.3112 79.2407 52.9541C80.6746 53.7617 81.8354 54.9835 82.5734 56.4619C83.3114 57.9404 83.5927 59.6076 83.381 61.2486L80.5505 58.4026C79.9913 57.8429 79.235 57.5287 78.4468 57.5287C77.6585 57.5287 76.9022 57.8429 76.343 58.4026C75.8769 58.8864 75.5796 59.5098 75.496 60.1788C74.9592 59.985 74.3788 59.9495 73.8227 60.0764C73.2667 60.2033 72.7581 60.4872 72.3566 60.895C71.9552 61.3028 71.6775 61.8175 71.5562 62.3786C71.4348 62.9397 71.4749 63.5241 71.6717 64.0631C71.2131 64.1171 70.7731 64.2771 70.386 64.5305C69.9988 64.784 69.6751 65.1241 69.44 65.5244C69.2048 65.9247 69.0647 66.3742 69.0304 66.838C68.9962 67.3018 69.0687 67.7673 69.2425 68.1982C68.8373 68.2557 68.4481 68.3961 68.0987 68.6107C67.7494 68.8253 67.4472 69.1095 67.2109 69.446C66.9746 69.7825 66.8092 70.1642 66.7246 70.5675C66.6401 70.9708 66.6384 71.3872 66.7195 71.7912C66.8366 72.3599 67.1166 72.8815 67.5249 73.2916C67.6839 73.436 71.2006 77.0461 71.2618 76.9929L65.3453 82.8418ZM74.1106 75.6874C73.8071 75.9884 73.3982 76.1571 72.9723 76.1571C72.5463 76.1571 72.1375 75.9884 71.8339 75.6874L68.4892 72.3182C68.2039 72.0232 68.0408 71.6296 68.0333 71.2177C68.0257 70.8059 68.1742 70.4065 68.4486 70.101C68.723 69.7956 69.1026 69.6068 69.5102 69.5733C69.9179 69.5398 70.3228 69.6639 70.6428 69.9205L74.2377 73.543C74.4794 73.855 74.5998 74.245 74.5764 74.64C74.553 75.035 74.3874 75.4079 74.1106 75.6887V75.6874ZM77.7016 72.7994C77.5385 72.9601 77.3438 73.0847 77.13 73.1651C76.9163 73.2456 76.6882 73.2802 76.4604 73.2667C76.2326 73.2531 76.0101 73.1918 75.8072 73.0865C75.6043 72.9813 75.4255 72.8345 75.2822 72.6556C75.2757 72.6477 70.8441 68.1792 70.8441 68.1792C70.5473 67.875 70.3817 67.465 70.3835 67.0384C70.3854 66.6118 70.5544 66.2032 70.8539 65.9016C71.1534 65.6 71.5591 65.4298 71.9826 65.4281C72.4061 65.4264 72.8131 65.5933 73.115 65.8924C73.0498 65.8458 78.4582 71.1788 78.0125 70.9556C78.1565 71.2578 78.204 71.5975 78.1483 71.9279C78.0926 72.2584 77.9366 72.5633 77.7016 72.8007V72.7994ZM80.9988 69.5832C80.7542 69.826 80.4394 69.9842 80.0997 70.0351C79.7601 70.0859 79.4132 70.0267 79.1091 69.8661C79.0576 70.0512 73.4467 64.2167 73.3098 64.1301C73.1601 63.9795 73.0412 63.8007 72.9601 63.6038C72.879 63.407 72.8371 63.196 72.8369 62.9828C72.8365 62.5524 73.006 62.1394 73.3079 61.8348C73.6098 61.5301 74.0195 61.3588 74.4468 61.3584C74.6584 61.3582 74.8679 61.4 75.0635 61.4814C75.2591 61.5628 75.4368 61.6822 75.5865 61.8328C75.5865 61.8328 81.1682 67.4946 81.1975 67.5373C81.4034 67.8492 81.4961 68.2231 81.4599 68.5959C81.4237 68.9687 81.2608 69.3174 80.9988 69.5832ZM84.1727 66.283C83.9114 66.5429 83.5701 66.7057 83.2048 66.7445C82.8396 66.7834 82.472 66.6961 82.1625 66.4969C82.1293 66.4766 77.1387 61.4554 77.1387 61.4554C76.911 61.124 76.8141 60.7191 76.8669 60.3197C76.9197 59.9203 77.1183 59.555 77.4241 59.2952C77.7299 59.0354 78.1209 58.8997 78.5206 58.9147C78.9204 58.9296 79.3003 59.0941 79.5861 59.376L84.1734 63.9896C84.472 64.2955 84.6393 64.7074 84.6392 65.1364C84.639 65.5654 84.4715 65.9772 84.1727 66.283Z" fill="url(#paint0_linear_74_455)"/>
<path d="M51.5467 58.0383C51.5822 57.9547 51.6008 57.8648 51.6016 57.7739C51.6023 57.683 51.5851 57.5928 51.551 57.5086C51.5169 57.4244 51.4666 57.3479 51.4029 57.2834C51.3392 57.219 51.2635 57.1679 51.18 57.1332C51.0966 57.0984 51.0072 57.0807 50.9169 57.0811C50.8266 57.0814 50.7373 57.0998 50.6542 57.1351C50.571 57.1705 50.4956 57.2221 50.4324 57.287C50.3692 57.3519 50.3194 57.4288 50.2859 57.5132C49.227 60.0868 49.7125 63.0602 51.6608 65.8852C51.7644 66.035 51.923 66.1371 52.1014 66.1692C52.2799 66.2013 52.4637 66.1606 52.6124 66.0562C52.7611 65.9517 52.8626 65.792 52.8944 65.6123C52.9262 65.4325 52.8859 65.2473 52.7822 65.0975C51.1108 62.6742 50.6716 60.1663 51.5467 58.0383Z" fill="url(#paint1_linear_74_455)"/>
<path d="M52.2219 56.2844C52.5991 56.2844 52.9048 55.9765 52.9048 55.5966C52.9048 55.2167 52.5991 54.9087 52.2219 54.9087C51.8448 54.9087 51.5391 55.2167 51.5391 55.5966C51.5391 55.9765 51.8448 56.2844 52.2219 56.2844Z" fill="url(#paint2_linear_74_455)"/>
<path d="M57.7825 64.4136C58.1596 64.4136 58.4654 64.1056 58.4654 63.7257C58.4654 63.3458 58.1596 63.0378 57.7825 63.0378C57.4053 63.0378 57.0996 63.3458 57.0996 63.7257C57.0996 64.1056 57.4053 64.4136 57.7825 64.4136Z" fill="url(#paint3_linear_74_455)"/>
<defs>
<linearGradient id="paint0_linear_74_455" x1="63" y1="79.4999" x2="62.6301" y2="57.5145" gradientUnits="userSpaceOnUse">
<stop stop-color="#4800FF"/>
<stop offset="1" stop-color="#FF00A7"/>
</linearGradient>
<linearGradient id="paint1_linear_74_455" x1="51.0373" y1="64.8398" x2="50.7124" y2="58.9763" gradientUnits="userSpaceOnUse">
<stop stop-color="#4800FF"/>
<stop offset="1" stop-color="#FF00A7"/>
</linearGradient>
<linearGradient id="paint2_linear_74_455" x1="52.0994" y1="56.0818" x2="52.0821" y2="55.1929" gradientUnits="userSpaceOnUse">
<stop stop-color="#4800FF"/>
<stop offset="1" stop-color="#FF00A7"/>
</linearGradient>
<linearGradient id="paint3_linear_74_455" x1="57.6599" y1="64.211" x2="57.6427" y2="63.322" gradientUnits="userSpaceOnUse">
<stop stop-color="#4800FF"/>
<stop offset="1" stop-color="#FF00A7"/>
</linearGradient>
</defs>
</svg>
