<svg width="131" height="142" viewBox="0 0 131 142" fill="none" xmlns="http://www.w3.org/2000/svg">
<circle cx="65.5" cy="65.5" r="65" fill="white" stroke="#4800FF"/>
<rect x="45" y="112" width="39" height="30" rx="15" fill="#4800FF"/>
<path d="M69.6547 122.357L62.479 128.934L59.3304 125.786C59.2053 125.656 59.0558 125.553 58.8904 125.482C58.725 125.411 58.5472 125.374 58.3672 125.372C58.1872 125.371 58.0088 125.405 57.8422 125.473C57.6756 125.541 57.5243 125.642 57.397 125.769C57.2697 125.896 57.1691 126.048 57.1009 126.214C57.0328 126.381 56.9985 126.559 57.0001 126.739C57.0016 126.919 57.039 127.097 57.11 127.262C57.1811 127.428 57.2843 127.577 57.4138 127.702L61.4801 131.769C61.7271 132.016 62.0599 132.158 62.4092 132.165C62.7585 132.173 63.0972 132.045 63.3546 131.809L71.4872 124.354C71.7522 124.111 71.9097 123.773 71.9252 123.414C71.9407 123.055 71.8129 122.704 71.5699 122.439C71.3269 122.174 70.9886 122.017 70.6294 122.001C70.2702 121.986 69.9196 122.114 69.6547 122.357Z" fill="white"/>
<path d="M89.2821 64.7821H77.7252V63.1491H80.8433C81.0336 63.1491 81.2162 63.0735 81.3508 62.9388C81.4854 62.8042 81.5611 62.6217 81.5611 62.4313C81.5611 62.2409 81.4854 62.0584 81.3508 61.9238C81.2162 61.7892 81.0336 61.7135 80.8433 61.7135H77.7252V60.0804H79.89C80.6965 60.0804 81.4547 59.7664 82.0249 59.1961L86.7456 54.4754C87.0569 54.6304 87.4001 54.7108 87.7479 54.7102C88.0437 54.711 88.3368 54.6531 88.6102 54.5399C88.8835 54.4267 89.1317 54.2604 89.3404 54.0506C89.5501 53.842 89.7165 53.5938 89.8297 53.3204C89.9429 53.0471 90.0008 52.754 90 52.4581C90.0008 52.1622 89.9429 51.8691 89.8297 51.5958C89.7165 51.3224 89.5501 51.0743 89.3404 50.8656C88.9151 50.4402 88.3494 50.2059 87.7479 50.2059C87.1463 50.2059 86.5808 50.4402 86.1554 50.8655C85.9456 51.0742 85.7792 51.3223 85.666 51.5957C85.5528 51.869 85.4949 52.1621 85.4957 52.458C85.4957 52.8117 85.5772 53.1527 85.7304 53.4603L81.0098 58.181C80.8631 58.3285 80.6885 58.4454 80.4963 58.5251C80.3041 58.6047 80.098 58.6454 79.8899 58.6448H77.7251V57.0611C77.7251 54.9733 76.0265 53.2747 73.9387 53.2747H72.355V46.9206C73.2458 46.6201 73.8893 45.7773 73.8893 44.7864C73.8893 43.5445 72.879 42.5343 71.6372 42.5343C70.3955 42.5343 69.3852 43.5446 69.3852 44.7864C69.3852 45.7773 70.0287 46.6201 70.9195 46.9206V53.2747H69.2864V50.1566C69.2864 49.9662 69.2108 49.7836 69.0762 49.649C68.9416 49.5144 68.759 49.4388 68.5686 49.4388C68.3783 49.4388 68.1957 49.5144 68.0611 49.649C67.9265 49.7836 67.8509 49.9662 67.8509 50.1566V53.2747H66.2177V41.7178C66.2177 41.5274 66.1421 41.3448 66.0075 41.2102C65.8729 41.0756 65.6903 41 65.4999 41C65.3096 41 65.127 41.0756 64.9924 41.2102C64.8578 41.3448 64.7821 41.5274 64.7821 41.7178V53.2747H63.1491V50.1566C63.1491 49.9662 63.0735 49.7836 62.9388 49.649C62.8042 49.5144 62.6217 49.4388 62.4313 49.4388C62.2409 49.4388 62.0584 49.5144 61.9238 49.649C61.7892 49.7836 61.7135 49.9662 61.7135 50.1566V53.2747H60.0805V51.1099C60.0805 50.3035 59.7664 49.5452 59.1961 48.975L54.4738 44.2527C54.891 43.4105 54.7512 42.3602 54.0507 41.6597C53.1725 40.7816 51.7438 40.7817 50.8657 41.6597C49.9876 42.5378 49.9876 43.9665 50.8657 44.8447C51.3048 45.2837 51.8815 45.5032 52.4582 45.5032C52.8016 45.5032 53.1444 45.4235 53.4588 45.2678L58.181 49.9901C58.3286 50.1368 58.4455 50.3113 58.5252 50.5036C58.6048 50.6958 58.6455 50.9019 58.6449 51.1099V53.2747H57.0612C56.7411 53.2747 56.4227 53.3148 56.1149 53.394C55.9306 53.4414 55.7726 53.5602 55.6758 53.7241C55.579 53.888 55.5512 54.0837 55.5987 54.268C55.6462 54.4524 55.7649 54.6104 55.9288 54.7072C56.0927 54.804 56.2884 54.8317 56.4728 54.7843C56.665 54.735 56.8627 54.7101 57.0611 54.7102H73.9387C75.235 54.7102 76.2896 55.7648 76.2896 57.061V73.9387C76.2896 74.1381 76.2647 74.3359 76.2157 74.5266C76.1911 74.6183 76.185 74.7139 76.1976 74.8079C76.2102 74.9019 76.2414 74.9925 76.2892 75.0744C76.3371 75.1564 76.4007 75.228 76.4764 75.2852C76.5521 75.3423 76.6384 75.3839 76.7303 75.4076C76.8222 75.4312 76.9178 75.4364 77.0117 75.4228C77.1056 75.4092 77.1959 75.3771 77.2773 75.3284C77.3588 75.2797 77.4297 75.2154 77.4861 75.1391C77.5425 75.0628 77.5833 74.9761 77.6059 74.884C77.6852 74.5751 77.7252 74.2575 77.7251 73.9386V72.3549H84.0792C84.3796 73.2457 85.2225 73.8892 86.2134 73.8892C87.4552 73.8892 88.4654 72.879 88.4654 71.6371C88.4654 70.3953 87.4551 69.3851 86.2134 69.3851C85.2225 69.3851 84.3797 70.0286 84.0792 70.9194H77.7251V69.2862H80.8432C81.0336 69.2862 81.2161 69.2106 81.3507 69.076C81.4853 68.9414 81.561 68.7588 81.561 68.5684C81.561 68.3781 81.4853 68.1955 81.3507 68.0609C81.2161 67.9263 81.0336 67.8507 80.8432 67.8507H77.7251V66.2177H89.2821C89.4724 66.2177 89.655 66.1421 89.7896 66.0075C89.9242 65.8729 89.9998 65.6903 89.9998 65.4999C89.9998 65.3096 89.9242 65.127 89.7896 64.9924C89.655 64.8578 89.4724 64.7821 89.2821 64.7821ZM87.1704 51.8807C87.3247 51.7265 87.5297 51.6416 87.7478 51.6416C87.9659 51.6416 88.1709 51.7265 88.3251 51.8807C88.4794 52.035 88.5643 52.24 88.5643 52.4581C88.5643 52.6762 88.4794 52.8812 88.3251 53.0355C88.1709 53.1898 87.9659 53.2747 87.7478 53.2747C87.5297 53.2747 87.3247 53.1898 87.1704 53.0355C87.0161 52.8812 86.9312 52.6762 86.9312 52.4581C86.9312 52.24 87.0161 52.0349 87.1704 51.8807ZM53.0355 43.8296C52.7172 44.1479 52.1991 44.148 51.8806 43.8295C51.5622 43.5111 51.5622 42.9931 51.8806 42.6748C51.9564 42.5989 52.0464 42.5388 52.1455 42.4978C52.2447 42.4568 52.3509 42.4358 52.4581 42.436C52.6672 42.436 52.8763 42.5156 53.0355 42.6748C53.3539 42.9932 53.3539 43.5112 53.0355 43.8296ZM71.6372 45.6029C71.1871 45.6029 70.8207 45.2366 70.8207 44.7864C70.8207 44.3362 71.187 43.9698 71.6372 43.9698C72.0875 43.9698 72.4538 44.3362 72.4538 44.7864C72.4538 45.2366 72.0874 45.6029 71.6372 45.6029ZM86.2135 70.8207C86.6637 70.8207 87.03 71.1871 87.03 71.6372C87.03 72.0875 86.6636 72.4538 86.2135 72.4538C85.7633 72.4538 85.3969 72.0874 85.3969 71.6372C85.3968 71.187 85.7632 70.8207 86.2135 70.8207ZM80.1342 86.1553C79.4338 85.4547 78.3834 85.3149 77.5412 85.7321L72.8189 81.0097C72.6714 80.863 72.5544 80.6885 72.4748 80.4963C72.3951 80.3041 72.3544 80.0979 72.355 79.8899V77.7252H73.9387C74.2588 77.7252 74.5771 77.685 74.8848 77.6058C75.0692 77.5584 75.2271 77.4396 75.324 77.2757C75.4208 77.1118 75.4485 76.9162 75.401 76.7318C75.3536 76.5474 75.2348 76.3895 75.0709 76.2927C74.907 76.1959 74.7114 76.1681 74.527 76.2156C74.3348 76.2648 74.1371 76.2897 73.9387 76.2896H57.0611C55.7648 76.2896 54.7103 75.2349 54.7103 73.9387V57.0611C54.7103 56.8616 54.7352 56.6637 54.7843 56.4729C54.8305 56.289 54.802 56.0943 54.7051 55.9313C54.6082 55.7683 54.4507 55.6502 54.2671 55.603C54.0835 55.5557 53.8886 55.583 53.725 55.6789C53.5614 55.7749 53.4424 55.9316 53.3941 56.115C53.3147 56.4241 53.2746 56.742 53.2747 57.0611V58.6448H46.9206C46.6201 57.754 45.7773 57.1105 44.7864 57.1105C43.5445 57.1105 42.5343 58.1208 42.5343 59.3626C42.5343 60.6044 43.5446 61.6147 44.7864 61.6147C45.7773 61.6147 46.6201 60.9712 46.9206 60.0804H53.2747V61.7135H50.1566C49.9662 61.7135 49.7836 61.7892 49.649 61.9238C49.5144 62.0584 49.4388 62.2409 49.4388 62.4313C49.4388 62.6217 49.5144 62.8042 49.649 62.9388C49.7836 63.0735 49.9662 63.1491 50.1566 63.1491H53.2747V64.7821H41.7178C41.5274 64.7821 41.3448 64.8578 41.2102 64.9924C41.0756 65.127 41 65.3096 41 65.4999C41 65.6903 41.0756 65.8729 41.2102 66.0075C41.3448 66.1421 41.5274 66.2177 41.7178 66.2177H53.2747V67.8508H50.1566C49.9662 67.8508 49.7836 67.9264 49.649 68.061C49.5144 68.1956 49.4388 68.3782 49.4388 68.5685C49.4388 68.7589 49.5144 68.9415 49.649 69.0761C49.7836 69.2107 49.9662 69.2863 50.1566 69.2863H53.2747V70.9195H51.1099C50.3034 70.9195 49.5451 71.2335 48.9749 71.8038L44.2543 76.5244C43.9429 76.3695 43.5998 76.2891 43.252 76.2896C42.9561 76.2888 42.663 76.3467 42.3897 76.4599C42.1163 76.5732 41.8681 76.7395 41.6595 76.9492C41.2343 77.3746 41 77.9402 41 78.5417C41 79.1432 41.2343 79.7088 41.6597 80.1342C42.085 80.5596 42.6506 80.7938 43.2522 80.7938C43.548 80.7946 43.8411 80.7367 44.1145 80.6235C44.3878 80.5103 44.636 80.344 44.8447 80.1342C45.0545 79.9256 45.2208 79.6774 45.334 79.404C45.4473 79.1307 45.5052 78.8376 45.5043 78.5417C45.5043 78.188 45.4228 77.847 45.2696 77.5394L49.9902 72.8188C50.137 72.6713 50.3115 72.5543 50.5037 72.4747C50.696 72.3951 50.9021 72.3544 51.1101 72.3549H53.2749V73.9386C53.2749 76.0265 54.9736 77.725 57.0613 77.725H58.645V84.0791C57.7542 84.3795 57.1107 85.2224 57.1107 86.2133C57.1107 87.4551 58.121 88.4653 59.3628 88.4653C60.6045 88.4653 61.6149 87.455 61.6149 86.2133C61.6149 85.2224 60.9714 84.3796 60.0806 84.0791V77.725H61.7136V80.8431C61.7136 81.0335 61.7893 81.216 61.9239 81.3506C62.0585 81.4852 62.241 81.5609 62.4314 81.5609C62.6218 81.5609 62.8043 81.4852 62.9389 81.3506C63.0735 81.216 63.1492 81.0335 63.1492 80.8431V77.725H64.7821V89.2821C64.7821 89.4724 64.8578 89.655 64.9924 89.7896C65.127 89.9242 65.3096 89.9998 65.4999 89.9998C65.6903 89.9998 65.8729 89.9242 66.0075 89.7896C66.1421 89.655 66.2177 89.4724 66.2177 89.2821V77.7252H67.8508V80.8433C67.8508 81.0336 67.9264 81.2162 68.061 81.3508C68.1956 81.4854 68.3782 81.5611 68.5685 81.5611C68.7589 81.5611 68.9415 81.4854 69.0761 81.3508C69.2107 81.2162 69.2863 81.0336 69.2863 80.8433V77.7252H70.9194V79.8899C70.9194 80.6964 71.2335 81.4546 71.8038 82.0248L76.526 86.7471C76.1089 87.5894 76.2487 88.6396 76.9492 89.3402C77.3882 89.7792 77.965 89.9987 78.5417 89.9987C79.1184 89.9987 79.6952 89.7792 80.1342 89.3402C81.0123 88.4621 81.0123 87.0333 80.1342 86.1553ZM44.7864 60.1791C44.3361 60.1791 43.9698 59.8128 43.9698 59.3626C43.9698 58.9123 44.3362 58.5461 44.7864 58.5461C45.2366 58.5461 45.6029 58.9124 45.6029 59.3626C45.603 59.8129 45.2367 60.1791 44.7864 60.1791ZM43.8295 79.1191C43.6752 79.2734 43.4702 79.3583 43.2521 79.3583C43.034 79.3583 42.829 79.2734 42.6747 79.1191C42.5204 78.9648 42.4355 78.7598 42.4355 78.5417C42.4355 78.3236 42.5204 78.1186 42.6747 77.9643C42.829 77.8101 43.034 77.7252 43.2521 77.7252C43.4702 77.7252 43.6752 77.8101 43.8295 77.9643C43.9837 78.1186 44.0686 78.3236 44.0686 78.5417C44.0686 78.7598 43.9837 78.9649 43.8295 79.1191ZM60.1791 86.2135C60.1791 86.6636 59.8129 87.03 59.3626 87.03C58.9123 87.03 58.5461 86.6636 58.5461 86.2135C58.5461 85.7633 58.9124 85.3969 59.3626 85.3969C59.8128 85.3969 60.1791 85.7633 60.1791 86.2135ZM79.1192 88.3251C78.8008 88.6435 78.2828 88.6434 77.9643 88.3251C77.6459 88.0067 77.6459 87.4887 77.9643 87.1704C78.1236 87.0112 78.3327 86.9316 78.5418 86.9316C78.7509 86.9316 78.96 87.0112 79.1192 87.1704C79.4375 87.4887 79.4375 88.0067 79.1192 88.3251Z" fill="url(#paint0_linear_74_482)"/>
<path d="M73.1223 63.582C73.1223 62.0469 71.9995 60.7466 70.4624 60.3241C70.5079 60.1364 70.5331 59.9434 70.5331 59.7461C70.5331 58.2928 69.2432 57.1104 67.6577 57.1104C66.7989 57.1104 66.0274 57.4577 65.5001 58.0066C64.9728 57.4577 64.2012 57.1104 63.3425 57.1104C61.757 57.1104 60.4671 58.2928 60.4671 59.7461C60.4671 59.9434 60.4923 60.1364 60.5378 60.3241C59.0007 60.7465 57.8779 62.0468 57.8779 63.582C57.8779 64.3322 58.1434 65.04 58.6339 65.6246C58.1543 66.2454 57.8779 66.9991 57.8779 67.8015C57.8777 69.0219 58.5299 70.1614 59.6039 70.8683V70.87C59.6039 72.5348 61.0874 73.8893 62.911 73.8893C63.9589 73.8893 64.8938 73.4415 65.5001 72.745C66.1064 73.4415 67.0413 73.8893 68.0893 73.8893C69.8442 73.8893 71.2835 72.6347 71.3893 71.0563C72.4552 70.4379 73.1223 69.3546 73.1223 68.1849C73.1223 67.3246 72.7555 66.5038 72.1241 65.8835C72.7554 65.2631 73.1223 64.4423 73.1223 63.582ZM70.582 66.5182C71.2736 66.8832 71.6865 67.5063 71.6865 68.1849C71.6865 68.6909 71.4513 69.1735 71.0542 69.5344C70.6768 68.8357 70.0098 68.2795 69.1672 68.0148C69.0771 67.9858 68.9821 67.9749 68.8878 67.9828C68.7934 67.9907 68.7016 68.0172 68.6175 68.0607C68.5335 68.1042 68.4588 68.1639 68.3979 68.2364C68.3371 68.3088 68.2911 68.3927 68.2627 68.483C68.2344 68.5733 68.2241 68.6683 68.2326 68.7626C68.2411 68.8568 68.2682 68.9485 68.3123 69.0323C68.3563 69.1161 68.4165 69.1903 68.4894 69.2507C68.5623 69.3111 68.6464 69.3565 68.7369 69.3843C69.4686 69.6143 69.9604 70.2114 69.9604 70.8701C69.9604 71.7434 69.1209 72.4539 68.0889 72.4539C67.057 72.4539 66.2175 71.7434 66.2175 70.8701V66.267C66.2175 65.3938 67.057 64.6833 68.0889 64.6833C68.2793 64.6833 68.4618 64.6077 68.5964 64.4731C68.731 64.3385 68.8067 64.1559 68.8067 63.9656C68.8067 63.7752 68.731 63.5926 68.5964 63.458C68.4618 63.3234 68.2793 63.2478 68.0889 63.2478C67.3947 63.2478 66.75 63.4446 66.2175 63.7796V62.8628C66.2175 62.6724 66.1419 62.4898 66.0073 62.3552C65.8727 62.2206 65.6901 62.145 65.4997 62.145C65.3094 62.145 65.1268 62.2206 64.9922 62.3552C64.8576 62.4898 64.782 62.6724 64.782 62.8628V66.8476C64.5344 66.6918 64.2679 66.5684 63.989 66.4805C63.8075 66.4238 63.6109 66.4415 63.4425 66.5296C63.274 66.6177 63.1474 66.7691 63.0904 66.9505C63.0334 67.1318 63.0507 67.3284 63.1384 67.497C63.2262 67.6657 63.3773 67.7926 63.5586 67.85C64.2903 68.0799 64.782 68.677 64.782 69.3357V70.87C64.782 71.7433 63.9424 72.4538 62.9106 72.4538C61.8786 72.4538 61.0391 71.7433 61.0391 70.87C61.0391 70.4957 61.1978 70.1318 61.4858 69.8455C61.6202 69.7111 61.6958 69.529 61.696 69.339C61.6963 69.1491 61.6213 68.9667 61.4874 68.832C61.3534 68.6972 61.1716 68.6211 60.9816 68.6202C60.7916 68.6193 60.609 68.6938 60.4739 68.8273C60.305 68.9949 60.1563 69.1816 60.0308 69.3837C59.5775 68.955 59.3129 68.3909 59.3129 67.8013C59.3129 66.7378 60.1475 65.8036 61.3426 65.5294C61.5273 65.486 61.6872 65.3712 61.7876 65.2102C61.8879 65.0492 61.9204 64.855 61.878 64.6701C61.8356 64.4852 61.7217 64.3246 61.5612 64.2234C61.4007 64.1223 61.2067 64.0887 61.0216 64.1302C60.5405 64.2405 60.0976 64.4248 59.7048 64.6666C59.4501 64.3468 59.313 63.9722 59.313 63.5818C59.3133 62.5022 60.3367 61.6232 61.5984 61.6149C61.6048 61.6151 61.6112 61.616 61.6175 61.616C61.7873 61.6161 61.9515 61.5559 62.0809 61.446C62.3561 61.2131 62.4113 60.8178 62.2266 60.5204C62.2211 60.5116 62.2162 60.5026 62.2104 60.4941C62.2074 60.4898 62.2039 60.4857 62.2008 60.4814C62.1898 60.4657 62.1782 60.4505 62.166 60.4358L62.165 60.4344C62.0452 60.2929 61.9023 60.0586 61.9023 59.746C61.9023 59.0842 62.5483 58.5458 63.3422 58.5458C64.1361 58.5458 64.7821 59.0842 64.7821 59.746C64.7821 59.9364 64.8577 60.119 64.9923 60.2536C65.1269 60.3882 65.3095 60.4638 65.4998 60.4638C65.6902 60.4638 65.8728 60.3882 66.0074 60.2536C66.142 60.119 66.2176 59.9364 66.2176 59.746C66.2176 59.0842 66.8636 58.5458 67.6575 58.5458C68.4513 58.5458 69.0973 59.0842 69.0973 59.746C69.0973 59.9229 69.051 60.0737 68.9896 60.1977C68.5842 60.2354 68.1869 60.335 67.8116 60.4931C67.6362 60.567 67.4974 60.7077 67.4256 60.884C67.3539 61.0603 67.3551 61.2579 67.4291 61.4334C67.5031 61.6088 67.6437 61.7476 67.82 61.8194C67.9964 61.8911 68.194 61.8898 68.3694 61.8159C68.6797 61.6851 69.0135 61.6178 69.3616 61.6151C69.3685 61.6153 69.3753 61.616 69.3822 61.616C69.3886 61.616 69.3949 61.6151 69.4014 61.6149C70.663 61.6231 71.6865 62.5022 71.6865 63.5818C71.6865 64.2604 71.2736 64.8835 70.582 65.2486C70.4664 65.3095 70.3697 65.4009 70.3023 65.5127C70.2348 65.6246 70.1992 65.7527 70.1992 65.8834C70.1992 66.014 70.2348 66.1421 70.3023 66.254C70.3697 66.3659 70.4664 66.4572 70.582 66.5182Z" fill="url(#paint1_linear_74_482)"/>
<defs>
<linearGradient id="paint0_linear_74_482" x1="66.5" y1="48.5" x2="66.986" y2="86.4808" gradientUnits="userSpaceOnUse">
<stop stop-color="#4800FF"/>
<stop offset="1" stop-color="#FF00A7"/>
</linearGradient>
<linearGradient id="paint1_linear_74_482" x1="65.8112" y1="59.6786" x2="65.9944" y2="72.6839" gradientUnits="userSpaceOnUse">
<stop stop-color="#4800FF"/>
<stop offset="1" stop-color="#FF00A7"/>
</linearGradient>
</defs>
</svg>
