<svg width="131" height="142" viewBox="0 0 131 142" fill="none" xmlns="http://www.w3.org/2000/svg">
<circle cx="65.5" cy="65.5" r="65" fill="white" stroke="#4800FF"/>
<rect x="45" y="112" width="39" height="30" rx="15" fill="#4800FF"/>
<path d="M69.6547 122.357L62.479 128.934L59.3304 125.786C59.2053 125.656 59.0558 125.553 58.8904 125.482C58.725 125.411 58.5472 125.374 58.3672 125.372C58.1872 125.371 58.0088 125.405 57.8422 125.473C57.6756 125.541 57.5243 125.642 57.397 125.769C57.2697 125.896 57.1691 126.048 57.1009 126.214C57.0328 126.381 56.9985 126.559 57.0001 126.739C57.0016 126.919 57.039 127.097 57.11 127.262C57.1811 127.428 57.2843 127.577 57.4138 127.702L61.4801 131.769C61.7271 132.016 62.0599 132.158 62.4092 132.165C62.7585 132.173 63.0972 132.045 63.3546 131.809L71.4872 124.354C71.7522 124.111 71.9097 123.773 71.9252 123.414C71.9407 123.055 71.8129 122.704 71.5699 122.439C71.3269 122.174 70.9886 122.017 70.6294 122.001C70.2702 121.986 69.9196 122.114 69.6547 122.357Z" fill="white"/>
<path d="M88.9704 48.7112C88.9331 48.5826 88.862 48.4665 88.7644 48.3749C88.6669 48.2834 88.5464 48.2197 88.4158 48.1907L83.8407 47.1571L82.8071 42.582C82.7777 42.4517 82.7139 42.3317 82.6223 42.2345C82.5308 42.1373 82.4148 42.0664 82.2865 42.0293C82.1582 41.9923 82.0223 41.9903 81.8929 42.0236C81.7636 42.057 81.6456 42.1245 81.5512 42.219L76.2894 47.4817C71.8367 44.7949 66.5545 43.8307 61.4397 44.7712C56.3249 45.7117 51.7312 48.4918 48.5256 52.5869C45.32 56.682 43.7241 61.8088 44.0391 66.9998C44.3542 72.1908 46.5583 77.087 50.2357 80.7643C53.913 84.4417 58.8092 86.6458 64.0002 86.9609C69.1912 87.2759 74.318 85.68 78.4131 82.4744C82.5081 79.2688 85.2882 74.6751 86.2287 69.5603C87.1692 64.4455 86.2051 59.1633 83.5182 54.7106L88.7822 49.4466C88.8765 49.352 88.9436 49.2339 88.9767 49.1046C89.0098 48.9752 89.0076 48.8394 88.9704 48.7112ZM85.0859 65.7126C85.0853 70.0709 83.6465 74.3071 80.9926 77.7642C78.3388 81.2213 74.6182 83.706 70.4082 84.8328C66.1981 85.9596 61.7339 85.6656 57.708 83.9964C53.682 82.3272 50.3195 79.376 48.142 75.6007C45.9644 71.8255 45.0936 67.4371 45.6645 63.1164C46.2355 58.7957 48.2164 54.7842 51.2998 51.7042C54.3833 48.6242 58.397 46.6478 62.7183 46.0816C67.0396 45.5155 71.427 46.3912 75.1999 48.5729L72.7833 50.9895C72.7625 51.0132 72.7433 51.0381 72.7257 51.0642C69.2363 49.2877 65.2277 48.8141 61.4205 49.7285C57.6132 50.6428 54.2569 52.8852 51.9548 56.0525C49.6528 59.2199 48.5559 63.1045 48.8615 67.0081C49.167 70.9117 50.8549 74.5783 53.6217 77.3489C56.3885 80.1195 60.0529 81.8123 63.956 82.1232C67.8592 82.434 71.7453 81.3425 74.9158 79.0448C78.0862 76.747 80.3332 73.3938 81.2527 69.5877C82.1722 65.7817 81.7041 61.7725 79.9324 58.2807C79.9598 58.2613 79.9859 58.2401 80.0104 58.2171L82.427 55.8005C84.1722 58.8122 85.0895 62.2319 85.0859 65.7126ZM78.1608 58.1561C79.9941 61.2858 80.6241 64.9763 79.9329 68.537C79.2417 72.0976 77.2766 75.2844 74.4055 77.5008C71.5343 79.7172 67.9539 80.8114 64.3342 80.5786C60.7146 80.3457 57.3038 78.8019 54.7403 76.2359C52.1768 73.6699 50.6362 70.2576 50.4068 66.6378C50.1775 63.0179 51.2751 59.4385 53.4943 56.5695C55.7135 53.7005 58.9021 51.7385 62.4634 51.0507C66.0247 50.3629 69.7146 50.9965 72.8426 52.8328L73.6288 56.3154L72.8746 57.0696C70.6254 55.0946 67.6964 54.0717 64.7068 54.2171C61.7171 54.3625 58.9012 55.6648 56.8543 57.8488C54.8075 60.0327 53.6902 62.9271 53.7387 65.9199C53.7872 68.9127 54.9976 71.7693 57.1141 73.8858C59.2306 76.0024 62.0873 77.2128 65.0801 77.2613C68.0729 77.3098 70.9672 76.1925 73.1512 74.1457C75.3352 72.0988 76.6375 69.2829 76.7829 66.2932C76.9283 63.3036 75.9054 60.3745 73.9303 58.1254L74.6845 57.3712L78.1608 58.1561ZM68.4974 65.7126C68.5 66.4263 68.2657 67.1206 67.8311 67.6866C67.3965 68.2527 66.7863 68.6584 66.0962 68.8402C65.4061 69.022 64.6752 68.9695 64.0181 68.6911C63.3611 68.4126 62.8151 67.9239 62.4658 67.3015C62.1165 66.6792 61.9837 65.9586 62.0882 65.2526C62.1927 64.5467 62.5287 63.8954 63.0433 63.401C63.5579 62.9066 64.2221 62.5971 64.9317 62.5209C65.6413 62.4448 66.356 62.6064 66.9638 62.9804L64.7593 65.1849C64.688 65.2538 64.6311 65.3362 64.592 65.4273C64.5529 65.5184 64.5323 65.6163 64.5315 65.7155C64.5306 65.8146 64.5496 65.9129 64.5871 66.0046C64.6247 66.0964 64.6801 66.1797 64.7502 66.2498C64.8203 66.3198 64.9037 66.3753 64.9954 66.4128C65.0872 66.4503 65.1855 66.4692 65.2846 66.4683C65.3837 66.4674 65.4817 66.4468 65.5728 66.4076C65.6638 66.3685 65.7462 66.3116 65.815 66.2403L68.0196 64.0357C68.3317 64.5394 68.4972 65.1201 68.4974 65.7126ZM68.0384 61.9058C67.0766 61.2091 65.8876 60.9004 64.7083 61.0412C63.5291 61.182 62.4462 61.762 61.6755 62.6656C60.9048 63.5691 60.5028 64.7299 60.5496 65.9166C60.5965 67.1033 61.0888 68.2287 61.9284 69.0687C62.768 69.9086 63.8933 70.4014 65.0799 70.4487C66.2666 70.4961 67.4276 70.0946 68.3314 69.3242C69.2353 68.5538 69.8157 67.4712 69.957 66.292C70.0983 65.1128 69.79 63.9237 69.0938 62.9616L72.8724 59.1829C74.5655 61.1499 75.4302 63.6966 75.2848 66.2878C75.1393 68.879 73.9951 71.313 72.0925 73.0782C70.1899 74.8433 67.6772 75.8022 65.0823 75.7534C62.4875 75.7045 60.0126 74.6517 58.1779 72.8162C56.3431 70.9807 55.2913 68.5054 55.2435 65.9105C55.1956 63.3157 56.1556 60.8033 57.9215 58.9014C59.6874 56.9996 62.1219 55.8563 64.7131 55.7119C67.3044 55.5675 69.8508 56.4332 71.8171 58.1271L68.0384 61.9058ZM82.0491 54.0669L79.2473 56.8683L78.8271 56.7736L78.8109 56.7697L75.0719 55.9281L74.1296 51.7548L81.6511 44.232L82.4902 47.9459C82.5213 48.0835 82.5908 48.2096 82.6906 48.3094C82.7904 48.4092 82.9164 48.4787 83.0541 48.5098L86.7679 49.3489L82.0491 54.0669Z" fill="url(#paint0_radial_74_470)"/>
<defs>
<radialGradient id="paint0_radial_74_470" cx="0" cy="0" r="1" gradientUnits="userSpaceOnUse" gradientTransform="translate(65.1355 68.0489) rotate(-8.12186) scale(21.581 21.5809)">
<stop stop-color="#4800FF"/>
<stop offset="1" stop-color="#FF00A7"/>
</radialGradient>
</defs>
</svg>
