<svg width="131" height="142" viewBox="0 0 131 142" fill="none" xmlns="http://www.w3.org/2000/svg">
<circle cx="65.5" cy="65.5" r="65" fill="white" stroke="#4800FF"/>
<rect x="45" y="112" width="39" height="30" rx="15" fill="#4800FF"/>
<path d="M69.6547 122.357L62.479 128.934L59.3304 125.786C59.2053 125.656 59.0558 125.553 58.8904 125.482C58.725 125.411 58.5472 125.374 58.3672 125.372C58.1872 125.371 58.0088 125.405 57.8422 125.473C57.6756 125.541 57.5243 125.642 57.397 125.769C57.2697 125.896 57.1691 126.048 57.1009 126.214C57.0328 126.381 56.9985 126.559 57.0001 126.739C57.0016 126.919 57.039 127.097 57.11 127.262C57.1811 127.428 57.2843 127.577 57.4138 127.702L61.4801 131.769C61.7271 132.016 62.0599 132.158 62.4092 132.165C62.7585 132.173 63.0972 132.045 63.3546 131.809L71.4872 124.354C71.7522 124.111 71.9097 123.773 71.9252 123.414C71.9407 123.055 71.8129 122.704 71.5699 122.439C71.3269 122.174 70.9886 122.017 70.6294 122.001C70.2702 121.986 69.9196 122.114 69.6547 122.357Z" fill="white"/>
<path d="M65.6729 47.6552C65.4671 47.6552 65.2698 47.5734 65.1243 47.4279C64.9788 47.2824 64.8971 47.0851 64.8971 46.8793V43.7759C64.8971 43.5701 64.9788 43.3727 65.1243 43.2272C65.2698 43.0817 65.4671 43 65.6729 43C65.8787 43 66.076 43.0817 66.2215 43.2272C66.367 43.3727 66.4488 43.5701 66.4488 43.7759V46.8793C66.4488 47.0851 66.367 47.2824 66.2215 47.4279C66.076 47.5734 65.8787 47.6552 65.6729 47.6552ZM57.9143 49.7345C57.778 49.7346 57.644 49.6988 57.5259 49.6307C57.4078 49.5626 57.3098 49.4646 57.2416 49.3466L55.6899 46.659C55.6382 46.5707 55.6044 46.4731 55.5905 46.3717C55.5767 46.2703 55.583 46.1672 55.6091 46.0683C55.6353 45.9693 55.6807 45.8766 55.7429 45.7953C55.8051 45.714 55.8827 45.6458 55.9713 45.5947C56.0599 45.5435 56.1578 45.5104 56.2592 45.4972C56.3607 45.484 56.4638 45.491 56.5625 45.5178C56.6613 45.5446 56.7537 45.5907 56.8346 45.6534C56.9155 45.7161 56.9831 45.7942 57.0337 45.8831L58.5854 48.5707C58.6535 48.6886 58.6893 48.8223 58.6894 48.9584C58.6894 49.0945 58.6536 49.2283 58.5856 49.3462C58.5176 49.4641 58.4198 49.5621 58.3019 49.6302C58.1841 49.6984 58.0504 49.7343 57.9143 49.7345ZM52.2342 55.4138C52.098 55.4141 51.9641 55.3782 51.8463 55.3098L49.1579 53.7581C48.9812 53.6545 48.8526 53.4852 48.8002 53.2871C48.7478 53.089 48.776 52.8783 48.8784 52.7008C48.9808 52.5234 49.1493 52.3937 49.347 52.34C49.5447 52.2863 49.7557 52.313 49.9338 52.4143L52.6221 53.966C52.77 54.0514 52.8856 54.1833 52.951 54.341C53.0163 54.4988 53.0278 54.6738 52.9836 54.8387C52.9394 55.0037 52.842 55.1495 52.7065 55.2535C52.571 55.3574 52.405 55.4138 52.2342 55.4138ZM50.1557 63.1724H47.0522C46.8465 63.1724 46.6491 63.0907 46.5036 62.9452C46.3581 62.7997 46.2764 62.6023 46.2764 62.3966C46.2764 62.1908 46.3581 61.9934 46.5036 61.8479C46.6491 61.7024 46.8465 61.6207 47.0522 61.6207H50.1557C50.3614 61.6207 50.5588 61.7024 50.7043 61.8479C50.8498 61.9934 50.9315 62.1908 50.9315 62.3966C50.9315 62.6023 50.8498 62.7997 50.7043 62.9452C50.5588 63.0907 50.3614 63.1724 50.1557 63.1724ZM49.5474 72.4828C49.3766 72.4827 49.2106 72.4264 49.0751 72.3224C48.9396 72.2184 48.8422 72.0727 48.798 71.9077C48.7538 71.7427 48.7653 71.5678 48.8306 71.41C48.896 71.2522 49.0116 71.1204 49.1595 71.035L51.8478 69.4833C51.9361 69.4315 52.0337 69.3977 52.1351 69.3839C52.2365 69.37 52.3396 69.3764 52.4385 69.4025C52.5375 69.4287 52.6302 69.4741 52.7115 69.5363C52.7928 69.5984 52.861 69.676 52.9121 69.7647C52.9633 69.8533 52.9964 69.9511 53.0096 70.0526C53.0228 70.1541 53.0158 70.2571 52.989 70.3559C52.9622 70.4546 52.9161 70.5471 52.8534 70.628C52.7907 70.7088 52.7126 70.7765 52.6237 70.8271L49.9353 72.3788C49.8175 72.4472 49.6836 72.483 49.5474 72.4828ZM81.7984 72.4828C81.6622 72.483 81.5283 72.4472 81.4105 72.3788L78.7221 70.8271C78.6332 70.7765 78.5551 70.7088 78.4924 70.628C78.4297 70.5471 78.3837 70.4546 78.3569 70.3559C78.33 70.2571 78.323 70.1541 78.3362 70.0526C78.3494 69.9511 78.3825 69.8533 78.4337 69.7647C78.4849 69.676 78.553 69.5984 78.6343 69.5363C78.7156 69.4741 78.8084 69.4287 78.9073 69.4025C79.0062 69.3764 79.1093 69.37 79.2107 69.3839C79.3121 69.3977 79.4097 69.4315 79.498 69.4833L82.1864 71.035C82.3343 71.1204 82.4499 71.2522 82.5152 71.41C82.5806 71.5678 82.592 71.7427 82.5478 71.9077C82.5036 72.0727 82.4062 72.2184 82.2707 72.3224C82.1352 72.4264 81.9692 72.4827 81.7984 72.4828ZM84.2936 63.1724H81.1902C80.9844 63.1724 80.787 63.0907 80.6415 62.9452C80.496 62.7997 80.4143 62.6023 80.4143 62.3966C80.4143 62.1908 80.496 61.9934 80.6415 61.8479C80.787 61.7024 80.9844 61.6207 81.1902 61.6207H84.2936C84.4994 61.6207 84.6967 61.7024 84.8422 61.8479C84.9877 61.9934 85.0695 62.1908 85.0695 62.3966C85.0695 62.6023 84.9877 62.7997 84.8422 62.9452C84.6967 63.0907 84.4994 63.1724 84.2936 63.1724Z" fill="url(#paint0_linear_74_495)"/>
<path d="M78.0867 61.6208H74.2074C74.2074 60.7977 73.8804 60.0084 73.2984 59.4264C72.7164 58.8443 71.927 58.5174 71.1039 58.5174C70.2809 58.5174 69.4915 58.8443 68.9095 59.4264C68.3275 60.0084 68.0005 60.7977 68.0005 61.6208H66.4488V59.1505C66.4487 59.0264 66.4188 58.9042 66.3617 58.7941C66.3046 58.684 66.222 58.5892 66.1207 58.5176C66.0194 58.446 65.9024 58.3997 65.7795 58.3827C65.6567 58.3657 65.5315 58.3783 65.4145 58.4196C65.1798 58.5071 64.9275 58.5365 64.6789 58.5053C64.4304 58.474 64.1931 58.3831 63.9874 58.2402C63.7817 58.0973 63.6136 57.9068 63.4975 57.6848C63.3814 57.4629 63.3208 57.2161 63.3208 56.9657C63.3208 56.7152 63.3814 56.4684 63.4975 56.2465C63.6136 56.0245 63.7817 55.834 63.9874 55.6911C64.1931 55.5482 64.4304 55.4573 64.6789 55.426C64.9275 55.3948 65.1798 55.4242 65.4145 55.5117C65.5315 55.553 65.6567 55.5657 65.7795 55.5486C65.9024 55.5316 66.0194 55.4853 66.1207 55.4137C66.222 55.3421 66.3046 55.2473 66.3617 55.1372C66.4188 55.0271 66.4487 54.9049 66.4488 54.7808V49.9829C66.4488 49.7771 66.367 49.5798 66.2215 49.4343C66.076 49.2888 65.8787 49.207 65.6729 49.207C62.6594 49.2097 59.7377 50.2443 57.394 52.1385C55.0503 54.0327 53.4259 56.6724 52.7911 59.6183C52.1563 62.5642 52.5494 65.6386 53.905 68.33C55.2606 71.0213 57.4969 73.1673 60.2419 74.4109V75.5863H59.466C58.8487 75.5863 58.2567 75.8316 57.8202 76.2681C57.3837 76.7046 57.1384 77.2966 57.1384 77.9139V79.4656C57.1384 80.083 57.3837 80.675 57.8202 81.1115C58.2567 81.548 58.8487 81.7932 59.466 81.7932H60.2419V84.1208C60.2431 85.1493 60.6522 86.1353 61.3795 86.8625C62.1067 87.5898 63.0927 87.9989 64.1212 88.0001H67.2246C68.2531 87.9989 69.2391 87.5898 69.9664 86.8625C70.6936 86.1353 71.1027 85.1493 71.1039 84.1208V81.7932H71.8798C72.4971 81.7932 73.0891 81.548 73.5257 81.1115C73.9622 80.675 74.2074 80.083 74.2074 79.4656V77.9139C74.2074 77.2966 73.9622 76.7046 73.5257 76.2681C73.0891 75.8316 72.4971 75.5863 71.8798 75.5863H71.1039V74.4109C73.42 73.3724 75.3854 71.6849 76.7623 69.5527C78.1393 67.4205 78.8688 64.9349 78.8626 62.3967C78.8626 62.1909 78.7808 61.9936 78.6353 61.8481C78.4898 61.7026 78.2925 61.6208 78.0867 61.6208ZM64.897 50.7844V53.8622C64.074 53.8622 63.2846 54.1892 62.7026 54.7712C62.1206 55.3532 61.7936 56.1426 61.7936 56.9657C61.7936 57.7887 62.1206 58.5781 62.7026 59.1601C63.2846 59.7421 64.074 60.0691 64.897 60.0691V61.6208H62.4267C62.3026 61.6209 62.1803 61.6507 62.0701 61.7079C61.9599 61.765 61.865 61.8477 61.7934 61.9491C61.7218 62.0505 61.6755 62.1676 61.6586 62.2906C61.6416 62.4136 61.6544 62.5388 61.6958 62.6558C61.7833 62.8905 61.8127 63.1429 61.7815 63.3914C61.7502 63.64 61.6593 63.8772 61.5164 64.083C61.3736 64.2887 61.183 64.4568 60.9611 64.5729C60.7391 64.689 60.4924 64.7496 60.2419 64.7496C59.9914 64.7496 59.7446 64.689 59.5227 64.5729C59.3007 64.4568 59.1102 64.2887 58.9673 64.083C58.8245 63.8772 58.7335 63.64 58.7023 63.3914C58.671 63.1429 58.7004 62.8905 58.7879 62.6558C58.8294 62.5388 58.8422 62.4136 58.8252 62.2906C58.8082 62.1676 58.762 62.0505 58.6904 61.9491C58.6188 61.8477 58.5239 61.765 58.4137 61.7079C58.3035 61.6507 58.1812 61.6209 58.057 61.6208H54.0606C54.2521 58.8099 55.4553 56.1635 57.4475 54.1713C59.4397 52.1791 62.0861 50.9759 64.897 50.7844ZM61.3087 73.1812C59.2797 72.3665 57.5227 70.9943 56.2407 69.2232C54.9586 67.4522 54.2039 65.3545 54.0637 63.1725H57.1384C57.1384 63.9956 57.4654 64.785 58.0474 65.367C58.6294 65.949 59.4188 66.276 60.2419 66.276C61.065 66.276 61.8543 65.949 62.4363 65.367C63.0184 64.785 63.3453 63.9956 63.3453 63.1725H64.897V65.6429C64.8972 65.7669 64.927 65.8891 64.9841 65.9993C65.0412 66.1094 65.1238 66.2042 65.2251 66.2758C65.3264 66.3474 65.4434 66.3936 65.5663 66.4107C65.6892 66.4277 65.8143 66.4151 65.9313 66.3738C66.166 66.2863 66.4184 66.2569 66.6669 66.2881C66.9154 66.3194 67.1527 66.4103 67.3584 66.5532C67.5641 66.696 67.7322 66.8866 67.8483 67.1085C67.9644 67.3305 68.0251 67.5772 68.0251 67.8277C68.0251 68.0782 67.9644 68.325 67.8483 68.5469C67.7322 68.7689 67.5641 68.9594 67.3584 69.1023C67.1527 69.2451 66.9154 69.3361 66.6669 69.3673C66.4184 69.3986 66.166 69.3692 65.9313 69.2817C65.8143 69.2404 65.6892 69.2277 65.5663 69.2448C65.4434 69.2618 65.3264 69.3081 65.2251 69.3796C65.1238 69.4512 65.0412 69.5461 64.9841 69.6562C64.927 69.7663 64.8972 69.8885 64.897 70.0125V75.5863H61.7936V73.8996C61.7934 73.7452 61.7472 73.5943 61.6608 73.4664C61.5744 73.3384 61.4518 73.2391 61.3087 73.1812ZM69.5522 84.1208C69.5522 84.7381 69.307 85.3302 68.8705 85.7667C68.434 86.2032 67.8419 86.4484 67.2246 86.4484H64.1212C63.5039 86.4484 62.9118 86.2032 62.4753 85.7667C62.0388 85.3302 61.7936 84.7381 61.7936 84.1208V81.7932H63.3453V84.1208C63.3453 84.3266 63.4271 84.5239 63.5726 84.6694C63.7181 84.8149 63.9154 84.8967 64.1212 84.8967C64.327 84.8967 64.5243 84.8149 64.6698 84.6694C64.8153 84.5239 64.897 84.3266 64.897 84.1208V81.7932H66.4488V84.1208C66.4488 84.3266 66.5305 84.5239 66.676 84.6694C66.8215 84.8149 67.0189 84.8967 67.2246 84.8967C67.4304 84.8967 67.6277 84.8149 67.7733 84.6694C67.9188 84.5239 68.0005 84.3266 68.0005 84.1208V81.7932H69.5522V84.1208ZM71.8798 77.1381C72.0856 77.1381 72.2829 77.2198 72.4284 77.3653C72.5739 77.5108 72.6557 77.7082 72.6557 77.9139V79.4656C72.6557 79.6714 72.5739 79.8688 72.4284 80.0143C72.2829 80.1598 72.0856 80.2415 71.8798 80.2415H59.466C59.2602 80.2415 59.0629 80.1598 58.9174 80.0143C58.7719 79.8688 58.6902 79.6714 58.6902 79.4656V77.9139C58.6902 77.7082 58.7719 77.5108 58.9174 77.3653C59.0629 77.2198 59.2602 77.1381 59.466 77.1381H71.8798ZM70.0371 73.1812C69.8939 73.2391 69.7712 73.3385 69.6848 73.4667C69.5984 73.5948 69.5522 73.7458 69.5522 73.9004V75.5863H66.4488V70.9312C67.2719 70.9312 68.0612 70.6042 68.6432 70.0222C69.2253 69.4402 69.5522 68.6508 69.5522 67.8277C69.5522 67.0046 69.2253 66.2153 68.6432 65.6333C68.0612 65.0512 67.2719 64.7243 66.4488 64.7243V63.1725H68.9191C69.0432 63.1725 69.1656 63.1426 69.2758 63.0855C69.386 63.0284 69.4808 62.9456 69.5524 62.8442C69.6241 62.7428 69.6703 62.6257 69.6873 62.5028C69.7042 62.3798 69.6914 62.2545 69.65 62.1375C69.5625 61.9028 69.5331 61.6505 69.5643 61.4019C69.5956 61.1534 69.6865 60.9161 69.8294 60.7104C69.9723 60.5047 70.1628 60.3366 70.3848 60.2205C70.6067 60.1044 70.8535 60.0438 71.1039 60.0438C71.3544 60.0438 71.6012 60.1044 71.8231 60.2205C72.0451 60.3366 72.2356 60.5047 72.3785 60.7104C72.5214 60.9161 72.6123 61.1534 72.6436 61.4019C72.6748 61.6505 72.6454 61.9028 72.5579 62.1375C72.5164 62.2545 72.5037 62.3798 72.5206 62.5028C72.5376 62.6257 72.5838 62.7428 72.6554 62.8442C72.727 62.9456 72.8219 63.0284 72.9321 63.0855C73.0423 63.1426 73.1646 63.1725 73.2888 63.1725H77.2852C77.1444 65.3547 76.3891 67.4525 75.1065 69.2235C73.8239 70.9946 72.0665 72.3666 70.0371 73.1812Z" fill="url(#paint1_linear_74_495)"/>
<path d="M71.8793 43C71.6735 43 71.4762 43.0817 71.3307 43.2272C71.1852 43.3727 71.1034 43.5701 71.1034 43.7759V47.6552C70.2804 47.6552 69.491 47.9821 68.909 48.5642C68.327 49.1462 68 49.9355 68 50.7586C68 51.5817 68.327 52.3711 68.909 52.9531C69.491 53.5351 70.2804 53.8621 71.1034 53.8621V56.1897C71.1034 56.3954 71.1852 56.5928 71.3307 56.7383C71.4762 56.8838 71.6735 56.9655 71.8793 56.9655H75.1255C75.2496 56.9654 75.3719 56.9356 75.4822 56.8785C75.5924 56.8213 75.6872 56.7386 75.7588 56.6372C75.8305 56.5358 75.8767 56.4187 75.8936 56.2957C75.9106 56.1728 75.8978 56.0475 75.8564 55.9305C75.7689 55.6958 75.7395 55.4434 75.7707 55.1949C75.802 54.9464 75.8929 54.7091 76.0358 54.5034C76.1787 54.2976 76.3692 54.1295 76.5912 54.0135C76.8131 53.8974 77.0599 53.8367 77.3103 53.8367C77.5608 53.8367 77.8076 53.8974 78.0295 54.0135C78.2515 54.1295 78.442 54.2976 78.5849 54.5034C78.7278 54.7091 78.8187 54.9464 78.85 55.1949C78.8812 55.4434 78.8518 55.6958 78.7643 55.9305C78.7228 56.0475 78.7101 56.1728 78.727 56.2957C78.744 56.4187 78.7902 56.5358 78.8618 56.6372C78.9334 56.7386 79.0283 56.8213 79.1385 56.8785C79.2487 56.9356 79.371 56.9654 79.4952 56.9655H84.2931C84.4989 56.9655 84.6962 56.8838 84.8417 56.7383C84.9872 56.5928 85.069 56.3954 85.069 56.1897C85.0651 52.6927 83.6742 49.3402 81.2015 46.8675C78.7288 44.3948 75.3762 43.0039 71.8793 43ZM80.4138 55.4138C80.4138 54.5907 80.0868 53.8013 79.5048 53.2193C78.9228 52.6373 78.1334 52.3103 77.3103 52.3103C76.4873 52.3103 75.6979 52.6373 75.1159 53.2193C74.5339 53.8013 74.2069 54.5907 74.2069 55.4138H72.6552V52.9434C72.6551 52.8194 72.6252 52.6972 72.5681 52.5871C72.511 52.477 72.4284 52.3821 72.3271 52.3105C72.2258 52.239 72.1088 52.1927 71.9859 52.1757C71.8631 52.1586 71.7379 52.1713 71.6209 52.2126C71.3862 52.3001 71.1339 52.3295 70.8853 52.2982C70.6368 52.267 70.3995 52.176 70.1938 52.0332C69.9881 51.8903 69.82 51.6998 69.7039 51.4778C69.5878 51.2559 69.5272 51.0091 69.5272 50.7586C69.5272 50.5081 69.5878 50.2614 69.7039 50.0394C69.82 49.8175 69.9881 49.6269 70.1938 49.4841C70.3995 49.3412 70.6368 49.2503 70.8853 49.219C71.1339 49.1878 71.3862 49.2172 71.6209 49.3047C71.7379 49.346 71.8631 49.3586 71.9859 49.3416C72.1088 49.3245 72.2258 49.2783 72.3271 49.2067C72.4284 49.1351 72.511 49.0403 72.5681 48.9302C72.6252 48.82 72.6551 48.6978 72.6552 48.5738V44.5773C75.4661 44.7689 78.1125 45.972 80.1047 47.9643C82.0969 49.9565 83.3001 52.6029 83.4916 55.4138H80.4138Z" fill="url(#paint2_linear_74_495)"/>
<defs>
<linearGradient id="paint0_linear_74_495" x1="68" y1="70.8448" x2="65.912" y2="52.065" gradientUnits="userSpaceOnUse">
<stop stop-color="#4800FF"/>
<stop offset="1" stop-color="#FF00A7"/>
</linearGradient>
<linearGradient id="paint1_linear_74_495" x1="67.2606" y1="85.8449" x2="62.1147" y2="61.9368" gradientUnits="userSpaceOnUse">
<stop stop-color="#4800FF"/>
<stop offset="1" stop-color="#FF00A7"/>
</linearGradient>
<linearGradient id="paint2_linear_74_495" x1="77.5584" y1="56.1896" x2="76.4957" y2="47.3112" gradientUnits="userSpaceOnUse">
<stop stop-color="#4800FF"/>
<stop offset="1" stop-color="#FF00A7"/>
</linearGradient>
</defs>
</svg>
