<svg width="12" height="10" viewBox="0 0 12 10" fill="none" xmlns="http://www.w3.org/2000/svg">
<path fill-rule="evenodd" clip-rule="evenodd" d="M0.963768 0.534134L4.5702 4.14213C5.35678 4.92719 6.64255 4.92787 7.42977 4.14213L11.0362 0.534134C11.0447 0.525656 11.0513 0.515406 11.0554 0.504111C11.0595 0.492815 11.0611 0.480751 11.0601 0.468773C11.059 0.456795 11.0553 0.445197 11.0493 0.434801C11.0432 0.424405 11.035 0.415466 11.0251 0.408618C10.6573 0.152085 10.2097 0 9.72762 0H2.27238C1.79026 0 1.34271 0.152111 0.974875 0.408618C0.964991 0.415466 0.956734 0.424405 0.950691 0.434801C0.944648 0.445197 0.940966 0.456795 0.939906 0.468773C0.938846 0.480751 0.940434 0.492815 0.944558 0.504111C0.948682 0.515406 0.95524 0.525656 0.963768 0.534134ZM7.235e-07 2.27235C-0.000292915 1.90576 0.0887991 1.54462 0.259559 1.22022C0.26552 1.20879 0.274095 1.19892 0.284588 1.19142C0.295081 1.18392 0.307195 1.179 0.319945 1.17707C0.332696 1.17513 0.345724 1.17623 0.357969 1.18028C0.370215 1.18432 0.381333 1.1912 0.39042 1.20035L3.9512 4.76113C5.07878 5.89036 6.92054 5.89101 8.0488 4.76113L11.6096 1.20035C11.6187 1.1912 11.6298 1.18432 11.642 1.18028C11.6543 1.17623 11.6673 1.17513 11.6801 1.17707C11.6928 1.179 11.7049 1.18392 11.7154 1.19142C11.7259 1.19892 11.7345 1.20879 11.7404 1.22022C11.9112 1.54462 12.0003 1.90576 12 2.27235V7.01602C12 8.26995 10.98 9.28839 9.72762 9.28839H2.27238C1.02003 9.28839 7.235e-07 8.26995 7.235e-07 7.01602V2.27235Z" fill="#FF00A7"/>
</svg>
