<svg width="12" height="17" viewBox="0 0 12 17" fill="none" xmlns="http://www.w3.org/2000/svg">
<path d="M6 0.216309C2.69158 0.216309 0 2.90789 0 6.21628C0 10.3221 5.36941 16.3497 5.59802 16.6042C5.81275 16.8434 6.18764 16.843 6.40198 16.6042C6.63059 16.3497 12 10.3221 12 6.21628C11.9999 2.90789 9.30839 0.216309 6 0.216309ZM6 9.23503C4.33545 9.23503 2.98128 7.88082 2.98128 6.21628C2.98128 4.55173 4.33549 3.19756 6 3.19756C7.66452 3.19756 9.01869 4.55176 9.01869 6.21631C9.01869 7.88086 7.66452 9.23503 6 9.23503Z" fill="white"/>
</svg>
