<svg width="76" height="76" viewBox="0 0 76 76" fill="none" xmlns="http://www.w3.org/2000/svg">
<rect x="0.42115" y="0.278571" width="75.1571" height="75.1571" rx="37.5786" stroke="white" stroke-width="0.557143"/>
<g clip-path="url(#clip0_417_4486)">
<path d="M29.8959 47.7323C29.4056 47.7608 28.9233 47.5978 28.5509 47.2776C27.8164 46.5388 27.8164 45.3454 28.5509 44.6065L44.6344 28.5229C45.3984 27.808 46.5972 27.8478 47.3121 28.6117C47.9585 29.3026 47.9962 30.3644 47.4003 31.0993L31.222 47.2776C30.8543 47.5932 30.3798 47.7559 29.8959 47.7323Z" fill="#FF00A7"/>
<path d="M45.9609 47.7323C45.464 47.7302 44.9877 47.5329 44.6348 47.183L28.5512 31.0993C27.8707 30.3047 27.9632 29.1087 28.7579 28.4282C29.4672 27.8208 30.5132 27.8208 31.2224 28.4282L47.4007 44.5118C48.1644 45.2269 48.2039 46.4257 47.4889 47.1895C47.4604 47.2199 47.431 47.2492 47.4007 47.2777C47.2047 47.4481 46.9757 47.5764 46.7281 47.6546C46.4804 47.7328 46.2193 47.7593 45.9609 47.7323Z" fill="#FF00A7"/>
</g>
<defs>
<clipPath id="clip0_417_4486">
<rect width="20" height="20" fill="white" transform="translate(28 27.8574)"/>
</clipPath>
</defs>
</svg>
