<svg width="24" height="33" viewBox="0 0 24 33" fill="none" xmlns="http://www.w3.org/2000/svg">
<path d="M2.76923 32.2538H21.2308C22.7578 32.2538 24 31.0116 24 29.4846V9.97686H17.5385C16.0114 9.97686 14.7692 8.73465 14.7692 7.20763V0.746094H2.76923C1.24222 0.746094 0 1.98831 0 3.51532V29.4846C0 31.0116 1.24222 32.2538 2.76923 32.2538ZM6.46154 13.7307H17.5385C18.0487 13.7307 18.4615 14.1436 18.4615 14.6538C18.4615 15.164 18.0487 15.5769 17.5385 15.5769H6.46154C5.95132 15.5769 5.53846 15.164 5.53846 14.6538C5.53846 14.1436 5.95132 13.7307 6.46154 13.7307ZM6.46154 17.423H17.5385C18.0487 17.423 18.4615 17.8359 18.4615 18.3461C18.4615 18.8563 18.0487 19.2692 17.5385 19.2692H6.46154C5.95132 19.2692 5.53846 18.8563 5.53846 18.3461C5.53846 17.8359 5.95132 17.423 6.46154 17.423ZM6.46154 21.1153H17.5385C18.0487 21.1153 18.4615 21.5282 18.4615 22.0384C18.4615 22.5486 18.0487 22.9615 17.5385 22.9615H6.46154C5.95132 22.9615 5.53846 22.5486 5.53846 22.0384C5.53846 21.5282 5.95132 21.1153 6.46154 21.1153ZM6.46154 24.8076H13.8462C14.3564 24.8076 14.7692 25.2205 14.7692 25.7307C14.7692 26.2409 14.3564 26.6538 13.8462 26.6538H6.46154C5.95132 26.6538 5.53846 26.2409 5.53846 25.7307C5.53846 25.2205 5.95132 24.8076 6.46154 24.8076Z" fill="#7D79A7"/>
<path d="M17.5383 8.13086H23.459L16.6152 1.28711V7.20779C16.6152 7.71708 17.029 8.13086 17.5383 8.13086Z" fill="#7D79A7"/>
</svg>
