<svg width="171" height="110" viewBox="0 0 171 110" fill="none" xmlns="http://www.w3.org/2000/svg">
<path d="M9.95392 65.7045C6.58854 63.7617 5.79335 60.7836 7.9891 58.3459L9.62847 56.5259C10.2125 55.8775 10.9875 55.2928 11.9188 54.7979L78.1563 19.5978C82.3546 17.3667 88.8219 17.3805 92.9917 19.6293L160.152 55.8503C160.857 56.2307 161.472 56.6635 161.98 57.1374L162.828 57.928C165.493 60.4129 164.846 63.6296 161.267 65.6961L93.3167 104.924C89.0565 107.383 82.1493 107.383 77.8891 104.924L9.95392 65.7045Z" fill="#060043"/>
<path d="M9.95392 65.7045C6.58854 63.7617 5.79335 60.7836 7.9891 58.3459L9.62847 56.5259C10.2125 55.8775 10.9875 55.2928 11.9188 54.7979L78.1563 19.5978C82.3546 17.3667 88.8219 17.3805 92.9917 19.6293L160.152 55.8503C160.857 56.2307 161.472 56.6635 161.98 57.1374L162.828 57.928C165.493 60.4129 164.846 63.6296 161.267 65.6961L93.3167 104.924C89.0565 107.383 82.1493 107.383 77.8891 104.924L9.95392 65.7045Z" fill="black" fill-opacity="0.2"/>
<path d="M9.95392 65.7045C6.58854 63.7617 5.79335 60.7836 7.9891 58.3459L9.62847 56.5259C10.2125 55.8775 10.9875 55.2928 11.9188 54.7979L78.1563 19.5978C82.3546 17.3667 88.8219 17.3805 92.9917 19.6293L160.152 55.8503C160.857 56.2307 161.472 56.6635 161.98 57.1374L162.828 57.928C165.493 60.4129 164.846 63.6296 161.267 65.6961L93.3167 104.924C89.0565 107.383 82.1493 107.383 77.8891 104.924L9.95392 65.7045Z" stroke="#060043" stroke-width="1.18759"/>
<path d="M9.95392 65.7045C6.58854 63.7617 5.79335 60.7836 7.9891 58.3459L9.62847 56.5259C10.2125 55.8775 10.9875 55.2928 11.9188 54.7979L78.1563 19.5978C82.3546 17.3667 88.8219 17.3805 92.9917 19.6293L160.152 55.8503C160.857 56.2307 161.472 56.6635 161.98 57.1374L162.828 57.928C165.493 60.4129 164.846 63.6296 161.267 65.6961L93.3167 104.924C89.0565 107.383 82.1493 107.383 77.8891 104.924L9.95392 65.7045Z" stroke="black" stroke-opacity="0.2" stroke-width="1.18759"/>
<rect x="1.02851" width="93.7192" height="93.7192" rx="8.90694" transform="matrix(0.866044 -0.499967 0.866044 0.499967 3.54598 59.5626)" fill="white"/>
<rect x="1.02851" width="93.7192" height="93.7192" rx="8.90694" transform="matrix(0.866044 -0.499967 0.866044 0.499967 3.54598 59.5626)" stroke="#060043" stroke-width="1.18759"/>
<rect x="1.02851" width="93.7192" height="93.7192" rx="8.90694" transform="matrix(0.866044 -0.499967 0.866044 0.499967 3.54598 59.5626)" stroke="black" stroke-opacity="0.2" stroke-width="1.18759"/>
<path d="M9.95392 55.0161C6.58854 53.0732 5.79335 50.0951 7.9891 47.6574L9.62847 45.8374C10.2125 45.189 10.9875 44.6043 11.9188 44.1094L78.1563 8.90935C82.3546 6.67827 88.8219 6.69201 92.9917 8.94085L160.152 45.1618C160.857 45.5422 161.472 45.9751 161.98 46.4489L162.828 47.2396C165.493 49.7244 164.846 52.9411 161.267 55.0076L93.3167 94.2351C89.0565 96.6945 82.1493 96.6945 77.8891 94.2351L9.95392 55.0161Z" fill="#060043"/>
<path d="M9.95392 55.0161C6.58854 53.0732 5.79335 50.0951 7.9891 47.6574L9.62847 45.8374C10.2125 45.189 10.9875 44.6043 11.9188 44.1094L78.1563 8.90935C82.3546 6.67827 88.8219 6.69201 92.9917 8.94085L160.152 45.1618C160.857 45.5422 161.472 45.9751 161.98 46.4489L162.828 47.2396C165.493 49.7244 164.846 52.9411 161.267 55.0076L93.3167 94.2351C89.0565 96.6945 82.1493 96.6945 77.8891 94.2351L9.95392 55.0161Z" fill="black" fill-opacity="0.2"/>
<path d="M9.95392 55.0161C6.58854 53.0732 5.79335 50.0951 7.9891 47.6574L9.62847 45.8374C10.2125 45.189 10.9875 44.6043 11.9188 44.1094L78.1563 8.90935C82.3546 6.67827 88.8219 6.69201 92.9917 8.94085L160.152 45.1618C160.857 45.5422 161.472 45.9751 161.98 46.4489L162.828 47.2396C165.493 49.7244 164.846 52.9411 161.267 55.0076L93.3167 94.2351C89.0565 96.6945 82.1493 96.6945 77.8891 94.2351L9.95392 55.0161Z" stroke="#060043" stroke-width="1.18759"/>
<path d="M9.95392 55.0161C6.58854 53.0732 5.79335 50.0951 7.9891 47.6574L9.62847 45.8374C10.2125 45.189 10.9875 44.6043 11.9188 44.1094L78.1563 8.90935C82.3546 6.67827 88.8219 6.69201 92.9917 8.94085L160.152 45.1618C160.857 45.5422 161.472 45.9751 161.98 46.4489L162.828 47.2396C165.493 49.7244 164.846 52.9411 161.267 55.0076L93.3167 94.2351C89.0565 96.6945 82.1493 96.6945 77.8891 94.2351L9.95392 55.0161Z" stroke="black" stroke-opacity="0.2" stroke-width="1.18759"/>
<rect x="1.02851" width="93.7192" height="93.7192" rx="8.90694" transform="matrix(0.866044 -0.499967 0.866044 0.499967 3.54598 48.8741)" fill="#060043"/>
<rect x="1.02851" width="93.7192" height="93.7192" rx="8.90694" transform="matrix(0.866044 -0.499967 0.866044 0.499967 3.54598 48.8741)" fill="black" fill-opacity="0.2"/>
<rect x="1.02851" width="93.7192" height="93.7192" rx="8.90694" transform="matrix(0.866044 -0.499967 0.866044 0.499967 3.54598 48.8741)" stroke="#060043" stroke-width="1.18759"/>
<rect x="1.02851" width="93.7192" height="93.7192" rx="8.90694" transform="matrix(0.866044 -0.499967 0.866044 0.499967 3.54598 48.8741)" stroke="black" stroke-opacity="0.2" stroke-width="1.18759"/>
<g clip-path="url(#clip0_139_621)">
<path d="M105.865 63.6636L98.5962 62.6942C98.4183 62.6699 98.2551 62.582 98.1369 62.4468C98.0186 62.3117 97.9532 62.1383 97.9527 61.9587V60.4438C100.184 58.9845 101.664 56.4683 101.664 53.6092V47.6712C101.664 43.9882 98.6675 40.991 94.9837 40.991H92.0148C88.331 40.991 85.3346 43.9882 85.3346 47.6712V53.6092C85.3346 56.4683 86.8146 58.9845 89.0458 60.4438V61.9587C89.0458 62.3291 88.7689 62.6453 88.4023 62.6942L81.1335 63.6636C80.243 63.7847 79.4263 64.2239 78.8343 64.8999C78.2422 65.576 77.9147 66.4435 77.9121 67.3422V71.423C77.9121 71.6199 77.9903 71.8087 78.1295 71.9479C78.2687 72.0871 78.4575 72.1653 78.6544 72.1653H108.344C108.541 72.1653 108.73 72.0871 108.869 71.9479C109.008 71.8087 109.086 71.6199 109.086 71.423V67.3422C109.084 66.4435 108.756 65.576 108.164 64.8999C107.572 64.2239 106.756 63.7847 105.865 63.6636ZM86.819 53.6092V47.6712C86.819 44.8061 89.1504 42.4755 92.0148 42.4755H94.9837C97.8481 42.4755 100.179 44.8061 100.179 47.6712V53.6092C100.179 57.2922 97.183 60.2894 93.4992 60.2894C89.8155 60.2894 86.819 57.2922 86.819 53.6092ZM107.602 70.6808H79.3966V67.3422C79.3981 66.8029 79.5946 66.2824 79.9499 65.8767C80.3051 65.471 80.7951 65.2075 81.3294 65.1347L88.5982 64.1654C89.1325 64.0926 89.6225 63.8291 89.9777 63.4234C90.333 63.0177 90.5295 62.4972 90.531 61.9579V61.206C91.4529 61.5675 92.4519 61.7731 93.5 61.7731C94.548 61.7731 95.5471 61.5675 96.469 61.206V61.9579C96.4705 62.4972 96.667 63.0177 97.0222 63.4234C97.3775 63.8291 97.8675 64.0926 98.4018 64.1654L105.671 65.1347C106.205 65.2075 106.695 65.471 107.05 65.8767C107.405 66.2824 107.602 66.8029 107.603 67.3422V70.6808H107.602ZM89.2514 35.701L88.7192 37.7956C88.6876 37.9203 88.6889 38.051 88.7231 38.175C88.7572 38.2989 88.8229 38.4119 88.9138 38.5028C89.0048 38.5937 89.1177 38.6595 89.2417 38.6936C89.3657 38.7277 89.4964 38.7291 89.621 38.6975L91.5449 38.2083C92.774 39.0565 94.2327 39.5094 95.726 39.5065C99.8187 39.5065 103.148 36.1768 103.148 32.0841C103.148 27.9913 99.8187 24.6616 95.726 24.6616C91.6332 24.6616 88.3035 27.9913 88.3035 32.0841C88.3035 33.3489 88.6301 34.5921 89.2514 35.701ZM95.726 26.1461C99 26.1461 101.664 28.81 101.664 32.0841C101.664 35.3581 99 38.022 95.726 38.022C94.4324 38.0238 93.1744 37.5988 92.1469 36.8129C92.058 36.7458 91.9551 36.6995 91.8459 36.6774C91.7367 36.6553 91.624 36.658 91.516 36.6852L90.4664 36.9525L90.7656 35.7715C90.7901 35.6752 90.795 35.5748 90.78 35.4765C90.7649 35.3782 90.7302 35.2839 90.678 35.1993C90.0981 34.2641 89.7902 33.1859 89.7888 32.0856C89.7888 28.8115 92.4527 26.1476 95.7267 26.1476L95.726 26.1461Z" fill="white"/>
<path d="M95.7247 32.8263C96.1346 32.8263 96.4669 32.494 96.4669 32.084C96.4669 31.6741 96.1346 31.3418 95.7247 31.3418C95.3147 31.3418 94.9824 31.6741 94.9824 32.084C94.9824 32.494 95.3147 32.8263 95.7247 32.8263Z" fill="white"/>
<path d="M92.7559 32.8263C93.1658 32.8263 93.4982 32.494 93.4982 32.084C93.4982 31.6741 93.1658 31.3418 92.7559 31.3418C92.346 31.3418 92.0137 31.6741 92.0137 32.084C92.0137 32.494 92.346 32.8263 92.7559 32.8263Z" fill="white"/>
<path d="M98.6954 32.8263C99.1053 32.8263 99.4376 32.494 99.4376 32.084C99.4376 31.6741 99.1053 31.3418 98.6954 31.3418C98.2854 31.3418 97.9531 31.6741 97.9531 32.084C97.9531 32.494 98.2854 32.8263 98.6954 32.8263Z" fill="white"/>
<path d="M84.2873 56.5781C84.2873 56.3813 84.2091 56.1925 84.0699 56.0533C83.9307 55.9141 83.7419 55.8359 83.5451 55.8359H63.8088C63.399 55.8359 63.0665 55.5026 63.0665 55.0937V52.8669H83.1071C83.304 52.8669 83.4928 52.7887 83.632 52.6495C83.7712 52.5103 83.8494 52.3215 83.8494 52.1247C83.8494 51.9278 83.7712 51.739 83.632 51.5998C83.4928 51.4606 83.304 51.3824 83.1071 51.3824H71.2312V47.404C71.2312 47.0514 71.4821 46.7449 71.828 46.6759L76.8641 45.6694C77.3606 45.5686 77.808 45.3018 78.1326 44.9129C78.4572 44.5239 78.6397 44.036 78.65 43.5295C79.4158 43.8384 80.2376 43.9841 81.063 43.957C84.2361 43.862 86.8184 41.1016 86.8184 37.8038V34.3101C86.8184 31.445 84.487 29.1143 81.6226 29.1143H80.1381C77.2738 29.1143 74.9424 31.445 74.9424 34.3101V38.0213C74.9424 39.6416 75.5823 41.1543 76.7453 42.2833C76.8819 42.4154 77.0237 42.5401 77.1692 42.6573V43.4849C77.1692 43.8375 76.9183 44.1441 76.5724 44.2131L71.5363 45.2196C71.0321 45.3217 70.5786 45.5948 70.2525 45.9926C69.9264 46.3905 69.7478 46.8888 69.7467 47.4033V51.3817H66.7777V27.6306C66.7777 26.8119 67.4435 26.1461 68.2622 26.1461H89.0451C89.2419 26.1461 89.4307 26.0679 89.5699 25.9287C89.7091 25.7895 89.7873 25.6007 89.7873 25.4039C89.7873 25.207 89.7091 25.0182 89.5699 24.879C89.4307 24.7398 89.2419 24.6616 89.0451 24.6616H68.2622C66.6248 24.6616 65.2933 25.9932 65.2933 27.6306V51.3824H62.3243C62.1274 51.3824 61.9386 51.4606 61.7994 51.5998C61.6602 51.739 61.582 51.9278 61.582 52.1247V55.0937C61.582 56.3213 62.5811 57.3204 63.8088 57.3204H83.5451C83.7419 57.3204 83.9307 57.2422 84.0699 57.103C84.2091 56.9638 84.2873 56.775 84.2873 56.5781ZM76.4269 38.022V34.3108C76.4269 32.2644 78.0918 30.5996 80.1381 30.5996H81.6226C83.669 30.5996 85.3339 32.2644 85.3339 34.3108V37.8045C85.3339 40.3081 83.3981 42.402 81.0185 42.474C80.4219 42.494 79.8275 42.3931 79.271 42.1774C78.7145 41.9617 78.2073 41.6356 77.78 41.2189C77.3505 40.805 77.0092 40.3085 76.7768 39.7592C76.5444 39.2099 76.4256 38.6192 76.4277 38.0228L76.4269 38.022Z" fill="white"/>
</g>
<defs>
<clipPath id="clip0_139_621">
<rect width="47.5037" height="47.5037" fill="white" transform="translate(61.582 24.6616)"/>
</clipPath>
</defs>
</svg>
