<svg width="172" height="110" viewBox="0 0 172 110" fill="none" xmlns="http://www.w3.org/2000/svg">
<path d="M10.3543 65.7045C6.98893 63.7617 6.19375 60.7836 8.38949 58.3459L10.0289 56.5259C10.6129 55.8775 11.3879 55.2928 12.3192 54.7979L78.5567 19.5978C82.755 17.3667 89.2223 17.3805 93.3921 19.6293L160.552 55.8503C161.258 56.2307 161.873 56.6635 162.381 57.1374L163.229 57.928C165.893 60.4129 165.247 63.6296 161.667 65.6961L93.7171 104.924C89.4569 107.383 82.5497 107.383 78.2895 104.924L10.3543 65.7045Z" fill="#8F00FF" stroke="#8F00FF" stroke-width="1.18759"/>
<rect x="1.02851" width="93.7192" height="93.7192" rx="8.90694" transform="matrix(0.866044 -0.499967 0.866044 0.499967 3.94637 59.5626)" fill="white" stroke="#8F00FF" stroke-width="1.18759"/>
<path d="M10.3543 55.0166C6.98893 53.0737 6.19375 50.0956 8.38949 47.6579L10.0289 45.8379C10.6129 45.1895 11.3879 44.6048 12.3192 44.1099L78.5567 8.90984C82.755 6.67876 89.2223 6.6925 93.3921 8.94134L160.552 45.1623C161.258 45.5427 161.873 45.9756 162.381 46.4494L163.229 47.2401C165.893 49.7249 165.247 52.9416 161.667 55.0081L93.7171 94.2355C89.4569 96.695 82.5497 96.695 78.2895 94.2355L10.3543 55.0166Z" fill="#8F00FF" stroke="#8F00FF" stroke-width="1.18759"/>
<rect x="1.02851" width="93.7192" height="93.7192" rx="8.90694" transform="matrix(0.866044 -0.499967 0.866044 0.499967 3.94637 48.8746)" fill="#8F00FF" stroke="#8F00FF" stroke-width="1.18759"/>
<path fill-rule="evenodd" clip-rule="evenodd" d="M63.9493 69.8267H84.2126C84.4193 69.8267 84.6175 69.7446 84.7636 69.5985C84.9098 69.4523 84.9919 69.2541 84.9919 69.0474C84.9919 68.8407 84.9098 68.6424 84.7636 68.4963C84.6175 68.3501 84.4193 68.268 84.2126 68.268H64.7286V32.4176H70.1841C70.3908 32.4176 70.5891 32.3355 70.7352 32.1893C70.8814 32.0432 70.9635 31.8449 70.9635 31.6382V26.1827H97.4616V37.8731C97.4616 38.0798 97.5437 38.278 97.6899 38.4242C97.8361 38.5703 98.0343 38.6524 98.241 38.6524C98.4477 38.6524 98.6459 38.5703 98.7921 38.4242C98.9382 38.278 99.0203 38.0798 99.0203 37.8731V25.4034C99.0203 25.1967 98.9382 24.9985 98.7921 24.8523C98.6459 24.7061 98.4477 24.624 98.241 24.624H70.1841C70.0817 24.6238 69.9803 24.6438 69.8856 24.6829C69.7909 24.7219 69.7049 24.7793 69.6324 24.8516L63.3975 31.0865C63.3252 31.159 63.2678 31.245 63.2288 31.3397C63.1897 31.4344 63.1697 31.5358 63.1699 31.6382V69.0474C63.1699 69.2541 63.252 69.4523 63.3982 69.5985C63.5443 69.7446 63.7426 69.8267 63.9493 69.8267ZM65.8306 30.8589L69.4048 27.2847V30.8589H65.8306Z" fill="white"/>
<path fill-rule="evenodd" clip-rule="evenodd" d="M68.6251 46.4461H87.3296C87.5363 46.4461 87.7346 46.364 87.8807 46.2178C88.0269 46.0717 88.109 45.8735 88.109 45.6668C88.109 45.4601 88.0269 45.2618 87.8807 45.1157C87.7346 44.9695 87.5363 44.8874 87.3296 44.8874H68.6251C68.4184 44.8874 68.2201 44.9695 68.074 45.1157C67.9278 45.2618 67.8457 45.4601 67.8457 45.6668C67.8457 45.8735 67.9278 46.0717 68.074 46.2178C68.2201 46.364 68.4184 46.4461 68.6251 46.4461ZM92.7851 47.2255C92.7872 48.1045 93.0006 48.9701 93.4076 49.7492C93.8145 50.5284 94.403 51.1982 95.1232 51.7021V60.4745H92.7851C92.5784 60.4745 92.3802 60.5566 92.234 60.7028C92.0879 60.849 92.0058 61.0472 92.0058 61.2539C92.0058 61.4606 92.0879 61.6588 92.234 61.805C92.3802 61.9511 92.5784 62.0333 92.7851 62.0333H93.5645V63.592H92.0058C91.4938 63.5905 90.9866 63.6906 90.5136 63.8864C90.0406 64.0823 89.6111 64.37 89.25 64.7329C88.5218 65.4656 88.1118 66.4558 88.109 67.4887V69.0475C88.109 69.2542 88.1911 69.4524 88.3373 69.5986C88.4834 69.7447 88.6816 69.8268 88.8883 69.8268H95.1232C95.3299 69.8268 95.5281 69.7447 95.6743 69.5986C95.8204 69.4524 95.9026 69.2542 95.9026 69.0475C95.9026 68.8408 95.8204 68.6425 95.6743 68.4964C95.5281 68.3502 95.3299 68.2681 95.1232 68.2681H89.6677V67.4887C89.6677 66.8687 89.914 66.274 90.3525 65.8355C90.791 65.397 91.3857 65.1507 92.0058 65.1507H104.475C104.783 65.1502 105.087 65.2105 105.37 65.3283C105.654 65.446 105.911 65.6187 106.128 65.8365C106.565 66.2755 106.811 66.8692 106.814 67.4887V68.2681H101.358C101.151 68.2681 100.953 68.3502 100.807 68.4964C100.661 68.6425 100.579 68.8408 100.579 69.0475C100.579 69.2542 100.661 69.4524 100.807 69.5986C100.953 69.7447 101.151 69.8268 101.358 69.8268H107.593C107.8 69.8268 107.998 69.7447 108.144 69.5986C108.29 69.4524 108.372 69.2542 108.372 69.0475V67.4887C108.37 66.4557 107.96 65.4654 107.231 64.7329C106.87 64.37 106.441 64.0823 105.968 63.8864C105.495 63.6906 104.987 63.5905 104.475 63.592H102.917V62.0333H103.696C103.903 62.0333 104.101 61.9511 104.247 61.805C104.393 61.6588 104.475 61.4606 104.475 61.2539C104.475 61.0472 104.393 60.849 104.247 60.7028C104.101 60.5566 103.903 60.4745 103.696 60.4745H101.358V51.7021C102.128 51.166 102.747 50.4405 103.154 49.5956C103.562 48.7507 103.745 47.815 103.685 46.8788C103.626 45.9426 103.326 45.0376 102.814 44.2511C102.303 43.4647 101.597 42.8234 100.766 42.3891C99.9343 41.9549 99.0048 41.7425 98.0672 41.7723C97.1296 41.8021 96.2155 42.0732 95.4132 42.5594C94.611 43.0456 93.9476 43.7304 93.4872 44.5478C93.0269 45.3651 92.785 46.2874 92.7851 47.2255ZM101.358 63.592H95.1232V62.0333H101.358V63.592ZM102.137 47.2255C102.136 47.9096 101.955 48.5814 101.613 49.1738C101.271 49.7662 100.779 50.2585 100.187 50.6016C100.069 50.6699 99.971 50.768 99.9026 50.8862C99.8342 51.0044 99.7981 51.1385 99.7978 51.275V60.4745H96.6804V51.275C96.6802 51.1386 96.6443 51.0047 96.5762 50.8865C96.5081 50.7683 96.4102 50.6701 96.2922 50.6016C95.6999 50.2597 95.208 49.7678 94.866 49.1755C94.524 48.5832 94.3439 47.9113 94.3438 47.2273C94.3438 46.5433 94.5237 45.8714 94.8656 45.279C95.2075 44.6866 95.6993 44.1947 96.2916 43.8526C96.8839 43.5105 97.5557 43.3303 98.2397 43.3301C98.9237 43.33 99.5956 43.5098 100.188 43.8517C100.78 44.1935 101.273 44.6852 101.615 45.2774C101.957 45.8697 102.137 46.5415 102.137 47.2255Z" fill="white"/>
<path d="M98.2403 69.8268C98.6707 69.8268 99.0197 69.4779 99.0197 69.0474C99.0197 68.617 98.6707 68.2681 98.2403 68.2681C97.8099 68.2681 97.4609 68.617 97.4609 69.0474C97.4609 69.4779 97.8099 69.8268 98.2403 69.8268Z" fill="white"/>
<path fill-rule="evenodd" clip-rule="evenodd" d="M71.5632 60.7426C71.5777 61.5429 71.9027 62.3062 72.4696 62.8714C73.0365 63.4365 73.8008 63.7591 74.6012 63.7711C74.8309 63.7714 75.0583 63.817 75.2704 63.9052C75.4825 63.9935 75.6751 64.1227 75.8372 64.2855C76.4124 64.839 77.1791 65.1489 77.9773 65.1506C78.7793 65.1523 79.5499 64.8395 80.1237 64.2793C80.4544 63.9542 80.8991 63.7713 81.3629 63.7696C82.1632 63.7559 82.9267 63.4314 83.492 62.8647C84.0573 62.2979 84.3798 61.5335 84.3915 60.7332C84.3918 60.5037 84.4374 60.2765 84.5256 60.0647C84.6139 59.8529 84.7431 59.6605 84.9058 59.4987C85.4614 58.9229 85.7714 58.1536 85.7702 57.3534C85.7691 56.5533 85.4569 55.7849 84.8996 55.2107C84.7373 55.0478 84.6088 54.8545 84.5214 54.6418C84.4339 54.4292 84.3892 54.2014 84.3899 53.9715C84.3754 53.1714 84.0506 52.4083 83.4841 51.8432C82.9176 51.2781 82.1536 50.9553 81.3535 50.9429C80.89 50.94 80.4462 50.7553 80.1175 50.4285C79.5318 49.8924 78.7662 49.5956 77.9722 49.5968C77.1782 49.5979 76.4136 49.897 75.8294 50.4348C75.5022 50.7604 75.0597 50.9436 74.5981 50.9445H74.5918C73.7915 50.9582 73.0279 51.2827 72.4627 51.8494C71.8974 52.4161 71.5749 53.1805 71.5632 53.9809C71.5629 54.2103 71.5173 54.4375 71.4291 54.6494C71.3408 54.8612 71.2116 55.0535 71.0489 55.2154C70.4927 55.7908 70.1822 56.56 70.1831 57.3603C70.1839 58.1606 70.4961 58.9292 71.0535 59.5034C71.2159 59.6662 71.3445 59.8595 71.432 60.0721C71.5195 60.2848 71.5641 60.5126 71.5632 60.7426ZM72.1602 56.3096C72.7743 55.6956 73.1202 54.8633 73.122 53.9949C73.1299 53.602 73.2894 53.2274 73.5671 52.9494C73.8448 52.6714 74.2192 52.5116 74.6121 52.5032C75.4779 52.5001 76.3077 52.1563 76.9221 51.5461C77.2111 51.2873 77.5851 51.1436 77.973 51.1425C78.361 51.1413 78.7359 51.2828 79.0264 51.5399C79.6398 52.153 80.4707 52.4987 81.3379 52.5016C81.7298 52.5099 82.1034 52.6686 82.3814 52.9449C82.6594 53.2211 82.8205 53.5938 82.8312 53.9855C82.8318 54.8537 83.1759 55.6864 83.7882 56.3018C84.0591 56.5847 84.2109 56.961 84.2121 57.3527C84.2132 57.7444 84.0637 58.1215 83.7945 58.406C83.1807 59.0196 82.8349 59.8513 82.8327 60.7192C82.8248 61.1112 82.666 61.4851 82.3893 61.763C82.1126 62.0409 81.7393 62.2013 81.3473 62.2109C80.4799 62.2129 79.6482 62.5568 79.0326 63.1679C78.7433 63.4261 78.3694 63.5694 77.9816 63.5705C77.5939 63.5717 77.2191 63.4307 76.9283 63.1741C76.3145 62.5607 75.483 62.215 74.6152 62.2124C74.2234 62.2042 73.8497 62.0455 73.5717 61.7692C73.2937 61.4929 73.1327 61.1203 73.122 60.7285C73.1215 59.8603 72.7774 59.0276 72.1649 58.4123C71.8938 58.1293 71.7421 57.7529 71.7413 57.3611C71.7404 56.9693 71.8904 56.5937 72.1602 56.3096ZM68.6251 41.7699H87.3296C87.5363 41.7699 87.7346 41.6878 87.8807 41.5416C88.0269 41.3955 88.109 41.1972 88.109 40.9905C88.109 40.7838 88.0269 40.5856 87.8807 40.4394C87.7346 40.2933 87.5363 40.2112 87.3296 40.2112H68.6251C68.4184 40.2112 68.2201 40.2933 68.074 40.4394C67.9278 40.5856 67.8457 40.7838 67.8457 40.9905C67.8457 41.1972 67.9278 41.3955 68.074 41.5416C68.2201 41.6878 68.4184 41.7699 68.6251 41.7699ZM67.8457 36.3144C67.8457 36.5211 67.9278 36.7193 68.074 36.8655C68.2201 37.0116 68.4184 37.0937 68.6251 37.0937H93.5645C93.7712 37.0937 93.9694 37.0116 94.1156 36.8655C94.2617 36.7193 94.3438 36.5211 94.3438 36.3144C94.3438 36.1077 94.2617 35.9095 94.1156 35.7633C93.9694 35.6171 93.7712 35.535 93.5645 35.535H68.6251C68.4184 35.535 68.2201 35.6171 68.074 35.7633C67.9278 35.9095 67.8457 36.1077 67.8457 36.3144ZM93.5645 32.4176C93.7712 32.4176 93.9694 32.3355 94.1156 32.1893C94.2617 32.0432 94.3438 31.8449 94.3438 31.6382C94.3438 31.4315 94.2617 31.2333 94.1156 31.0872C93.9694 30.941 93.7712 30.8589 93.5645 30.8589H74.8599C74.6532 30.8589 74.455 30.941 74.3088 31.0872C74.1627 31.2333 74.0806 31.4315 74.0806 31.6382C74.0806 31.8449 74.1627 32.0432 74.3088 32.1893C74.455 32.3355 74.6532 32.4176 74.8599 32.4176H93.5645Z" fill="white"/>
</svg>
