<svg width="769" height="99" viewBox="0 0 769 99" fill="none" xmlns="http://www.w3.org/2000/svg">
<circle cx="10.3835" cy="88.4949" r="8" transform="rotate(-21.6042 10.3835 88.4949)" fill="#F5F5F5"/>
<circle cx="41.9949" cy="75.9763" r="8" transform="rotate(-21.6042 41.9949 75.9763)" fill="#F5F5F5"/>
<circle cx="73.6067" cy="63.4578" r="8" transform="rotate(-21.6042 73.6067 63.4578)" fill="#F5F5F5"/>
<circle cx="105.218" cy="50.9392" r="8" transform="rotate(-21.6042 105.218 50.9392)" fill="#F5F5F5"/>
<circle cx="136.829" cy="38.4207" r="8" transform="rotate(-21.6042 136.829 38.4207)" fill="#F5F5F5"/>
<circle cx="168.441" cy="25.9021" r="8" transform="rotate(-21.6042 168.441 25.9021)" fill="#F5F5F5"/>
<circle cx="200.052" cy="13.3836" r="8" transform="rotate(-21.6042 200.052 13.3836)" fill="#F5F5F5"/>
<circle cx="8" cy="8" r="8" transform="matrix(-0.92975 -0.368192 -0.368192 0.92975 469.436 81.002)" fill="#F5F5F5"/>
<circle cx="8" cy="8" r="8" transform="matrix(-0.92975 -0.368192 -0.368192 0.92975 437.825 68.4834)" fill="#F5F5F5"/>
<circle cx="8" cy="8" r="8" transform="matrix(-0.92975 -0.368192 -0.368192 0.92975 406.213 55.9648)" fill="#F5F5F5"/>
<circle cx="8" cy="8" r="8" transform="matrix(-0.92975 -0.368192 -0.368192 0.92975 374.602 43.4463)" fill="#F5F5F5"/>
<circle cx="8" cy="8" r="8" transform="matrix(-0.92975 -0.368192 -0.368192 0.92975 342.99 30.9277)" fill="#F5F5F5"/>
<circle cx="8" cy="8" r="8" transform="matrix(-0.92975 -0.368192 -0.368192 0.92975 311.378 18.4092)" fill="#F5F5F5"/>
<circle cx="8" cy="8" r="8" transform="matrix(-0.92975 -0.368192 -0.368192 0.92975 279.767 5.89062)" fill="#F5F5F5"/>
<circle cx="568.384" cy="88.4949" r="8" transform="rotate(-21.6042 568.384 88.4949)" fill="#F5F5F5"/>
<circle cx="599.995" cy="75.9763" r="8" transform="rotate(-21.6042 599.995 75.9763)" fill="#F5F5F5"/>
<circle cx="631.607" cy="63.4578" r="8" transform="rotate(-21.6042 631.607 63.4578)" fill="#F5F5F5"/>
<circle cx="663.218" cy="50.9392" r="8" transform="rotate(-21.6042 663.218 50.9392)" fill="#F5F5F5"/>
<circle cx="694.829" cy="38.4207" r="8" transform="rotate(-21.6042 694.829 38.4207)" fill="#F5F5F5"/>
<circle cx="726.441" cy="25.9021" r="8" transform="rotate(-21.6042 726.441 25.9021)" fill="#F5F5F5"/>
<circle cx="758.052" cy="13.3836" r="8" transform="rotate(-21.6042 758.052 13.3836)" fill="#F5F5F5"/>
</svg>
