<svg width="184" height="164" viewBox="0 0 184 164" fill="none" xmlns="http://www.w3.org/2000/svg">
<g opacity="0.3" filter="url(#filter0_f_139_664)">
<path d="M29.2337 104.114C25.8683 102.171 25.0731 99.1927 27.2689 96.755L27.8873 96.0685C28.4713 95.4201 29.2463 94.8354 30.1776 94.3405L84.5561 65.4425C88.7544 63.2114 95.2217 63.2252 99.3915 65.474L154.649 95.2755C155.331 95.6436 155.926 96.0623 156.418 96.5207C158.996 98.9246 158.37 102.036 154.907 104.036L99.7165 135.897C95.4563 138.356 88.5492 138.356 84.2889 135.897L29.2337 104.114Z" fill="#FF00A7" stroke="#FF00A7" stroke-width="1.18759"/>
<rect x="1.02851" width="78.8471" height="78.8471" rx="8.90694" transform="matrix(0.866044 -0.499967 0.866044 0.499967 22.8267 98.5157)" fill="#FF00A7" stroke="#FF00A7" stroke-width="1.18759"/>
</g>
<path d="M16.3538 65.7768C12.9884 63.834 12.1933 60.8558 14.389 58.4182L16.0284 56.5981C16.6124 55.9498 17.3874 55.3651 18.3187 54.8701L84.5562 19.6701C88.7545 17.439 95.2218 17.4528 99.3916 19.7016L166.552 55.9225C167.257 56.303 167.872 56.7358 168.38 57.2097L169.228 58.0003C171.893 60.4852 171.246 63.7018 167.666 65.7683L99.7166 104.996C95.4564 107.455 88.5492 107.455 84.289 104.996L16.3538 65.7768Z" fill="#FF00A7" stroke="#FF00A7" stroke-width="1.18759"/>
<rect x="1.02851" width="93.7192" height="93.7192" rx="8.90694" transform="matrix(0.866044 -0.499967 0.866044 0.499967 9.94686 59.6348)" fill="white" stroke="#FF00A7" stroke-width="1.18759"/>
<path d="M16.3538 55.0888C12.9884 53.146 12.1933 50.1679 14.389 47.7302L16.0284 45.9101C16.6124 45.2618 17.3874 44.6771 18.3187 44.1821L84.5562 8.9821C88.7545 6.75103 95.2218 6.76476 99.3916 9.01361L166.552 45.2345C167.257 45.615 167.872 46.0478 168.38 46.5217L169.228 47.3123C171.893 49.7972 171.246 53.0138 167.666 55.0803L99.7166 94.3078C95.4564 96.7672 88.5492 96.7672 84.289 94.3078L16.3538 55.0888Z" fill="#FF00A7" stroke="#FF00A7" stroke-width="1.18759"/>
<rect x="1.02851" width="93.7192" height="93.7192" rx="8.90694" transform="matrix(0.866044 -0.499967 0.866044 0.499967 9.94686 48.9468)" fill="#FF00A7" stroke="#FF00A7" stroke-width="1.18759"/>
<path d="M110.124 28.8901H108.282C108.045 28.8901 107.819 28.984 107.652 29.151C107.485 29.3181 107.391 29.5446 107.391 29.7808C107.391 30.0171 107.485 30.2436 107.652 30.4106C107.819 30.5777 108.045 30.6715 108.282 30.6715H110.125C110.615 30.6715 111.016 31.0714 111.016 31.5622V72.5341C111.016 73.0249 110.615 73.4248 110.125 73.4248H74.568C74.0763 73.4248 73.6773 73.0249 73.6773 72.5341V31.5622C73.6773 31.0714 74.0763 30.6715 74.568 30.6715H76.4108C76.6471 30.6715 76.8736 30.5777 77.0407 30.4106C77.2077 30.2436 77.3015 30.0171 77.3015 29.7808C77.3015 29.5446 77.2077 29.3181 77.0407 29.151C76.8736 28.984 76.6471 28.8901 76.4108 28.8901H74.5671C73.0939 28.8901 71.895 30.089 71.895 31.5622V72.5341C71.895 74.0073 73.0939 75.2062 74.5671 75.2062H110.124C111.599 75.2062 112.797 74.0073 112.797 72.5341V31.5622C112.797 30.089 111.599 28.8901 110.124 28.8901Z" fill="white"/>
<path d="M76.3497 32.453C76.1135 32.453 75.8869 32.5468 75.7199 32.7139C75.5528 32.8809 75.459 33.1074 75.459 33.3437V70.7528C75.459 70.989 75.5528 71.2156 75.7199 71.3826C75.8869 71.5497 76.1135 71.6435 76.3497 71.6435H108.343C108.58 71.6435 108.806 71.5497 108.973 71.3826C109.14 71.2156 109.234 70.989 109.234 70.7528V33.3437C109.234 33.1074 109.14 32.8809 108.973 32.7139C108.806 32.5468 108.58 32.453 108.343 32.453H105.61V26.6412C105.61 26.405 105.516 26.1784 105.349 26.0114C105.182 25.8443 104.955 25.7505 104.719 25.7505H97.9811C97.1474 23.4035 94.8823 21.7646 92.3465 21.7646C89.8107 21.7646 87.5457 23.4035 86.712 25.7505H79.9739C79.7377 25.7505 79.5111 25.8443 79.3441 26.0114C79.1771 26.1784 79.0832 26.405 79.0832 26.6412V32.453H76.3497ZM107.453 69.8621H77.2404V34.2344H107.453V69.8621ZM80.8655 27.5319H87.3818C87.5847 27.532 87.7816 27.4629 87.9398 27.3359C88.098 27.2089 88.2082 27.0317 88.252 26.8336C88.6724 24.9284 90.395 23.546 92.3465 23.546C94.298 23.546 96.0206 24.9284 96.4419 26.8327C96.4856 27.031 96.5957 27.2084 96.7539 27.3355C96.9122 27.4627 97.1091 27.532 97.3122 27.5319H103.828V32.453H80.8655V27.5319Z" fill="white"/>
<path d="M101.978 50.0432C101.862 50.0566 101.749 50.0928 101.647 50.1496C101.545 50.2064 101.455 50.2829 101.382 50.3745C101.309 50.4662 101.255 50.5712 101.223 50.6837C101.191 50.7962 101.182 50.9139 101.195 51.0301C101.233 51.3632 101.253 51.7062 101.253 52.0482C101.253 56.9595 97.2573 60.9551 92.346 60.9551C87.4348 60.9551 83.4391 56.9595 83.4391 52.0482C83.4391 47.1369 87.4348 43.1413 92.346 43.1413C94.408 43.1413 96.3435 43.8253 97.9432 45.1186C98.0336 45.1957 98.1386 45.2539 98.2519 45.2897C98.3652 45.3256 98.4846 45.3384 98.6029 45.3275C98.7212 45.3165 98.8362 45.282 98.941 45.2259C99.0458 45.1699 99.1383 45.0934 99.2131 45.001C99.2878 44.9086 99.3434 44.8022 99.3764 44.6881C99.4094 44.5739 99.4193 44.4543 99.4053 44.3362C99.3914 44.2182 99.354 44.1042 99.2953 44.0008C99.2366 43.8975 99.1579 43.8069 99.0637 43.7345C97.1609 42.1997 94.7906 41.3618 92.346 41.3599C86.4523 41.3599 81.6577 46.1545 81.6577 52.0482C81.6577 57.9419 86.4523 62.7365 92.346 62.7365C98.2398 62.7365 103.034 57.9419 103.034 52.0482C103.034 51.6385 103.011 51.2279 102.965 50.8262C102.952 50.7099 102.916 50.5974 102.859 50.4951C102.802 50.3928 102.726 50.3027 102.634 50.23C102.542 50.1573 102.437 50.1033 102.325 50.0713C102.212 50.0392 102.094 50.0297 101.978 50.0432Z" fill="white"/>
<path d="M101.73 44.9799L93.0456 53.6642L89.3234 49.9429C89.2412 49.8578 89.1429 49.79 89.0342 49.7433C88.9256 49.6966 88.8087 49.672 88.6904 49.671C88.5722 49.67 88.4549 49.6925 88.3454 49.7373C88.2359 49.7821 88.1365 49.8482 88.0529 49.9318C87.9692 50.0155 87.9031 50.1149 87.8583 50.2244C87.8135 50.3339 87.791 50.4511 87.792 50.5694C87.7931 50.6877 87.8176 50.8045 87.8643 50.9132C87.911 51.0219 87.9788 51.1202 88.0639 51.2023L92.4158 55.5543C92.4984 55.6373 92.5965 55.7031 92.7046 55.7481C92.8126 55.793 92.9285 55.8162 93.0456 55.8162C93.1626 55.8162 93.2785 55.793 93.3866 55.7481C93.4946 55.7031 93.5928 55.6373 93.6753 55.5543L102.99 46.2403C103.073 46.1576 103.139 46.0594 103.183 45.9513C103.228 45.8433 103.251 45.7274 103.251 45.6104C103.251 45.4934 103.228 45.3776 103.184 45.2695C103.139 45.1614 103.073 45.0631 102.991 44.9804C102.908 44.8976 102.81 44.832 102.702 44.7872C102.594 44.7424 102.478 44.7193 102.361 44.7192C102.244 44.7192 102.128 44.7422 102.02 44.7869C101.912 44.8317 101.813 44.8972 101.73 44.9799Z" fill="white"/>
<defs>
<filter id="filter0_f_139_664" x="0.371613" y="35.8296" width="183.293" height="127.271" filterUnits="userSpaceOnUse" color-interpolation-filters="sRGB">
<feFlood flood-opacity="0" result="BackgroundImageFix"/>
<feBlend mode="normal" in="SourceGraphic" in2="BackgroundImageFix" result="shape"/>
<feGaussianBlur stdDeviation="12.4697" result="effect1_foregroundBlur_139_664"/>
</filter>
</defs>
</svg>
