<svg width="184" height="164" viewBox="0 0 184 164" fill="none" xmlns="http://www.w3.org/2000/svg">
<g opacity="0.3" filter="url(#filter0_f_139_644)">
<path d="M29.4314 104.113C26.066 102.17 25.2709 99.1922 27.4666 96.7545L28.085 96.068C28.669 95.4196 29.444 94.8349 30.3753 94.34L84.7539 65.442C88.9522 63.211 95.4195 63.2247 99.5893 65.4735L154.847 95.275C155.529 95.6431 156.124 96.0618 156.616 96.5202C159.193 98.9241 158.568 102.036 155.105 104.035L99.9143 135.897C95.6541 138.356 88.7469 138.356 84.4867 135.897L29.4314 104.113Z" fill="#4800FF" stroke="#4800FF" stroke-width="1.18759"/>
<rect x="1.02851" width="78.8471" height="78.8471" rx="8.90694" transform="matrix(0.866044 -0.499967 0.866044 0.499967 23.0245 98.5152)" fill="#4800FF" stroke="#4800FF" stroke-width="1.18759"/>
</g>
<path d="M16.5516 65.7768C13.1862 63.834 12.391 60.8558 14.5868 58.4182L16.2261 56.5981C16.8101 55.9498 17.5851 55.3651 18.5165 54.8701L84.7539 19.6701C88.9522 17.439 95.4195 17.4528 99.5893 19.7016L166.75 55.9225C167.455 56.303 168.07 56.7358 168.578 57.2097L169.426 58.0003C172.091 60.4852 171.444 63.7018 167.864 65.7683L99.9143 104.996C95.6541 107.455 88.747 107.455 84.4868 104.996L16.5516 65.7768Z" fill="#4800FF" stroke="#4800FF" stroke-width="1.18759"/>
<rect x="1.02851" width="93.7192" height="93.7192" rx="8.90694" transform="matrix(0.866044 -0.499967 0.866044 0.499967 10.1446 59.6348)" fill="white" stroke="#4800FF" stroke-width="1.18759"/>
<path d="M16.5516 55.0888C13.1862 53.146 12.391 50.1679 14.5868 47.7302L16.2261 45.9101C16.8101 45.2618 17.5851 44.6771 18.5165 44.1821L84.7539 8.9821C88.9522 6.75103 95.4195 6.76476 99.5893 9.01361L166.75 45.2345C167.455 45.615 168.07 46.0478 168.578 46.5217L169.426 47.3123C172.091 49.7972 171.444 53.0138 167.864 55.0803L99.9143 94.3078C95.6541 96.7672 88.747 96.7672 84.4868 94.3078L16.5516 55.0888Z" fill="#4800FF" stroke="#4800FF" stroke-width="1.18759"/>
<rect x="1.02851" width="93.7192" height="93.7192" rx="8.90694" transform="matrix(0.866044 -0.499967 0.866044 0.499967 10.1446 48.9468)" fill="#4800FF" stroke="#4800FF" stroke-width="1.18759"/>
<path d="M106.164 47.6317V30.5601H89.0922V47.6317H106.164ZM97.628 39.0959C96.6865 39.0959 95.9209 38.3302 95.9209 37.3887C95.9209 36.4472 96.6865 35.6815 97.628 35.6815C98.5695 35.6815 99.3352 36.4472 99.3352 37.3887C99.3352 38.3302 98.5695 39.0959 97.628 39.0959ZM95.3404 41.3621C95.887 40.9973 96.5296 40.8027 97.1867 40.803H98.0685C98.7257 40.8026 99.3682 40.9972 99.9148 41.3621C100.293 41.6151 100.615 41.9427 100.862 42.3248C101.109 42.7069 101.276 43.1354 101.351 43.584L101.742 45.9245H93.5138L93.9039 43.584C93.9796 43.1354 94.146 42.707 94.393 42.3249C94.64 41.9429 94.9624 41.6153 95.3404 41.3621ZM90.7994 32.2672H104.457V45.9245H103.473L103.035 43.3032C102.9 42.5024 102.574 41.746 102.085 41.0981C101.595 40.4501 100.957 39.9296 100.224 39.5807C100.749 38.9708 101.039 38.1935 101.042 37.3887C101.042 35.5057 99.511 33.9744 97.628 33.9744C95.745 33.9744 94.2137 35.5057 94.2137 37.3887C94.2137 38.2269 94.5287 38.9858 95.0323 39.5807C94.299 39.9296 93.6606 40.4501 93.1712 41.0981C92.6817 41.746 92.3557 42.5024 92.2206 43.3032L91.7836 45.9245H90.7994V32.2672ZM77.1421 35.6815H87.3851V37.3887H77.1421V35.6815ZM77.1421 39.0959H87.3851V40.803H77.1421V39.0959ZM77.1421 42.5102H87.3851V44.2174H77.1421V42.5102ZM77.1421 45.9245H87.3851V47.6317H77.1421V45.9245ZM77.1421 49.3389H106.164V51.046H77.1421V49.3389ZM94.2137 71.532H106.164V64.7033H94.2137V71.532ZM95.9209 66.4105H104.457V69.8248H95.9209V66.4105ZM85.6779 69.8248H92.5066V71.532H85.6779V69.8248ZM85.6779 66.4105H92.5066V68.1176H85.6779V66.4105Z" fill="white"/>
<path d="M118.949 66.1989L114.019 24.3563C113.856 22.907 112.496 21.8434 111.049 22.0482L87.3722 25.3141C87.3056 23.4908 85.811 22.0243 83.9706 22.0243H82.2635C80.3805 22.0243 78.8491 23.5557 78.8491 25.4387V27.1458H75.4348C74.4933 27.1458 73.7277 27.9115 73.7277 28.853V60.9357L67.3548 67.3077C66.9385 67.7224 66.6084 68.2155 66.3837 68.7584C66.159 69.3014 66.044 69.8834 66.0454 70.4711C66.0468 71.6574 66.5186 72.7948 67.3574 73.6338C68.1962 74.4728 69.3335 74.9448 70.5199 74.9464C71.1079 74.9482 71.6903 74.8333 72.2335 74.6082C72.7767 74.3832 73.2698 74.0525 73.6841 73.6353L73.7601 73.5593C73.8348 73.949 74.0428 74.3005 74.3484 74.5536C74.6539 74.8067 75.038 74.9456 75.4348 74.9464H107.871C108.812 74.9464 109.578 74.1807 109.578 73.2392V70.5377L116.697 69.2436C117.389 69.1183 118.008 68.7335 118.426 68.1677C118.845 67.6019 119.032 66.8977 118.949 66.1989ZM80.5563 25.4387C80.5563 24.4972 81.322 23.7315 82.2635 23.7315H83.9706C84.9121 23.7315 85.6778 24.4972 85.6778 25.4387V27.1458H83.9706V25.4387H82.2635V27.1458H80.5563V25.4387ZM80.5563 28.853H82.2635V31.4137C82.2536 31.6335 82.1594 31.841 82.0004 31.9931C81.8414 32.1451 81.6299 32.23 81.4099 32.23C81.1899 32.23 80.9784 32.1451 80.8194 31.9931C80.6604 31.841 80.5661 31.6335 80.5563 31.4137V28.853ZM85.5182 56.5082L84.4836 55.4736L86.0354 54.9564L85.5182 56.5082ZM82.6732 56.0771L84.9147 58.3186L84.4512 59.7091L81.2827 56.5406L82.6732 56.0771ZM79.7027 57.3746L83.6173 61.2891L74.5812 70.3251L70.6667 66.4106L79.7027 57.3746ZM70.5199 73.2392C69.7861 73.2383 69.0826 72.9464 68.5638 72.4274C68.045 71.9085 67.7533 71.2049 67.7526 70.4711C67.7526 69.7319 68.0402 69.0371 68.5626 68.5138L69.4597 67.6176L73.3743 71.5321L72.4772 72.4292C72.2207 72.687 71.9157 72.8913 71.5797 73.0303C71.2437 73.1694 70.8835 73.2404 70.5199 73.2392ZM107.871 73.2392H75.4348V71.8855L85.5702 61.75L88.0004 54.4604H106.164V52.7533H87.2467L79.2418 55.4216L75.4348 59.2285V28.853H78.8491V31.4137C78.8491 32.8256 79.9981 33.9745 81.4099 33.9745C82.8217 33.9745 83.9706 32.8256 83.9706 31.4137V28.853H85.6778V32.2673H87.385V28.853H107.871V73.2392ZM116.391 67.5638L109.578 68.8023V28.853C109.578 27.9115 108.812 27.1458 107.871 27.1458H87.385V27.0366L111.282 23.74C111.404 23.7243 111.528 23.7329 111.646 23.7654C111.765 23.7979 111.876 23.8536 111.972 23.9292C112.069 24.0049 112.15 24.099 112.21 24.2062C112.271 24.3134 112.309 24.4314 112.323 24.5535L117.253 66.4038C117.284 66.6704 117.211 66.9385 117.051 67.1538C116.891 67.3692 116.655 67.5157 116.391 67.5638Z" fill="white"/>
<defs>
<filter id="filter0_f_139_644" x="0.569366" y="35.8291" width="183.293" height="127.271" filterUnits="userSpaceOnUse" color-interpolation-filters="sRGB">
<feFlood flood-opacity="0" result="BackgroundImageFix"/>
<feBlend mode="normal" in="SourceGraphic" in2="BackgroundImageFix" result="shape"/>
<feGaussianBlur stdDeviation="12.4697" result="effect1_foregroundBlur_139_644"/>
</filter>
</defs>
</svg>
