<svg width="171" height="111" viewBox="0 0 171 111" fill="none" xmlns="http://www.w3.org/2000/svg">
<path d="M9.55157 65.7768C6.18619 63.834 5.39101 60.8558 7.58676 58.4182L9.22613 56.5981C9.81013 55.9498 10.5851 55.3651 11.5165 54.8701L77.7539 19.6701C81.9522 17.439 88.4195 17.4528 92.5893 19.7016L159.75 55.9225C160.455 56.303 161.07 56.7358 161.578 57.2097L162.426 58.0003C165.091 60.4852 164.444 63.7018 160.864 65.7683L92.9143 104.996C88.6541 107.455 81.747 107.455 77.4868 104.996L9.55157 65.7768Z" fill="#4800FF" stroke="#4800FF" stroke-width="1.18759"/>
<rect x="1.02851" width="93.7192" height="93.7192" rx="8.90694" transform="matrix(0.866044 -0.499967 0.866044 0.499967 3.14363 59.6348)" fill="white" stroke="#4800FF" stroke-width="1.18759"/>
<path d="M9.55157 55.0888C6.18619 53.146 5.39101 50.1679 7.58676 47.7302L9.22613 45.9101C9.81013 45.2618 10.5851 44.6771 11.5165 44.1821L77.7539 8.9821C81.9522 6.75103 88.4195 6.76476 92.5893 9.01361L159.75 45.2345C160.455 45.615 161.07 46.0478 161.578 46.5217L162.426 47.3123C165.091 49.7972 164.444 53.0138 160.864 55.0803L92.9143 94.3078C88.6541 96.7672 81.747 96.7672 77.4868 94.3078L9.55157 55.0888Z" fill="#4800FF" stroke="#4800FF" stroke-width="1.18759"/>
<rect x="1.02851" width="93.7192" height="93.7192" rx="8.90694" transform="matrix(0.866044 -0.499967 0.866044 0.499967 3.14363 48.9468)" fill="#4800FF" stroke="#4800FF" stroke-width="1.18759"/>
<path d="M99.1624 47.6317V30.5601H82.0908V47.6317H99.1624ZM90.6266 39.0959C89.6851 39.0959 88.9194 38.3302 88.9194 37.3887C88.9194 36.4472 89.6851 35.6815 90.6266 35.6815C91.5681 35.6815 92.3337 36.4472 92.3337 37.3887C92.3337 38.3302 91.5681 39.0959 90.6266 39.0959ZM88.339 41.3621C88.8856 40.9973 89.5281 40.8027 90.1853 40.803H91.067C91.7242 40.8026 92.3668 40.9972 92.9133 41.3621C93.2914 41.6151 93.6139 41.9427 93.8609 42.3248C94.108 42.7069 94.2744 43.1354 94.3499 43.584L94.7408 45.9245H86.5123L86.9024 43.584C86.9781 43.1354 87.1445 42.707 87.3916 42.3249C87.6386 41.9429 87.961 41.6153 88.339 41.3621ZM83.7979 32.2672H97.4552V45.9245H96.4711L96.034 43.3032C95.8989 42.5024 95.5729 41.746 95.0834 41.0981C94.594 40.4501 93.9556 39.9296 93.2223 39.5807C93.7474 38.9708 94.0377 38.1935 94.0409 37.3887C94.0409 35.5057 92.5096 33.9744 90.6266 33.9744C88.7436 33.9744 87.2123 35.5057 87.2123 37.3887C87.2123 38.2269 87.5272 38.9858 88.0308 39.5807C87.2976 39.9296 86.6592 40.4501 86.1697 41.0981C85.6803 41.746 85.3542 42.5024 85.2191 43.3032L84.7821 45.9245H83.7979V32.2672ZM70.1406 35.6815H80.3836V37.3887H70.1406V35.6815ZM70.1406 39.0959H80.3836V40.803H70.1406V39.0959ZM70.1406 42.5102H80.3836V44.2174H70.1406V42.5102ZM70.1406 45.9245H80.3836V47.6317H70.1406V45.9245ZM70.1406 49.3389H99.1624V51.046H70.1406V49.3389ZM87.2123 71.532H99.1624V64.7033H87.2123V71.532ZM88.9194 66.4105H97.4552V69.8248H88.9194V66.4105ZM78.6764 69.8248H85.5051V71.532H78.6764V69.8248ZM78.6764 66.4105H85.5051V68.1176H78.6764V66.4105Z" fill="white"/>
<path d="M111.948 66.1989L107.019 24.3563C106.856 22.907 105.495 21.8434 104.048 22.0482L80.3717 25.3141C80.3051 23.4908 78.8105 22.0243 76.9701 22.0243H75.263C73.38 22.0243 71.8487 23.5557 71.8487 25.4387V27.1458H68.4343C67.4928 27.1458 66.7272 27.9115 66.7272 28.853V60.9357L60.3543 67.3077C59.938 67.7224 59.608 68.2155 59.3832 68.7584C59.1585 69.3014 59.0435 69.8834 59.0449 70.4711C59.0463 71.6574 59.5181 72.7948 60.3569 73.6338C61.1957 74.4728 62.333 74.9448 63.5194 74.9464C64.1074 74.9482 64.6898 74.8333 65.233 74.6082C65.7762 74.3832 66.2693 74.0525 66.6836 73.6353L66.7596 73.5593C66.8343 73.949 67.0423 74.3005 67.3479 74.5536C67.6534 74.8067 68.0376 74.9456 68.4343 74.9464H100.87C101.812 74.9464 102.578 74.1807 102.578 73.2392V70.5377L109.696 69.2436C110.389 69.1183 111.008 68.7335 111.426 68.1677C111.844 67.6019 112.031 66.8977 111.948 66.1989ZM73.5558 25.4387C73.5558 24.4972 74.3215 23.7315 75.263 23.7315H76.9701C77.9116 23.7315 78.6773 24.4972 78.6773 25.4387V27.1458H76.9701V25.4387H75.263V27.1458H73.5558V25.4387ZM73.5558 28.853H75.263V31.4137C75.2532 31.6335 75.1589 31.841 74.9999 31.9931C74.8409 32.1451 74.6294 32.23 74.4094 32.23C74.1894 32.23 73.9779 32.1451 73.8189 31.9931C73.6599 31.841 73.5657 31.6335 73.5558 31.4137V28.853ZM78.5177 56.5082L77.4831 55.4736L79.035 54.9564L78.5177 56.5082ZM75.6727 56.0771L77.9142 58.3186L77.4507 59.7091L74.2822 56.5406L75.6727 56.0771ZM72.7022 57.3746L76.6168 61.2891L67.5807 70.3251L63.6662 66.4106L72.7022 57.3746ZM63.5194 73.2392C62.7856 73.2383 62.0821 72.9464 61.5633 72.4274C61.0445 71.9085 60.7528 71.2049 60.7521 70.4711C60.7521 69.7319 61.0398 69.0371 61.5621 68.5138L62.4593 67.6176L66.3738 71.5321L65.4767 72.4292C65.2202 72.687 64.9152 72.8913 64.5792 73.0303C64.2432 73.1694 63.883 73.2404 63.5194 73.2392ZM100.87 73.2392H68.4343V71.8855L78.5698 61.75L80.9999 54.4604H99.1633V52.7533H80.2462L72.2413 55.4216L68.4343 59.2285V28.853H71.8487V31.4137C71.8487 32.8256 72.9976 33.9745 74.4094 33.9745C75.8212 33.9745 76.9701 32.8256 76.9701 31.4137V28.853H78.6773V32.2673H80.3845V28.853H100.87V73.2392ZM109.391 67.5638L102.578 68.8023V28.853C102.578 27.9115 101.812 27.1458 100.87 27.1458H80.3845V27.0366L104.281 23.74C104.403 23.7243 104.527 23.7329 104.646 23.7654C104.764 23.7979 104.875 23.8536 104.972 23.9292C105.069 24.0049 105.15 24.099 105.21 24.2062C105.27 24.3134 105.308 24.4314 105.323 24.5535L110.253 66.4038C110.283 66.6704 110.211 66.9385 110.051 67.1538C109.891 67.3692 109.655 67.5157 109.391 67.5638Z" fill="white"/>
</svg>
