<svg width="172" height="111" viewBox="0 0 172 111" fill="none" xmlns="http://www.w3.org/2000/svg">
<path d="M10.3543 65.7768C6.98893 63.834 6.19375 60.8558 8.38949 58.4182L10.0289 56.5981C10.6129 55.9498 11.3879 55.3651 12.3192 54.8701L78.5567 19.6701C82.755 17.439 89.2223 17.4528 93.3921 19.7016L160.552 55.9225C161.258 56.303 161.873 56.7358 162.381 57.2097L163.229 58.0003C165.893 60.4852 165.247 63.7018 161.667 65.7683L93.7171 104.996C89.4569 107.455 82.5497 107.455 78.2895 104.996L10.3543 65.7768Z" fill="#FF00A7" stroke="#FF00A7" stroke-width="1.18759"/>
<rect x="1.02851" width="93.7192" height="93.7192" rx="8.90694" transform="matrix(0.866044 -0.499967 0.866044 0.499967 3.94832 59.6348)" fill="white" stroke="#FF00A7" stroke-width="1.18759"/>
<path d="M10.3543 55.0888C6.98893 53.146 6.19375 50.1679 8.38949 47.7302L10.0289 45.9101C10.6129 45.2618 11.3879 44.6771 12.3192 44.1821L78.5567 8.9821C82.755 6.75103 89.2223 6.76476 93.3921 9.01361L160.552 45.2345C161.258 45.615 161.873 46.0478 162.381 46.5217L163.229 47.3123C165.893 49.7972 165.247 53.0138 161.667 55.0803L93.7171 94.3078C89.4569 96.7672 82.5497 96.7672 78.2895 94.3078L10.3543 55.0888Z" fill="#FF00A7" stroke="#FF00A7" stroke-width="1.18759"/>
<rect x="1.02851" width="93.7192" height="93.7192" rx="8.90694" transform="matrix(0.866044 -0.499967 0.866044 0.499967 3.94832 48.9468)" fill="#FF00A7" stroke="#FF00A7" stroke-width="1.18759"/>
<path d="M104.124 28.8901H102.281C102.045 28.8901 101.818 28.984 101.651 29.151C101.484 29.3181 101.39 29.5446 101.39 29.7808C101.39 30.0171 101.484 30.2436 101.651 30.4106C101.818 30.5777 102.045 30.6715 102.281 30.6715H104.125C104.615 30.6715 105.016 31.0714 105.016 31.5622V72.5341C105.016 73.0249 104.615 73.4248 104.125 73.4248H68.5675C68.0758 73.4248 67.6768 73.0249 67.6768 72.5341V31.5622C67.6768 31.0714 68.0758 30.6715 68.5675 30.6715H70.4103C70.6466 30.6715 70.8731 30.5777 71.0402 30.4106C71.2072 30.2436 71.301 30.0171 71.301 29.7808C71.301 29.5446 71.2072 29.3181 71.0402 29.151C70.8731 28.984 70.6466 28.8901 70.4103 28.8901H68.5666C67.0934 28.8901 65.8945 30.089 65.8945 31.5622V72.5341C65.8945 74.0073 67.0934 75.2062 68.5666 75.2062H104.124C105.598 75.2062 106.796 74.0073 106.796 72.5341V31.5622C106.796 30.089 105.598 28.8901 104.124 28.8901Z" fill="white"/>
<path d="M70.3497 32.453C70.1135 32.453 69.8869 32.5468 69.7199 32.7139C69.5528 32.8809 69.459 33.1074 69.459 33.3437V70.7528C69.459 70.989 69.5528 71.2156 69.7199 71.3826C69.8869 71.5497 70.1135 71.6435 70.3497 71.6435H102.343C102.58 71.6435 102.806 71.5497 102.973 71.3826C103.14 71.2156 103.234 70.989 103.234 70.7528V33.3437C103.234 33.1074 103.14 32.8809 102.973 32.7139C102.806 32.5468 102.58 32.453 102.343 32.453H99.6099V26.6412C99.6099 26.405 99.516 26.1784 99.349 26.0114C99.1819 25.8443 98.9554 25.7505 98.7192 25.7505H91.9811C91.1474 23.4035 88.8823 21.7646 86.3465 21.7646C83.8107 21.7646 81.5457 23.4035 80.712 25.7505H73.9739C73.7377 25.7505 73.5111 25.8443 73.3441 26.0114C73.1771 26.1784 73.0832 26.405 73.0832 26.6412V32.453H70.3497ZM101.453 69.8621H71.2404V34.2344H101.453V69.8621ZM74.8655 27.5319H81.3818C81.5847 27.532 81.7816 27.4629 81.9398 27.3359C82.098 27.2089 82.2082 27.0317 82.252 26.8336C82.6724 24.9284 84.395 23.546 86.3465 23.546C88.298 23.546 90.0206 24.9284 90.4419 26.8327C90.4856 27.031 90.5957 27.2084 90.7539 27.3355C90.9122 27.4627 91.1091 27.532 91.3122 27.5319H97.8285V32.453H74.8655V27.5319Z" fill="white"/>
<path d="M95.9785 50.0432C95.8623 50.0566 95.7498 50.0928 95.6476 50.1496C95.5454 50.2064 95.4553 50.2829 95.3826 50.3745C95.3099 50.4662 95.256 50.5712 95.2239 50.6837C95.1918 50.7962 95.1822 50.9139 95.1956 51.0301C95.2339 51.3632 95.2535 51.7062 95.2535 52.0482C95.2535 56.9595 91.2578 60.9551 86.3465 60.9551C81.4352 60.9551 77.4396 56.9595 77.4396 52.0482C77.4396 47.1369 81.4352 43.1413 86.3465 43.1413C88.4085 43.1413 90.344 43.8253 91.9436 45.1186C92.0341 45.1957 92.1391 45.2539 92.2524 45.2897C92.3657 45.3256 92.485 45.3384 92.6034 45.3275C92.7217 45.3165 92.8367 45.282 92.9415 45.2259C93.0463 45.1699 93.1388 45.0934 93.2136 45.001C93.2883 44.9086 93.3439 44.8022 93.3769 44.6881C93.4099 44.5739 93.4198 44.4543 93.4058 44.3362C93.3919 44.2182 93.3545 44.1042 93.2958 44.0008C93.2371 43.8975 93.1584 43.8069 93.0641 43.7345C91.1614 42.1997 88.7911 41.3618 86.3465 41.3599C80.4528 41.3599 75.6582 46.1545 75.6582 52.0482C75.6582 57.9419 80.4528 62.7365 86.3465 62.7365C92.2402 62.7365 97.0349 57.9419 97.0349 52.0482C97.0349 51.6385 97.0117 51.2279 96.9654 50.8262C96.9521 50.7099 96.916 50.5974 96.8592 50.4951C96.8024 50.3928 96.726 50.3027 96.6343 50.23C96.5427 50.1573 96.4375 50.1033 96.325 50.0713C96.2125 50.0392 96.0947 50.0297 95.9785 50.0432Z" fill="white"/>
<path d="M95.7288 44.9799L87.0446 53.6642L83.3224 49.9429C83.2402 49.8578 83.1419 49.79 83.0333 49.7433C82.9246 49.6966 82.8077 49.672 82.6894 49.671C82.5712 49.67 82.4539 49.6925 82.3444 49.7373C82.235 49.7821 82.1355 49.8482 82.0519 49.9318C81.9683 50.0155 81.9021 50.1149 81.8573 50.2244C81.8126 50.3339 81.79 50.4511 81.791 50.5694C81.7921 50.6877 81.8166 50.8045 81.8633 50.9132C81.91 51.0219 81.9779 51.1202 82.0629 51.2023L86.4149 55.5543C86.4974 55.6373 86.5955 55.7031 86.7036 55.7481C86.8116 55.793 86.9275 55.8162 87.0446 55.8162C87.1616 55.8162 87.2775 55.793 87.3856 55.7481C87.4937 55.7031 87.5918 55.6373 87.6743 55.5543L96.9892 46.2403C97.0719 46.1576 97.1376 46.0594 97.1824 45.9513C97.2272 45.8433 97.2503 45.7274 97.2503 45.6104C97.2504 45.4934 97.2274 45.3776 97.1826 45.2695C97.1379 45.1614 97.0723 45.0631 96.9896 44.9804C96.9069 44.8976 96.8087 44.832 96.7007 44.7872C96.5926 44.7424 96.4768 44.7193 96.3598 44.7192C96.2428 44.7192 96.1269 44.7422 96.0188 44.7869C95.9107 44.8317 95.8116 44.8972 95.7288 44.9799Z" fill="white"/>
</svg>
