<svg width="185" height="164" viewBox="0 0 185 164" fill="none" xmlns="http://www.w3.org/2000/svg">
<g opacity="0.3" filter="url(#filter0_f_139_621)">
<path d="M29.8333 104.041C26.4679 102.098 25.6727 99.1199 27.8685 96.6822L28.4869 95.9957C29.0709 95.3474 29.8459 94.7626 30.7772 94.2677L85.1557 65.3698C89.354 63.1387 95.8213 63.1524 99.9911 65.4013L155.249 95.2028C155.931 95.5708 156.526 95.9895 157.017 96.448C159.595 98.8519 158.97 101.964 155.507 103.963L100.316 135.824C96.0559 138.284 89.1488 138.284 84.8885 135.824L29.8333 104.041Z" fill="#060043"/>
<path d="M29.8333 104.041C26.4679 102.098 25.6727 99.1199 27.8685 96.6822L28.4869 95.9957C29.0709 95.3474 29.8459 94.7626 30.7772 94.2677L85.1557 65.3698C89.354 63.1387 95.8213 63.1524 99.9911 65.4013L155.249 95.2028C155.931 95.5708 156.526 95.9895 157.017 96.448C159.595 98.8519 158.97 101.964 155.507 103.963L100.316 135.824C96.0559 138.284 89.1488 138.284 84.8885 135.824L29.8333 104.041Z" fill="black" fill-opacity="0.2"/>
<path d="M29.8333 104.041C26.4679 102.098 25.6727 99.1199 27.8685 96.6822L28.4869 95.9957C29.0709 95.3474 29.8459 94.7626 30.7772 94.2677L85.1557 65.3698C89.354 63.1387 95.8213 63.1524 99.9911 65.4013L155.249 95.2028C155.931 95.5708 156.526 95.9895 157.017 96.448C159.595 98.8519 158.97 101.964 155.507 103.963L100.316 135.824C96.0559 138.284 89.1488 138.284 84.8885 135.824L29.8333 104.041Z" stroke="#060043" stroke-width="1.18759"/>
<path d="M29.8333 104.041C26.4679 102.098 25.6727 99.1199 27.8685 96.6822L28.4869 95.9957C29.0709 95.3474 29.8459 94.7626 30.7772 94.2677L85.1557 65.3698C89.354 63.1387 95.8213 63.1524 99.9911 65.4013L155.249 95.2028C155.931 95.5708 156.526 95.9895 157.017 96.448C159.595 98.8519 158.97 101.964 155.507 103.963L100.316 135.824C96.0559 138.284 89.1488 138.284 84.8885 135.824L29.8333 104.041Z" stroke="black" stroke-opacity="0.2" stroke-width="1.18759"/>
<rect x="1.02851" width="78.8471" height="78.8471" rx="8.90694" transform="matrix(0.866044 -0.499967 0.866044 0.499967 23.4263 98.4429)" fill="#060043"/>
<rect x="1.02851" width="78.8471" height="78.8471" rx="8.90694" transform="matrix(0.866044 -0.499967 0.866044 0.499967 23.4263 98.4429)" fill="black" fill-opacity="0.2"/>
<rect x="1.02851" width="78.8471" height="78.8471" rx="8.90694" transform="matrix(0.866044 -0.499967 0.866044 0.499967 23.4263 98.4429)" stroke="#060043" stroke-width="1.18759"/>
<rect x="1.02851" width="78.8471" height="78.8471" rx="8.90694" transform="matrix(0.866044 -0.499967 0.866044 0.499967 23.4263 98.4429)" stroke="black" stroke-opacity="0.2" stroke-width="1.18759"/>
</g>
<path d="M16.9529 65.7045C13.5876 63.7617 12.7924 60.7836 14.9881 58.3459L16.6275 56.5259C17.2115 55.8775 17.9865 55.2928 18.9178 54.7979L85.1553 19.5978C89.3536 17.3667 95.8209 17.3805 99.9907 19.6293L167.151 55.8503C167.857 56.2307 168.471 56.6635 168.979 57.1374L169.827 57.928C172.492 60.4129 171.845 63.6296 168.266 65.6961L100.316 104.924C96.0555 107.383 89.1483 107.383 84.8881 104.924L16.9529 65.7045Z" fill="#060043"/>
<path d="M16.9529 65.7045C13.5876 63.7617 12.7924 60.7836 14.9881 58.3459L16.6275 56.5259C17.2115 55.8775 17.9865 55.2928 18.9178 54.7979L85.1553 19.5978C89.3536 17.3667 95.8209 17.3805 99.9907 19.6293L167.151 55.8503C167.857 56.2307 168.471 56.6635 168.979 57.1374L169.827 57.928C172.492 60.4129 171.845 63.6296 168.266 65.6961L100.316 104.924C96.0555 107.383 89.1483 107.383 84.8881 104.924L16.9529 65.7045Z" fill="black" fill-opacity="0.2"/>
<path d="M16.9529 65.7045C13.5876 63.7617 12.7924 60.7836 14.9881 58.3459L16.6275 56.5259C17.2115 55.8775 17.9865 55.2928 18.9178 54.7979L85.1553 19.5978C89.3536 17.3667 95.8209 17.3805 99.9907 19.6293L167.151 55.8503C167.857 56.2307 168.471 56.6635 168.979 57.1374L169.827 57.928C172.492 60.4129 171.845 63.6296 168.266 65.6961L100.316 104.924C96.0555 107.383 89.1483 107.383 84.8881 104.924L16.9529 65.7045Z" stroke="#060043" stroke-width="1.18759"/>
<path d="M16.9529 65.7045C13.5876 63.7617 12.7924 60.7836 14.9881 58.3459L16.6275 56.5259C17.2115 55.8775 17.9865 55.2928 18.9178 54.7979L85.1553 19.5978C89.3536 17.3667 95.8209 17.3805 99.9907 19.6293L167.151 55.8503C167.857 56.2307 168.471 56.6635 168.979 57.1374L169.827 57.928C172.492 60.4129 171.845 63.6296 168.266 65.6961L100.316 104.924C96.0555 107.383 89.1483 107.383 84.8881 104.924L16.9529 65.7045Z" stroke="black" stroke-opacity="0.2" stroke-width="1.18759"/>
<rect x="1.02851" width="93.7192" height="93.7192" rx="8.90694" transform="matrix(0.866044 -0.499967 0.866044 0.499967 10.546 59.5626)" fill="white"/>
<rect x="1.02851" width="93.7192" height="93.7192" rx="8.90694" transform="matrix(0.866044 -0.499967 0.866044 0.499967 10.546 59.5626)" stroke="#060043" stroke-width="1.18759"/>
<rect x="1.02851" width="93.7192" height="93.7192" rx="8.90694" transform="matrix(0.866044 -0.499967 0.866044 0.499967 10.546 59.5626)" stroke="black" stroke-opacity="0.2" stroke-width="1.18759"/>
<path d="M16.9529 55.0161C13.5876 53.0732 12.7924 50.0951 14.9881 47.6574L16.6275 45.8374C17.2115 45.189 17.9865 44.6043 18.9178 44.1094L85.1553 8.90935C89.3536 6.67827 95.8209 6.69201 99.9907 8.94085L167.151 45.1618C167.857 45.5422 168.471 45.9751 168.979 46.4489L169.827 47.2396C172.492 49.7244 171.845 52.9411 168.266 55.0076L100.316 94.2351C96.0555 96.6945 89.1483 96.6945 84.8881 94.2351L16.9529 55.0161Z" fill="#060043"/>
<path d="M16.9529 55.0161C13.5876 53.0732 12.7924 50.0951 14.9881 47.6574L16.6275 45.8374C17.2115 45.189 17.9865 44.6043 18.9178 44.1094L85.1553 8.90935C89.3536 6.67827 95.8209 6.69201 99.9907 8.94085L167.151 45.1618C167.857 45.5422 168.471 45.9751 168.979 46.4489L169.827 47.2396C172.492 49.7244 171.845 52.9411 168.266 55.0076L100.316 94.2351C96.0555 96.6945 89.1483 96.6945 84.8881 94.2351L16.9529 55.0161Z" fill="black" fill-opacity="0.2"/>
<path d="M16.9529 55.0161C13.5876 53.0732 12.7924 50.0951 14.9881 47.6574L16.6275 45.8374C17.2115 45.189 17.9865 44.6043 18.9178 44.1094L85.1553 8.90935C89.3536 6.67827 95.8209 6.69201 99.9907 8.94085L167.151 45.1618C167.857 45.5422 168.471 45.9751 168.979 46.4489L169.827 47.2396C172.492 49.7244 171.845 52.9411 168.266 55.0076L100.316 94.2351C96.0555 96.6945 89.1483 96.6945 84.8881 94.2351L16.9529 55.0161Z" stroke="#060043" stroke-width="1.18759"/>
<path d="M16.9529 55.0161C13.5876 53.0732 12.7924 50.0951 14.9881 47.6574L16.6275 45.8374C17.2115 45.189 17.9865 44.6043 18.9178 44.1094L85.1553 8.90935C89.3536 6.67827 95.8209 6.69201 99.9907 8.94085L167.151 45.1618C167.857 45.5422 168.471 45.9751 168.979 46.4489L169.827 47.2396C172.492 49.7244 171.845 52.9411 168.266 55.0076L100.316 94.2351C96.0555 96.6945 89.1483 96.6945 84.8881 94.2351L16.9529 55.0161Z" stroke="black" stroke-opacity="0.2" stroke-width="1.18759"/>
<rect x="1.02851" width="93.7192" height="93.7192" rx="8.90694" transform="matrix(0.866044 -0.499967 0.866044 0.499967 10.546 48.8741)" fill="#060043"/>
<rect x="1.02851" width="93.7192" height="93.7192" rx="8.90694" transform="matrix(0.866044 -0.499967 0.866044 0.499967 10.546 48.8741)" fill="black" fill-opacity="0.2"/>
<rect x="1.02851" width="93.7192" height="93.7192" rx="8.90694" transform="matrix(0.866044 -0.499967 0.866044 0.499967 10.546 48.8741)" stroke="#060043" stroke-width="1.18759"/>
<rect x="1.02851" width="93.7192" height="93.7192" rx="8.90694" transform="matrix(0.866044 -0.499967 0.866044 0.499967 10.546 48.8741)" stroke="black" stroke-opacity="0.2" stroke-width="1.18759"/>
<g clip-path="url(#clip0_139_621)">
<path d="M112.864 63.6636L105.595 62.6942C105.417 62.6699 105.254 62.582 105.136 62.4468C105.018 62.3117 104.952 62.1383 104.952 61.9587V60.4438C107.183 58.9845 108.663 56.4683 108.663 53.6092V47.6712C108.663 43.9882 105.667 40.991 101.983 40.991H99.0138C95.33 40.991 92.3336 43.9882 92.3336 47.6712V53.6092C92.3336 56.4683 93.8136 58.9845 96.0448 60.4438V61.9587C96.0448 62.3291 95.7679 62.6453 95.4013 62.6942L88.1325 63.6636C87.242 63.7847 86.4253 64.2239 85.8333 64.8999C85.2412 65.576 84.9137 66.4435 84.9111 67.3422V71.423C84.9111 71.6199 84.9893 71.8087 85.1285 71.9479C85.2677 72.0871 85.4565 72.1653 85.6534 72.1653H115.343C115.54 72.1653 115.729 72.0871 115.868 71.9479C116.007 71.8087 116.085 71.6199 116.085 71.423V67.3422C116.083 66.4435 115.755 65.576 115.163 64.8999C114.571 64.2239 113.755 63.7847 112.864 63.6636ZM93.8181 53.6092V47.6712C93.8181 44.8061 96.1495 42.4755 99.0138 42.4755H101.983C104.847 42.4755 107.178 44.8061 107.178 47.6712V53.6092C107.178 57.2922 104.182 60.2894 100.498 60.2894C96.8145 60.2894 93.8181 57.2922 93.8181 53.6092ZM114.601 70.6808H86.3956V67.3422C86.3971 66.8029 86.5937 66.2824 86.9489 65.8767C87.3041 65.471 87.7941 65.2075 88.3284 65.1347L95.5972 64.1654C96.1316 64.0926 96.6215 63.8291 96.9768 63.4234C97.332 63.0177 97.5285 62.4972 97.53 61.9579V61.206C98.4519 61.5675 99.451 61.7731 100.499 61.7731C101.547 61.7731 102.546 61.5675 103.468 61.206V61.9579C103.47 62.4972 103.666 63.0177 104.021 63.4234C104.376 63.8291 104.866 64.0926 105.401 64.1654L112.67 65.1347C113.204 65.2075 113.694 65.471 114.049 65.8767C114.404 66.2824 114.601 66.8029 114.602 67.3422V70.6808H114.601ZM96.2504 35.701L95.7182 37.7956C95.6866 37.9203 95.688 38.051 95.7221 38.175C95.7562 38.2989 95.822 38.4119 95.9129 38.5028C96.0038 38.5937 96.1168 38.6595 96.2407 38.6936C96.3647 38.7277 96.4954 38.7291 96.62 38.6975L98.5439 38.2083C99.773 39.0565 101.232 39.5094 102.725 39.5065C106.818 39.5065 110.147 36.1768 110.147 32.0841C110.147 27.9913 106.818 24.6616 102.725 24.6616C98.6323 24.6616 95.3026 27.9913 95.3026 32.0841C95.3026 33.3489 95.6291 34.5921 96.2504 35.701ZM102.725 26.1461C105.999 26.1461 108.663 28.81 108.663 32.0841C108.663 35.3581 105.999 38.022 102.725 38.022C101.431 38.0238 100.173 37.5988 99.1459 36.8129C99.057 36.7458 98.9542 36.6995 98.845 36.6774C98.7358 36.6553 98.623 36.658 98.515 36.6852L97.4655 36.9525L97.7646 35.7715C97.7892 35.6752 97.7941 35.5748 97.779 35.4765C97.764 35.3782 97.7293 35.2839 97.677 35.1993C97.0971 34.2641 96.7892 33.1859 96.7878 32.0856C96.7878 28.8115 99.4517 26.1476 102.726 26.1476L102.725 26.1461Z" fill="white"/>
<path d="M102.725 32.8263C103.135 32.8263 103.467 32.494 103.467 32.084C103.467 31.6741 103.135 31.3418 102.725 31.3418C102.315 31.3418 101.983 31.6741 101.983 32.084C101.983 32.494 102.315 32.8263 102.725 32.8263Z" fill="white"/>
<path d="M99.7559 32.8263C100.166 32.8263 100.498 32.494 100.498 32.084C100.498 31.6741 100.166 31.3418 99.7559 31.3418C99.346 31.3418 99.0137 31.6741 99.0137 32.084C99.0137 32.494 99.346 32.8263 99.7559 32.8263Z" fill="white"/>
<path d="M105.694 32.8263C106.104 32.8263 106.436 32.494 106.436 32.084C106.436 31.6741 106.104 31.3418 105.694 31.3418C105.284 31.3418 104.952 31.6741 104.952 32.084C104.952 32.494 105.284 32.8263 105.694 32.8263Z" fill="white"/>
<path d="M91.2868 56.5781C91.2868 56.3813 91.2086 56.1925 91.0694 56.0533C90.9302 55.9141 90.7414 55.8359 90.5446 55.8359H70.8083C70.3986 55.8359 70.066 55.5026 70.066 55.0937V52.8669H90.1066C90.3035 52.8669 90.4923 52.7887 90.6315 52.6495C90.7707 52.5103 90.8489 52.3215 90.8489 52.1247C90.8489 51.9278 90.7707 51.739 90.6315 51.5998C90.4923 51.4606 90.3035 51.3824 90.1066 51.3824H78.2307V47.404C78.2307 47.0514 78.4816 46.7449 78.8275 46.6759L83.8636 45.6694C84.3601 45.5686 84.8075 45.3018 85.1321 44.9129C85.4567 44.5239 85.6392 44.036 85.6495 43.5295C86.4153 43.8384 87.2372 43.9841 88.0625 43.957C91.2356 43.862 93.8179 41.1016 93.8179 37.8038V34.3101C93.8179 31.445 91.4865 29.1143 88.6222 29.1143H87.1377C84.2733 29.1143 81.9419 31.445 81.9419 34.3101V38.0213C81.9419 39.6416 82.5818 41.1543 83.7449 42.2833C83.8814 42.4154 84.0232 42.5401 84.1687 42.6573V43.4849C84.1687 43.8375 83.9178 44.1441 83.5719 44.2131L78.5358 45.2196C78.0316 45.3217 77.5781 45.5948 77.252 45.9926C76.926 46.3905 76.7473 46.8888 76.7462 47.4033V51.3817H73.7773V27.6306C73.7773 26.8119 74.443 26.1461 75.2617 26.1461H96.0446C96.2415 26.1461 96.4302 26.0679 96.5694 25.9287C96.7086 25.7895 96.7868 25.6007 96.7868 25.4039C96.7868 25.207 96.7086 25.0182 96.5694 24.879C96.4302 24.7398 96.2415 24.6616 96.0446 24.6616H75.2617C73.6244 24.6616 72.2928 25.9932 72.2928 27.6306V51.3824H69.3238C69.1269 51.3824 68.9381 51.4606 68.7989 51.5998C68.6597 51.739 68.5815 51.9278 68.5815 52.1247V55.0937C68.5815 56.3213 69.5806 57.3204 70.8083 57.3204H90.5446C90.7414 57.3204 90.9302 57.2422 91.0694 57.103C91.2086 56.9638 91.2868 56.775 91.2868 56.5781ZM83.4264 38.022V34.3108C83.4264 32.2644 85.0913 30.5996 87.1377 30.5996H88.6222C90.6685 30.5996 92.3334 32.2644 92.3334 34.3108V37.8045C92.3334 40.3081 90.3976 42.402 88.018 42.474C87.4214 42.494 86.827 42.3931 86.2705 42.1774C85.714 41.9617 85.2068 41.6356 84.7795 41.2189C84.35 40.805 84.0088 40.3085 83.7763 39.7592C83.5439 39.2099 83.4251 38.6192 83.4272 38.0228L83.4264 38.022Z" fill="white"/>
</g>
<defs>
<filter id="filter0_f_139_621" x="0.971222" y="35.7569" width="183.293" height="127.271" filterUnits="userSpaceOnUse" color-interpolation-filters="sRGB">
<feFlood flood-opacity="0" result="BackgroundImageFix"/>
<feBlend mode="normal" in="SourceGraphic" in2="BackgroundImageFix" result="shape"/>
<feGaussianBlur stdDeviation="12.4697" result="effect1_foregroundBlur_139_621"/>
</filter>
<clipPath id="clip0_139_621">
<rect width="47.5037" height="47.5037" fill="white" transform="translate(68.5815 24.6616)"/>
</clipPath>
</defs>
</svg>
