<svg width="184" height="164" viewBox="0 0 184 164" fill="none" xmlns="http://www.w3.org/2000/svg">
<g opacity="0.3" filter="url(#filter0_f_139_686)">
<path d="M29.2337 104.041C25.8683 102.098 25.0731 99.1199 27.2689 96.6822L27.8873 95.9957C28.4713 95.3474 29.2463 94.7626 30.1776 94.2677L84.5561 65.3698C88.7544 63.1387 95.2217 63.1524 99.3915 65.4013L154.649 95.2028C155.331 95.5708 155.926 95.9895 156.418 96.448C158.996 98.8519 158.37 101.964 154.907 103.963L99.7165 135.824C95.4563 138.284 88.5492 138.284 84.2889 135.824L29.2337 104.041Z" fill="#8F00FF" stroke="#8F00FF" stroke-width="1.18759"/>
<rect x="1.02851" width="78.8471" height="78.8471" rx="8.90694" transform="matrix(0.866044 -0.499967 0.866044 0.499967 22.8272 98.4429)" fill="#8F00FF" stroke="#8F00FF" stroke-width="1.18759"/>
</g>
<path d="M16.3538 65.7045C12.9884 63.7617 12.1933 60.7836 14.389 58.3459L16.0284 56.5259C16.6124 55.8775 17.3874 55.2928 18.3187 54.7979L84.5562 19.5978C88.7545 17.3667 95.2218 17.3805 99.3916 19.6293L166.552 55.8503C167.257 56.2307 167.872 56.6635 168.38 57.1374L169.228 57.928C171.893 60.4129 171.246 63.6296 167.666 65.6961L99.7166 104.924C95.4564 107.383 88.5492 107.383 84.289 104.924L16.3538 65.7045Z" fill="#8F00FF" stroke="#8F00FF" stroke-width="1.18759"/>
<rect x="1.02851" width="93.7192" height="93.7192" rx="8.90694" transform="matrix(0.866044 -0.499967 0.866044 0.499967 9.94686 59.5626)" fill="white" stroke="#8F00FF" stroke-width="1.18759"/>
<path d="M16.3538 55.0166C12.9884 53.0737 12.1933 50.0956 14.389 47.6579L16.0284 45.8379C16.6124 45.1895 17.3874 44.6048 18.3187 44.1099L84.5562 8.90984C88.7545 6.67876 95.2218 6.6925 99.3916 8.94134L166.552 45.1623C167.257 45.5427 167.872 45.9756 168.38 46.4494L169.228 47.2401C171.893 49.7249 171.246 52.9416 167.666 55.0081L99.7166 94.2355C95.4564 96.695 88.5492 96.695 84.289 94.2355L16.3538 55.0166Z" fill="#8F00FF" stroke="#8F00FF" stroke-width="1.18759"/>
<rect x="1.02851" width="93.7192" height="93.7192" rx="8.90694" transform="matrix(0.866044 -0.499967 0.866044 0.499967 9.94686 48.8746)" fill="#8F00FF" stroke="#8F00FF" stroke-width="1.18759"/>
<path fill-rule="evenodd" clip-rule="evenodd" d="M69.9488 69.8267H90.2121C90.4188 69.8267 90.617 69.7446 90.7632 69.5985C90.9093 69.4523 90.9914 69.2541 90.9914 69.0474C90.9914 68.8407 90.9093 68.6424 90.7632 68.4963C90.617 68.3501 90.4188 68.268 90.2121 68.268H70.7281V32.4176H76.1836C76.3903 32.4176 76.5886 32.3355 76.7347 32.1893C76.8809 32.0432 76.963 31.8449 76.963 31.6382V26.1827H103.461V37.8731C103.461 38.0798 103.543 38.278 103.689 38.4242C103.836 38.5703 104.034 38.6524 104.24 38.6524C104.447 38.6524 104.645 38.5703 104.792 38.4242C104.938 38.278 105.02 38.0798 105.02 37.8731V25.4034C105.02 25.1967 104.938 24.9985 104.792 24.8523C104.645 24.7061 104.447 24.624 104.24 24.624H76.1836C76.0812 24.6238 75.9798 24.6438 75.8851 24.6829C75.7904 24.7219 75.7044 24.7793 75.6319 24.8516L69.397 31.0865C69.3247 31.159 69.2674 31.245 69.2283 31.3397C69.1893 31.4344 69.1693 31.5358 69.1694 31.6382V69.0474C69.1694 69.2541 69.2515 69.4523 69.3977 69.5985C69.5439 69.7446 69.7421 69.8267 69.9488 69.8267ZM71.8302 30.8589L75.4043 27.2847V30.8589H71.8302Z" fill="white"/>
<path fill-rule="evenodd" clip-rule="evenodd" d="M74.6251 46.4461H93.3296C93.5363 46.4461 93.7346 46.364 93.8807 46.2178C94.0269 46.0717 94.109 45.8735 94.109 45.6668C94.109 45.4601 94.0269 45.2618 93.8807 45.1157C93.7346 44.9695 93.5363 44.8874 93.3296 44.8874H74.6251C74.4184 44.8874 74.2201 44.9695 74.074 45.1157C73.9278 45.2618 73.8457 45.4601 73.8457 45.6668C73.8457 45.8735 73.9278 46.0717 74.074 46.2178C74.2201 46.364 74.4184 46.4461 74.6251 46.4461ZM98.7851 47.2255C98.7872 48.1045 99.0006 48.9701 99.4076 49.7492C99.8145 50.5284 100.403 51.1982 101.123 51.7021V60.4745H98.7851C98.5784 60.4745 98.3802 60.5566 98.234 60.7028C98.0879 60.849 98.0058 61.0472 98.0058 61.2539C98.0058 61.4606 98.0879 61.6588 98.234 61.805C98.3802 61.9511 98.5784 62.0333 98.7851 62.0333H99.5645V63.592H98.0058C97.4938 63.5905 96.9866 63.6906 96.5136 63.8864C96.0406 64.0823 95.6111 64.37 95.25 64.7329C94.5218 65.4656 94.1118 66.4558 94.109 67.4887V69.0475C94.109 69.2542 94.1911 69.4524 94.3373 69.5986C94.4834 69.7447 94.6816 69.8268 94.8883 69.8268H101.123C101.33 69.8268 101.528 69.7447 101.674 69.5986C101.82 69.4524 101.903 69.2542 101.903 69.0475C101.903 68.8408 101.82 68.6425 101.674 68.4964C101.528 68.3502 101.33 68.2681 101.123 68.2681H95.6677V67.4887C95.6677 66.8687 95.914 66.274 96.3525 65.8355C96.791 65.397 97.3857 65.1507 98.0058 65.1507H110.475C110.783 65.1502 111.087 65.2105 111.37 65.3283C111.654 65.446 111.911 65.6187 112.128 65.8365C112.565 66.2755 112.811 66.8692 112.814 67.4887V68.2681H107.358C107.151 68.2681 106.953 68.3502 106.807 68.4964C106.661 68.6425 106.579 68.8408 106.579 69.0475C106.579 69.2542 106.661 69.4524 106.807 69.5986C106.953 69.7447 107.151 69.8268 107.358 69.8268H113.593C113.8 69.8268 113.998 69.7447 114.144 69.5986C114.29 69.4524 114.372 69.2542 114.372 69.0475V67.4887C114.37 66.4557 113.96 65.4654 113.231 64.7329C112.87 64.37 112.441 64.0823 111.968 63.8864C111.495 63.6906 110.987 63.5905 110.475 63.592H108.917V62.0333H109.696C109.903 62.0333 110.101 61.9511 110.247 61.805C110.393 61.6588 110.475 61.4606 110.475 61.2539C110.475 61.0472 110.393 60.849 110.247 60.7028C110.101 60.5566 109.903 60.4745 109.696 60.4745H107.358V51.7021C108.128 51.166 108.747 50.4405 109.154 49.5956C109.562 48.7507 109.745 47.815 109.685 46.8788C109.626 45.9426 109.326 45.0376 108.814 44.2511C108.303 43.4647 107.597 42.8234 106.766 42.3891C105.934 41.9549 105.005 41.7425 104.067 41.7723C103.13 41.8021 102.216 42.0732 101.413 42.5594C100.611 43.0456 99.9476 43.7304 99.4872 44.5478C99.0269 45.3651 98.785 46.2874 98.7851 47.2255ZM107.358 63.592H101.123V62.0333H107.358V63.592ZM108.137 47.2255C108.136 47.9096 107.955 48.5814 107.613 49.1738C107.271 49.7662 106.779 50.2585 106.187 50.6016C106.069 50.6699 105.971 50.768 105.903 50.8862C105.834 51.0044 105.798 51.1385 105.798 51.275V60.4745H102.68V51.275C102.68 51.1386 102.644 51.0047 102.576 50.8865C102.508 50.7683 102.41 50.6701 102.292 50.6016C101.7 50.2597 101.208 49.7678 100.866 49.1755C100.524 48.5832 100.344 47.9113 100.344 47.2273C100.344 46.5433 100.524 45.8714 100.866 45.279C101.208 44.6866 101.699 44.1947 102.292 43.8526C102.884 43.5105 103.556 43.3303 104.24 43.3301C104.924 43.33 105.596 43.5098 106.188 43.8517C106.78 44.1935 107.273 44.6852 107.615 45.2774C107.957 45.8697 108.137 46.5415 108.137 47.2255Z" fill="white"/>
<path d="M104.24 69.8268C104.671 69.8268 105.02 69.4779 105.02 69.0474C105.02 68.617 104.671 68.2681 104.24 68.2681C103.81 68.2681 103.461 68.617 103.461 69.0474C103.461 69.4779 103.81 69.8268 104.24 69.8268Z" fill="white"/>
<path fill-rule="evenodd" clip-rule="evenodd" d="M77.5632 60.7426C77.5777 61.5429 77.9027 62.3062 78.4696 62.8714C79.0365 63.4365 79.8008 63.7591 80.6012 63.7711C80.8309 63.7714 81.0583 63.817 81.2704 63.9052C81.4825 63.9935 81.6751 64.1227 81.8372 64.2855C82.4124 64.839 83.1791 65.1489 83.9773 65.1506C84.7793 65.1523 85.5499 64.8395 86.1237 64.2793C86.4544 63.9542 86.8991 63.7713 87.3629 63.7696C88.1632 63.7559 88.9267 63.4314 89.492 62.8647C90.0573 62.2979 90.3798 61.5335 90.3915 60.7332C90.3918 60.5037 90.4374 60.2765 90.5256 60.0647C90.6139 59.8529 90.7431 59.6605 90.9058 59.4987C91.4614 58.9229 91.7714 58.1536 91.7702 57.3534C91.7691 56.5533 91.4569 55.7849 90.8996 55.2107C90.7373 55.0478 90.6088 54.8545 90.5214 54.6418C90.4339 54.4292 90.3892 54.2014 90.3899 53.9715C90.3754 53.1714 90.0506 52.4083 89.4841 51.8432C88.9176 51.2781 88.1536 50.9553 87.3535 50.9429C86.89 50.94 86.4462 50.7553 86.1175 50.4285C85.5318 49.8924 84.7662 49.5956 83.9722 49.5968C83.1782 49.5979 82.4136 49.897 81.8294 50.4348C81.5022 50.7604 81.0597 50.9436 80.5981 50.9445H80.5918C79.7915 50.9582 79.0279 51.2827 78.4627 51.8494C77.8974 52.4161 77.5749 53.1805 77.5632 53.9809C77.5629 54.2103 77.5173 54.4375 77.4291 54.6494C77.3408 54.8612 77.2116 55.0535 77.0489 55.2154C76.4927 55.7908 76.1822 56.56 76.1831 57.3603C76.1839 58.1606 76.4961 58.9292 77.0535 59.5034C77.2159 59.6662 77.3445 59.8595 77.432 60.0721C77.5195 60.2848 77.5641 60.5126 77.5632 60.7426ZM78.1602 56.3096C78.7743 55.6956 79.1202 54.8633 79.122 53.9949C79.1299 53.602 79.2894 53.2274 79.5671 52.9494C79.8448 52.6714 80.2192 52.5116 80.6121 52.5032C81.4779 52.5001 82.3077 52.1563 82.9221 51.5461C83.2111 51.2873 83.5851 51.1436 83.973 51.1425C84.361 51.1413 84.7359 51.2828 85.0264 51.5399C85.6398 52.153 86.4707 52.4987 87.3379 52.5016C87.7298 52.5099 88.1034 52.6686 88.3814 52.9449C88.6594 53.2211 88.8205 53.5938 88.8312 53.9855C88.8318 54.8537 89.1759 55.6864 89.7882 56.3018C90.0591 56.5847 90.2109 56.961 90.2121 57.3527C90.2132 57.7444 90.0637 58.1215 89.7945 58.406C89.1807 59.0196 88.8349 59.8513 88.8327 60.7192C88.8248 61.1112 88.666 61.4851 88.3893 61.763C88.1126 62.0409 87.7393 62.2013 87.3473 62.2109C86.4799 62.2129 85.6482 62.5568 85.0326 63.1679C84.7433 63.4261 84.3694 63.5694 83.9816 63.5705C83.5939 63.5717 83.2191 63.4307 82.9283 63.1741C82.3145 62.5607 81.483 62.215 80.6152 62.2124C80.2234 62.2042 79.8497 62.0455 79.5717 61.7692C79.2937 61.4929 79.1327 61.1203 79.122 60.7285C79.1215 59.8603 78.7774 59.0276 78.1649 58.4123C77.8938 58.1293 77.7421 57.7529 77.7413 57.3611C77.7404 56.9693 77.8904 56.5937 78.1602 56.3096ZM74.6251 41.7699H93.3296C93.5363 41.7699 93.7346 41.6878 93.8807 41.5416C94.0269 41.3955 94.109 41.1972 94.109 40.9905C94.109 40.7838 94.0269 40.5856 93.8807 40.4394C93.7346 40.2933 93.5363 40.2112 93.3296 40.2112H74.6251C74.4184 40.2112 74.2201 40.2933 74.074 40.4394C73.9278 40.5856 73.8457 40.7838 73.8457 40.9905C73.8457 41.1972 73.9278 41.3955 74.074 41.5416C74.2201 41.6878 74.4184 41.7699 74.6251 41.7699ZM73.8457 36.3144C73.8457 36.5211 73.9278 36.7193 74.074 36.8655C74.2201 37.0116 74.4184 37.0937 74.6251 37.0937H99.5645C99.7712 37.0937 99.9694 37.0116 100.116 36.8655C100.262 36.7193 100.344 36.5211 100.344 36.3144C100.344 36.1077 100.262 35.9095 100.116 35.7633C99.9694 35.6171 99.7712 35.535 99.5645 35.535H74.6251C74.4184 35.535 74.2201 35.6171 74.074 35.7633C73.9278 35.9095 73.8457 36.1077 73.8457 36.3144ZM99.5645 32.4176C99.7712 32.4176 99.9694 32.3355 100.116 32.1893C100.262 32.0432 100.344 31.8449 100.344 31.6382C100.344 31.4315 100.262 31.2333 100.116 31.0872C99.9694 30.941 99.7712 30.8589 99.5645 30.8589H80.8599C80.6532 30.8589 80.455 30.941 80.3088 31.0872C80.1627 31.2333 80.0806 31.4315 80.0806 31.6382C80.0806 31.8449 80.1627 32.0432 80.3088 32.1893C80.455 32.3355 80.6532 32.4176 80.8599 32.4176H99.5645Z" fill="white"/>
<defs>
<filter id="filter0_f_139_686" x="0.371613" y="35.7569" width="183.293" height="127.271" filterUnits="userSpaceOnUse" color-interpolation-filters="sRGB">
<feFlood flood-opacity="0" result="BackgroundImageFix"/>
<feBlend mode="normal" in="SourceGraphic" in2="BackgroundImageFix" result="shape"/>
<feGaussianBlur stdDeviation="12.4697" result="effect1_foregroundBlur_139_686"/>
</filter>
</defs>
</svg>
