<svg width="164" height="230" viewBox="0 0 164 230" fill="none" xmlns="http://www.w3.org/2000/svg">
<g clip-path="url(#clip0_1625_3749)">
<circle cx="64.5" cy="78.5" r="99.5" fill="#FF00A7"/>
<path d="M11.3849 92.9513C23.5342 51.7488 18.1186 20.3176 -32.0765 8.78714C-114.422 3.52798 -151.976 101.893 -129.515 153.856C-107.054 205.818 -45.0868 250.292 6.87577 227.831C120.401 167.865 -5.49495 150.197 11.3849 92.9513Z" fill="#4800FF"/>
<g clip-path="url(#clip1_1625_3749)">
<path d="M86.9683 81.1356C87.968 80.146 88.5885 78.7742 88.5885 77.2598C88.5885 74.2518 86.1408 71.8047 83.1323 71.8047C80.8139 71.8047 78.7592 73.2743 77.9919 75.4279C77.6704 75.3686 77.3395 75.336 77.001 75.336C76.6624 75.336 76.3317 75.3686 76.01 75.4279C75.2428 73.2742 73.1879 71.8047 70.8697 71.8047C67.8611 71.8047 65.4134 74.2518 65.4134 77.2598C65.4134 78.7742 66.034 80.146 67.0338 81.1356C64.6356 82.5016 63.0918 85.0884 63.0918 87.9018C63.0918 88.3873 63.4853 88.7807 63.9707 88.7807C64.4561 88.7807 64.8496 88.3873 64.8496 87.9018C64.8496 85.417 66.4053 83.1607 68.724 82.2758C69.7125 82.7004 70.8049 82.8215 71.8624 82.6237C72.1381 83.3934 72.5829 84.0914 73.164 84.6664C71.9664 85.344 70.9705 86.3277 70.278 87.5168C69.5856 88.7058 69.2216 90.0575 69.2233 91.4335C69.2233 91.919 69.6168 92.3124 70.1022 92.3124C70.5876 92.3124 70.9811 91.919 70.9811 91.4335C70.9797 90.2495 71.3279 89.0915 71.982 88.1047C72.6362 87.1179 73.5671 86.3461 74.658 85.8863C74.7178 85.8609 74.773 85.8294 74.8239 85.7934C75.5104 86.0938 76.2517 86.2485 77.001 86.248C77.7627 86.248 78.4881 86.0906 79.1472 85.8075C81.4648 86.6924 83.0208 88.9511 83.0208 91.4335C83.0208 91.919 83.4143 92.3124 83.8997 92.3124C84.3851 92.3124 84.7786 91.919 84.7786 91.4335C84.7786 88.6227 83.2345 86.0338 80.837 84.6673C81.4186 84.0921 81.8637 83.3938 82.1396 82.6237C83.197 82.8215 84.2894 82.7004 85.2779 82.2758C87.5965 83.1607 89.1522 85.4168 89.1522 87.9018C89.1522 88.3873 89.5457 88.7807 90.0311 88.7807C90.5165 88.7807 90.91 88.3873 90.91 87.9018C90.9103 85.0883 89.3664 82.5016 86.9683 81.1356ZM71.5452 80.7921C71.5452 80.8267 71.5472 80.8606 71.5477 80.895C71.3264 80.9362 71.0996 80.9583 70.8698 80.9583C68.8305 80.9583 67.1714 79.2992 67.1714 77.2598C67.1714 75.2212 68.8305 73.5625 70.8698 73.5625C72.4432 73.5625 73.8369 74.5608 74.3556 76.0226C72.681 76.9552 71.5452 78.7432 71.5452 80.7921ZM73.303 80.7921C73.303 78.753 74.9619 77.094 77.0011 77.094C79.0403 77.094 80.6992 78.7529 80.6992 80.7921C80.6992 82.8313 79.0403 84.4902 77.0011 84.4902C74.9619 84.4902 73.303 82.8312 73.303 80.7921ZM82.4543 80.895C82.4549 80.8606 82.4569 80.8265 82.4569 80.7921C82.4569 78.7432 81.3211 76.9553 79.6465 76.0228C80.1652 74.561 81.5589 73.5626 83.1323 73.5626C85.1716 73.5626 86.8307 75.2212 86.8307 77.2599C86.8307 79.2992 85.1716 80.9584 83.1323 80.9584C82.9048 80.9581 82.6779 80.9368 82.4543 80.895Z" fill="white"/>
<path d="M99.7613 89.985V74.0091C101.952 73.5957 103.615 71.6686 103.615 69.3594C103.615 66.7497 101.492 64.6266 98.8819 64.6266C97.4477 64.6266 96.1613 65.2687 95.2927 66.2796L81.466 58.2962C81.6426 57.7938 81.7327 57.2651 81.7326 56.7326C81.7326 54.1231 79.6095 52 76.9998 52C74.3902 52 72.267 54.1231 72.267 56.7328C72.267 57.2806 72.3615 57.8064 72.5336 58.2963L58.7069 66.2796C57.8383 65.2687 56.5519 64.6266 55.1176 64.6266C52.5079 64.6266 50.3848 66.7497 50.3848 69.3594C50.3848 71.6686 52.0474 73.5956 54.2383 74.0091V89.985C52.0474 90.3985 50.3848 92.3255 50.3848 94.6347C50.3848 97.2445 52.5079 99.3676 55.1176 99.3676C56.5497 99.3676 57.8342 98.7274 58.7028 97.7193L72.5334 105.704C72.3569 106.206 72.2668 106.735 72.267 107.267C72.267 109.877 74.3901 112 76.9998 112C79.6096 112 81.7327 109.877 81.7327 107.267C81.7327 106.72 81.6381 106.194 81.4662 105.704L95.2969 97.7193C96.1655 98.7275 97.45 99.3676 98.882 99.3676C101.492 99.3676 103.615 97.2445 103.615 94.6347C103.615 92.3254 101.952 90.3985 99.7613 89.985ZM98.8819 66.3844C100.522 66.3844 101.857 67.719 101.857 69.3594C101.857 70.9998 100.522 72.3345 98.8819 72.3345C97.2415 72.3345 95.9069 70.9998 95.9069 69.3594C95.9069 67.719 97.2415 66.3844 98.8819 66.3844ZM76.9998 53.7578C78.6402 53.7578 79.9749 55.0924 79.9749 56.7328C79.9749 58.3716 78.6427 59.7052 77.0044 59.7077L76.9998 59.7075L76.9953 59.7077C75.357 59.7052 74.0248 58.3716 74.0248 56.7328C74.0248 55.0924 75.3593 53.7578 76.9998 53.7578ZM52.1426 69.3594C52.1426 67.719 53.4772 66.3844 55.1176 66.3844C56.758 66.3844 58.0927 67.719 58.0927 69.3594C58.0927 70.9998 56.758 72.3345 55.1176 72.3345C53.4772 72.3345 52.1426 70.9998 52.1426 69.3594ZM55.1176 97.6096C53.4772 97.6096 52.1426 96.275 52.1426 94.6346C52.1426 92.9942 53.4772 91.6595 55.1176 91.6595C56.758 91.6595 58.0927 92.9942 58.0927 94.6346C58.0927 96.275 56.758 97.6096 55.1176 97.6096ZM76.9998 110.242C75.3594 110.242 74.0248 108.908 74.0248 107.267C74.0248 105.627 75.3594 104.292 76.9998 104.292C78.6402 104.292 79.9749 105.627 79.9749 107.267C79.9749 108.908 78.6402 110.242 76.9998 110.242ZM80.5852 104.183C79.8988 103.386 78.9525 102.82 77.8786 102.617V99.2314C77.8786 98.7459 77.4851 98.3525 76.9997 98.3525C76.5143 98.3525 76.1208 98.7459 76.1208 99.2314V102.617C75.047 102.82 74.1007 103.386 73.4142 104.183L59.5838 96.1982C59.7604 95.6959 59.8506 95.1672 59.8504 94.6347C59.8504 94.0864 59.7556 93.56 59.5833 93.0698L62.5166 91.3758C62.7151 91.2576 62.8591 91.0659 62.9174 90.8423C62.9757 90.6186 62.9436 90.381 62.8281 90.1809C62.7125 89.9808 62.5227 89.8342 62.2999 89.773C62.0771 89.7117 61.8391 89.7406 61.6374 89.8535L58.7016 91.549C58.0152 90.7528 57.0693 90.1873 55.996 89.9849V74.0092C57.0696 73.8068 58.0158 73.2409 58.7022 72.4444L61.642 74.1421C61.7419 74.1999 61.8523 74.2374 61.9667 74.2525C62.0811 74.2676 62.1974 74.26 62.3089 74.2301C62.4204 74.2003 62.5249 74.1487 62.6165 74.0784C62.7081 74.0082 62.7849 73.9205 62.8426 73.8206C62.9003 73.7206 62.9378 73.6103 62.9529 73.4958C62.9679 73.3814 62.9603 73.2651 62.9305 73.1536C62.9006 73.0421 62.8491 72.9376 62.7788 72.846C62.7086 72.7544 62.621 72.6776 62.521 72.6198L59.5835 70.9234C59.7601 70.4209 59.8503 69.8921 59.8502 69.3594C59.8503 68.8291 59.7609 68.3025 59.5856 67.8019L73.4142 59.8173C74.1006 60.6139 75.0468 61.1799 76.1205 61.3824V64.7688C76.1205 65.2543 76.514 65.6477 76.9994 65.6477C77.4848 65.6477 77.8783 65.2543 77.8783 64.7688V61.3824C78.952 61.1799 79.8981 60.6139 80.5845 59.8173L94.4132 67.8019C94.2379 68.3025 94.1485 68.8291 94.1486 69.3594C94.1486 69.9074 94.2433 70.4335 94.4153 70.9234L91.4777 72.6198C91.2759 72.7364 91.1286 72.9284 91.0683 73.1536C91.0079 73.3787 91.0395 73.6186 91.1561 73.8205C91.2727 74.0224 91.4647 74.1697 91.6898 74.23C91.915 74.2903 92.1549 74.2587 92.3568 74.1421L95.2965 72.4444C95.983 73.2409 96.9292 73.8068 98.0028 74.0092V89.9849C96.9294 90.1873 95.9836 90.7528 95.2971 91.549L92.3613 89.8535C92.2614 89.7958 92.151 89.7583 92.0366 89.7433C91.9222 89.7282 91.8059 89.7358 91.6944 89.7656C91.5829 89.7955 91.4784 89.847 91.3868 89.9173C91.2952 89.9875 91.2184 90.0751 91.1606 90.1751C91.1029 90.2751 91.0654 90.3854 91.0503 90.4998C91.0353 90.6143 91.0429 90.7306 91.0727 90.8421C91.1026 90.9536 91.1541 91.0581 91.2244 91.1497C91.2946 91.2412 91.3822 91.3181 91.4822 91.3758L94.4154 93.0698C94.2385 93.5725 94.1482 94.1017 94.1483 94.6347C94.1483 95.1826 94.2429 95.7085 94.4149 96.1982L80.5852 104.183ZM98.8819 97.6096C97.2415 97.6096 95.9069 96.275 95.9069 94.6346C95.9069 92.9942 97.2415 91.6595 98.8819 91.6595C100.522 91.6595 101.857 92.9942 101.857 94.6346C101.857 96.275 100.522 97.6096 98.8819 97.6096Z" fill="white"/>
</g>
</g>
<defs>
<clipPath id="clip0_1625_3749">
<rect width="164" height="230" fill="white"/>
</clipPath>
<clipPath id="clip1_1625_3749">
<rect width="60" height="60" fill="white" transform="translate(47 52)"/>
</clipPath>
</defs>
</svg>
