<svg width="111" height="111" viewBox="0 0 111 111" fill="none" xmlns="http://www.w3.org/2000/svg">
<circle opacity="0.3" cx="55.5" cy="55.5" r="55.5" fill="white"/>
<path d="M56.0149 62.7074C56.0149 62.705 56.0147 62.7038 56.0146 62.7033L56.0141 62.7017C56.0136 62.7004 56.0124 62.6983 56.0101 62.696C56.0078 62.6937 56.0056 62.6925 56.0044 62.6919L56.0028 62.6914C56.0023 62.6913 56.001 62.6911 55.9987 62.6911C55.9964 62.6911 55.9951 62.6913 55.9946 62.6914L55.993 62.6919C55.9917 62.6925 55.9896 62.6937 55.9873 62.696C55.985 62.6983 55.9838 62.7004 55.9833 62.7017L55.9827 62.7033C55.9826 62.7038 55.9824 62.705 55.9824 62.7074C55.9824 62.7097 55.9826 62.7109 55.9827 62.7115L55.9833 62.7131C55.9838 62.7143 55.985 62.7165 55.9873 62.7188C55.9896 62.7211 55.9917 62.7223 55.993 62.7228L55.9946 62.7233C55.9951 62.7234 55.9964 62.7236 55.9987 62.7236C56.001 62.7236 56.0023 62.7234 56.0028 62.7233L56.0044 62.7228C56.0056 62.7223 56.0078 62.7211 56.0101 62.7188C56.0124 62.7165 56.0136 62.7143 56.0141 62.7131L56.0146 62.7115C56.0147 62.7109 56.0149 62.7097 56.0149 62.7074Z" stroke="white" stroke-width="2"/>
<path d="M48.5783 66.6382L43.8049 58.8821L31 81H81.0001L68.1952 58.8821L63.4218 66.6382" stroke="white" stroke-width="2" stroke-miterlimit="10" stroke-linecap="round" stroke-linejoin="round"/>
<path d="M72.2606 81L56.0004 54.5772L39.7402 81" stroke="white" stroke-width="2" stroke-miterlimit="10" stroke-linecap="round" stroke-linejoin="round"/>
<path d="M58.2949 66.0626L64.986 76.9355" stroke="white" stroke-width="2" stroke-miterlimit="10" stroke-linecap="round" stroke-linejoin="round"/>
<path d="M56 54.5771V30.9999" stroke="white" stroke-width="2" stroke-miterlimit="10" stroke-linecap="round" stroke-linejoin="round"/>
<path d="M56 31.0005H72.2602L68.1951 36.0818L72.2602 41.1631H56" stroke="white" stroke-width="2" stroke-miterlimit="10" stroke-linecap="round" stroke-linejoin="round"/>
</svg>
