<svg width="111" height="111" viewBox="0 0 111 111" fill="none" xmlns="http://www.w3.org/2000/svg">
<circle opacity="0.3" cx="55.5" cy="55.5" r="55" fill="white" stroke="white"/>
<path d="M64.9713 55.222C65.871 54.3314 66.4295 53.0968 66.4295 51.7338C66.4295 49.0266 64.2266 46.8242 61.5188 46.8242C59.4323 46.8242 57.583 48.1469 56.8925 50.0851C56.6031 50.0318 56.3054 50.0024 56.0007 50.0024C55.696 50.0024 55.3984 50.0318 55.1088 50.0851C54.4183 48.1468 52.5689 46.8242 50.4825 46.8242C47.7748 46.8242 45.5719 49.0266 45.5719 51.7338C45.5719 53.0968 46.1304 54.3314 47.0302 55.222C44.8719 56.4515 43.4824 58.7796 43.4824 61.3116C43.4824 61.7486 43.8366 62.1026 44.2734 62.1026C44.7103 62.1026 45.0645 61.7486 45.0645 61.3116C45.0645 59.0753 46.4646 57.0446 48.5514 56.2482C49.441 56.6303 50.4242 56.7393 51.376 56.5614C51.6241 57.254 52.0244 57.8822 52.5474 58.3998C51.4696 59.0096 50.5732 59.8949 49.95 60.9651C49.3269 62.0352 48.9993 63.2518 49.0008 64.4901C49.0008 64.9271 49.355 65.2811 49.7918 65.2811C50.2287 65.2811 50.5828 64.9271 50.5828 64.4901C50.5816 63.4246 50.8949 62.3824 51.4836 61.4942C52.0723 60.6061 52.9102 59.9115 53.892 59.4976C53.9458 59.4748 53.9955 59.4465 54.0413 59.4141C54.6591 59.6844 55.3263 59.8237 56.0007 59.8232C56.6862 59.8232 57.3391 59.6816 57.9323 59.4268C60.0181 60.2232 61.4185 62.256 61.4185 64.4901C61.4185 64.9271 61.7727 65.2811 62.2096 65.2811C62.6464 65.2811 63.0006 64.9271 63.0006 64.4901C63.0006 61.9604 61.6108 59.6304 59.4531 58.4005C59.9765 57.8829 60.3771 57.2544 60.6254 56.5614C61.5771 56.7394 62.5603 56.6304 63.4499 56.2482C65.5367 57.0446 66.9368 59.0751 66.9368 61.3116C66.9368 61.7486 67.291 62.1026 67.7278 62.1026C68.1647 62.1026 68.5188 61.7486 68.5188 61.3116C68.5191 58.7795 67.1296 56.4515 64.9713 55.222ZM51.0905 54.9129C51.0905 54.944 51.0922 54.9746 51.0928 55.0055C50.8935 55.0426 50.6895 55.0624 50.4826 55.0624C48.6473 55.0624 47.154 53.5693 47.154 51.7338C47.154 49.8991 48.6473 48.4063 50.4826 48.4063C51.8987 48.4063 53.153 49.3048 53.6198 50.6204C52.1127 51.4597 51.0905 53.0688 51.0905 54.9129ZM52.6725 54.9129C52.6725 53.0777 54.1655 51.5846 56.0008 51.5846C57.8361 51.5846 59.3291 53.0776 59.3291 54.9129C59.3291 56.7481 57.8361 58.2412 56.0008 58.2412C54.1655 58.2412 52.6725 56.748 52.6725 54.9129ZM60.9087 55.0055C60.9092 54.9746 60.911 54.9439 60.911 54.9129C60.911 53.0688 59.8888 51.4598 58.3817 50.6205C58.8485 49.3049 60.1028 48.4064 61.5188 48.4064C63.3542 48.4064 64.8475 49.8991 64.8475 51.7339C64.8475 53.5693 63.3542 55.0625 61.5188 55.0625C61.3141 55.0623 61.1099 55.0432 60.9087 55.0055Z" fill="white"/>
<path d="M76.4858 63.1865V48.8082C78.4575 48.4361 79.9539 46.7018 79.9539 44.6235C79.9539 42.2747 78.0431 40.3639 75.6943 40.3639C74.4035 40.3639 73.2457 40.9419 72.464 41.8517L60.02 34.6666C60.1789 34.2144 60.26 33.7386 60.2599 33.2594C60.2599 30.9108 58.3491 29 56.0004 29C53.6517 29 51.7409 30.9108 51.7409 33.2595C51.7409 33.7526 51.826 34.2258 51.9808 34.6667L39.5368 41.8517C38.755 40.9419 37.5973 40.3639 36.3065 40.3639C33.9577 40.3639 32.0469 42.2747 32.0469 44.6235C32.0469 46.7018 33.5433 48.436 35.515 48.8082V63.1865C33.5433 63.5586 32.0469 65.293 32.0469 67.3712C32.0469 69.72 33.9577 71.6308 36.3065 71.6308C37.5953 71.6308 38.7514 71.0546 39.5331 70.1474L51.9807 77.3338C51.8218 77.7858 51.7407 78.2614 51.7409 78.7405C51.7409 81.0893 53.6516 83.0001 56.0004 83.0001C58.3492 83.0001 60.26 81.0893 60.26 78.7405C60.26 78.2477 60.1749 77.7744 60.0202 77.3338L72.4678 70.1474C73.2495 71.0547 74.4056 71.6308 75.6944 71.6308C78.0432 71.6308 79.954 69.72 79.954 67.3712C79.9539 65.2929 78.4574 63.5586 76.4858 63.1865ZM75.6943 41.9459C77.1707 41.9459 78.3719 43.1471 78.3719 44.6235C78.3719 46.0999 77.1707 47.301 75.6943 47.301C74.218 47.301 73.0168 46.0999 73.0168 44.6235C73.0168 43.1471 74.218 41.9459 75.6943 41.9459ZM56.0004 30.582C57.4768 30.582 58.678 31.7831 58.678 33.2595C58.678 34.7345 57.479 35.9347 56.0046 35.9369L56.0004 35.9367L55.9963 35.9369C54.5219 35.9347 53.3229 34.7345 53.3229 33.2595C53.3229 31.7831 54.524 30.582 56.0004 30.582ZM33.6289 44.6235C33.6289 43.1471 34.8301 41.9459 36.3065 41.9459C37.7828 41.9459 38.984 43.1471 38.984 44.6235C38.984 46.0999 37.7828 47.301 36.3065 47.301C34.8301 47.301 33.6289 46.0999 33.6289 44.6235ZM36.3065 70.0487C34.8301 70.0487 33.6289 68.8475 33.6289 67.3711C33.6289 65.8948 34.8301 64.6936 36.3065 64.6936C37.7828 64.6936 38.984 65.8948 38.984 67.3711C38.984 68.8475 37.7828 70.0487 36.3065 70.0487ZM56.0004 81.418C54.5241 81.418 53.3229 80.2168 53.3229 78.7404C53.3229 77.264 54.5241 76.0629 56.0004 76.0629C57.4768 76.0629 58.678 77.264 58.678 78.7404C58.678 80.2168 57.4768 81.418 56.0004 81.418ZM59.2273 75.9647C58.6095 75.2475 57.7579 74.7379 56.7914 74.5557V71.5083C56.7914 71.0713 56.4372 70.7172 56.0003 70.7172C55.5635 70.7172 55.2093 71.0713 55.2093 71.5083V74.5557C54.2429 74.7381 53.3912 75.2475 52.7734 75.9647L40.326 68.7784C40.485 68.3263 40.5661 67.8505 40.566 67.3712C40.566 66.8777 40.4806 66.404 40.3256 65.9628L42.9655 64.4382C43.1442 64.3318 43.2738 64.1593 43.3263 63.958C43.3788 63.7568 43.3499 63.5429 43.2458 63.3628C43.1418 63.1827 42.971 63.0508 42.7705 62.9957C42.5699 62.9405 42.3557 62.9666 42.1743 63.0682L39.532 64.5941C38.9143 63.8776 38.063 63.3686 37.097 63.1864V48.8083C38.0633 48.6262 38.9148 48.1168 39.5326 47.4L42.1784 48.9279C42.2683 48.9799 42.3676 49.0136 42.4706 49.0272C42.5736 49.0408 42.6783 49.034 42.7786 49.0071C42.879 48.9802 42.973 48.9338 43.0554 48.8706C43.1378 48.8073 43.207 48.7285 43.2589 48.6385C43.3109 48.5485 43.3446 48.4492 43.3582 48.3462C43.3717 48.2432 43.3649 48.1386 43.338 48.0382C43.3111 47.9379 43.2648 47.8438 43.2015 47.7614C43.1383 47.679 43.0595 47.6098 42.9695 47.5579L40.3257 46.0311C40.4847 45.5788 40.5659 45.1029 40.5657 44.6235C40.5659 44.1461 40.4854 43.6722 40.3276 43.2217L52.7734 36.0355C53.3911 36.7525 54.2427 37.2619 55.209 37.4442V40.4919C55.209 40.9289 55.5632 41.283 56 41.283C56.4369 41.283 56.791 40.9289 56.791 40.4919V37.4442C57.7574 37.2619 58.6089 36.7525 59.2266 36.0355L71.6725 43.2217C71.5147 43.6722 71.4342 44.1462 71.4343 44.6235C71.4343 45.1167 71.5195 45.5901 71.6744 46.0311L69.0306 47.5579C68.8489 47.6628 68.7163 47.8356 68.662 48.0382C68.6077 48.2409 68.6362 48.4568 68.7411 48.6384C68.846 48.8201 69.0188 48.9527 69.2214 49.007C69.4241 49.0613 69.64 49.0328 69.8217 48.9279L72.4675 47.4C73.0853 48.1168 73.9369 48.6262 74.9031 48.8083V63.1864C73.9371 63.3686 73.0858 63.8776 72.468 64.5941L69.8258 63.0682C69.7358 63.0162 69.6365 62.9825 69.5335 62.9689C69.4305 62.9554 69.3259 62.9622 69.2255 62.9891C69.1252 63.016 69.0311 63.0623 68.9487 63.1256C68.8663 63.1888 68.7971 63.2676 68.7452 63.3576C68.6932 63.4476 68.6595 63.5469 68.6459 63.6499C68.6323 63.7528 68.6392 63.8575 68.666 63.9579C68.6929 64.0582 68.7393 64.1523 68.8025 64.2347C68.8658 64.3171 68.9446 64.3863 69.0346 64.4382L71.6745 65.9628C71.5152 66.4153 71.434 66.8915 71.4341 67.3712C71.4341 67.8643 71.5192 68.3376 71.674 68.7784L59.2273 75.9647ZM75.6943 70.0487C74.218 70.0487 73.0168 68.8475 73.0168 67.3711C73.0168 65.8948 74.218 64.6936 75.6943 64.6936C77.1707 64.6936 78.3719 65.8948 78.3719 67.3711C78.3719 68.8475 77.1707 70.0487 75.6943 70.0487Z" fill="white"/>
</svg>
