<svg width="111" height="111" viewBox="0 0 111 111" fill="none" xmlns="http://www.w3.org/2000/svg">
<circle opacity="0.3" cx="55.5" cy="55.5" r="55.5" fill="#4800FF"/>
<path d="M53.409 78.1164C53.4399 78.3174 53.3898 78.5224 53.2696 78.6863C53.1494 78.8503 52.969 78.9598 52.768 78.9908C52.3548 79.0554 51.9587 78.7726 51.8936 78.3499L50.1434 66.9905C49.5854 67.2119 48.9904 67.3253 48.39 67.3247C44.8558 67.3247 42.0099 70.1852 42.0099 73.7044V78.2331C42.0099 78.4365 41.9292 78.6315 41.7854 78.7753C41.6416 78.919 41.4466 78.9998 41.2433 78.9998C41.0399 78.9998 40.8449 78.919 40.7012 78.7753C40.5574 78.6315 40.4766 78.4365 40.4766 78.2331V73.7044C40.4766 70.9839 41.8459 68.5321 44.0618 67.0783C39.6123 63.4956 38.7347 57.1847 41.8264 52.5431C42.8226 51.051 43.3534 49.2967 43.3517 47.5026V43.3502C43.3515 37.6431 47.9945 33 53.7015 33H58.3014C64.0084 33 68.6514 37.6429 68.6514 43.35V47.5027C68.6514 49.3077 69.1754 51.0456 70.1668 52.5285C72.6361 56.2224 72.6245 61.0538 70.1022 64.7424C70.0458 64.8263 69.9732 64.8983 69.8888 64.9541C69.8044 65.01 69.7098 65.0485 69.6104 65.0676C69.511 65.0867 69.4089 65.0859 69.3098 65.0653C69.2107 65.0446 69.1167 65.0046 69.0332 64.9475C68.9497 64.8904 68.8783 64.8173 68.8231 64.7325C68.768 64.6476 68.7302 64.5527 68.7119 64.4532C68.6936 64.3536 68.6952 64.2515 68.7166 64.1526C68.738 64.0537 68.7788 63.96 68.8365 63.8769C71.0009 60.7118 71.0175 56.56 68.892 53.3807C67.7315 51.6447 67.1181 49.6122 67.1181 47.5027V43.35C67.1181 38.4884 63.1629 34.5333 58.3014 34.5333H53.7015C48.8399 34.5333 44.8848 38.4885 44.8848 43.3503V47.5032C44.8848 49.5394 44.3048 51.5884 43.1024 53.3933C40.4504 57.3743 41.1854 62.8305 45.0652 65.9184L45.5602 66.3124C48 65.3797 48.8111 66.2397 50.2667 65.186C51.2802 64.4031 51.593 63.5125 51.593 62.3939C48.139 60.7424 45.7472 57.2138 45.7472 53.1369V47.7583C45.7472 47.5549 45.828 47.3599 45.9718 47.2162C46.1156 47.0724 46.3106 46.9916 46.5139 46.9916C46.7172 46.9916 46.9122 47.0724 47.056 47.2162C47.1998 47.3599 47.2806 47.5549 47.2806 47.7583V53.1369C47.2806 57.9456 51.1926 61.8577 56.0014 61.8577C60.8101 61.8577 64.7222 57.9456 64.7222 53.1369V48.2962C63.0645 47.6351 61.7817 46.4462 60.9767 44.9949C58.2265 46.913 55.021 48.159 51.5909 48.5599C51.389 48.5835 51.1859 48.5259 51.0264 48.3998C50.8669 48.2737 50.764 48.0894 50.7404 47.8874C50.7168 47.6854 50.7743 47.4824 50.9005 47.3228C51.0266 47.1633 51.2109 47.0605 51.4129 47.0368C54.7388 46.6482 57.9861 45.3818 60.8057 43.2206C61.2093 42.9115 61.7985 43.0738 61.9854 43.5479C62.2275 44.1622 62.7038 45.0585 63.5975 45.8392C65.1236 47.1724 65.9137 46.7774 66.1979 47.467C66.2787 47.6634 66.2555 47.3586 66.2555 53.1369C66.2555 59.9459 59.6863 64.9111 53.1101 62.9754C53.0159 64.1687 52.4781 65.2836 51.559 66.1108L53.409 78.1164ZM63.6132 65.7913C62.9314 65.7913 62.2817 65.5808 61.7328 65.1833C61.3967 64.9268 60.8954 64.9877 60.6395 65.3558C60.5075 65.5454 60.5173 65.6326 60.3867 66.4809C58.9865 67.4787 57.288 67.9696 55.5714 67.8725C55.1474 67.8471 54.7865 68.1716 54.7624 68.5944C54.7509 68.7974 54.8205 68.9966 54.9558 69.1483C55.0912 69.3 55.2813 69.3918 55.4843 69.4033C57.0746 69.4933 58.6607 69.1638 60.0835 68.4477L58.5938 78.1164C58.5224 78.58 58.8808 78.9999 59.3525 78.9999C59.5355 78.9996 59.7123 78.934 59.8511 78.8148C59.9899 78.6956 60.0815 78.5307 60.1093 78.3499L61.8595 66.9901C62.4175 67.212 63.0126 67.3255 63.6131 67.3247C67.1392 67.3247 69.993 70.1779 69.993 73.7044V78.2331C69.993 78.4365 70.0737 78.6315 70.2175 78.7753C70.3613 78.919 70.5563 78.9998 70.7596 78.9998C70.963 78.9998 71.158 78.919 71.3017 78.7753C71.4455 78.6315 71.5263 78.4365 71.5263 78.2331V73.7044C71.5264 69.331 67.9872 65.7912 63.6132 65.7913Z" fill="#4800FF"/>
</svg>
