<svg width="111" height="111" viewBox="0 0 111 111" fill="none" xmlns="http://www.w3.org/2000/svg">
<circle opacity="0.3" cx="55.5" cy="55.5" r="55.5" fill="#FF00A7"/>
<path d="M50.1638 56.4578C50.6357 56.2438 51.0461 55.9139 51.357 55.4988C51.6679 55.0837 51.8692 54.5967 51.9424 54.0829L52.6423 49.0522C52.7127 48.5377 52.6523 48.0137 52.4667 47.5287C52.281 47.0438 51.9761 46.6137 51.5803 46.2783L46.3204 42.4741L52.4216 40.2575C52.8937 40.0437 53.3042 39.7138 53.6151 39.2987C53.926 38.8835 54.1273 38.3965 54.2002 37.8826L54.901 32.8502C54.9283 32.654 54.8767 32.455 54.7576 32.2969C54.6384 32.1388 54.4615 32.0346 54.2656 32.0072C54.0697 31.9798 53.871 32.0315 53.7132 32.1508C53.5554 32.2702 53.4514 32.4475 53.424 32.6437C53.3861 32.888 53.2936 33.1206 53.1534 33.3242C53.0133 33.5278 52.8291 33.6971 52.6146 33.8194L43.9786 36.9583C43.5065 37.1722 43.096 37.502 42.785 37.9171C42.4741 38.3323 42.2727 38.8193 42.1996 39.3332L41.4992 44.3656C41.4289 44.8801 41.4893 45.4041 41.675 45.889C41.8606 46.3739 42.1655 46.8041 42.5613 47.1395L47.8229 50.9437L41.7233 53.1585C41.2512 53.3725 40.8407 53.7023 40.5298 54.1176C40.2188 54.5328 40.0176 55.02 39.9448 55.5339L39.2444 60.5646C39.1737 61.0791 39.234 61.6032 39.4197 62.0882C39.6054 62.5732 39.9104 63.0033 40.3064 63.3385L47.753 68.7221C47.9262 68.8987 48.0574 69.1122 48.1368 69.3467C48.2162 69.5811 48.2417 69.8305 48.2114 70.0762C48.1842 70.2724 48.2359 70.4714 48.3551 70.6294C48.4742 70.7875 48.6512 70.8917 48.847 70.9191C48.8813 70.9239 48.9159 70.9262 48.9505 70.9259C49.1303 70.9258 49.304 70.8606 49.4396 70.7423C49.5751 70.6241 49.6635 70.4607 49.6884 70.2824L50.3887 65.2496C50.4588 64.7354 50.3983 64.2118 50.2126 63.7274C50.027 63.2429 49.7222 62.8132 49.3267 62.4782L44.0651 58.6749L50.1638 56.4578ZM43.6766 39.5393C43.7142 39.2947 43.8065 39.0617 43.9467 38.8579C44.0868 38.6541 44.2712 38.4846 44.486 38.3623L53.0589 35.2469L52.7207 37.6761C52.6831 37.9207 52.5907 38.1536 52.4506 38.3575C52.3104 38.5613 52.126 38.7307 51.9113 38.8531L44.4873 41.5515L44.48 41.554L43.3383 41.9689L43.6766 39.5393ZM43.4329 45.9266C43.2596 45.7501 43.1284 45.5366 43.0491 45.3021C42.9698 45.0676 42.9444 44.8182 42.9749 44.5725V44.5704C43.0129 44.3262 43.1054 44.0937 43.2455 43.8902C43.3857 43.6868 43.5699 43.5177 43.7843 43.3955L44.6223 43.0908L50.7091 47.4894C50.8854 47.6639 51.0187 47.8771 51.0982 48.1123C51.1777 48.3474 51.2013 48.5979 51.1671 48.8438C51.1328 49.0897 51.0418 49.3241 50.9011 49.5285C50.7604 49.7329 50.574 49.9015 50.3568 50.021L49.5184 50.3257L43.4329 45.9266ZM48.4542 63.6897C48.6273 63.8664 48.7584 64.0799 48.8376 64.3144C48.9168 64.5488 48.9422 64.7982 48.9118 65.0439L48.5735 67.4738L41.1785 62.1265C41.0052 61.9501 40.874 61.7367 40.7947 61.5022C40.7155 61.2678 40.6903 61.0184 40.7209 60.7728C40.7586 60.5283 40.851 60.2955 40.9912 60.0917C41.1314 59.888 41.3157 59.7186 41.5303 59.5962L42.3679 59.2911L48.4542 63.6897ZM49.6556 55.0542L42.2303 57.7526H42.2269L41.083 58.1683L41.4213 55.7387C41.4589 55.4941 41.5512 55.2612 41.6914 55.0573C41.8316 54.8535 42.0159 54.6841 42.2307 54.5617L50.8037 51.4464L50.4667 53.8785C50.4285 54.123 50.3357 54.3557 50.1953 54.5593C50.0549 54.7628 49.8704 54.932 49.6556 55.0542ZM77.5449 75.8183L76.7355 70.8043C76.6511 70.292 76.4389 69.8093 76.1187 69.4011C75.7985 68.9928 75.3806 68.6721 74.9037 68.4686L68.7573 66.386L73.9349 62.4675C74.3231 62.1238 74.6184 61.6874 74.7934 61.1989C74.9684 60.7104 75.0174 60.1856 74.9361 59.6731L74.1266 54.6569C74.0422 54.1446 73.8301 53.6619 73.5099 53.2536C73.1896 52.8454 72.7717 52.5246 72.2948 52.3212L63.5966 49.374C63.3792 49.2565 63.191 49.0913 63.0462 48.8908C62.9014 48.6902 62.8037 48.4595 62.7604 48.2158C62.7458 48.1181 62.712 48.0243 62.6609 47.9397C62.6098 47.8552 62.5425 47.7817 62.4629 47.7234C62.3833 47.6651 62.2929 47.6232 62.197 47.6002C62.1011 47.5771 62.0016 47.5734 61.9042 47.5891C61.8069 47.6049 61.7136 47.6398 61.6298 47.6919C61.546 47.7441 61.4734 47.8123 61.4161 47.8927C61.3589 47.9732 61.3181 48.0642 61.2962 48.1605C61.2743 48.2569 61.2717 48.3566 61.2885 48.4539L62.0979 53.4701C62.1826 53.9824 62.3948 54.465 62.715 54.8733C63.0352 55.2816 63.453 55.6025 63.9298 55.8062L70.0766 57.8883L64.8989 61.8056C64.5106 62.1493 64.2152 62.5857 64.0401 63.0743C63.8649 63.5628 63.8157 64.0878 63.897 64.6004L64.7064 69.6162C64.7909 70.1285 65.0031 70.6112 65.3233 71.0195C65.6435 71.4279 66.0613 71.7487 66.5382 71.9523L75.2377 74.8991C75.4549 75.0165 75.6428 75.1816 75.7875 75.3819C75.9322 75.5822 76.03 75.8126 76.0735 76.056V76.0586C76.1019 76.2335 76.1914 76.3927 76.3261 76.5077C76.4608 76.6227 76.6318 76.686 76.8088 76.6863C76.8489 76.6864 76.8889 76.6831 76.9285 76.6765C77.1237 76.6449 77.2983 76.5369 77.414 76.3762C77.5297 76.2156 77.5769 76.0155 77.5453 75.82L77.5449 75.8183ZM64.4069 54.3906C64.1895 54.2728 64.0015 54.1074 63.8567 53.9067C63.7119 53.706 63.6141 53.4752 63.5706 53.2315L63.18 50.8101L71.819 53.7368C72.0364 53.8545 72.2245 54.0198 72.3693 54.2205C72.514 54.4212 72.6116 54.6521 72.6548 54.8959C72.6902 55.1407 72.67 55.3903 72.5958 55.6262C72.5216 55.8621 72.3953 56.0783 72.2262 56.2585L71.5148 56.7971L64.4069 54.3906ZM65.7982 62.9975L73.0748 57.4923L73.4663 59.9116C73.5027 60.1567 73.4833 60.4068 73.4096 60.6433C73.3358 60.8798 73.2096 61.0966 73.0403 61.2773L65.7599 66.7833L65.3688 64.3623C65.3331 64.1171 65.3531 63.867 65.4275 63.6307C65.5019 63.3943 65.6286 63.1779 65.7982 62.9975ZM67.0162 70.5367C66.799 70.4189 66.6111 70.2536 66.4666 70.053C66.3221 69.8524 66.2247 69.6216 66.1816 69.378C66.1457 69.1332 66.1654 68.8833 66.2391 68.6471C66.3129 68.4109 66.4388 68.1944 66.6076 68.0137L67.3195 67.4751L74.4274 69.882C74.6449 69.9997 74.8331 70.165 74.9779 70.3657C75.1228 70.5664 75.2204 70.7973 75.2637 71.0411L75.6547 73.4622L67.0162 70.5367ZM62.8226 39.3191L65.4263 40.1504C65.6367 40.2179 65.8279 40.3347 65.984 40.4912C66.1402 40.6477 66.2567 40.8393 66.3239 41.05L67.1542 43.6584C67.2021 43.8095 67.2967 43.9413 67.4244 44.0349C67.5521 44.1285 67.7062 44.1789 67.8644 44.1789C68.0226 44.1789 68.1767 44.1285 68.3043 44.0349C68.432 43.9413 68.5266 43.8095 68.5745 43.6584L69.4048 41.05C69.4719 40.8393 69.5883 40.6476 69.7444 40.4911C69.9004 40.3346 70.0916 40.2178 70.302 40.1504L72.9061 39.3191C73.0567 39.2709 73.1881 39.176 73.2813 39.0482C73.3745 38.9203 73.4248 38.766 73.4248 38.6077C73.4248 38.4493 73.3745 38.2951 73.2813 38.1672C73.1881 38.0393 73.0567 37.9445 72.9061 37.8963L70.302 37.0641C70.092 36.9969 69.9011 36.8806 69.745 36.7247C69.5889 36.5689 69.4721 36.378 69.4044 36.1679L68.5745 33.5595C68.5266 33.4085 68.432 33.2766 68.3043 33.183C68.1767 33.0894 68.0226 33.039 67.8644 33.039C67.7062 33.039 67.5521 33.0894 67.4244 33.183C67.2967 33.2766 67.2021 33.4085 67.1542 33.5595L66.3235 36.1679C66.256 36.378 66.1394 36.5689 65.9834 36.7247C65.8275 36.8806 65.6366 36.997 65.4267 37.0641L62.8226 37.8963C62.6718 37.9442 62.5401 38.039 62.4467 38.1669C62.3533 38.2948 62.303 38.4492 62.303 38.6077C62.303 38.7662 62.3533 38.9205 62.4467 39.0484C62.5401 39.1763 62.6718 39.2711 62.8226 39.3191ZM65.8796 38.4882C66.3166 38.3482 66.7139 38.1055 67.0383 37.7804C67.3626 37.4554 67.6047 37.0573 67.7442 36.6194L67.8644 36.2434L67.9836 36.6194C68.1234 37.0573 68.3656 37.4554 68.6901 37.7805C69.0146 38.1056 69.412 38.3482 69.8491 38.4882L70.224 38.6077L69.8487 38.7276C69.4116 38.8675 69.0142 39.1102 68.6898 39.4353C68.3653 39.7604 68.1232 40.1585 67.9836 40.5964L67.8639 40.9724L67.7442 40.5964C67.6044 40.1587 67.3622 39.7608 67.0378 39.4359C66.7134 39.1109 66.3161 38.8684 65.8792 38.7285L65.5047 38.6085L65.8796 38.4882ZM60.1357 62.2076C60.2865 62.1596 60.4182 62.0648 60.5116 61.9369C60.605 61.809 60.6554 61.6547 60.6554 61.4962C60.6554 61.3377 60.605 61.1833 60.5116 61.0554C60.4182 60.9275 60.2865 60.8327 60.1357 60.7848L58.0232 60.1092C57.8734 60.0614 57.7372 59.9783 57.626 59.867C57.5148 59.7556 57.4319 59.6191 57.3842 59.4691L56.7111 57.3528C56.6632 57.2017 56.5686 57.0698 56.4409 56.9762C56.3132 56.8827 56.1591 56.8322 56.0009 56.8322C55.8427 56.8322 55.6886 56.8827 55.561 56.9762C55.4333 57.0698 55.3386 57.2017 55.2908 57.3528L54.6168 59.4695C54.5695 59.6191 54.4873 59.7551 54.3769 59.8664C54.2664 59.9777 54.1311 60.0609 53.9821 60.1092L51.8691 60.7835C51.7183 60.8314 51.5867 60.9262 51.4933 61.0541C51.3998 61.1821 51.3495 61.3364 51.3495 61.4949C51.3495 61.6534 51.3998 61.8078 51.4933 61.9357C51.5867 62.0636 51.7183 62.1584 51.8691 62.2063L53.9825 62.8832C54.1317 62.9307 54.2674 63.0135 54.3781 63.1244C54.4889 63.2353 54.5715 63.3712 54.619 63.5207L55.2925 65.6371C55.3404 65.7881 55.435 65.92 55.5627 66.0136C55.6903 66.1071 55.8444 66.1576 56.0026 66.1576C56.1608 66.1576 56.3149 66.1071 56.4426 66.0136C56.5703 65.92 56.6649 65.7881 56.7128 65.6371L57.3859 63.5212C57.4333 63.3709 57.5161 63.2343 57.6273 63.1229C57.7385 63.0115 57.8749 62.9285 58.0249 62.881L60.1357 62.2076ZM56.0035 62.9595C55.8795 62.6247 55.6848 62.3205 55.4327 62.068C55.1806 61.8154 54.877 61.6204 54.5427 61.4962C54.877 61.3719 55.1805 61.1768 55.4326 60.9243C55.6847 60.6717 55.8794 60.3677 56.0035 60.0328C56.1274 60.3676 56.3221 60.6717 56.5741 60.9243C56.8262 61.1768 57.1296 61.3719 57.4638 61.4962C57.1295 61.6204 56.8258 61.8154 56.5736 62.0679C56.3215 62.3205 56.1267 62.6246 56.0026 62.9595H56.0035ZM43.9867 73.1643L41.6232 72.4093C41.4427 72.3516 41.2786 72.2514 41.1446 72.1172C41.0107 71.9829 40.9107 71.8186 40.853 71.6377L40.1002 69.2705C40.0524 69.1194 39.9577 68.9876 39.8301 68.894C39.7024 68.8004 39.5483 68.75 39.3901 68.75C39.2319 68.75 39.0778 68.8004 38.9501 68.894C38.8224 68.9876 38.7278 69.1194 38.6799 69.2705L37.9263 71.6377C37.8688 71.8186 37.7689 71.983 37.635 72.1172C37.5011 72.2514 37.337 72.3516 37.1565 72.4093L34.7931 73.1643C34.6423 73.2122 34.5106 73.307 34.4172 73.4349C34.3238 73.5628 34.2734 73.7172 34.2734 73.8757C34.2734 74.0342 34.3238 74.1885 34.4172 74.3164C34.5106 74.4443 34.6423 74.5391 34.7931 74.5871L37.1565 75.3412C37.337 75.399 37.501 75.4992 37.6349 75.6334C37.7688 75.7676 37.8687 75.932 37.9263 76.1128L38.6799 78.4804C38.728 78.6313 38.8228 78.7629 38.9504 78.8563C39.078 78.9497 39.232 79 39.3901 79C39.5482 79 39.7021 78.9497 39.8298 78.8563C39.9574 78.7629 40.0521 78.6313 40.1002 78.4804L40.853 76.1128C40.9107 75.932 41.0107 75.7676 41.1447 75.6334C41.2787 75.4992 41.4428 75.399 41.6232 75.3412L43.9867 74.5871C44.1375 74.5391 44.2691 74.4443 44.3625 74.3164C44.456 74.1885 44.5063 74.0342 44.5063 73.8757C44.5063 73.7172 44.456 73.5628 44.3625 73.4349C44.2691 73.307 44.1375 73.2122 43.9867 73.1643ZM41.1704 73.9184C40.7631 74.0487 40.3929 74.2747 40.0907 74.5775C39.7884 74.8803 39.5628 75.2512 39.4327 75.6591L39.3901 75.794L39.3475 75.6591C39.2175 75.2511 38.9919 74.8803 38.6896 74.5774C38.3873 74.2746 38.0171 74.0486 37.6098 73.9184L37.4756 73.8757L37.6098 73.833C38.0171 73.7028 38.3873 73.4768 38.6896 73.1739C38.9919 72.8711 39.2175 72.5002 39.3475 72.0922L39.3901 71.9578L39.4327 72.0922C39.5628 72.5002 39.7884 72.8711 40.0907 73.1739C40.3929 73.4767 40.7631 73.7027 41.1704 73.833L41.305 73.8757L41.1704 73.9184ZM34.5528 64.2368C34.6199 64.4232 34.7582 64.5752 34.9372 64.6595C35.1162 64.7437 35.3212 64.7532 35.5073 64.686C35.6933 64.6188 35.845 64.4803 35.9291 64.301C36.0132 64.1216 36.0227 63.9162 35.9556 63.7299L35.5437 62.5844L36.6854 62.1717C36.8714 62.1046 37.0232 61.9661 37.1073 61.7868C37.1914 61.6076 37.201 61.4022 37.134 61.2158C37.0669 61.0294 36.9287 60.8774 36.7497 60.7931C36.5708 60.7089 36.3657 60.6992 36.1797 60.7664L35.0372 61.1791L34.6252 60.0354C34.592 59.9431 34.541 59.8583 34.4751 59.7858C34.4091 59.7132 34.3296 59.6544 34.241 59.6127C34.1524 59.571 34.0564 59.5471 33.9586 59.5426C33.8608 59.538 33.7631 59.5527 33.671 59.586C33.5788 59.6193 33.4942 59.6704 33.4218 59.7364C33.3494 59.8025 33.2907 59.8821 33.249 59.9709C33.2074 60.0597 33.1836 60.1558 33.179 60.2538C33.1744 60.3517 33.1892 60.4497 33.2224 60.5419L33.6347 61.6882L32.4926 62.1009C32.4005 62.1342 32.3158 62.1853 32.2435 62.2514C32.1711 62.3175 32.1124 62.3972 32.0708 62.486C31.9867 62.6653 31.9771 62.8707 32.0442 63.0571C32.1114 63.2434 32.2496 63.3954 32.4286 63.4797C32.6076 63.5639 32.8127 63.5735 32.9987 63.5062L34.1408 63.0931L34.5528 64.2368ZM72.8844 45.2434C72.7775 45.4101 72.7411 45.6125 72.7831 45.806C72.8251 45.9996 72.9422 46.1686 73.1085 46.2757L74.1309 46.9329L73.4753 47.9572C73.3683 48.1238 73.3319 48.3262 73.3739 48.5198C73.4159 48.7134 73.533 48.8824 73.6994 48.9895C73.8657 49.0966 74.0678 49.1332 74.261 49.0911C74.4543 49.049 74.6229 48.9317 74.7299 48.765L75.3859 47.7408L76.4083 48.398C76.5747 48.5052 76.7767 48.5417 76.97 48.4996C77.1633 48.4575 77.3319 48.3402 77.4388 48.1735C77.5458 48.0069 77.5823 47.8045 77.5402 47.6109C77.4982 47.4173 77.3811 47.2483 77.2148 47.1412L76.1924 46.484L76.8488 45.4598C76.9531 45.2931 76.9875 45.0919 76.9446 44.9C76.9018 44.7081 76.7851 44.5408 76.6199 44.4344C76.4547 44.3281 76.2544 44.2913 76.0623 44.332C75.8702 44.3727 75.7019 44.4877 75.5938 44.6519L74.9373 45.6761L73.9149 45.0185C73.7485 44.9116 73.5464 44.8752 73.3532 44.9174C73.16 44.9595 72.9914 45.0768 72.8844 45.2434ZM79.9906 62.2353C79.9593 62.0402 79.8521 61.8654 79.6924 61.7492C79.5327 61.6331 79.3336 61.5851 79.1386 61.6157C78.449 61.7276 77.8317 62.1086 77.4219 62.6754C77.0121 63.2421 76.8431 63.9484 76.9519 64.6397C76.9832 64.8354 77.0907 65.0105 77.2509 65.1268C77.4111 65.243 77.6108 65.2907 77.8061 65.2594C78.0014 65.2281 78.1762 65.1203 78.2922 64.9599C78.4082 64.7994 78.4559 64.5993 78.4246 64.4037C78.3769 64.1036 78.45 63.7967 78.628 63.5506C78.806 63.3044 79.0742 63.1391 79.3738 63.091C79.5687 63.0592 79.7431 62.9513 79.8588 62.7909C79.9744 62.6305 80.0218 62.4307 79.9906 62.2353ZM60.6159 71.1589C60.2592 70.9567 59.8661 70.8274 59.4592 70.7784C59.0524 70.7294 58.6399 70.7617 58.2456 70.8734C58.0576 70.929 57.899 71.0565 57.8041 71.2283C57.7093 71.4001 57.6857 71.6024 57.7385 71.7915C57.7914 71.9806 57.9164 72.1412 58.0865 72.2387C58.2566 72.3362 58.4582 72.3627 58.6477 72.3125C58.8535 72.2546 59.0687 72.238 59.2809 72.2635C59.4932 72.289 59.6983 72.3561 59.8846 72.4611C60.071 72.566 60.2348 72.7067 60.3669 72.8751C60.4989 73.0435 60.5966 73.2363 60.6542 73.4425C60.6806 73.5371 60.7253 73.6255 60.7858 73.7028C60.8463 73.7801 60.9214 73.8446 61.0068 73.8928C61.0922 73.941 61.1862 73.9719 61.2835 73.9836C61.3809 73.9954 61.4795 73.9879 61.5739 73.9615C61.6684 73.935 61.7566 73.8902 61.8338 73.8296C61.9109 73.769 61.9753 73.6938 62.0234 73.6082C62.0715 73.5227 62.1024 73.4285 62.1141 73.331C62.1259 73.2335 62.1183 73.1347 62.092 73.0401C61.9823 72.6443 61.7954 72.2743 61.542 71.9514C61.2886 71.6285 60.9738 71.3591 60.6159 71.1589ZM36.9099 52.4275C37.4311 52.4273 37.9406 52.2723 38.3739 51.9821C38.8071 51.6918 39.1448 51.2794 39.3441 50.7969C39.5434 50.3145 39.5954 49.7836 39.4935 49.2715C39.3916 48.7595 39.1404 48.2891 38.7717 47.9201C38.403 47.551 37.9333 47.2998 37.422 47.1981C36.9108 47.0965 36.3809 47.149 35.8995 47.349C35.418 47.549 35.0066 47.8876 34.7172 48.3219C34.4278 48.7562 34.2735 49.2667 34.2738 49.7888C34.2748 50.4887 34.5529 51.1596 35.0471 51.6543C35.5413 52.149 36.2112 52.4271 36.9099 52.4275ZM36.9099 48.6413C37.1361 48.6414 37.3572 48.7088 37.5452 48.8348C37.7333 48.9608 37.8798 49.1398 37.9663 49.3492C38.0528 49.5586 38.0754 49.789 38.0313 50.0112C37.9871 50.2335 37.8782 50.4377 37.7183 50.5979C37.5584 50.7582 37.3546 50.8674 37.1327 50.9117C36.9109 50.956 36.6809 50.9335 36.4718 50.8469C36.2628 50.7603 36.084 50.6136 35.9582 50.4252C35.8323 50.2369 35.765 50.0155 35.7648 49.7888C35.7651 49.4848 35.8859 49.1933 36.1006 48.9784C36.3153 48.7634 36.6064 48.6427 36.9099 48.6426V48.6413ZM58.7014 46.3939C59.2226 46.3939 59.7321 46.2391 60.1655 45.949C60.5988 45.659 60.9366 45.2467 61.1361 44.7643C61.3355 44.2819 61.3877 43.7511 61.286 43.239C61.1843 42.7269 60.9334 42.2565 60.5648 41.8873C60.1963 41.5181 59.7267 41.2666 59.2155 41.1648C58.7043 41.0629 58.1744 41.1152 57.6929 41.315C57.2114 41.5148 56.7998 41.8532 56.5102 42.2873C56.2207 42.7215 56.0661 43.2319 56.0661 43.754C56.0669 44.4539 56.3448 45.1249 56.8388 45.6199C57.3329 46.1148 58.0027 46.3932 58.7014 46.3939ZM58.7014 42.6077C58.9277 42.6077 59.1489 42.6749 59.3371 42.8009C59.5253 42.9269 59.6719 43.1059 59.7585 43.3153C59.8451 43.5248 59.8678 43.7553 59.8237 43.9776C59.7795 44.2 59.6705 44.4042 59.5105 44.5645C59.3505 44.7249 59.1466 44.834 58.9246 44.8783C58.7027 44.9225 58.4726 44.8998 58.2635 44.813C58.0544 44.7263 57.8757 44.5793 57.75 44.3908C57.6242 44.2023 57.5571 43.9807 57.5571 43.754C57.5575 43.4501 57.6781 43.1587 57.8926 42.9438C58.1072 42.7289 58.398 42.6081 58.7014 42.6077Z" fill="#FF00A7"/>
</svg>
