<svg width="111" height="111" viewBox="0 0 111 111" fill="none" xmlns="http://www.w3.org/2000/svg">
<circle opacity="0.3" cx="55.5" cy="55.5" r="55.5" fill="#FF00FE"/>
<path d="M40.3879 42.8704C39.6962 42.8674 39.0136 43.0275 38.3954 43.3377C37.7772 43.6479 37.2409 44.0994 36.8299 44.6557C36.4189 45.212 36.1448 45.8573 36.0299 46.5394C35.915 47.2214 35.9625 47.9209 36.1685 48.5812C36.3746 49.2414 36.7334 49.8438 37.2158 50.3394C37.6983 50.835 38.2908 51.2099 38.9452 51.4337C39.5997 51.6575 40.2977 51.7238 40.9825 51.6273C41.6674 51.5308 42.3199 51.2743 42.8871 50.8784L48.6687 56.44C47.8356 57.5734 47.3911 58.9457 47.4014 60.3523C47.4117 61.7589 47.8763 63.1245 48.7259 64.2456L44.2599 68.6456C43.3498 68.0302 42.2435 67.7749 41.1557 67.9292C40.0679 68.0835 39.0763 68.6365 38.3733 69.4807C37.6702 70.325 37.3059 71.4003 37.351 72.498C37.3961 73.5958 37.8474 74.6376 38.6174 75.4213C39.3874 76.205 40.421 76.6747 41.5178 76.7392C42.6145 76.8038 43.6962 76.4585 44.5527 75.7705C45.4093 75.0825 45.9797 74.1008 46.1532 73.016C46.3268 71.9311 46.0911 70.8205 45.4919 69.8996L49.9623 65.4996C50.6701 66.0455 51.4821 66.4408 52.3484 66.6614C53.2147 66.8819 54.1169 66.923 54.9996 66.7821C55.8823 66.6411 56.7269 66.3211 57.4814 65.8418C58.2359 65.3625 58.8844 64.7339 59.3871 63.9948L65.4063 67.0264C65.2397 67.55 65.1551 68.0962 65.1555 68.6456C65.1504 69.943 65.6086 71.1996 66.4475 72.1892C67.2865 73.1789 68.4511 73.8366 69.7319 74.044C71.0126 74.2514 72.3253 73.9949 73.4337 73.3206C74.5421 72.6463 75.3735 71.5985 75.7781 70.3659C76.1828 69.1332 76.1342 67.7965 75.641 66.5965C75.1479 65.3965 74.2427 64.4118 73.0882 63.8198C71.9337 63.2278 70.6059 63.0673 69.3436 63.3672C68.0813 63.667 66.9675 64.4076 66.2027 65.4556L60.1747 62.4196C60.459 61.6099 60.5794 60.7518 60.5287 59.8952C60.4781 59.0385 60.2576 58.2005 59.8799 57.43L62.5199 55.6964C63.2668 56.4085 64.2507 56.8191 65.2822 56.8492C66.3137 56.8794 67.3199 56.5269 68.1071 55.8596C68.8943 55.1924 69.4068 54.2575 69.546 53.235C69.6853 52.2125 69.4413 51.1746 68.8612 50.3211C68.2811 49.4677 67.4057 48.859 66.4037 48.6123C65.4017 48.3655 64.3438 48.4982 63.4338 48.9846C62.5237 49.4711 61.8257 50.277 61.4742 51.2473C61.1227 52.2175 61.1425 53.2835 61.5299 54.24L58.8899 55.9736C57.9509 54.8958 56.6855 54.1542 55.2863 53.8616L55.8055 46.3816C57.1948 46.2565 58.486 45.6127 59.422 44.5784C60.358 43.5441 60.87 42.1952 60.8561 40.8003C60.8422 39.4055 60.3035 38.067 59.3471 37.0515C58.3907 36.0361 57.087 35.4181 55.6954 35.3207C54.3039 35.2233 52.9268 35.6536 51.8382 36.5259C50.7497 37.3983 50.0297 38.6486 49.8217 40.0279C49.6136 41.4072 49.9327 42.8143 50.7155 43.969C51.4982 45.1236 52.6872 45.941 54.0455 46.2584L53.5219 53.7384C52.1856 53.8222 50.9074 54.3153 49.8611 55.1508L44.1191 49.6068C44.5668 48.9081 44.805 48.0958 44.8055 47.266C44.8049 46.6871 44.6901 46.1139 44.4676 45.5795C44.2451 45.045 43.9194 44.5597 43.509 44.1513C43.0986 43.743 42.6117 43.4196 42.0761 43.1998C41.5405 42.98 40.9668 42.8681 40.3879 42.8704ZM70.5807 64.9804C71.3056 64.9804 72.0142 65.1953 72.617 65.5981C73.2197 66.0008 73.6895 66.5732 73.9669 67.243C74.2443 67.9127 74.3169 68.6497 74.1755 69.3606C74.034 70.0716 73.685 70.7247 73.1724 71.2373C72.6598 71.7499 72.0067 72.0989 71.2957 72.2404C70.5848 72.3818 69.8478 72.3092 69.1781 72.0318C68.5083 71.7544 67.9359 71.2846 67.5332 70.6819C67.1304 70.0791 66.9155 69.3705 66.9155 68.6456C66.9167 67.6739 67.3032 66.7423 67.9903 66.0552C68.6774 65.3681 69.609 64.9816 70.5807 64.9804ZM65.4063 50.3196C65.8816 50.3196 66.3463 50.4606 66.7414 50.7248C67.1366 50.9889 67.4445 51.3644 67.6262 51.8036C67.8079 52.2429 67.8553 52.7262 67.7622 53.1923C67.6691 53.6584 67.4399 54.0865 67.1035 54.4223C66.7671 54.7581 66.3386 54.9866 65.8723 55.0788C65.406 55.171 64.9228 55.1228 64.4839 54.9403C64.045 54.7577 63.6701 54.4491 63.4066 54.0535C63.1432 53.6578 63.003 53.1929 63.0039 52.7176C63.0051 52.0812 63.2587 51.4713 63.7091 51.0217C64.1595 50.5721 64.7699 50.3196 65.4063 50.3196ZM37.7523 47.266C37.7523 46.7438 37.9071 46.2334 38.1972 45.7993C38.4873 45.3651 38.8996 45.0268 39.382 44.8269C39.8644 44.6271 40.3952 44.5749 40.9073 44.6767C41.4194 44.7786 41.8898 45.03 42.2591 45.3992C42.6283 45.7684 42.8797 46.2388 42.9816 46.751C43.0834 47.2631 43.0311 47.7939 42.8313 48.2763C42.6315 48.7587 42.2931 49.171 41.859 49.4611C41.4248 49.7512 40.9144 49.906 40.3923 49.906C39.6921 49.906 39.0206 49.6278 38.5255 49.1328C38.0304 48.6377 37.7523 47.9662 37.7523 47.266ZM41.8091 74.92C41.2869 74.92 40.7765 74.7652 40.3424 74.4751C39.9082 74.185 39.5699 73.7727 39.37 73.2903C39.1702 72.8079 39.118 72.2771 39.2198 71.7649C39.3217 71.2528 39.5731 70.7824 39.9423 70.4132C40.3115 70.044 40.7819 69.7926 41.2941 69.6907C41.8062 69.5889 42.337 69.6411 42.8194 69.841C43.3018 70.0408 43.7141 70.3791 44.0042 70.8133C44.2943 71.2474 44.4491 71.7578 44.4491 72.28C44.4491 72.9802 44.1709 73.6517 43.6759 74.1468C43.1808 74.6418 42.5093 74.92 41.8091 74.92ZM57.9747 57.6236C58.4417 58.3283 58.7138 59.1441 58.7632 59.988C58.8127 60.832 58.6378 61.674 58.2563 62.4284C57.9138 63.1101 57.4139 63.7003 56.7978 64.1502C56.1817 64.6001 55.4673 64.8967 54.7138 65.0154C53.9602 65.1341 53.1892 65.0715 52.4647 64.8328C51.7401 64.5941 51.0829 64.1862 50.5475 63.6428C50.0735 63.1663 49.7048 62.5956 49.4652 61.9677C49.2256 61.3398 49.1203 60.6686 49.1563 59.9975C49.1922 59.3263 49.3686 58.6702 49.6739 58.0715C49.9793 57.4728 50.4068 56.9448 50.929 56.5216C51.4511 56.0985 52.0562 55.7896 52.7052 55.6149C53.3542 55.4402 54.0326 55.4036 54.6966 55.5074C55.3606 55.6113 55.9955 55.8533 56.5601 56.2178C57.1248 56.5823 57.6067 57.0612 57.9747 57.6236ZM51.5419 40.864C51.5419 40.1156 51.7638 39.384 52.1796 38.7617C52.5954 38.1394 53.1864 37.6544 53.8778 37.368C54.5693 37.0816 55.3301 37.0067 56.0641 37.1527C56.7981 37.2987 57.4724 37.6591 58.0016 38.1883C58.5308 38.7175 58.8912 39.3917 59.0372 40.1258C59.1832 40.8598 59.1083 41.6206 58.8218 42.3121C58.5354 43.0035 58.0504 43.5945 57.4282 44.0103C56.8059 44.4261 56.0743 44.648 55.3259 44.648C54.3227 44.6468 53.3609 44.2478 52.6515 43.5384C51.9421 42.829 51.5431 41.8672 51.5419 40.864Z" fill="#FF00FE"/>
</svg>
