<svg width="111" height="111" viewBox="0 0 111 111" fill="none" xmlns="http://www.w3.org/2000/svg">
<circle opacity="0.3" cx="55.5" cy="55.5" r="55.5" fill="white"/>
<path d="M40.3879 42.8699C39.6962 42.8669 39.0136 43.027 38.3954 43.3372C37.7772 43.6474 37.2409 44.0989 36.8299 44.6552C36.4189 45.2115 36.1448 45.8568 36.0299 46.5389C35.915 47.2209 35.9625 47.9204 36.1685 48.5807C36.3746 49.2409 36.7334 49.8433 37.2158 50.3389C37.6983 50.8345 38.2908 51.2094 38.9452 51.4332C39.5997 51.657 40.2977 51.7233 40.9825 51.6268C41.6674 51.5304 42.3199 51.2738 42.8871 50.8779L48.6687 56.4395C47.8356 57.5729 47.3911 58.9452 47.4014 60.3518C47.4117 61.7584 47.8763 63.124 48.7259 64.2451L44.2599 68.6451C43.3498 68.0297 42.2435 67.7744 41.1557 67.9287C40.0679 68.083 39.0763 68.636 38.3733 69.4802C37.6702 70.3245 37.3059 71.3998 37.351 72.4975C37.3961 73.5953 37.8474 74.6371 38.6174 75.4208C39.3874 76.2045 40.421 76.6742 41.5178 76.7387C42.6145 76.8033 43.6962 76.458 44.5527 75.77C45.4093 75.082 45.9797 74.1003 46.1532 73.0155C46.3268 71.9306 46.0911 70.82 45.4919 69.8991L49.9623 65.4991C50.6701 66.045 51.4821 66.4403 52.3484 66.6609C53.2147 66.8814 54.1169 66.9225 54.9996 66.7816C55.8823 66.6406 56.7269 66.3207 57.4814 65.8413C58.2359 65.362 58.8844 64.7335 59.3871 63.9943L65.4063 67.0259C65.2397 67.5495 65.1551 68.0957 65.1555 68.6451C65.1504 69.9425 65.6086 71.1991 66.4475 72.1888C67.2865 73.1784 68.4511 73.8361 69.7319 74.0435C71.0126 74.2509 72.3253 73.9944 73.4337 73.3201C74.5421 72.6458 75.3735 71.5981 75.7781 70.3654C76.1828 69.1327 76.1342 67.796 75.641 66.596C75.1479 65.396 74.2427 64.4113 73.0882 63.8193C71.9337 63.2273 70.6059 63.0668 69.3436 63.3667C68.0813 63.6666 66.9675 64.4071 66.2027 65.4551L60.1747 62.4191C60.459 61.6094 60.5794 60.7513 60.5287 59.8947C60.4781 59.038 60.2576 58.2 59.8799 57.4295L62.5199 55.6959C63.2668 56.408 64.2507 56.8186 65.2822 56.8488C66.3137 56.8789 67.3199 56.5264 68.1071 55.8591C68.8943 55.1919 69.4068 54.257 69.546 53.2345C69.6853 52.212 69.4413 51.1741 68.8612 50.3207C68.2811 49.4672 67.4057 48.8585 66.4037 48.6118C65.4017 48.365 64.3438 48.4977 63.4338 48.9841C62.5237 49.4706 61.8257 50.2766 61.4742 51.2468C61.1227 52.217 61.1425 53.283 61.5299 54.2395L58.8899 55.9731C57.9509 54.8953 56.6855 54.1537 55.2863 53.8611L55.8055 46.3811C57.1948 46.256 58.486 45.6122 59.422 44.5779C60.358 43.5436 60.87 42.1947 60.8561 40.7998C60.8422 39.405 60.3035 38.0665 59.3471 37.0511C58.3907 36.0356 57.087 35.4176 55.6954 35.3202C54.3039 35.2228 52.9268 35.6531 51.8382 36.5254C50.7497 37.3978 50.0297 38.6481 49.8217 40.0274C49.6136 41.4068 49.9327 42.8139 50.7155 43.9685C51.4982 45.1231 52.6872 45.9405 54.0455 46.2579L53.5219 53.7379C52.1856 53.8217 50.9074 54.3148 49.8611 55.1503L44.1191 49.6063C44.5668 48.9076 44.805 48.0953 44.8055 47.2655C44.8049 46.6866 44.6901 46.1134 44.4676 45.579C44.2451 45.0445 43.9194 44.5592 43.509 44.1508C43.0986 43.7425 42.6117 43.4192 42.0761 43.1993C41.5405 42.9795 40.9668 42.8676 40.3879 42.8699ZM70.5807 64.9799C71.3056 64.9799 72.0142 65.1949 72.617 65.5976C73.2197 66.0003 73.6895 66.5728 73.9669 67.2425C74.2443 67.9122 74.3169 68.6492 74.1755 69.3601C74.034 70.0711 73.685 70.7242 73.1724 71.2368C72.6598 71.7494 72.0067 72.0985 71.2957 72.2399C70.5848 72.3813 69.8478 72.3087 69.1781 72.0313C68.5083 71.7539 67.9359 71.2841 67.5332 70.6814C67.1304 70.0786 66.9155 69.37 66.9155 68.6451C66.9167 67.6734 67.3032 66.7418 67.9903 66.0547C68.6774 65.3676 69.609 64.9811 70.5807 64.9799ZM65.4063 50.3191C65.8816 50.3191 66.3463 50.4601 66.7414 50.7243C67.1366 50.9885 67.4445 51.3639 67.6262 51.8032C67.8079 52.2424 67.8553 52.7257 67.7622 53.1918C67.6691 53.6579 67.4399 54.086 67.1035 54.4218C66.7671 54.7576 66.3386 54.9861 65.8723 55.0783C65.406 55.1705 64.9228 55.1223 64.4839 54.9398C64.045 54.7573 63.6701 54.4487 63.4066 54.053C63.1432 53.6573 63.003 53.1924 63.0039 52.7171C63.0051 52.0807 63.2587 51.4708 63.7091 51.0212C64.1595 50.5716 64.7699 50.3191 65.4063 50.3191ZM37.7523 47.2655C37.7523 46.7434 37.9071 46.2329 38.1972 45.7988C38.4873 45.3646 38.8996 45.0263 39.382 44.8265C39.8644 44.6266 40.3952 44.5744 40.9073 44.6762C41.4194 44.7781 41.8898 45.0295 42.2591 45.3987C42.6283 45.768 42.8797 46.2384 42.9816 46.7505C43.0834 47.2626 43.0311 47.7934 42.8313 48.2758C42.6315 48.7582 42.2931 49.1705 41.859 49.4606C41.4248 49.7507 40.9144 49.9055 40.3923 49.9055C39.6921 49.9055 39.0206 49.6274 38.5255 49.1323C38.0304 48.6372 37.7523 47.9657 37.7523 47.2655ZM41.8091 74.9195C41.2869 74.9195 40.7765 74.7647 40.3424 74.4746C39.9082 74.1845 39.5699 73.7722 39.37 73.2898C39.1702 72.8074 39.118 72.2766 39.2198 71.7645C39.3217 71.2524 39.5731 70.782 39.9423 70.4127C40.3115 70.0435 40.7819 69.7921 41.2941 69.6902C41.8062 69.5884 42.337 69.6406 42.8194 69.8405C43.3018 70.0403 43.7141 70.3787 44.0042 70.8128C44.2943 71.2469 44.4491 71.7574 44.4491 72.2795C44.4491 72.9797 44.1709 73.6512 43.6759 74.1463C43.1808 74.6414 42.5093 74.9195 41.8091 74.9195ZM57.9747 57.6231C58.4417 58.3278 58.7138 59.1436 58.7632 59.9875C58.8127 60.8315 58.6378 61.6735 58.2563 62.4279C57.9138 63.1096 57.4139 63.6998 56.7978 64.1497C56.1817 64.5996 55.4673 64.8962 54.7138 65.0149C53.9602 65.1336 53.1892 65.071 52.4647 64.8323C51.7401 64.5936 51.0829 64.1857 50.5475 63.6423C50.0735 63.1658 49.7048 62.5951 49.4652 61.9672C49.2256 61.3393 49.1203 60.6681 49.1563 59.997C49.1922 59.3259 49.3686 58.6697 49.6739 58.071C49.9793 57.4723 50.4068 56.9443 50.929 56.5212C51.4511 56.098 52.0562 55.7891 52.7052 55.6144C53.3542 55.4397 54.0326 55.4031 54.6966 55.5069C55.3606 55.6108 55.9955 55.8528 56.5601 56.2173C57.1248 56.5818 57.6067 57.0607 57.9747 57.6231ZM51.5419 40.8635C51.5419 40.1151 51.7638 39.3835 52.1796 38.7612C52.5954 38.1389 53.1864 37.6539 53.8778 37.3675C54.5693 37.0811 55.3301 37.0062 56.0641 37.1522C56.7981 37.2982 57.4724 37.6586 58.0016 38.1878C58.5308 38.717 58.8912 39.3913 59.0372 40.1253C59.1832 40.8593 59.1083 41.6201 58.8218 42.3116C58.5354 43.003 58.0504 43.594 57.4282 44.0098C56.8059 44.4256 56.0743 44.6475 55.3259 44.6475C54.3227 44.6463 53.3609 44.2473 52.6515 43.5379C51.9421 42.8285 51.5431 41.8667 51.5419 40.8635Z" fill="white"/>
</svg>
