<svg width="36" height="36" viewBox="0 0 36 36" fill="none" xmlns="http://www.w3.org/2000/svg">
<path d="M18 21.375C19.1125 21.375 20.2001 21.0451 21.1251 20.427C22.0501 19.8089 22.7711 18.9304 23.1968 17.9026C23.6226 16.8748 23.734 15.7438 23.5169 14.6526C23.2999 13.5615 22.7641 12.5592 21.9775 11.7725C21.1908 10.9859 20.1885 10.4501 19.0974 10.2331C18.0062 10.016 16.8752 10.1274 15.8474 10.5532C14.8196 10.9789 13.9411 11.6999 13.323 12.6249C12.7049 13.5499 12.375 14.6375 12.375 15.75C12.375 17.2418 12.9676 18.6726 14.0225 19.7275C15.0774 20.7824 16.5082 21.375 18 21.375ZM18 12.375C18.6675 12.375 19.32 12.5729 19.875 12.9438C20.4301 13.3146 20.8626 13.8417 21.1181 14.4584C21.3735 15.0751 21.4404 15.7537 21.3102 16.4084C21.1799 17.0631 20.8585 17.6645 20.3865 18.1365C19.9145 18.6085 19.3131 18.9299 18.6584 19.0602C18.0037 19.1904 17.3251 19.1235 16.7084 18.8681C16.0917 18.6127 15.5646 18.1801 15.1938 17.6251C14.8229 17.07 14.625 16.4175 14.625 15.75C14.625 14.8549 14.9806 13.9965 15.6135 13.3635C16.2464 12.7306 17.1049 12.375 18 12.375Z" fill="white"/>
<path d="M18 16.875C18.2984 16.875 18.5845 16.7565 18.7955 16.5455C19.0065 16.3345 19.125 16.0484 19.125 15.75C19.125 15.4516 19.0065 15.1655 18.7955 14.9545C18.5845 14.7435 18.2984 14.625 18 14.625C17.7016 14.625 17.4155 14.7435 17.2045 14.9545C16.9935 15.1655 16.875 15.4516 16.875 15.75C16.875 16.0484 16.9935 16.3345 17.2045 16.5455C17.4155 16.7565 17.7016 16.875 18 16.875Z" fill="white"/>
<path d="M29.025 26.5502L26.5388 24.6827C28.3286 22.9765 29.5662 20.7733 30.092 18.3571C30.6178 15.9409 30.4077 13.4226 29.4888 11.1269C28.5699 8.83122 26.9843 6.86348 24.9366 5.47743C22.8888 4.09138 20.4728 3.35059 18 3.35059C15.5273 3.35059 13.1112 4.09138 11.0634 5.47743C9.01568 6.86348 7.4301 8.83122 6.5112 11.1269C5.5923 13.4226 5.38221 15.9409 5.90803 18.3571C6.43385 20.7733 7.67146 22.9765 9.46125 24.6827L6.975 26.5502C6.40832 26.9752 5.98973 27.5678 5.77852 28.2439C5.56731 28.92 5.5742 29.6455 5.7982 30.3175C6.0222 30.9895 6.45196 31.574 7.02661 31.9882C7.60125 32.4024 8.29165 32.6252 9 32.6252H27C27.7084 32.6252 28.3988 32.4024 28.9734 31.9882C29.548 31.574 29.9778 30.9895 30.2018 30.3175C30.4258 29.6455 30.4327 28.92 30.2215 28.2439C30.0103 27.5678 29.5917 26.9752 29.025 26.5502ZM7.875 15.7502C7.875 13.7477 8.46883 11.7901 9.58137 10.1251C10.6939 8.46003 12.2752 7.16228 14.1253 6.39595C15.9754 5.62961 18.0112 5.4291 19.9753 5.81978C21.9394 6.21045 23.7435 7.17476 25.1595 8.59077C26.5755 10.0068 27.5398 11.8109 27.9305 13.7749C28.3211 15.739 28.1206 17.7748 27.3543 19.6249C26.5879 21.475 25.2902 23.0563 23.6252 24.1689C21.9601 25.2814 20.0025 25.8752 18 25.8752C15.3147 25.8752 12.7394 24.8085 10.8405 22.9097C8.94174 21.0109 7.875 18.4355 7.875 15.7502ZM27 30.3752H9C8.70164 30.3752 8.41549 30.2567 8.20451 30.0457C7.99353 29.8347 7.875 29.5486 7.875 29.2502C7.875 29.0756 7.91567 28.9033 7.99377 28.7471C8.07188 28.5909 8.18528 28.455 8.325 28.3502L11.2838 26.1002C13.2851 27.3934 15.6172 28.0814 18 28.0814C20.3828 28.0814 22.7149 27.3934 24.7163 26.1002L27.675 28.3502C27.8147 28.455 27.9281 28.5909 28.0062 28.7471C28.0843 28.9033 28.125 29.0756 28.125 29.2502C28.125 29.5486 28.0065 29.8347 27.7955 30.0457C27.5845 30.2567 27.2984 30.3752 27 30.3752Z" fill="white"/>
</svg>
