<svg width="37" height="36" viewBox="0 0 37 36" fill="none" xmlns="http://www.w3.org/2000/svg">
<path d="M24.51 23.7857C28.3409 17.7744 27.8593 18.5244 27.9697 18.3677C29.3644 16.4005 30.1016 14.0851 30.1016 11.6719C30.1016 5.27203 24.9082 0 18.5 0C12.1127 0 6.89844 5.26163 6.89844 11.6719C6.89844 14.0836 7.65106 16.4595 9.09148 18.4532L12.4898 23.7857C8.85643 24.3441 2.67969 26.008 2.67969 29.6719C2.67969 31.0075 3.55142 32.9108 7.70436 34.394C10.6042 35.4296 14.4381 36 18.5 36C26.0955 36 34.3203 33.8574 34.3203 29.6719C34.3203 26.0074 28.1508 24.3452 24.51 23.7857ZM10.8534 17.293C10.8419 17.2749 10.8297 17.2571 10.8171 17.2397C9.61848 15.5907 9.00781 13.6365 9.00781 11.6719C9.00781 6.39717 13.2551 2.10938 18.5 2.10938C23.734 2.10938 27.9922 6.39907 27.9922 11.6719C27.9922 13.6396 27.3931 15.5276 26.2593 17.1331C26.1577 17.2671 26.6877 16.4436 18.5 29.2914L10.8534 17.293ZM18.5 33.8906C10.2035 33.8906 4.78906 31.452 4.78906 29.6719C4.78906 28.4754 7.57119 26.5082 13.7362 25.7413L17.6105 31.8208C17.7058 31.9703 17.8373 32.0934 17.9927 32.1787C18.1482 32.264 18.3226 32.3087 18.4999 32.3087C18.6772 32.3087 18.8517 32.264 19.0071 32.1787C19.1626 32.0934 19.294 31.9703 19.3893 31.8208L23.2636 25.7413C29.4287 26.5082 32.2109 28.4754 32.2109 29.6719C32.2109 31.4369 26.8452 33.8906 18.5 33.8906Z" fill="url(#paint0_linear_100_235)"/>
<path d="M18.5 6.39844C15.5922 6.39844 13.2266 8.7641 13.2266 11.6719C13.2266 14.5796 15.5922 16.9453 18.5 16.9453C21.4078 16.9453 23.7734 14.5796 23.7734 11.6719C23.7734 8.7641 21.4078 6.39844 18.5 6.39844ZM18.5 14.8359C16.7553 14.8359 15.3359 13.4165 15.3359 11.6719C15.3359 9.92721 16.7553 8.50781 18.5 8.50781C20.2447 8.50781 21.6641 9.92721 21.6641 11.6719C21.6641 13.4165 20.2447 14.8359 18.5 14.8359Z" fill="url(#paint1_linear_100_235)"/>
<defs>
<linearGradient id="paint0_linear_100_235" x1="15.6605" y1="30.6979" x2="15.1501" y2="7.43847" gradientUnits="userSpaceOnUse">
<stop stop-color="#4800FF"/>
<stop offset="1" stop-color="#FF00A7"/>
</linearGradient>
<linearGradient id="paint1_linear_100_235" x1="17.5535" y1="15.392" x2="17.4221" y2="8.57693" gradientUnits="userSpaceOnUse">
<stop stop-color="#4800FF"/>
<stop offset="1" stop-color="#FF00A7"/>
</linearGradient>
</defs>
</svg>
