<svg width="205" height="133" viewBox="0 0 205 133" fill="none" xmlns="http://www.w3.org/2000/svg">
<rect x="0.5" y="0.5" width="204" height="132" rx="14.5" fill="white" stroke="#F6F2FF"/>
<g clip-path="url(#clip0_139_469)">
<mask id="mask0_139_469" style="mask-type:luminance" maskUnits="userSpaceOnUse" x="31" y="52" width="144" height="29">
<path d="M175 52H31V80.6676H175V52Z" fill="white"/>
</mask>
<g mask="url(#mask0_139_469)">
<path fill-rule="evenodd" clip-rule="evenodd" d="M49.7541 61.3803C49.7541 66.5587 45.5587 70.7541 40.3803 70.7541C35.2018 70.7541 31 66.5587 31 61.3803C31 56.1954 35.2018 52 40.3803 52C45.5523 52 49.7541 56.1954 49.7541 61.3803ZM40.4959 62.0677H38.8833H38.8769V64.3228H40.3931C40.4287 64.3228 40.4651 64.323 40.5022 64.3233C40.8807 64.3254 41.3294 64.3279 41.6395 64.1172C41.9544 63.9117 42.1343 63.5326 42.1343 63.1471C42.1343 62.7937 41.9158 62.4275 41.601 62.2476C41.2862 62.0677 40.8493 62.0677 40.4959 62.0677ZM40.2068 58.3542H38.8833H38.8769V60.4037H40.3674C40.4006 60.4037 40.4342 60.4039 40.4682 60.4041C40.8294 60.4061 41.2308 60.4084 41.5303 60.1853C41.7937 59.9925 41.9287 59.652 41.9287 59.3372C41.9287 58.9967 41.768 58.669 41.4661 58.4891C41.1972 58.3409 40.736 58.3474 40.379 58.3525C40.3181 58.3534 40.2602 58.3542 40.2068 58.3542ZM36.6988 66.0575V56.6837V56.6773H40.8943C41.6331 56.6773 42.3977 56.6773 43.0402 57.0885C43.7919 57.5639 44.1902 58.2514 44.1902 59.138C44.1902 60.2045 43.477 60.9113 42.494 61.1618V61.1875C43.6569 61.4188 44.4472 62.3119 44.4472 63.5262C44.4472 64.3485 43.9525 65.0745 43.2972 65.55C42.6161 66.0575 41.6974 66.0575 40.8943 66.0575H36.6988Z" fill="#006DFF"/>
<path d="M169.937 80.3209H175V56.6839H169.937V80.3209ZM162.356 80.3209H167.419V56.6839H162.356V80.3209ZM148.851 69.4308C149.024 67.4327 149.885 65.7815 152.121 65.7815C154.325 65.7815 154.948 67.5355 155.051 69.4308H148.851ZM160.12 72.4312C160.152 70.054 159.773 67.574 158.328 65.5759C156.882 63.5778 154.363 62.4727 151.916 62.4727C146.474 62.4727 143.403 66.6424 143.403 71.808C143.403 77.0121 146.814 80.6614 152.05 80.6614C157.974 80.6614 160.011 75.4958 160.011 74.6285L155.327 74.2815C155.327 75.9006 153.779 77.0378 152.224 77.0378C150.02 77.0378 148.844 75.3481 148.844 73.2793L148.877 72.4183H160.12V72.4312ZM136.445 73.0158C136.445 73.8768 136.412 74.8084 135.995 75.5986C135.584 76.3889 134.723 77.0121 133.791 77.0121C131.273 77.0121 131.003 73.8061 131.003 71.9108C131.003 69.8099 131.105 66.0192 134.003 66.0192C136.31 66.0192 136.451 68.9104 136.451 70.6001V73.0158H136.445ZM141.514 80.3209V56.6839H136.451V64.6764C135.352 63.0573 134.042 62.4727 132.076 62.4727C126.975 62.4727 125.664 67.6061 125.664 71.7759C125.664 75.8428 127.045 80.6678 131.966 80.6678C134.209 80.6678 135.654 79.46 136.618 77.6032H136.689V80.3273H141.514V80.3209ZM118.597 72.6368C118.597 73.8768 118.629 74.9112 117.909 76.0162C117.324 76.9093 116.393 77.4618 115.358 77.4618C113.945 77.4618 113.116 76.5302 113.116 75.1553C113.116 72.6047 116.663 72.1613 118.597 71.9493V72.6368ZM124.109 80.3209C123.833 79.46 123.762 78.599 123.762 77.6996V69.5336C123.762 67.4327 123.936 65.5052 122.143 64.0532C120.73 62.8774 118.391 62.4663 116.592 62.4663C112.904 62.4663 108.773 63.7063 108.253 67.9466L113.045 68.3964C113.045 66.6745 114.459 65.8457 116.078 65.8457C116.836 65.8457 117.697 66.0834 118.147 66.6745C118.661 67.3299 118.597 68.2229 118.597 68.981V69.3922C116.464 69.5978 113.669 69.7392 111.671 70.4909C109.364 71.3518 107.745 73.1122 107.745 75.695C107.745 79.0038 110.154 80.655 113.258 80.655C115.879 80.655 117.395 79.6591 118.841 77.5903C118.809 78.4834 118.873 79.415 119.085 80.3145H124.109V80.3209ZM90.7255 80.3209H93.4818C93.7902 79.3893 93.9958 78.3934 94.619 77.6353C95.8911 79.7362 97.099 80.6678 99.6175 80.6678C104.886 80.6678 106.717 76.1512 106.717 71.5703C106.717 67.4327 105.201 62.4727 100.202 62.4727C98.2362 62.4727 96.7906 63.3015 95.9297 65.0233H95.7948V56.6839H90.732V80.3209H90.7255ZM95.859 70.4652C95.859 68.602 96.2059 65.9549 98.6538 65.9549C101.442 65.9549 101.442 69.6043 101.442 71.5703C101.442 73.4656 101.442 77.1149 98.5831 77.1149C97.6515 77.1149 96.9255 76.6652 96.4437 75.907C95.8911 75.0461 95.859 73.941 95.859 72.9773V70.4652ZM82.7652 72.6368C82.7652 73.8768 82.7973 74.9112 82.0777 76.0162C81.493 76.9093 80.5614 77.4618 79.527 77.4618C78.1136 77.4618 77.2848 76.5302 77.2848 75.1553C77.2848 72.6047 80.8377 72.1613 82.7652 71.9493V72.6368ZM88.2777 80.3209C88.0014 79.46 87.9307 78.599 87.9307 77.6996V69.5336C87.9307 67.4327 88.1042 65.5052 86.3117 64.0532C84.8982 62.8774 82.5596 62.4663 80.7606 62.4663C77.0728 62.4663 72.9416 63.7063 72.4212 67.9466L77.2141 68.3964C77.2141 66.6745 78.6276 65.8457 80.2466 65.8457C81.0048 65.8457 81.8657 66.0834 82.3154 66.6745C82.8294 67.3299 82.7652 68.2229 82.7652 68.981V69.3922C80.6321 69.5978 77.8373 69.7392 75.8392 70.4909C73.5262 71.3518 71.9072 73.1122 71.9072 75.695C71.9072 79.0038 74.3165 80.655 77.4197 80.655C80.041 80.655 81.5573 79.6591 83.0029 77.5903C82.9708 78.4834 83.035 79.415 83.247 80.3145H88.2777V80.3209ZM70.0119 61.888C68.5663 57.7889 65.1868 56.3369 61.0556 56.3369C58.884 56.3369 56.8538 56.8188 55.1319 58.2644C53.4422 59.6778 52.5813 61.6053 52.5813 63.8155C52.5813 68.981 56.7189 70.221 60.9207 71.082C62.3663 71.3904 65.0583 71.7694 65.0583 73.7354C65.0583 75.7014 62.9574 76.2861 61.3704 76.2861C58.9226 76.2861 57.13 75.4252 56.4426 72.9452L51.3413 74.1145C52.4078 78.734 56.4426 80.6614 60.8886 80.6614C63.2658 80.6614 65.8486 80.2117 67.7439 78.734C69.5685 77.3205 70.6736 75.1168 70.6736 72.8103C70.6736 70.4652 69.4979 68.5056 67.5704 67.2271C65.9192 66.122 63.33 65.6401 61.4026 65.2289C60.0598 64.9848 57.991 64.5736 57.991 62.8517C57.991 61.027 59.7835 60.648 61.2676 60.648C63.3686 60.648 64.6471 61.4382 65.3346 63.4428L70.0119 61.888Z" fill="#060043"/>
<path d="M169.937 80.3209H175V56.6839H169.937V80.3209ZM162.356 80.3209H167.419V56.6839H162.356V80.3209ZM148.851 69.4308C149.024 67.4327 149.885 65.7815 152.121 65.7815C154.325 65.7815 154.948 67.5355 155.051 69.4308H148.851ZM160.12 72.4312C160.152 70.054 159.773 67.574 158.328 65.5759C156.882 63.5778 154.363 62.4727 151.916 62.4727C146.474 62.4727 143.403 66.6424 143.403 71.808C143.403 77.0121 146.814 80.6614 152.05 80.6614C157.974 80.6614 160.011 75.4958 160.011 74.6285L155.327 74.2815C155.327 75.9006 153.779 77.0378 152.224 77.0378C150.02 77.0378 148.844 75.3481 148.844 73.2793L148.877 72.4183H160.12V72.4312ZM136.445 73.0158C136.445 73.8768 136.412 74.8084 135.995 75.5986C135.584 76.3889 134.723 77.0121 133.791 77.0121C131.273 77.0121 131.003 73.8061 131.003 71.9108C131.003 69.8099 131.105 66.0192 134.003 66.0192C136.31 66.0192 136.451 68.9104 136.451 70.6001V73.0158H136.445ZM141.514 80.3209V56.6839H136.451V64.6764C135.352 63.0573 134.042 62.4727 132.076 62.4727C126.975 62.4727 125.664 67.6061 125.664 71.7759C125.664 75.8428 127.045 80.6678 131.966 80.6678C134.209 80.6678 135.654 79.46 136.618 77.6032H136.689V80.3273H141.514V80.3209ZM118.597 72.6368C118.597 73.8768 118.629 74.9112 117.909 76.0162C117.324 76.9093 116.393 77.4618 115.358 77.4618C113.945 77.4618 113.116 76.5302 113.116 75.1553C113.116 72.6047 116.663 72.1613 118.597 71.9493V72.6368ZM124.109 80.3209C123.833 79.46 123.762 78.599 123.762 77.6996V69.5336C123.762 67.4327 123.936 65.5052 122.143 64.0532C120.73 62.8774 118.391 62.4663 116.592 62.4663C112.904 62.4663 108.773 63.7063 108.253 67.9466L113.045 68.3964C113.045 66.6745 114.459 65.8457 116.078 65.8457C116.836 65.8457 117.697 66.0834 118.147 66.6745C118.661 67.3299 118.597 68.2229 118.597 68.981V69.3922C116.464 69.5978 113.669 69.7392 111.671 70.4909C109.364 71.3518 107.745 73.1122 107.745 75.695C107.745 79.0038 110.154 80.655 113.258 80.655C115.879 80.655 117.395 79.6591 118.841 77.5903C118.809 78.4834 118.873 79.415 119.085 80.3145H124.109V80.3209ZM90.7255 80.3209H93.4818C93.7902 79.3893 93.9958 78.3934 94.619 77.6353C95.8911 79.7362 97.099 80.6678 99.6175 80.6678C104.886 80.6678 106.717 76.1512 106.717 71.5703C106.717 67.4327 105.201 62.4727 100.202 62.4727C98.2362 62.4727 96.7906 63.3015 95.9297 65.0233H95.7948V56.6839H90.732V80.3209H90.7255ZM95.859 70.4652C95.859 68.602 96.2059 65.9549 98.6538 65.9549C101.442 65.9549 101.442 69.6043 101.442 71.5703C101.442 73.4656 101.442 77.1149 98.5831 77.1149C97.6515 77.1149 96.9255 76.6652 96.4437 75.907C95.8911 75.0461 95.859 73.941 95.859 72.9773V70.4652ZM82.7652 72.6368C82.7652 73.8768 82.7973 74.9112 82.0777 76.0162C81.493 76.9093 80.5614 77.4618 79.527 77.4618C78.1136 77.4618 77.2848 76.5302 77.2848 75.1553C77.2848 72.6047 80.8377 72.1613 82.7652 71.9493V72.6368ZM88.2777 80.3209C88.0014 79.46 87.9307 78.599 87.9307 77.6996V69.5336C87.9307 67.4327 88.1042 65.5052 86.3117 64.0532C84.8982 62.8774 82.5596 62.4663 80.7606 62.4663C77.0728 62.4663 72.9416 63.7063 72.4212 67.9466L77.2141 68.3964C77.2141 66.6745 78.6276 65.8457 80.2466 65.8457C81.0048 65.8457 81.8657 66.0834 82.3154 66.6745C82.8294 67.3299 82.7652 68.2229 82.7652 68.981V69.3922C80.6321 69.5978 77.8373 69.7392 75.8392 70.4909C73.5262 71.3518 71.9072 73.1122 71.9072 75.695C71.9072 79.0038 74.3165 80.655 77.4197 80.655C80.041 80.655 81.5573 79.6591 83.0029 77.5903C82.9708 78.4834 83.035 79.415 83.247 80.3145H88.2777V80.3209ZM70.0119 61.888C68.5663 57.7889 65.1868 56.3369 61.0556 56.3369C58.884 56.3369 56.8538 56.8188 55.1319 58.2644C53.4422 59.6778 52.5813 61.6053 52.5813 63.8155C52.5813 68.981 56.7189 70.221 60.9207 71.082C62.3663 71.3904 65.0583 71.7694 65.0583 73.7354C65.0583 75.7014 62.9574 76.2861 61.3704 76.2861C58.9226 76.2861 57.13 75.4252 56.4426 72.9452L51.3413 74.1145C52.4078 78.734 56.4426 80.6614 60.8886 80.6614C63.2658 80.6614 65.8486 80.2117 67.7439 78.734C69.5685 77.3205 70.6736 75.1168 70.6736 72.8103C70.6736 70.4652 69.4979 68.5056 67.5704 67.2271C65.9192 66.122 63.33 65.6401 61.4026 65.2289C60.0598 64.9848 57.991 64.5736 57.991 62.8517C57.991 61.027 59.7835 60.648 61.2676 60.648C63.3686 60.648 64.6471 61.4382 65.3346 63.4428L70.0119 61.888Z" fill="black" fill-opacity="0.2"/>
</g>
</g>
<defs>
<clipPath id="clip0_139_469">
<rect width="144" height="29" fill="white" transform="translate(31 52)"/>
</clipPath>
</defs>
</svg>
