<svg width="205" height="133" viewBox="0 0 205 133" fill="none" xmlns="http://www.w3.org/2000/svg">
<rect x="0.5" y="0.5" width="204" height="132" rx="14.5" fill="white" stroke="#F6F2FF"/>
<path d="M161.941 40.1309H150.661H127.743H78.256H55.3374H44.0579C41.4309 47.6479 39.8828 56.9311 39.8828 66.9996C39.8828 77.068 41.4309 86.3512 44.0579 93.8682H55.3374H78.256H127.743H150.661H161.941C164.567 86.3512 166.115 77.0682 166.115 66.9996C166.115 56.9309 164.567 47.6479 161.941 40.1309Z" fill="#009DDD"/>
<path d="M63.9347 77.2931V76.5643C63.1605 76.5643 62.7735 75.9474 62.7735 75.1603C62.7735 74.796 62.829 74.096 62.9954 73.5338L63.8789 70.6741H71.4277L72.5607 73.7026C72.7815 74.3483 72.9476 74.9086 72.9476 75.3583C72.9476 76.1143 72.5607 76.5646 71.8963 76.5646V77.2934C73.0031 77.2934 74.0533 77.154 75.1587 77.154C76.2376 77.154 77.3154 77.2934 78.3935 77.2934V76.5646C77.2323 76.4229 76.956 75.3583 75.823 72.4695L68.7725 54.127H68.3855L61.5293 71.6844C60.9215 73.2549 59.7052 76.3123 58.4058 76.5646V77.2934C59.3458 77.2934 60.2307 77.154 61.1699 77.154C62.1103 77.154 62.9952 77.2931 63.9347 77.2931ZM67.6116 60.5211L70.8464 69.1033H64.4878L67.6116 60.5211Z" fill="white"/>
<path d="M84.4759 77.6289C85.5813 77.6289 86.1901 77.4623 86.7159 77.1246L88.5679 75.4709C89.0937 76.452 89.9772 77.2643 91.0009 77.6289C91.6086 76.8434 92.7974 75.9749 93.9318 75.2169L93.4617 74.74C93.2401 74.8815 93.0193 74.9937 92.5493 74.9937C91.803 74.9937 91.5534 74.3483 91.5534 73.1689V65.0368C91.5534 60.324 91.692 56.6781 91.692 54.127H91.0566C90.2549 55.0518 88.3198 55.9492 86.7432 56.3701V57.0158C87.5726 57.1552 88.3744 57.6043 88.3744 59.4277V64.2516C87.2688 63.7182 86.1907 63.4382 85.0853 63.4382C80.9656 63.4382 77.9517 66.0459 77.9517 70.591C77.9787 74.544 80.5502 77.6289 84.4759 77.6289ZM85.0292 64.7568C87.5718 64.7568 88.4567 66.0462 88.4567 69.1601V74.5169C87.627 75.3292 86.7979 75.6663 85.8586 75.6663C83.0663 75.6663 81.463 72.4692 81.463 69.7493C81.463 67.5333 82.4853 64.7568 85.0292 64.7568Z" fill="white"/>
<path d="M101.367 77.6288C102.722 77.6288 103.772 77.3763 104.409 77.1245L106.15 74.544L105.817 74.1526C104.85 74.8814 103.635 75.19 102.445 75.19C99.1284 75.19 96.8607 72.2446 97.0824 69.0207H106.427C106.398 65.5699 103.828 63.4385 100.51 63.4385C96.1423 63.4385 93.958 67.4481 93.958 70.5055C93.9577 73.6194 96.1423 77.6288 101.367 77.6288ZM99.9846 64.5596C102.086 64.5596 102.971 65.7939 102.971 67.7287H97.1922C97.1103 66.0742 98.2435 64.5596 99.9846 64.5596Z" fill="white"/>
<path d="M114.416 74.2926C114.416 75.5546 113.367 76.3129 112.178 76.3129C110.739 76.3129 109.468 75.1903 109.164 73.6466H107.975L108.168 76.6777C109.135 77.294 110.768 77.6294 111.901 77.6294C114.664 77.6294 117.015 76.368 117.015 73.2552C117.015 68.7956 110.628 69.9458 110.628 66.8316C110.628 65.4859 111.568 64.7842 112.841 64.7842C114.582 64.7842 115.467 65.5976 115.827 67.2525H116.849L116.988 64.3085C115.634 63.8876 114.278 63.4668 112.896 63.4668C110.268 63.4668 107.809 64.7842 107.809 67.7856C107.782 72.4135 114.416 71.9072 114.416 74.2926Z" fill="white"/>
<path d="M119.614 58.9789C119.696 60.2131 119.862 62.6531 119.862 64.5596V75.1335C119.862 75.8623 119.614 76.452 118.591 76.5912V77.2368C119.53 77.2368 120.414 77.1537 121.355 77.1537C122.322 77.1537 123.291 77.2368 124.258 77.2368V76.5912C123.262 76.4226 123.014 75.8354 123.014 74.74V62.0914C123.014 59.09 123.096 55.8929 123.151 54.127H122.488C121.658 55.0518 119.114 55.9492 117.981 56.1181V56.8752C119.006 56.8755 119.559 57.6606 119.614 58.9789Z" fill="white"/>
<path d="M129.235 77.6285C130.646 77.6285 131.668 76.843 132.772 76.031C133.16 76.843 134.127 77.4621 135.345 77.6285L137.749 75.6662L137.278 75.1893C137.059 75.2456 136.782 75.3288 136.616 75.3288C135.897 75.3288 135.648 74.9079 135.648 73.3937V72.244C135.675 70.3926 135.786 68.6826 135.786 67.5032C135.786 64.251 133.353 63.4658 130.479 63.4658C128.957 63.4658 127.686 63.6615 126.331 64.0544V67.168H127.106C127.906 65.9621 128.709 65.4286 130.283 65.4286C132.468 65.4286 132.607 67.3926 132.607 69.1594C132.164 69.1594 131.612 69.0737 131.086 69.0737C128.156 69.0737 124.921 70.4214 124.921 73.8705C124.895 76.2559 127.05 77.6285 129.235 77.6285ZM131.031 70.1406C131.612 70.1406 132.22 70.2263 132.58 70.3091L132.69 75.1059C132.165 75.4416 131.528 75.6662 130.535 75.6662C129.18 75.6662 128.017 74.5168 128.017 73.0297C128.017 70.9257 129.566 70.1406 131.031 70.1406Z" fill="white"/>
<path d="M145.048 74.2926C145.048 75.5546 143.997 76.3129 142.808 76.3129C141.371 76.3129 140.1 75.1903 139.796 73.6466H138.607L138.8 76.6777C139.767 77.294 141.399 77.6294 142.533 77.6294C145.296 77.6294 147.647 76.368 147.647 73.2552C147.647 68.7956 141.26 69.9458 141.26 66.8316C141.26 65.4859 142.201 64.7842 143.473 64.7842C145.215 64.7842 146.099 65.5976 146.459 67.2525H147.481L147.619 64.3085C146.266 63.8876 144.911 63.4668 143.526 63.4668C140.901 63.4668 138.441 64.7842 138.441 67.7856C138.441 72.4135 145.048 71.9072 145.048 74.2926Z" fill="white"/>
</svg>
