<svg width="46" height="27" viewBox="0 0 46 27" fill="none" xmlns="http://www.w3.org/2000/svg">
<rect width="46" height="27" rx="13.5" fill="#4800FF"/>
<path d="M16.6984 19.8222L9.37766 14.6548C9.25843 14.5707 9.16342 14.4692 9.09848 14.3565C9.03353 14.2438 9.00003 14.1223 9.00003 13.9996C9.00003 13.8768 9.03353 13.7553 9.09848 13.6426C9.16342 13.5299 9.25843 13.4284 9.37766 13.3443L16.6984 8.17697C17.2485 7.78877 18.1514 8.0811 18.1514 8.64778L18.1514 19.3513C18.1514 19.918 17.2485 20.2104 16.6984 19.8222Z" fill="white"/>
<path d="M29.6043 19.8222L36.9251 14.6548C37.0443 14.5707 37.1393 14.4692 37.2043 14.3565C37.2692 14.2438 37.3027 14.1223 37.3027 13.9996C37.3027 13.8768 37.2692 13.7553 37.2043 13.6426C37.1393 13.5299 37.0443 13.4284 36.9251 13.3443L29.6043 8.17697C29.0542 7.78877 28.1514 8.0811 28.1514 8.64778L28.1514 19.3513C28.1514 19.918 29.0542 20.2104 29.6043 19.8222Z" fill="white"/>
</svg>
