<svg width="28" height="29" viewBox="0 0 28 29" fill="none" xmlns="http://www.w3.org/2000/svg">
<path d="M11.4081 22.8161C13.8855 22.8161 16.1701 22.015 18.0393 20.6799L25.071 27.7116C25.3974 28.038 25.8276 28.2012 26.2875 28.2012C27.2518 28.2012 27.9342 27.4594 27.9342 26.51C27.9342 26.065 27.7858 25.6347 27.4594 25.3232L20.4722 18.3211C21.9409 16.3926 22.8161 14.0042 22.8161 11.4081C22.8161 5.13288 17.6832 0 11.4081 0C5.14772 0 0 5.11805 0 11.4081C0 17.6832 5.13288 22.8161 11.4081 22.8161ZM11.4081 20.3535C6.51253 20.3535 2.4626 16.3036 2.4626 11.4081C2.4626 6.51253 6.51253 2.4626 11.4081 2.4626C16.3036 2.4626 20.3535 6.51253 20.3535 11.4081C20.3535 16.3036 16.3036 20.3535 11.4081 20.3535Z" fill="#3C3C43" fill-opacity="0.6"/>
</svg>
