<svg width="16" height="17" viewBox="0 0 16 17" fill="none" xmlns="http://www.w3.org/2000/svg">
<path d="M12.2284 7.93953C12.1527 8.01265 12.0923 8.10011 12.0507 8.19682C12.0092 8.29353 11.9873 8.39754 11.9864 8.50279C11.9855 8.60804 12.0055 8.71242 12.0454 8.80983C12.0853 8.90725 12.1441 8.99575 12.2185 9.07017C12.293 9.1446 12.3815 9.20345 12.4789 9.24331C12.5763 9.28317 12.6807 9.30322 12.7859 9.30231C12.8912 9.30139 12.9952 9.27953 13.0919 9.23798C13.1886 9.19644 13.2761 9.13605 13.3492 9.06035L14.573 7.83648C15.3559 7.03546 15.7914 5.95807 15.785 4.83804C15.7785 3.71801 15.3308 2.64568 14.5388 1.85368C13.7468 1.06169 12.6744 0.613909 11.5544 0.607492C10.4344 0.601075 9.35699 1.03654 8.55597 1.8194L7.33211 3.04327C7.2564 3.11639 7.19601 3.20386 7.15447 3.30056C7.11293 3.39727 7.09106 3.50128 7.09015 3.60653C7.08923 3.71178 7.10929 3.81616 7.14914 3.91357C7.189 4.01099 7.24786 4.09949 7.32228 4.17391C7.39671 4.24834 7.48521 4.3072 7.58262 4.34705C7.68004 4.38691 7.78441 4.40696 7.88966 4.40605C7.99491 4.40513 8.09892 4.38327 8.19563 4.34173C8.29234 4.30018 8.3798 4.2398 8.45293 4.16409L9.67679 2.94022C9.9242 2.69009 10.2186 2.49133 10.5431 2.35537C10.8676 2.2194 11.2157 2.14891 11.5675 2.14795C11.9193 2.14699 12.2679 2.21557 12.5931 2.34976C12.9183 2.48395 13.2138 2.6811 13.4626 2.92987C13.7114 3.17864 13.9085 3.47413 14.0427 3.79935C14.1769 4.12457 14.2455 4.4731 14.2445 4.82492C14.2435 5.17673 14.1731 5.52489 14.0371 5.84937C13.9011 6.17385 13.7024 6.46825 13.4522 6.71566L12.2284 7.93953ZM3.55667 9.06035C3.63238 8.98723 3.69276 8.89976 3.7343 8.80305C3.77585 8.70635 3.79771 8.60233 3.79863 8.49708C3.79954 8.39184 3.77949 8.28746 3.73963 8.19004C3.69978 8.09263 3.64092 8.00413 3.56649 7.9297C3.49207 7.85528 3.40357 7.79642 3.30615 7.75656C3.20874 7.71671 3.10436 7.69665 2.99911 7.69757C2.89386 7.69848 2.78985 7.72035 2.69314 7.76189C2.59643 7.80343 2.50897 7.86382 2.43585 7.93953L1.21198 9.16339C0.429113 9.96441 -0.00634731 11.0418 6.99329e-05 12.1618C0.00648718 13.2819 0.454265 14.3542 1.24626 15.1462C2.03825 15.9382 3.11059 16.386 4.23062 16.3924C5.35065 16.3988 6.42804 15.9633 7.22906 15.1805L8.45293 13.9566C8.59731 13.8071 8.67721 13.6069 8.6754 13.399C8.6736 13.1912 8.59023 12.9924 8.44327 12.8454C8.2963 12.6985 8.0975 12.6151 7.88966 12.6133C7.68183 12.6115 7.4816 12.6914 7.33211 12.8358L6.10824 14.0597C5.60664 14.5558 4.92905 14.8332 4.22355 14.8313C3.51804 14.8293 2.84197 14.5482 2.3431 14.0494C1.84423 13.5505 1.56311 12.8744 1.56118 12.1689C1.55925 11.4634 1.83667 10.7858 2.3328 10.2842L3.55667 9.06035Z" fill="#4800FF"/>
<path d="M4.88446 11.512C5.0331 11.6606 5.23468 11.7441 5.44487 11.7441C5.65505 11.7441 5.85663 11.6606 6.00528 11.512L10.9047 6.61257C10.9804 6.53945 11.0408 6.45198 11.0823 6.35527C11.1239 6.25856 11.1458 6.15455 11.1467 6.0493C11.1476 5.94405 11.1275 5.83968 11.0877 5.74226C11.0478 5.64485 10.989 5.55635 10.9145 5.48192C10.8401 5.4075 10.7516 5.34864 10.6542 5.30878C10.5568 5.26893 10.4524 5.24887 10.3471 5.24979C10.2419 5.2507 10.1379 5.27257 10.0412 5.31411C9.94447 5.35565 9.85701 5.41604 9.78389 5.49175L4.88446 10.3872C4.81028 10.4609 4.75141 10.5485 4.71124 10.645C4.67107 10.7415 4.65039 10.8451 4.65039 10.9496C4.65039 11.0541 4.67107 11.1577 4.71124 11.2542C4.75141 11.3507 4.81028 11.4383 4.88446 11.512Z" fill="#4800FF"/>
</svg>
