<svg width="79" height="78" viewBox="0 0 79 78" fill="none" xmlns="http://www.w3.org/2000/svg">
<path d="M21.968 63.4429V59.539L15.0439 55.6548V67.1554C15.0439 67.7374 14.5718 68.2095 13.9899 68.2095C13.4079 68.2095 12.9358 67.7374 12.9358 67.1554V53.8549C12.9358 53.671 12.9839 53.4903 13.0754 53.3308C13.1668 53.1713 13.2985 53.0385 13.4573 52.9457C13.6158 52.8523 13.7962 52.8021 13.9802 52.8003C14.1642 52.7985 14.3455 52.8451 14.5059 52.9353L23.5374 58.0024C23.7008 58.094 23.8369 58.2275 23.9316 58.3891C24.0262 58.5507 24.0761 58.7347 24.0761 58.922V63.4429C24.0761 64.0249 23.604 64.497 23.022 64.497C22.4401 64.497 21.968 64.0249 21.968 63.4429ZM2.5804 52.7061V40.1418C2.5804 36.5593 6.11859 34.9556 9.62523 34.9556H10.5017C9.10193 33.6639 8.18757 31.587 8.18757 29.2416C8.18757 25.643 10.3492 23.4076 13.8284 23.4076C17.3082 23.4076 19.47 25.643 19.47 29.2416C19.47 31.587 18.5556 33.6639 17.1557 34.9556H25.428C25.7642 34.9556 26.0311 34.9117 26.3503 34.804L30.2887 33.4737L32.9485 32.5452L38.7038 30.5122C39.2151 30.3316 39.5993 30.0661 39.9486 29.651L41.7954 27.4554C43.8794 24.976 45.525 23.0175 48.596 23.0175L51.358 22.9876C49.7412 21.7067 48.6612 19.4471 48.6612 16.8709C48.6612 13.2047 50.8633 10.927 54.4077 10.927C57.9528 10.927 60.1549 13.2045 60.1549 16.8709C60.1549 19.4011 59.1144 21.6284 57.5456 22.9206H63.9562L63.9725 16.6897C63.9725 15.0356 65.075 13.6917 66.6125 13.263V1.05407C66.6125 0.774523 66.7236 0.506441 66.9212 0.308773C67.1189 0.111106 67.387 4.03943e-05 67.6665 8.20169e-10L77.1962 8.20169e-10C77.3774 -7.14572e-06 77.5554 0.0466892 77.7133 0.13558C77.8711 0.224471 78.0033 0.352552 78.0972 0.507457C78.1913 0.66227 78.2438 0.838737 78.2497 1.01979C78.2556 1.20084 78.2147 1.38035 78.1309 1.54096L77.0226 3.66935L78.1309 5.79775C78.2147 5.95835 78.2556 6.13786 78.2497 6.31891C78.2438 6.49997 78.1913 6.67643 78.0972 6.83125C78.0033 6.98617 77.8711 7.11427 77.7133 7.20316C77.5555 7.29206 77.3774 7.33874 77.1962 7.3387H68.7206V13.288C70.172 13.7464 71.2343 15.0892 71.2343 16.69V26.4685C71.2343 28.4692 69.6078 30.097 67.6096 30.097L63.1908 30.2734C62.3392 30.2745 61.5726 30.5949 60.9914 31.1771C60.4102 31.7594 60.0897 32.5277 60.0897 33.3401V40.3644L68.8262 45.415C68.9862 45.5077 69.1191 45.6408 69.2115 45.801C69.3039 45.9611 69.3525 46.1428 69.3525 46.3277V55.1417C69.3525 55.7237 68.8804 56.1958 68.2984 56.1958C67.7165 56.1958 67.2444 55.7237 67.2444 55.1417V46.9356L58.5079 41.8849C58.3479 41.7923 58.215 41.6592 58.1226 41.499C58.0302 41.3388 57.9816 41.1572 57.9816 40.9722V33.34C57.9816 31.9651 58.521 30.6682 59.4995 29.6875C60.4794 28.7063 61.7757 28.1662 63.1489 28.1662L67.5677 27.9898C68.4461 27.9887 69.1261 27.3067 69.1261 26.4685V16.69C69.1261 15.8765 68.4639 15.2146 67.6501 15.2146C66.7409 15.2146 66.0806 15.8349 66.0806 16.69L66.0669 23.1285C66.0669 24.2179 65.1803 25.1139 64.09 25.1254L48.6079 25.1259C46.5959 25.1259 45.502 26.3224 43.4096 28.812L41.5615 31.0084C40.9645 31.718 40.2797 32.1918 39.406 32.5006L35.5452 33.8645C35.8418 34.1737 36.0928 34.5354 36.2673 34.9539C36.5078 35.5307 36.5755 36.1451 36.5022 36.7488L42.0166 35.0459C42.5421 34.8837 42.941 34.6291 43.3087 34.2198L46.2328 30.9671C46.3752 30.8083 46.5625 30.6965 46.7699 30.6466C46.9773 30.5967 47.195 30.6111 47.394 30.6878C47.5931 30.7641 47.7643 30.899 47.8851 31.0747C48.0059 31.2504 48.0706 31.4586 48.0705 31.6718V59.2258C48.0705 59.8077 47.5984 60.2798 47.0165 60.2798C46.4345 60.2798 45.9624 59.8077 45.9624 59.2258V34.4204L44.8761 35.6288C44.2475 36.328 43.5365 36.7826 42.6383 37.0596L34.2559 39.6481L34.2531 39.6485L28.2293 41.7976C27.6687 41.9974 27.1519 42.0865 26.5543 42.0865H23.7167C22.9337 42.0865 22.1925 42.3967 21.6299 42.9608C21.0672 43.5242 20.757 44.2674 20.757 45.0525V50.4072L29.2855 55.3378C29.4455 55.4304 29.5784 55.5635 29.6708 55.7237C29.7632 55.8839 29.8118 56.0656 29.8118 56.2505V63.4429C29.8118 64.0249 29.3397 64.497 28.7578 64.497C28.1758 64.497 27.7037 64.0249 27.7037 63.4429V56.8585L19.1752 51.9279C19.0152 51.8353 18.8823 51.7022 18.7899 51.542C18.6975 51.3818 18.6489 51.2001 18.6489 51.0152V45.0525C18.6489 43.7047 19.1779 42.4331 20.138 41.471C21.0995 40.5082 22.3703 39.9785 23.7167 39.9785H26.5543C26.9091 39.9785 27.1891 39.9305 27.5212 39.8117L33.5909 37.6479C33.8983 37.5186 34.177 37.2389 34.3244 36.8797C34.3976 36.7028 34.435 36.5132 34.4344 36.3218C34.4338 36.1303 34.3952 35.9409 34.3209 35.7645C34.0114 35.0217 33.157 34.6693 32.4174 34.9768C32.3954 34.986 27.025 36.8011 27.025 36.8011C26.4869 36.9825 25.9943 37.0636 25.4282 37.0636H9.62539C9.12037 37.0636 4.68869 37.1501 4.68869 40.1417V52.7059C4.68869 54.0537 5.61798 55.1893 6.89981 55.6052V41.7193C6.89981 41.1374 7.37192 40.6653 7.95387 40.6653C8.53582 40.6653 9.00794 41.1374 9.00794 41.7193V56.8315C9.00794 56.834 9.0087 56.8361 9.0087 56.8384C9.0087 56.8407 9.00794 56.8428 9.00794 56.8452V67.1553C9.00794 67.7372 8.53582 68.2093 7.95387 68.2093C7.37192 68.2093 6.89981 67.7372 6.89981 67.1553V57.791C4.43991 57.3164 2.5804 55.2173 2.5804 52.7061ZM68.7203 5.23042H75.4585L74.8992 4.15609C74.8208 4.00578 74.7798 3.83874 74.7798 3.6692C74.7798 3.49965 74.8208 3.33262 74.8992 3.18231L75.4585 2.10798H68.7203V5.23042ZM50.7692 16.871C50.7692 19.6952 52.4011 21.9931 54.4076 21.9931C56.4141 21.9931 58.0466 19.6953 58.0466 16.871C58.0466 13.5335 55.767 13.0353 54.4076 13.0353C53.0488 13.0353 50.7692 13.5336 50.7692 16.871ZM10.2957 29.2418C10.2957 31.9897 11.8802 34.2252 13.8284 34.2252C15.7766 34.2252 17.3619 31.9899 17.3619 29.2418C17.3619 26.0001 15.148 25.5159 13.8284 25.5159C12.5088 25.5159 10.2957 26.0001 10.2957 29.2418ZM62.4309 56.1956C62.7105 56.1956 62.9786 56.0845 63.1762 55.8869C63.3739 55.6892 63.485 55.4211 63.485 55.1416V49.0602C63.4851 48.8729 63.4352 48.6889 63.3405 48.5273C63.2458 48.3656 63.1097 48.2322 62.9463 48.1406L53.7062 42.9574C53.546 42.8671 53.3648 42.8205 53.1809 42.8223C52.997 42.8241 52.8168 42.8743 52.6584 42.9678C52.4996 43.0606 52.368 43.1934 52.2765 43.3529C52.185 43.5124 52.1369 43.6931 52.1369 43.877V59.2253C52.1369 59.8073 52.609 60.2794 53.191 60.2794C53.7729 60.2794 54.245 59.8073 54.245 59.2253V45.6771L61.377 49.6778V55.1416C61.3771 55.4211 61.4881 55.6892 61.6857 55.8868C61.8834 56.0845 62.1514 56.1956 62.4309 56.1956ZM77.1959 60.1717H58.223C57.9435 60.1717 57.6754 60.2828 57.4778 60.4804C57.2801 60.6781 57.169 60.9462 57.169 61.2257V64.3989H39.25C38.9705 64.3989 38.7024 64.51 38.5047 64.7077C38.307 64.9053 38.196 65.1734 38.1959 65.453V67.9255H20.277C19.9974 67.9255 19.7293 68.0366 19.5317 68.2343C19.334 68.4319 19.2229 68.7 19.2229 68.9796V71.9084H1.30407C1.02452 71.9084 0.756441 72.0195 0.558773 72.2172C0.361106 72.4148 0.25004 72.6829 0.25 72.9624L0.25 76.9461C0.25 77.5279 0.722113 78 1.30407 78C1.88602 78 2.35813 77.5279 2.35813 76.9459V74.0164H19.223V76.9459C19.223 77.5279 19.6952 78 20.2771 78C20.8591 78 21.3312 77.5279 21.3312 76.9459V70.0335H38.1961V76.9459C38.1961 77.5279 38.6682 78 39.2502 78C39.8321 78 40.3042 77.5279 40.3042 76.9459V66.5069H57.1691V76.9459C57.1691 77.5279 57.6412 78 58.2232 78C58.8051 78 59.2773 77.5279 59.2773 76.9459V62.2798H76.1422V76.9459C76.1422 77.5279 76.6143 78 77.1962 78C77.7782 78 78.2503 77.5279 78.2503 76.9459V61.2257C78.2501 60.9462 78.1389 60.6782 77.9412 60.4805C77.7435 60.2829 77.4755 60.1718 77.1959 60.1717Z" fill="url(#paint0_linear_100_616)"/>
<defs>
<linearGradient id="paint0_linear_100_616" x1="32.2501" y1="66.5122" x2="31.2782" y2="16.1112" gradientUnits="userSpaceOnUse">
<stop stop-color="#4800FF"/>
<stop offset="1" stop-color="#FF00A7"/>
</linearGradient>
</defs>
</svg>
