<svg width="82" height="80" viewBox="0 0 82 80" fill="none" xmlns="http://www.w3.org/2000/svg">
<path d="M4.04688 57.7188C3.88061 57.719 3.71594 57.6864 3.5623 57.6228C3.40865 57.5593 3.26905 57.4661 3.15148 57.3485C3.03391 57.231 2.9407 57.0914 2.87717 56.9377C2.81364 56.7841 2.78104 56.6194 2.78125 56.4531V8.35938C2.78125 7.65917 3.34667 7.09375 4.04688 7.09375C4.74708 7.09375 5.3125 7.65917 5.3125 8.35938V56.4531C5.3125 57.1533 4.74708 57.7188 4.04688 57.7188Z" fill="url(#paint0_linear_100_596)"/>
<path d="M4.04688 9.625C3.88061 9.62521 3.71594 9.59261 3.5623 9.52908C3.40865 9.46555 3.26905 9.37234 3.15148 9.25477C3.03391 9.13721 2.9407 8.9976 2.87717 8.84395C2.81364 8.69031 2.78104 8.52564 2.78125 8.35938C2.78125 6.26635 4.4851 4.5625 6.57813 4.5625C7.27833 4.5625 7.84375 5.12792 7.84375 5.82812C7.84375 6.52833 7.27833 7.09375 6.57813 7.09375C5.87982 7.09375 5.3125 7.66107 5.3125 8.35938C5.3125 9.05958 4.74708 9.625 4.04688 9.625ZM77.4531 57.7188C77.2869 57.719 77.1222 57.6864 76.9685 57.6228C76.8149 57.5593 76.6753 57.4661 76.5577 57.3485C76.4402 57.231 76.3469 57.0914 76.2834 56.9377C76.2199 56.7841 76.1873 56.6194 76.1875 56.4531V8.35938C76.1875 7.65917 76.7529 7.09375 77.4531 7.09375C78.1533 7.09375 78.7188 7.65917 78.7188 8.35938V56.4531C78.7188 57.1533 78.1533 57.7188 77.4531 57.7188Z" fill="url(#paint1_linear_100_596)"/>
<path d="M77.4531 9.625C77.2869 9.62521 77.1222 9.59261 76.9685 9.52908C76.8149 9.46555 76.6753 9.37234 76.5577 9.25477C76.4402 9.13721 76.3469 8.9976 76.2834 8.84395C76.2199 8.69031 76.1873 8.52564 76.1875 8.35938C76.1875 7.66107 75.6202 7.09375 74.9219 7.09375C74.2217 7.09375 73.6562 6.52833 73.6562 5.82812C73.6562 5.12792 74.2217 4.5625 74.9219 4.5625C77.0149 4.5625 78.7188 6.26635 78.7188 8.35938C78.7188 9.05958 78.1533 9.625 77.4531 9.625Z" fill="url(#paint2_linear_100_596)"/>
<path d="M74.9219 7.09375H6.57813C5.87792 7.09375 5.3125 6.52833 5.3125 5.82812C5.3125 5.12792 5.87792 4.5625 6.57813 4.5625H74.9219C75.6221 4.5625 76.1875 5.12792 76.1875 5.82812C76.1875 6.52833 75.6221 7.09375 74.9219 7.09375ZM79.9844 61.5156H1.51563C1.34936 61.5158 1.18469 61.4832 1.03105 61.4197C0.877399 61.3562 0.737795 61.263 0.62023 61.1454C0.502664 61.0278 0.409447 60.8882 0.345917 60.7346C0.282387 60.5809 0.249793 60.4163 0.250001 60.25V56.4531C0.250001 55.7529 0.815419 55.1875 1.51563 55.1875H79.9844C80.6846 55.1875 81.25 55.7529 81.25 56.4531V60.25C81.25 60.9502 80.6846 61.5156 79.9844 61.5156ZM2.78125 58.9844H78.7188V57.7188H2.78125V58.9844Z" fill="url(#paint3_linear_100_596)"/>
<path d="M26.8281 79.2345C26.6831 79.2344 26.5392 79.2091 26.4029 79.1596C25.7436 78.9242 25.4007 78.2006 25.6372 77.5438L31.9653 59.825C32.1996 59.1656 32.9257 58.8188 33.5813 59.0593C34.2407 59.2947 34.5837 60.0183 34.347 60.6752L28.0189 78.3939C27.8354 78.9121 27.3486 79.2345 26.8281 79.2345ZM20.5 79.2345C20.355 79.2344 20.2111 79.2091 20.0747 79.1596C19.4155 78.9242 19.0725 78.2006 19.309 77.5438L25.6372 59.825C25.8715 59.1656 26.5976 58.8188 27.2532 59.0593C27.9126 59.2947 28.2556 60.0183 28.0189 60.6752L21.6908 78.3939C21.5073 78.9121 21.0205 79.2345 20.5 79.2345Z" fill="url(#paint4_linear_100_596)"/>
<path d="M26.8281 79.2342H20.5C19.7998 79.2342 19.2344 78.6688 19.2344 77.9686C19.2344 77.2684 19.7998 76.7029 20.5 76.7029H26.8281C27.5283 76.7029 28.0938 77.2684 28.0938 77.9686C28.0938 78.6688 27.5283 79.2342 26.8281 79.2342ZM54.6719 79.2342C54.1514 79.2342 53.6646 78.9115 53.4811 78.3937L47.153 60.6749C46.9163 60.0168 47.2605 59.2932 47.9187 59.059C48.573 58.8211 49.3004 59.1677 49.5345 59.8247L55.8627 77.5435C56.0993 78.2016 55.7551 78.9252 55.097 79.1594C54.9581 79.21 54.8122 79.2342 54.6719 79.2342ZM61 79.2342C60.4795 79.2342 59.9927 78.9115 59.8092 78.3937L53.4811 60.6749C53.2444 60.0168 53.5887 59.2932 54.2468 59.059C54.9011 58.8211 55.6285 59.1677 55.8627 59.8247L62.1908 77.5435C62.4275 78.2016 62.0832 78.9252 61.4251 79.1594C61.2862 79.21 61.1403 79.2342 61 79.2342Z" fill="url(#paint5_linear_100_596)"/>
<path d="M61 79.2344H54.6719C53.9717 79.2344 53.4062 78.669 53.4062 77.9688C53.4062 77.2685 53.9717 76.7031 54.6719 76.7031H61C61.7002 76.7031 62.2656 77.2685 62.2656 77.9688C62.2656 78.669 61.7002 79.2344 61 79.2344ZM51.0561 69.1094H30.4439C29.7444 69.1094 29.1782 68.544 29.1782 67.8438C29.1782 67.1435 29.7444 66.5781 30.4439 66.5781H51.0549C51.7545 66.5781 52.3205 67.1435 52.3205 67.8438C52.3205 68.544 51.7544 69.1094 51.0561 69.1094ZM52.4112 72.9062H29.0888C28.3885 72.9062 27.8232 72.3408 27.8232 71.6406C27.8232 70.9404 28.3885 70.375 29.0888 70.375H52.4112C53.1115 70.375 53.6768 70.9404 53.6768 71.6406C53.6768 72.3408 53.1115 72.9062 52.4112 72.9062ZM45.8125 7.09375H35.6875C35.5212 7.09396 35.3566 7.06136 35.2029 6.99783C35.0493 6.9343 34.9097 6.84109 34.7921 6.72352C34.6745 6.60596 34.5813 6.46635 34.5178 6.3127C34.4543 6.15906 34.4217 5.99439 34.4219 5.82812V2.03125C34.4219 1.33104 34.9873 0.765625 35.6875 0.765625H45.8125C46.5127 0.765625 47.0781 1.33104 47.0781 2.03125V5.82812C47.0781 6.52833 46.5127 7.09375 45.8125 7.09375ZM36.9531 4.5625H44.5469V3.29688H36.9531V4.5625ZM16.7031 48.8594C13.9112 48.8594 11.6406 46.5888 11.6406 43.7969C11.6406 41.0049 13.9112 38.7344 16.7031 38.7344C19.4951 38.7344 21.7656 41.0049 21.7656 43.7969C21.7656 46.5888 19.4951 48.8594 16.7031 48.8594ZM16.7031 41.2656C15.3071 41.2656 14.1719 42.4009 14.1719 43.7969C14.1719 45.1929 15.3071 46.3281 16.7031 46.3281C18.0991 46.3281 19.2344 45.1929 19.2344 43.7969C19.2344 42.4009 18.0991 41.2656 16.7031 41.2656ZM61 31.1406C58.208 31.1406 55.9375 28.8701 55.9375 26.0781C55.9375 23.2862 58.208 21.0156 61 21.0156C63.792 21.0156 66.0625 23.2862 66.0625 26.0781C66.0625 28.8701 63.792 31.1406 61 31.1406ZM61 23.5469C59.604 23.5469 58.4688 24.6821 58.4688 26.0781C58.4688 27.4741 59.604 28.6094 61 28.6094C62.396 28.6094 63.5312 27.4741 63.5312 26.0781C63.5312 24.6821 62.396 23.5469 61 23.5469Z" fill="url(#paint6_linear_100_596)"/>
<path d="M61 27.3438C60.8337 27.344 60.6691 27.3114 60.5154 27.2478C60.3618 27.1843 60.2222 27.0911 60.1046 26.9735C59.987 26.856 59.8938 26.7164 59.8303 26.5627C59.7668 26.4091 59.7342 26.2444 59.7344 26.0781V14.6875C59.7344 13.9873 60.2998 13.4219 61 13.4219C61.7002 13.4219 62.2656 13.9873 62.2656 14.6875V26.0781C62.2656 26.7783 61.7002 27.3438 61 27.3438Z" fill="url(#paint7_linear_100_596)"/>
<path d="M68.5938 15.9531H61C60.2998 15.9531 59.7344 15.3877 59.7344 14.6875C59.7344 13.9873 60.2998 13.4219 61 13.4219H68.5938C69.294 13.4219 69.8594 13.9873 69.8594 14.6875C69.8594 15.3877 69.294 15.9531 68.5938 15.9531ZM68.5938 21.0156H61C60.2998 21.0156 59.7344 20.4502 59.7344 19.75C59.7344 19.0498 60.2998 18.4844 61 18.4844H68.5938C69.294 18.4844 69.8594 19.0498 69.8594 19.75C69.8594 20.4502 69.294 21.0156 68.5938 21.0156Z" fill="url(#paint8_linear_100_596)"/>
<path d="M68.595 21.0157C68.3596 21.0159 68.1287 20.9505 67.9284 20.8268C67.7281 20.7032 67.5662 20.5261 67.461 20.3155L66.1954 17.7842C66.1073 17.6084 66.0614 17.4145 66.0614 17.2178C66.0614 17.0212 66.1073 16.8273 66.1954 16.6515L67.461 14.1202C67.7736 13.4953 68.5344 13.2446 69.1592 13.5548C69.3078 13.6291 69.4404 13.732 69.5493 13.8576C69.6583 13.9831 69.7414 14.1289 69.7939 14.2866C69.8465 14.4443 69.8675 14.6108 69.8557 14.7766C69.8439 14.9424 69.7996 15.1043 69.7252 15.253L68.7433 17.2188L69.7252 19.1846C69.7996 19.3333 69.8439 19.4951 69.8557 19.6609C69.8675 19.8267 69.8465 19.9932 69.7939 20.1509C69.7414 20.3086 69.6583 20.4544 69.5493 20.58C69.4404 20.7056 69.3078 20.8084 69.1592 20.8828C68.9839 20.97 68.7908 21.0154 68.595 21.0157ZM23.0312 38.7344C22.7212 38.735 22.4219 38.621 22.1907 38.4144C21.668 37.9508 21.6217 37.1498 22.0857 36.6283C22.5146 36.1451 32.8107 24.8125 52.1406 24.8125C52.8408 24.8125 53.4062 25.378 53.4062 26.0782C53.4062 26.7784 52.8408 27.3438 52.1406 27.3438C33.9349 27.3438 24.0744 38.2005 23.9768 38.3093C23.8585 38.4433 23.7129 38.5505 23.5499 38.6238C23.3868 38.6971 23.21 38.7348 23.0312 38.7344Z" fill="url(#paint9_linear_100_596)"/>
<path d="M49.6094 29.8751C49.4432 29.8752 49.2786 29.8425 49.125 29.7788C48.9715 29.7152 48.832 29.6219 48.7146 29.5042C48.5969 29.3868 48.5036 29.2474 48.4399 29.0938C48.3762 28.9403 48.3434 28.7757 48.3434 28.6094C48.3434 28.4432 48.3762 28.2786 48.4399 28.1251C48.5036 27.9715 48.5969 27.8321 48.7146 27.7146L51.2458 25.1834C51.7408 24.6882 52.5404 24.6882 53.0354 25.1834C53.5304 25.6786 53.5306 26.478 53.0354 26.973L50.5042 29.5042C50.3868 29.6219 50.2473 29.7152 50.0937 29.7788C49.9402 29.8425 49.7756 29.8752 49.6094 29.8751Z" fill="url(#paint10_linear_100_596)"/>
<path d="M52.1406 27.3438C51.9744 27.3439 51.8098 27.3112 51.6563 27.2475C51.5027 27.1839 51.3632 27.0906 51.2458 26.9729L48.7146 24.4417C48.2194 23.9467 48.2194 23.1471 48.7146 22.6521C49.2097 22.1571 50.0092 22.1569 50.5042 22.6521L53.0354 25.1833C53.1531 25.3007 53.2464 25.4402 53.3101 25.5938C53.3738 25.7473 53.4066 25.9119 53.4066 26.0781C53.4066 26.2444 53.3738 26.409 53.3101 26.5625C53.2464 26.716 53.1531 26.8555 53.0354 26.9729C52.918 27.0906 52.7785 27.1839 52.625 27.2475C52.4714 27.3112 52.3068 27.3439 52.1406 27.3438ZM16.7408 45.0638C16.0412 45.0638 15.469 44.4984 15.469 43.7981C15.469 43.0986 16.0282 42.5325 16.7272 42.5325H16.7408C17.4397 42.5325 18.0064 43.0986 18.0064 43.7981C18.0064 44.4984 17.4397 45.0638 16.7408 45.0638ZM19.2344 27.3438C19.0682 27.3439 18.9036 27.3112 18.75 27.2475C18.5965 27.1839 18.457 27.0906 18.3396 26.9729L13.2771 21.9104C12.7819 21.4154 12.7819 20.6159 13.2771 20.1208C13.7723 19.6258 14.5717 19.6257 15.0667 20.1208L20.1292 25.1833C20.2468 25.3007 20.3402 25.4402 20.4039 25.5938C20.4676 25.7473 20.5004 25.9119 20.5004 26.0781C20.5004 26.2444 20.4676 26.409 20.4039 26.5625C20.3402 26.716 20.2468 26.8555 20.1292 26.9729C20.0118 27.0906 19.8723 27.1839 19.7187 27.2475C19.5652 27.3112 19.4006 27.3439 19.2344 27.3438Z" fill="url(#paint11_linear_100_596)"/>
<path d="M14.1719 27.3438C14.0057 27.3439 13.8411 27.3112 13.6875 27.2475C13.534 27.1839 13.3945 27.0906 13.2771 26.9729C13.1594 26.8555 13.066 26.716 13.0023 26.5625C12.9386 26.409 12.9059 26.2444 12.9059 26.0781C12.9059 25.9119 12.9386 25.7473 13.0023 25.5938C13.066 25.4402 13.1594 25.3007 13.2771 25.1833L18.3396 20.1208C18.8346 19.6257 19.6342 19.6257 20.1292 20.1208C20.6242 20.616 20.6243 21.4154 20.1292 21.9104L15.0667 26.9729C14.9493 27.0906 14.8098 27.1839 14.6562 27.2475C14.5027 27.3112 14.3381 27.3439 14.1719 27.3438ZM38.2187 18.4844C38.0525 18.4845 37.8879 18.4518 37.7344 18.3881C37.5808 18.3245 37.4414 18.2312 37.3239 18.1136L32.2614 13.0511C31.7663 12.556 31.7663 11.7565 32.2614 11.2615C32.7566 10.7664 33.556 10.7663 34.051 11.2615L39.1135 16.324C39.2312 16.4414 39.3246 16.5808 39.3883 16.7344C39.452 16.8879 39.4848 17.0525 39.4848 17.2188C39.4848 17.385 39.452 17.5496 39.3883 17.7031C39.3246 17.8567 39.2312 17.9961 39.1135 18.1136C38.9961 18.2312 38.8567 18.3245 38.7031 18.3881C38.5496 18.4518 38.385 18.4845 38.2187 18.4844Z" fill="url(#paint12_linear_100_596)"/>
<path d="M33.1563 18.4844C32.99 18.4845 32.8254 18.4518 32.6719 18.3882C32.5183 18.3246 32.3789 18.2313 32.2615 18.1136C32.1438 17.9962 32.0504 17.8567 31.9867 17.7032C31.923 17.5496 31.8902 17.385 31.8902 17.2188C31.8902 17.0526 31.923 16.888 31.9867 16.7344C32.0504 16.5809 32.1438 16.4414 32.2615 16.324L37.324 11.2615C37.819 10.7663 38.6185 10.7663 39.1136 11.2615C39.6086 11.7567 39.6087 12.5561 39.1136 13.0511L34.0511 18.1136C33.9336 18.2313 33.7942 18.3246 33.6406 18.3882C33.4871 18.4518 33.3225 18.4845 33.1563 18.4844ZM40.75 51.3907C40.5838 51.3908 40.4192 51.3581 40.2656 51.2945C40.1121 51.2308 39.9726 51.1375 39.8552 51.0199L34.7927 45.9574C34.2975 45.4623 34.2975 44.6628 34.7927 44.1678C35.2879 43.6727 36.0873 43.6726 36.5823 44.1678L41.6448 49.2303C41.7625 49.3477 41.8558 49.4872 41.9195 49.6407C41.9832 49.7942 42.016 49.9588 42.016 50.1251C42.016 50.2913 41.9832 50.4559 41.9195 50.6094C41.8558 50.763 41.7625 50.9025 41.6448 51.0199C41.5274 51.1375 41.3879 51.2308 41.2344 51.2945C41.0808 51.3581 40.9162 51.3908 40.75 51.3907Z" fill="url(#paint13_linear_100_596)"/>
<path d="M35.6875 51.3906C35.5213 51.3907 35.3567 51.358 35.2031 51.2944C35.0496 51.2308 34.9101 51.1374 34.7927 51.0198C34.675 50.9024 34.5817 50.7629 34.518 50.6094C34.4543 50.4558 34.4215 50.2912 34.4215 50.125C34.4215 49.9588 34.4543 49.7942 34.518 49.6406C34.5817 49.4871 34.675 49.3476 34.7927 49.2302L39.8552 44.1677C40.3502 43.6725 41.1498 43.6725 41.6448 44.1677C42.1398 44.6629 42.14 45.4623 41.6448 45.9573L36.5823 51.0198C36.4649 51.1374 36.3254 51.2308 36.1719 51.2944C36.0183 51.358 35.8537 51.3907 35.6875 51.3906ZM59.7344 45.0625C59.5682 45.0626 59.4036 45.0299 59.25 44.9663C59.0965 44.9026 58.957 44.8093 58.8396 44.6917L53.7771 39.6292C53.2819 39.1342 53.2819 38.3346 53.7771 37.8396C54.2723 37.3446 55.0717 37.3444 55.5667 37.8396L60.6292 42.9021C60.7468 43.0195 60.8402 43.159 60.9039 43.3125C60.9676 43.4661 61.0004 43.6307 61.0004 43.7969C61.0004 43.9631 60.9676 44.1277 60.9039 44.2813C60.8402 44.4348 60.7468 44.5743 60.6292 44.6917C60.5118 44.8093 60.3723 44.9026 60.2187 44.9663C60.0652 45.0299 59.9006 45.0626 59.7344 45.0625Z" fill="url(#paint14_linear_100_596)"/>
<path d="M54.6719 45.0626C54.5057 45.0627 54.3411 45.03 54.1875 44.9663C54.034 44.9027 53.8945 44.8094 53.7771 44.6917C53.6594 44.5743 53.5661 44.4349 53.5024 44.2813C53.4387 44.1278 53.4059 43.9632 53.4059 43.7969C53.4059 43.6307 53.4387 43.4661 53.5024 43.3126C53.5661 43.159 53.6594 43.0196 53.7771 42.9021L58.8396 37.8396C59.3346 37.3445 60.1342 37.3445 60.6292 37.8396C61.1242 38.3348 61.1244 39.1342 60.6292 39.6292L55.5667 44.6917C55.4493 44.8094 55.3098 44.9027 55.1562 44.9663C55.0027 45.03 54.8381 45.0627 54.6719 45.0626Z" fill="url(#paint15_linear_100_596)"/>
<defs>
<linearGradient id="paint0_linear_100_596" x1="3.81971" y1="50.2627" x2="-7.16743" y2="21.776" gradientUnits="userSpaceOnUse">
<stop stop-color="#4800FF"/>
<stop offset="1" stop-color="#FF00A7"/>
</linearGradient>
<linearGradient id="paint1_linear_100_596" x1="33.9351" y1="49.8899" x2="33.4713" y2="15.5356" gradientUnits="userSpaceOnUse">
<stop stop-color="#4800FF"/>
<stop offset="1" stop-color="#FF00A7"/>
</linearGradient>
<linearGradient id="paint2_linear_100_596" x1="75.7332" y1="8.8794" x2="75.6701" y2="5.60818" gradientUnits="userSpaceOnUse">
<stop stop-color="#4800FF"/>
<stop offset="1" stop-color="#FF00A7"/>
</linearGradient>
<linearGradient id="paint3_linear_100_596" x1="33.4808" y1="53.1276" x2="32.9817" y2="16.3194" gradientUnits="userSpaceOnUse">
<stop stop-color="#4800FF"/>
<stop offset="1" stop-color="#FF00A7"/>
</linearGradient>
<linearGradient id="paint4_linear_100_596" x1="25.4651" y1="76.2518" x2="25.1287" y2="63.1697" gradientUnits="userSpaceOnUse">
<stop stop-color="#4800FF"/>
<stop offset="1" stop-color="#FF00A7"/>
</linearGradient>
<linearGradient id="paint5_linear_100_596" x1="36.8882" y1="76.2517" x2="36.7694" y2="63.1629" gradientUnits="userSpaceOnUse">
<stop stop-color="#4800FF"/>
<stop offset="1" stop-color="#FF00A7"/>
</linearGradient>
<linearGradient id="paint6_linear_100_596" x1="33.9675" y1="67.6775" x2="32.5582" y2="16.9939" gradientUnits="userSpaceOnUse">
<stop stop-color="#4800FF"/>
<stop offset="1" stop-color="#FF00A7"/>
</linearGradient>
<linearGradient id="paint7_linear_100_596" x1="60.7728" y1="25.2933" x2="59.8289" y2="16.3943" gradientUnits="userSpaceOnUse">
<stop stop-color="#4800FF"/>
<stop offset="1" stop-color="#FF00A7"/>
</linearGradient>
<linearGradient id="paint8_linear_100_596" x1="63.8882" y1="19.8972" x2="63.8172" y2="14.9896" gradientUnits="userSpaceOnUse">
<stop stop-color="#4800FF"/>
<stop offset="1" stop-color="#FF00A7"/>
</linearGradient>
<linearGradient id="paint9_linear_100_596" x1="41.4964" y1="35.0064" x2="41.3304" y2="18.6459" gradientUnits="userSpaceOnUse">
<stop stop-color="#4800FF"/>
<stop offset="1" stop-color="#FF00A7"/>
</linearGradient>
<linearGradient id="paint10_linear_100_596" x1="50.4207" y1="29.1294" x2="50.3576" y2="25.8578" gradientUnits="userSpaceOnUse">
<stop stop-color="#4800FF"/>
<stop offset="1" stop-color="#FF00A7"/>
</linearGradient>
<linearGradient id="paint11_linear_100_596" x1="29.5215" y1="41.3355" x2="29.3243" y2="24.9745" gradientUnits="userSpaceOnUse">
<stop stop-color="#4800FF"/>
<stop offset="1" stop-color="#FF00A7"/>
</linearGradient>
<linearGradient id="paint12_linear_100_596" x1="23.81" y1="24.9205" x2="23.6831" y2="14.2862" gradientUnits="userSpaceOnUse">
<stop stop-color="#4800FF"/>
<stop offset="1" stop-color="#FF00A7"/>
</linearGradient>
<linearGradient id="paint13_linear_100_596" x1="36.0444" y1="45.4258" x2="34.037" y2="19.4008" gradientUnits="userSpaceOnUse">
<stop stop-color="#4800FF"/>
<stop offset="1" stop-color="#FF00A7"/>
</linearGradient>
<linearGradient id="paint14_linear_100_596" x1="45.3257" y1="49.3401" x2="45.2348" y2="40.3415" gradientUnits="userSpaceOnUse">
<stop stop-color="#4800FF"/>
<stop offset="1" stop-color="#FF00A7"/>
</linearGradient>
<linearGradient id="paint15_linear_100_596" x1="56.5216" y1="43.9441" x2="56.427" y2="39.0369" gradientUnits="userSpaceOnUse">
<stop stop-color="#4800FF"/>
<stop offset="1" stop-color="#FF00A7"/>
</linearGradient>
</defs>
</svg>
