<svg width="82" height="80" viewBox="0 0 82 80" fill="none" xmlns="http://www.w3.org/2000/svg">
<path d="M22.6562 33.4798L39.8437 43.4095C40.0828 43.5422 40.3516 43.612 40.625 43.6126C40.8994 43.6121 41.1689 43.5394 41.4062 43.4017L58.5937 33.472C58.831 33.335 59.0281 33.138 59.1652 32.9008C59.3024 32.6636 59.3747 32.3945 59.375 32.1204V12.2845C59.3761 12.0092 59.3044 11.7385 59.1672 11.4998C59.03 11.261 58.8322 11.0628 58.5937 10.9251L41.4062 1.00328C41.1687 0.866142 40.8993 0.793945 40.625 0.793945C40.3507 0.793945 40.0813 0.866142 39.8437 1.00328L22.6562 10.9408C22.419 11.0778 22.2219 11.2748 22.0847 11.512C21.9476 11.7492 21.8753 12.0183 21.875 12.2923V32.1283C21.8753 32.4023 21.9476 32.6714 22.0847 32.9086C22.2219 33.1458 22.419 33.3428 22.6562 33.4798ZM25 14.9955L39.0625 23.1048V39.347L25 31.2298V14.9955ZM42.1875 39.347V23.1283L56.25 15.3158V31.222L42.1875 39.347ZM40.625 4.19078L54.9844 12.4564L40.625 20.4095L26.5625 12.2923L40.625 4.19078Z" fill="url(#paint0_linear_100_584)"/>
<path d="M80.4687 30.5737L64.8437 21.6362C64.4832 21.429 64.0551 21.3735 63.6537 21.482C63.2522 21.5904 62.9103 21.8538 62.7031 22.2144C62.4959 22.5749 62.4404 23.003 62.5488 23.4044C62.6572 23.8059 62.9207 24.1478 63.2812 24.355L76.9062 32.1675L40.625 52.6831L4.68751 31.9566L17.9688 24.355C18.3293 24.1478 18.5927 23.8059 18.7012 23.4044C18.8096 23.003 18.7541 22.5749 18.5469 22.2144C18.4443 22.0359 18.3075 21.8793 18.1444 21.7536C17.9813 21.628 17.7951 21.5357 17.5963 21.482C17.1949 21.3735 16.7668 21.429 16.4062 21.6362L0.781262 30.5894C0.542818 30.727 0.344983 30.9253 0.20779 31.164C0.0705977 31.4027 -0.00108076 31.6734 1.23171e-05 31.9487V55.0893C-0.00108076 55.3647 0.0705977 55.6354 0.20779 55.8741C0.344983 56.1128 0.542818 56.3111 0.781262 56.4487L39.8437 79.0034C40.0828 79.1361 40.3516 79.2059 40.625 79.2065C40.8994 79.206 41.1689 79.1333 41.4062 78.9956L80.4687 56.4253C80.706 56.2883 80.9031 56.0913 81.0402 55.8541C81.1773 55.6168 81.2497 55.3477 81.25 55.0737V31.9331C81.2511 31.6578 81.1794 31.3871 81.0422 31.1483C80.905 30.9096 80.7072 30.7114 80.4687 30.5737ZM3.12501 34.6519L39.0625 55.3862V74.9175L3.12501 54.1909V34.6519ZM42.1875 74.9409V55.4097L78.125 35.0972V54.1753L42.1875 74.9409Z" fill="url(#paint1_linear_100_584)"/>
<defs>
<linearGradient id="paint0_linear_100_584" x1="37.2596" y1="37.3063" x2="36.6504" y2="9.64141" gradientUnits="userSpaceOnUse">
<stop stop-color="#4800FF"/>
<stop offset="1" stop-color="#FF00A7"/>
</linearGradient>
<linearGradient id="paint1_linear_100_584" x1="33.3333" y1="70.6969" x2="32.8212" y2="33.3553" gradientUnits="userSpaceOnUse">
<stop stop-color="#4800FF"/>
<stop offset="1" stop-color="#FF00A7"/>
</linearGradient>
</defs>
</svg>
