<svg width="419" height="315" viewBox="0 0 419 315" fill="none" xmlns="http://www.w3.org/2000/svg">
<circle cx="261.796" cy="157.204" r="157.204" transform="rotate(90 261.796 157.204)" fill="#8F00FF"/>
<path d="M167.944 200.231C216.4 214.519 253.509 208.411 267.658 150.701C268.016 149.237 268.245 147.679 268.312 146.173C272.621 49.6916 156.809 5.86785 95.4028 32.4107C33.5124 59.163 -19.4582 132.97 7.29406 194.861C78.717 330.076 99.7606 180.126 167.944 200.231Z" fill="#FF00A7"/>
<path d="M214.103 226.763L204.04 257.8H199.524L209.587 226.763H214.103ZM225.903 255.434C223.976 255.434 222.278 255.127 220.809 254.512C219.352 253.898 218.207 252.983 217.376 251.766C216.557 250.538 216.148 249.014 216.148 247.196C216.148 247.003 216.148 246.828 216.148 246.672C216.148 246.503 216.148 246.323 216.148 246.13H221.766C221.766 246.311 221.766 246.473 221.766 246.618C221.766 246.75 221.766 246.907 221.766 247.087C221.766 248.328 222.116 249.279 222.814 249.942C223.513 250.604 224.548 250.935 225.921 250.935C227.306 250.935 228.372 250.719 229.119 250.285C229.866 249.839 230.239 249.111 230.239 248.099C230.239 247.388 229.956 246.762 229.39 246.22C228.836 245.678 228.077 245.196 227.114 244.775C226.162 244.341 225.072 243.938 223.844 243.565C222.507 243.143 221.266 242.589 220.122 241.902C218.978 241.216 218.057 240.343 217.358 239.283C216.672 238.223 216.328 236.916 216.328 235.363C216.328 233.797 216.744 232.466 217.575 231.37C218.406 230.262 219.538 229.419 220.971 228.841C222.405 228.251 224.025 227.956 225.831 227.956C227.722 227.956 229.39 228.251 230.835 228.841C232.293 229.419 233.431 230.292 234.25 231.46C235.081 232.617 235.496 234.062 235.496 235.796C235.496 235.989 235.496 236.17 235.496 236.338C235.496 236.495 235.496 236.675 235.496 236.88H229.896C229.896 236.748 229.896 236.609 229.896 236.465C229.896 236.32 229.896 236.182 229.896 236.049C229.896 234.881 229.571 233.984 228.92 233.357C228.282 232.731 227.276 232.418 225.903 232.418C224.579 232.418 223.549 232.659 222.814 233.141C222.091 233.622 221.73 234.363 221.73 235.363C221.73 236.085 221.989 236.7 222.507 237.205C223.037 237.711 223.76 238.163 224.675 238.56C225.59 238.958 226.632 239.355 227.8 239.753C229.39 240.307 230.775 240.921 231.955 241.595C233.148 242.258 234.069 243.095 234.719 244.106C235.37 245.106 235.695 246.383 235.695 247.936C235.695 249.526 235.286 250.881 234.467 252.001C233.648 253.121 232.497 253.976 231.016 254.567C229.547 255.145 227.842 255.434 225.903 255.434ZM257.069 232.689L248.271 232.689L250.511 230.015L250.511 255H244.928L244.928 230.015L247.241 232.689L238.389 232.689V228.353L257.069 228.353V232.689ZM263.59 232.689L266.119 230.015V241.053L264.854 239.464L274.682 239.464V243.799L264.854 243.799L266.119 242.21L266.119 253.338L263.59 250.664L276.687 250.664V255L260.482 255L260.482 228.353L276.687 228.353V232.689L263.59 232.689ZM286.707 255H281.089L281.089 228.353L290.212 228.353C292.247 228.353 293.988 228.751 295.433 229.545C296.89 230.328 297.998 231.394 298.757 232.743C299.528 234.08 299.913 235.591 299.913 237.278C299.913 238.952 299.522 240.487 298.739 241.884C297.968 243.269 296.86 244.384 295.415 245.227C293.97 246.058 292.235 246.473 290.212 246.473L286.707 246.473L286.707 255ZM286.707 244.739L284.178 242.137L289.616 242.137C290.555 242.137 291.374 241.951 292.073 241.577C292.771 241.192 293.313 240.638 293.699 239.915C294.084 239.181 294.277 238.301 294.277 237.278C294.277 236.242 294.084 235.387 293.699 234.712C293.325 234.026 292.789 233.52 292.091 233.195C291.404 232.858 290.579 232.689 289.616 232.689H284.178L286.707 230.015V244.739ZM325.428 240.945C326.464 240.981 327.361 241.276 328.12 241.83C328.891 242.384 329.475 243.119 329.872 244.034C330.282 244.95 330.487 245.985 330.487 247.142C330.487 248.623 330.167 249.996 329.529 251.261C328.891 252.513 327.897 253.525 326.548 254.296C325.211 255.054 323.483 255.434 321.363 255.434C319.557 255.434 318.051 255.199 316.847 254.729C315.643 254.247 314.685 253.591 313.974 252.76C313.276 251.929 312.776 250.978 312.475 249.906C312.186 248.822 312.041 247.665 312.041 246.437C312.041 246.425 312.041 246.413 312.041 246.401C312.041 246.389 312.041 246.377 312.041 246.365H317.642C317.642 246.377 317.642 246.389 317.642 246.401C317.642 246.413 317.642 246.425 317.642 246.437C317.642 247.653 317.792 248.599 318.093 249.273C318.407 249.948 318.846 250.417 319.412 250.682C319.978 250.947 320.653 251.08 321.436 251.08C322.459 251.08 323.284 250.761 323.911 250.122C324.549 249.484 324.868 248.442 324.868 246.997C324.868 246.383 324.796 245.835 324.651 245.353C324.519 244.871 324.302 244.462 324.001 244.125C323.7 243.787 323.29 243.534 322.773 243.366C322.255 243.185 321.616 243.095 320.858 243.095H319.918V239.175H320.858C321.604 239.175 322.231 239.078 322.736 238.885C323.254 238.681 323.67 238.41 323.983 238.073C324.296 237.723 324.519 237.332 324.651 236.898C324.796 236.453 324.868 235.995 324.868 235.525C324.868 234.405 324.555 233.592 323.929 233.086C323.302 232.581 322.502 232.328 321.526 232.328C320.406 232.328 319.479 232.635 318.744 233.249C318.009 233.863 317.642 234.977 317.642 236.591H312.041C312.041 235.435 312.216 234.339 312.565 233.303C312.915 232.255 313.463 231.334 314.209 230.539C314.956 229.732 315.926 229.1 317.118 228.642C318.31 228.184 319.743 227.956 321.418 227.956C323.537 227.956 325.266 228.305 326.602 229.003C327.939 229.702 328.921 230.605 329.547 231.713C330.173 232.821 330.487 233.996 330.487 235.236C330.487 236.248 330.282 237.181 329.872 238.036C329.475 238.892 328.891 239.578 328.12 240.096C327.361 240.614 326.464 240.897 325.428 240.945Z" fill="white"/>
</svg>
