<svg width="260" height="501" viewBox="0 0 260 501" fill="none" xmlns="http://www.w3.org/2000/svg">
<g clip-path="url(#clip0_1658_3565)">
<circle cx="248" cy="248" r="248" transform="matrix(-1 0 0 1 496 -94)" fill="#FF00FE"/>
<path d="M238.303 242.11C215.763 165.668 225.4 107.125 316.441 84.805C318.75 84.2389 321.209 83.878 323.584 83.7719C475.79 76.9743 544.924 259.676 503.051 356.548C460.848 454.185 344.412 537.749 246.776 495.546C33.4643 382.871 270.02 349.674 238.303 242.11Z" fill="#8F00FF"/>
<path d="M102.454 253.174L151.417 269.048L151.417 276.173L102.454 260.299L102.454 253.174ZM147.684 234.558C147.684 237.598 147.199 240.277 146.23 242.595C145.261 244.894 143.817 246.699 141.898 248.01C139.96 249.302 137.557 249.948 134.688 249.948C134.384 249.948 134.108 249.948 133.861 249.948C133.595 249.948 133.31 249.948 133.006 249.948L133.006 241.085C133.291 241.085 133.548 241.085 133.776 241.085C133.985 241.085 134.232 241.085 134.517 241.085C136.474 241.085 137.975 240.534 139.02 239.432C140.065 238.33 140.587 236.696 140.587 234.53C140.587 232.345 140.245 230.663 139.561 229.485C138.858 228.307 137.709 227.718 136.113 227.718C134.992 227.718 134.004 228.165 133.149 229.058C132.294 229.932 131.534 231.129 130.869 232.649C130.185 234.15 129.548 235.869 128.959 237.807C128.294 239.916 127.42 241.873 126.337 243.678C125.254 245.483 123.877 246.937 122.205 248.039C120.533 249.122 118.471 249.663 116.02 249.663C113.55 249.663 111.451 249.008 109.722 247.697C107.974 246.386 106.644 244.6 105.732 242.339C104.801 240.078 104.335 237.522 104.335 234.672C104.335 231.689 104.801 229.058 105.732 226.778C106.644 224.479 108.021 222.683 109.864 221.391C111.688 220.08 113.968 219.425 116.704 219.425C117.008 219.425 117.293 219.425 117.559 219.425C117.806 219.425 118.091 219.425 118.414 219.425L118.414 228.26C118.205 228.26 117.987 228.26 117.759 228.26C117.531 228.26 117.312 228.26 117.103 228.26C115.26 228.26 113.845 228.773 112.857 229.799C111.869 230.806 111.375 232.392 111.375 234.558C111.375 236.648 111.755 238.273 112.515 239.432C113.275 240.572 114.443 241.142 116.02 241.142C117.16 241.142 118.129 240.733 118.927 239.916C119.725 239.08 120.438 237.94 121.065 236.496C121.692 235.052 122.319 233.409 122.946 231.566C123.82 229.058 124.789 226.873 125.853 225.011C126.898 223.13 128.218 221.676 129.814 220.65C131.391 219.624 133.405 219.111 135.856 219.111C138.364 219.111 140.502 219.757 142.269 221.049C144.036 222.341 145.385 224.156 146.316 226.493C147.228 228.811 147.684 231.499 147.684 234.558ZM111.802 185.393L111.802 199.272L107.584 195.738L147 195.738L147 204.545L107.584 204.545L111.802 200.897L111.802 214.862L104.962 214.862L104.962 185.393L111.802 185.393ZM111.802 175.105L107.584 171.115L124.998 171.115L122.49 173.11L122.49 157.606L129.33 157.606L129.33 173.11L126.822 171.115L144.378 171.115L140.16 175.105L140.16 154.443L147 154.443L147 180.007L104.962 180.007L104.962 154.443L111.802 154.443L111.802 175.105ZM147 138.636L147 147.5L104.962 147.5L104.962 133.107C104.962 129.896 105.589 127.151 106.843 124.871C108.078 122.572 109.76 120.824 111.888 119.627C113.997 118.411 116.381 117.803 119.041 117.803C121.682 117.803 124.105 118.42 126.309 119.655C128.494 120.871 130.251 122.619 131.581 124.899C132.892 127.179 133.548 129.915 133.548 133.107L133.548 138.636L147 138.636ZM130.812 138.636L126.708 142.626L126.708 134.048C126.708 132.566 126.413 131.274 125.824 130.172C125.216 129.07 124.342 128.215 123.202 127.607C122.043 126.999 120.656 126.695 119.041 126.695C117.407 126.695 116.058 126.999 114.994 127.607C113.911 128.196 113.113 129.041 112.6 130.143C112.068 131.226 111.802 132.528 111.802 134.048L111.802 142.626L107.584 138.636L130.812 138.636ZM147 82.6527L138.934 82.6527L138.934 100.437L132.807 100.437L104.905 85.4457L104.905 74.0172L132.265 74.0172L132.265 69.0012L138.934 69.0012L138.934 74.0172L147 74.0172L147 82.6527ZM136.056 93.7962L132.265 96.1617L132.265 82.6527L110.548 82.6527L111.033 80.8572L136.056 93.7962Z" fill="white"/>
</g>
<defs>
<clipPath id="clip0_1658_3565">
<rect width="260" height="501" fill="white" transform="matrix(-1 0 0 1 260 0)"/>
</clipPath>
</defs>
</svg>
