<svg width="419" height="315" viewBox="0 0 419 315" fill="none" xmlns="http://www.w3.org/2000/svg">
<circle cx="261.796" cy="157.204" r="157.204" transform="rotate(90 261.796 157.204)" fill="#FF00A7"/>
<path d="M167.944 200.231C216.4 214.519 253.509 208.41 267.658 150.701C268.016 149.237 268.245 147.678 268.312 146.173C272.621 49.6915 156.809 5.86766 95.4028 32.4106C33.5124 59.1628 -19.4582 132.97 7.29406 194.86C78.717 330.076 99.7606 180.126 167.944 200.231Z" fill="#4800FF"/>
<path d="M214.103 226.763L204.04 257.8H199.524L209.587 226.763H214.103ZM225.903 255.433C223.976 255.433 222.278 255.126 220.809 254.512C219.352 253.898 218.207 252.982 217.376 251.766C216.557 250.538 216.148 249.014 216.148 247.195C216.148 247.003 216.148 246.828 216.148 246.671C216.148 246.503 216.148 246.322 216.148 246.129H221.766C221.766 246.31 221.766 246.473 221.766 246.617C221.766 246.75 221.766 246.906 221.766 247.087C221.766 248.327 222.116 249.279 222.814 249.941C223.513 250.604 224.549 250.935 225.922 250.935C227.307 250.935 228.372 250.718 229.119 250.285C229.866 249.839 230.239 249.11 230.239 248.099C230.239 247.388 229.956 246.762 229.39 246.22C228.836 245.678 228.077 245.196 227.114 244.775C226.162 244.341 225.072 243.937 223.844 243.564C222.507 243.143 221.267 242.589 220.122 241.902C218.978 241.216 218.057 240.342 217.358 239.283C216.672 238.223 216.329 236.916 216.329 235.362C216.329 233.797 216.744 232.466 217.575 231.37C218.406 230.262 219.538 229.419 220.971 228.84C222.405 228.25 224.025 227.955 225.831 227.955C227.722 227.955 229.39 228.25 230.835 228.84C232.293 229.419 233.431 230.292 234.25 231.46C235.081 232.616 235.496 234.061 235.496 235.796C235.496 235.989 235.496 236.169 235.496 236.338C235.496 236.494 235.496 236.675 235.496 236.88H229.896C229.896 236.747 229.896 236.609 229.896 236.464C229.896 236.32 229.896 236.181 229.896 236.049C229.896 234.88 229.571 233.983 228.92 233.357C228.282 232.731 227.276 232.417 225.903 232.417C224.579 232.417 223.549 232.658 222.814 233.14C222.092 233.622 221.73 234.363 221.73 235.362C221.73 236.085 221.989 236.699 222.507 237.205C223.037 237.711 223.76 238.162 224.675 238.56C225.59 238.957 226.632 239.355 227.8 239.752C229.39 240.306 230.775 240.92 231.955 241.595C233.148 242.257 234.069 243.094 234.72 244.106C235.37 245.106 235.695 246.382 235.695 247.936C235.695 249.526 235.286 250.881 234.467 252.001C233.648 253.121 232.497 253.976 231.016 254.566C229.547 255.144 227.843 255.433 225.903 255.433ZM257.069 232.688L248.271 232.688L250.511 230.015L250.511 255H244.928L244.928 230.015L247.241 232.688L238.389 232.688V228.353L257.069 228.353V232.688ZM263.59 232.688L266.119 230.015V241.053L264.854 239.463L274.682 239.463V243.799L264.854 243.799L266.119 242.209L266.119 253.338L263.59 250.664L276.688 250.664V255L260.483 255L260.483 228.353L276.688 228.353V232.688L263.59 232.688ZM286.707 255H281.089L281.089 228.353L290.212 228.353C292.247 228.353 293.988 228.75 295.433 229.545C296.89 230.328 297.998 231.394 298.757 232.743C299.528 234.08 299.913 235.591 299.913 237.277C299.913 238.951 299.522 240.487 298.739 241.884C297.968 243.269 296.86 244.383 295.415 245.226C293.97 246.057 292.235 246.473 290.212 246.473L286.707 246.473L286.707 255ZM286.707 244.738L284.178 242.137L289.616 242.137C290.555 242.137 291.374 241.95 292.073 241.577C292.771 241.191 293.313 240.637 293.699 239.915C294.084 239.18 294.277 238.301 294.277 237.277C294.277 236.241 294.084 235.386 293.699 234.712C293.325 234.025 292.789 233.52 292.091 233.194C291.404 232.857 290.579 232.688 289.616 232.688H284.178L286.707 230.015V244.738ZM322.917 228.317L322.917 255L317.353 255L317.353 233.556C317.196 233.676 316.859 233.833 316.341 234.025C315.835 234.206 315.227 234.381 314.517 234.549C313.806 234.718 313.071 234.832 312.312 234.893V230.484C313.071 230.388 313.812 230.226 314.535 229.997C315.257 229.756 315.877 229.485 316.395 229.184C316.925 228.883 317.275 228.594 317.443 228.317H322.917Z" fill="white"/>
</svg>
