<svg width="360" height="158" viewBox="0 0 360 158" fill="none" xmlns="http://www.w3.org/2000/svg">
<mask id="mask0_280_1647" style="mask-type:alpha" maskUnits="userSpaceOnUse" x="0" y="0" width="360" height="158">
<rect width="360" height="158" rx="44" fill="#F6F2FF"/>
</mask>
<g mask="url(#mask0_280_1647)">
<circle cx="231.796" cy="0.204232" r="157.204" transform="rotate(90 231.796 0.204232)" fill="#FF00FE"/>
<path d="M137.944 43.231C186.4 57.5191 223.509 51.4105 237.658 -6.29951C238.016 -7.76325 238.245 -9.32156 238.312 -10.8271C242.621 -107.309 126.809 -151.132 65.4028 -124.589C3.51238 -97.8372 -49.4582 -24.0301 -22.7059 37.8604C48.717 173.076 69.7606 23.1261 137.944 43.231Z" fill="#8F00FF"/>
<path d="M184.103 69.7631L174.04 100.8H169.524L179.587 69.7631L184.103 69.7631ZM195.903 98.4336C193.976 98.4336 192.278 98.1265 190.809 97.5122C189.352 96.898 188.207 95.9827 187.376 94.7662C186.557 93.5377 186.148 92.0142 186.148 90.1956C186.148 90.0029 186.148 89.8282 186.148 89.6717C186.148 89.503 186.148 89.3224 186.148 89.1297L191.766 89.1297C191.766 89.3103 191.766 89.4729 191.766 89.6175C191.766 89.7499 191.766 89.9065 191.766 90.0872C191.766 91.3277 192.116 92.2792 192.814 92.9416C193.513 93.604 194.548 93.9352 195.921 93.9352C197.306 93.9352 198.372 93.7184 199.119 93.2848C199.866 92.8392 200.239 92.1105 200.239 91.0989C200.239 90.3883 199.956 89.762 199.39 89.22C198.836 88.678 198.077 88.1963 197.114 87.7748C196.162 87.3412 195.072 86.9377 193.844 86.5643C192.507 86.1428 191.266 85.5888 190.122 84.9023C188.978 84.2158 188.057 83.3426 187.358 82.2827C186.672 81.2229 186.328 79.9161 186.328 78.3625C186.328 76.7968 186.744 75.4659 187.575 74.3699C188.406 73.2619 189.538 72.4188 190.971 71.8407C192.405 71.2506 194.025 70.9555 195.831 70.9555C197.722 70.9555 199.39 71.2506 200.835 71.8407C202.293 72.4188 203.431 73.292 204.25 74.4602C205.081 75.6165 205.496 77.0617 205.496 78.796C205.496 78.9887 205.496 79.1694 205.496 79.338C205.496 79.4946 205.496 79.6752 205.496 79.88H199.896C199.896 79.7475 199.896 79.609 199.896 79.4645C199.896 79.32 199.896 79.1814 199.896 79.049C199.896 77.8807 199.571 76.9834 198.92 76.3572C198.282 75.7309 197.276 75.4177 195.903 75.4177C194.579 75.4177 193.549 75.6586 192.814 76.1404C192.091 76.6221 191.73 77.3628 191.73 78.3625C191.73 79.0851 191.989 79.6993 192.507 80.2052C193.037 80.711 193.76 81.1627 194.675 81.5601C195.59 81.9576 196.632 82.355 197.8 82.7525C199.39 83.3065 200.775 83.9207 201.955 84.5952C203.148 85.2576 204.069 86.0946 204.719 87.1063C205.37 88.106 205.695 89.3826 205.695 90.9363C205.695 92.5261 205.286 93.881 204.467 95.0011C203.648 96.1212 202.497 96.9763 201.016 97.5664C199.547 98.1445 197.842 98.4336 195.903 98.4336ZM227.069 75.6887L218.271 75.6887L220.511 73.015L220.511 98H214.928L214.928 73.015L217.241 75.6887L208.389 75.6887V71.3529L227.069 71.3529V75.6887ZM233.59 75.6887L236.119 73.015L236.119 84.0532L234.854 82.4634L244.682 82.4634V86.7992L234.854 86.7992L236.119 85.2094L236.119 96.3379L233.59 93.6642L246.687 93.6642V98L230.482 98L230.482 71.3529L246.687 71.3529V75.6887L233.59 75.6887ZM256.707 98H251.089L251.089 71.3529L260.212 71.3529C262.247 71.3529 263.988 71.7504 265.433 72.5453C266.89 73.3281 267.998 74.394 268.757 75.7429C269.528 77.0798 269.913 78.5913 269.913 80.2774C269.913 81.9515 269.522 83.4871 268.739 84.8842C267.968 86.2693 266.86 87.3833 265.415 88.2264C263.97 89.0574 262.235 89.4729 260.212 89.4729L256.707 89.4729L256.707 98ZM256.707 87.7386L254.178 85.1371L259.616 85.1371C260.555 85.1371 261.374 84.9505 262.073 84.5771C262.771 84.1917 263.313 83.6377 263.699 82.915C264.084 82.1804 264.277 81.3012 264.277 80.2774C264.277 79.2417 264.084 78.3866 263.699 77.7121C263.325 77.0256 262.789 76.5198 262.091 76.1946C261.404 75.8573 260.579 75.6887 259.616 75.6887L254.178 75.6887L256.707 73.015V87.7386ZM292.194 98V92.8874L280.921 92.8874L280.921 89.0032L290.424 71.3168L297.668 71.3168V88.66H300.848V92.8874H297.668L297.668 98L292.194 98ZM285.131 91.0627L283.631 88.66L292.194 88.66V74.8938L293.333 75.2009L285.131 91.0627Z" fill="white"/>
</g>
</svg>
