<svg width="260" height="501" viewBox="0 0 260 501" fill="none" xmlns="http://www.w3.org/2000/svg">
<g clip-path="url(#clip0_1658_3564)">
<circle cx="12" cy="154" r="248" fill="#8F00FF"/>
<path d="M21.6964 242.11C44.2369 165.668 34.6001 107.125 -56.4412 84.805C-58.7503 84.2389 -61.2087 83.878 -63.5839 83.7719C-215.79 76.9743 -284.925 259.676 -243.051 356.548C-200.848 454.185 -84.4123 537.749 13.2239 495.546C226.536 382.871 -10.0204 349.674 21.6964 242.11Z" fill="#FF00A7"/>
<path d="M100.454 253.174L149.417 269.048L149.417 276.173L100.454 260.299L100.454 253.174ZM145.684 234.558C145.684 237.598 145.199 240.277 144.23 242.595C143.261 244.894 141.817 246.699 139.898 248.01C137.96 249.302 135.557 249.948 132.688 249.948C132.384 249.948 132.108 249.948 131.861 249.948C131.595 249.948 131.31 249.948 131.006 249.948L131.006 241.085C131.291 241.085 131.548 241.085 131.776 241.085C131.985 241.085 132.232 241.085 132.517 241.085C134.474 241.085 135.975 240.534 137.02 239.432C138.065 238.33 138.587 236.696 138.587 234.53C138.587 232.345 138.245 230.663 137.561 229.485C136.858 228.307 135.709 227.718 134.113 227.718C132.992 227.718 132.004 228.165 131.149 229.058C130.294 229.932 129.534 231.129 128.869 232.649C128.185 234.15 127.548 235.869 126.959 237.807C126.294 239.916 125.42 241.873 124.337 243.678C123.254 245.483 121.877 246.937 120.205 248.039C118.533 249.122 116.471 249.663 114.02 249.663C111.55 249.663 109.451 249.008 107.722 247.697C105.974 246.386 104.644 244.6 103.732 242.339C102.801 240.078 102.335 237.522 102.335 234.672C102.335 231.689 102.801 229.058 103.732 226.778C104.644 224.479 106.021 222.683 107.864 221.391C109.688 220.08 111.968 219.425 114.704 219.425C115.008 219.425 115.293 219.425 115.559 219.425C115.806 219.425 116.091 219.425 116.414 219.425L116.414 228.26C116.205 228.26 115.987 228.26 115.759 228.26C115.531 228.26 115.312 228.26 115.103 228.26C113.26 228.26 111.845 228.773 110.857 229.799C109.869 230.806 109.375 232.392 109.375 234.558C109.375 236.648 109.755 238.273 110.515 239.432C111.275 240.572 112.443 241.142 114.02 241.142C115.16 241.142 116.129 240.733 116.927 239.916C117.725 239.08 118.438 237.94 119.065 236.496C119.692 235.052 120.319 233.409 120.946 231.566C121.82 229.058 122.789 226.873 123.853 225.011C124.898 223.13 126.218 221.676 127.814 220.65C129.391 219.624 131.405 219.111 133.856 219.111C136.364 219.111 138.502 219.757 140.269 221.049C142.036 222.341 143.385 224.156 144.316 226.493C145.228 228.811 145.684 231.499 145.684 234.558ZM109.802 185.393L109.802 199.272L105.584 195.738L145 195.738L145 204.545L105.584 204.545L109.802 200.897L109.802 214.862L102.962 214.862L102.962 185.393L109.802 185.393ZM109.802 175.105L105.584 171.115L122.998 171.115L120.49 173.11L120.49 157.606L127.33 157.606L127.33 173.11L124.822 171.115L142.378 171.115L138.16 175.105L138.16 154.443L145 154.443L145 180.007L102.962 180.007L102.962 154.443L109.802 154.443L109.802 175.105ZM145 138.636L145 147.5L102.962 147.5L102.962 133.107C102.962 129.896 103.589 127.151 104.843 124.871C106.078 122.572 107.76 120.824 109.888 119.627C111.997 118.411 114.381 117.803 117.041 117.803C119.682 117.803 122.105 118.42 124.309 119.655C126.494 120.871 128.251 122.619 129.581 124.899C130.892 127.179 131.548 129.915 131.548 133.107L131.548 138.636L145 138.636ZM128.812 138.636L124.708 142.626L124.708 134.048C124.708 132.566 124.413 131.274 123.824 130.172C123.216 129.07 122.342 128.215 121.202 127.607C120.043 126.999 118.656 126.695 117.041 126.695C115.407 126.695 114.058 126.999 112.994 127.607C111.911 128.196 111.113 129.041 110.6 130.143C110.068 131.226 109.802 132.528 109.802 134.048L109.802 142.626L105.584 138.636L128.812 138.636ZM122.827 77.5512C122.884 75.9172 123.349 74.5017 124.223 73.3047C125.097 72.0887 126.256 71.1672 127.7 70.5402C129.144 69.8942 130.778 69.5712 132.602 69.5712C134.939 69.5712 137.105 70.0747 139.1 71.0817C141.076 72.0887 142.672 73.6562 143.888 75.7842C145.085 77.8932 145.684 80.6197 145.684 83.9637C145.684 86.8137 145.313 89.1887 144.572 91.0887C143.812 92.9887 142.777 94.4992 141.466 95.6202C140.155 96.7222 138.654 97.5107 136.963 97.9857C135.253 98.4417 133.429 98.6697 131.491 98.6697C131.472 98.6697 131.453 98.6697 131.434 98.6697C131.415 98.6697 131.396 98.6697 131.377 98.6697L131.377 89.8347C131.396 89.8347 131.415 89.8347 131.434 89.8347C131.453 89.8347 131.472 89.8347 131.491 89.8347C133.41 89.8347 134.901 89.5972 135.965 89.1222C137.029 88.6282 137.77 87.9347 138.188 87.0417C138.606 86.1487 138.815 85.0847 138.815 83.8497C138.815 82.2347 138.312 80.9332 137.305 79.9452C136.298 78.9382 134.654 78.4347 132.374 78.4347C131.405 78.4347 130.541 78.5487 129.781 78.7767C129.021 78.9857 128.375 79.3277 127.843 79.8027C127.311 80.2777 126.912 80.9237 126.646 81.7407C126.361 82.5577 126.218 83.5647 126.218 84.7617L126.218 86.2437L120.034 86.2437L120.034 84.7617C120.034 83.5837 119.882 82.5957 119.578 81.7977C119.255 80.9807 118.827 80.3252 118.295 79.8312C117.744 79.3372 117.127 78.9857 116.443 78.7767C115.74 78.5487 115.018 78.4347 114.277 78.4347C112.51 78.4347 111.227 78.9287 110.429 79.9167C109.631 80.9047 109.232 82.1682 109.232 83.7072C109.232 85.4742 109.717 86.9372 110.686 88.0962C111.655 89.2552 113.412 89.8347 115.958 89.8347L115.958 98.6697C114.134 98.6697 112.405 98.3942 110.771 97.8432C109.118 97.2922 107.665 96.4277 106.411 95.2497C105.138 94.0717 104.14 92.5422 103.418 90.6612C102.696 88.7802 102.335 86.5192 102.335 83.8782C102.335 80.5342 102.886 77.8077 103.988 75.6987C105.09 73.5897 106.515 72.0412 108.263 71.0532C110.011 70.0652 111.864 69.5712 113.821 69.5712C115.417 69.5712 116.889 69.8942 118.238 70.5402C119.587 71.1672 120.67 72.0887 121.487 73.3047C122.304 74.5017 122.751 75.9172 122.827 77.5512Z" fill="white"/>
</g>
<defs>
<clipPath id="clip0_1658_3564">
<rect width="260" height="501" fill="white"/>
</clipPath>
</defs>
</svg>
