<svg width="20" height="20" viewBox="0 0 20 20" fill="none" xmlns="http://www.w3.org/2000/svg">
<g clip-path="url(#clip0_417_4384)">
<path d="M19.5 6.36719V5.3125C19.5 4.10438 18.5696 3.125 17.4219 3.125H2.57812C1.43041 3.125 0.5 4.10438 0.5 5.3125V6.36719C0.5 6.41899 0.519549 6.46867 0.554345 6.50529C0.589142 6.54192 0.636337 6.5625 0.685547 6.5625H19.3145C19.3637 6.5625 19.4109 6.54192 19.4457 6.50529C19.4805 6.46867 19.5 6.41899 19.5 6.36719ZM0.5 8.00781V14.6875C0.5 15.8956 1.43041 16.875 2.57812 16.875H17.4219C18.5696 16.875 19.5 15.8956 19.5 14.6875V8.00781C19.5 7.95601 19.4805 7.90633 19.4457 7.86971C19.4109 7.83308 19.3637 7.8125 19.3145 7.8125H0.685547C0.636337 7.8125 0.589142 7.83308 0.554345 7.86971C0.519549 7.90633 0.5 7.95601 0.5 8.00781ZM5.25 13.125C5.25 13.4702 4.98415 13.75 4.65625 13.75H4.0625C3.7346 13.75 3.46875 13.4702 3.46875 13.125V12.5C3.46875 12.1548 3.7346 11.875 4.0625 11.875H4.65625C4.98415 11.875 5.25 12.1548 5.25 12.5V13.125Z" fill="#D0D5DD"/>
</g>
<defs>
<clipPath id="clip0_417_4384">
<rect width="19" height="20" fill="white" transform="translate(0.5)"/>
</clipPath>
</defs>
</svg>
