<svg width="140" height="140" viewBox="0 0 140 140" fill="none" xmlns="http://www.w3.org/2000/svg">
<rect x="0.5" y="0.5" width="139" height="139" rx="69.5" stroke="#4800FF"/>
<path d="M83.4604 64.7584H74.6504L76.5787 59.9384C76.8544 59.2517 76.9224 58.4992 76.7743 57.7741C76.6262 57.0491 76.2684 56.3836 75.7454 55.8601C75.4512 55.5662 75.0966 55.3399 74.7062 55.1969C74.3158 55.0538 73.8989 54.9975 73.4845 55.0317C73.0701 55.066 72.6682 55.19 72.3065 55.3952C71.9449 55.6004 71.6323 55.8819 71.3904 56.2201L66.2387 63.4284C65.4698 64.5022 64.6148 65.5117 63.682 66.4467L62.032 68.0967C61.9569 68.1718 61.8973 68.2609 61.8567 68.359C61.8161 68.4571 61.7953 68.5622 61.7954 68.6684V81.0701C61.7952 81.285 61.8804 81.4912 62.032 81.6434L63.8804 83.5001C64.3512 83.9734 64.9112 84.3486 65.528 84.6041C66.1448 84.8595 66.8061 84.9902 67.4737 84.9884H77.517C78.31 84.9878 79.0858 84.7575 79.7507 84.3254C80.4156 83.8932 80.9411 83.2778 81.2637 82.5534L86.1904 71.4684C86.5056 70.7615 86.6675 69.9958 86.6654 69.2217V67.9651C86.6645 67.1152 86.3266 66.3003 85.7258 65.6992C85.125 65.0981 84.3103 64.7597 83.4604 64.7584ZM56.2437 67.0117C55.4715 67.0117 54.7309 67.3185 54.1848 67.8646C53.6388 68.4106 53.332 69.1512 53.332 69.9234V80.8717C53.332 81.644 53.6388 82.3846 54.1848 82.9306C54.7309 83.4766 55.4715 83.7834 56.2437 83.7834C57.0159 83.7834 57.7565 83.4766 58.3026 82.9306C58.8486 82.3846 59.1554 81.644 59.1554 80.8717V69.9234C59.1554 69.1512 58.8486 68.4106 58.3026 67.8646C57.7565 67.3185 57.0159 67.0117 56.2437 67.0117Z" fill="#4800FF"/>
</svg>
