<svg width="159" height="188" viewBox="0 0 159 188" fill="none" xmlns="http://www.w3.org/2000/svg">
<mask id="mask0_1532_3490" style="mask-type:alpha" maskUnits="userSpaceOnUse" x="0" y="0" width="562" height="188">
<path d="M0 44C0 19.6995 19.6995 0 44 0H518C542.301 0 562 19.6995 562 44V188H0V44Z" fill="#F6F2FF"/>
</mask>
<g mask="url(#mask0_1532_3490)">
<circle cx="43" cy="94" r="116" fill="#8F00FF"/>
<circle cx="-50" cy="232" r="116" fill="#FF00A7"/>
</g>
<path d="M103.6 72.2H88.8667V67.6667C88.8628 64.5384 86.3283 62.0038 83.2 62H62.8C59.6717 62.0038 57.1372 64.5384 57.1333 67.6667V72.2H42.4C40.5224 72.2 39 73.7224 39 75.6V100.828C39.0034 101.529 39.2227 102.213 39.6283 102.785C40.0339 103.358 40.6059 103.792 41.2667 104.027V119.8C41.2667 121.678 42.789 123.2 44.6667 123.2H101.333C103.211 123.2 104.733 121.678 104.733 119.8V104.029C105.394 103.792 105.966 103.359 106.372 102.786C106.777 102.213 106.997 101.529 107 100.828V75.6C107 73.7224 105.478 72.2 103.6 72.2ZM59.4 67.6667C59.4 65.789 60.9223 64.2667 62.8 64.2667H83.2C85.0776 64.2667 86.6 65.789 86.6 67.6667V72.2H84.3333V67.6667C84.3333 67.3661 84.2139 67.0778 84.0014 66.8653C83.7888 66.6527 83.5006 66.5333 83.2 66.5333H62.8C62.4994 66.5333 62.2112 66.6527 61.9986 66.8653C61.7861 67.0778 61.6667 67.3661 61.6667 67.6667V72.2H59.4V67.6667ZM82.0667 72.2H63.9333V68.8H82.0667V72.2ZM102.467 119.8C102.467 120.101 102.347 120.389 102.135 120.601C101.922 120.814 101.634 120.933 101.333 120.933H44.6667C44.3661 120.933 44.0778 120.814 43.8653 120.601C43.6527 120.389 43.5333 120.101 43.5333 119.8V104.417L68.4667 107.856V110.733C68.4667 112.611 69.989 114.133 71.8667 114.133H74.1333C76.011 114.133 77.5333 112.611 77.5333 110.733V107.856L102.467 104.417V119.8ZM75.2667 110.733C75.2667 111.034 75.1473 111.322 74.9347 111.535C74.7222 111.747 74.4339 111.867 74.1333 111.867H71.8667C71.5661 111.867 71.2778 111.747 71.0653 111.535C70.8527 111.322 70.7333 111.034 70.7333 110.733V103.933C70.7333 103.633 70.8527 103.344 71.0653 103.132C71.2778 102.919 71.5661 102.8 71.8667 102.8H74.1333C74.4339 102.8 74.7222 102.919 74.9347 103.132C75.1473 103.344 75.2667 103.633 75.2667 103.933V110.733ZM104.733 100.828C104.734 101.101 104.635 101.365 104.456 101.572C104.277 101.778 104.029 101.913 103.759 101.951L103.444 101.994L77.5333 105.567V103.933C77.5333 102.056 76.011 100.533 74.1333 100.533H71.8667C69.989 100.533 68.4667 102.056 68.4667 103.933V105.567L42.2423 101.951C41.9715 101.913 41.7237 101.778 41.5444 101.572C41.3651 101.365 41.2664 101.101 41.2667 100.828V75.6C41.2667 75.2994 41.3861 75.0112 41.5986 74.7986C41.8112 74.5861 42.0994 74.4667 42.4 74.4667H103.6C103.901 74.4667 104.189 74.5861 104.401 74.7986C104.614 75.0112 104.733 75.2994 104.733 75.6V100.828Z" fill="white"/>
</svg>
