<svg width="81" height="68" viewBox="0 0 81 68" fill="none" xmlns="http://www.w3.org/2000/svg">
<mask id="mask0_1536_3492" style="mask-type:alpha" maskUnits="userSpaceOnUse" x="0" y="0" width="320" height="111">
<path d="M0 24.2412C0 10.9864 10.7452 0.241211 24 0.241211H296C309.255 0.241211 320 10.9864 320 24.2412V110.241H0V24.2412Z" fill="#F6F2FF"/>
</mask>
<g mask="url(#mask0_1536_3492)">
<circle cx="30" cy="16.2412" r="51" fill="#FF00A7"/>
</g>
<g clip-path="url(#clip0_1536_3492)">
<path d="M20.5273 44.6138C20.5273 34.9639 28.3501 27.1411 38 27.1411C47.6499 27.1411 55.4727 34.9639 55.4727 44.6138M22.3549 36.9411L23.4613 44.6138" stroke="white" stroke-width="1.2" stroke-miterlimit="10" stroke-linecap="round" stroke-linejoin="round"/>
<path d="M30.5408 31.9645L30.9916 31.717C31.7527 31.2992 32.7065 31.5257 33.1985 32.2411L33.4119 32.5513C33.5673 32.7772 33.7753 32.962 34.018 33.0897C34.2607 33.2174 34.5309 33.2841 34.8051 33.2841H35.8376C36.1723 33.2841 36.4995 33.1847 36.7777 32.9987C37.0559 32.8126 37.2726 32.5481 37.4004 32.2388L38.0149 30.7516C38.1526 30.4182 38.2083 30.0566 38.1773 29.6972C38.1464 29.3378 38.0296 28.9911 37.8369 28.6861L36.9227 27.2397M23.4261 43.5672L25.6257 42.1549C25.8301 42.0236 26.0715 41.9619 26.3139 41.979C26.5563 41.9961 26.7867 42.091 26.9707 42.2497L27.2798 42.5161C27.6561 42.8405 28.2423 42.6482 28.3534 42.1641L28.6829 40.7283C28.7693 40.3521 28.9507 40.0044 29.21 39.7184C29.4692 39.4324 29.7975 39.2178 30.1634 39.0951L32.5955 38.2794C33.2899 38.0465 33.5813 37.2235 33.188 36.6054L32.0825 34.8682C31.7787 34.3909 31.1681 34.2126 30.6553 34.4517L29.6759 34.9082C29.4432 35.0166 29.1797 35.0389 28.9321 34.9711C28.6846 34.9033 28.4692 34.7498 28.3243 34.538C27.9628 34.0097 28.1358 33.2848 28.6969 32.9768M40.4698 44.6141C40.1014 44.0561 39.9056 43.4019 39.9066 42.7332C39.9066 40.8444 41.4378 39.3132 43.3267 39.3132H48.2846C48.9312 39.3132 49.4553 38.7891 49.4553 38.1425C49.4553 37.496 48.9312 36.9719 48.2846 36.9719H44.1219C43.8987 36.9719 43.6837 37.0557 43.5194 37.2066C43.3551 37.3576 43.2534 37.5647 43.2345 37.787V37.7874C43.1612 38.6502 42.4395 39.3132 41.5736 39.3132C40.653 39.3132 39.9067 38.5669 39.9067 37.6463V37.2169C39.9067 36.8253 40.0087 36.4404 40.2027 36.1001C40.3967 35.7599 40.676 35.4761 41.0131 35.2767L44.6803 33.1067C45.2694 32.7581 45.3837 31.9535 44.9151 31.4546C44.7656 31.2955 44.5709 31.1859 44.3573 31.1407C44.1436 31.0955 43.9213 31.1168 43.7201 31.2017L43.3552 31.3558C42.7908 31.594 42.1395 31.3377 41.8889 30.7787C41.7894 30.5566 41.7644 30.3083 41.8178 30.0709C41.8711 29.8335 41.9999 29.6197 42.1848 29.4615L43.6558 28.2037M55.1477 42.2971L54.7403 42.6502C54.5067 42.8526 54.234 43.0049 53.9391 43.0975C53.6441 43.1901 53.3333 43.221 53.0259 43.1884L51.9801 43.0775L52.4061 44.614M43.0728 20.9413L39.148 19.9081C38.3956 19.71 37.6046 19.71 36.8522 19.9081L32.9274 20.9413M36.8728 20.0272L36.3092 27.1413M39.1273 20.0272L39.691 27.1413M36.8728 23.7595H39.1273M53.9997 26.4443L51.0812 23.624C50.5217 23.0833 49.8318 22.6966 49.0785 22.5014L45.1497 21.4837M47.7738 24.5042L45.0683 28.5456M51.005 23.7177L48.0182 30.199M47.2134 25.8712L49.1801 26.9735M22.0005 26.4443L24.9189 23.624C25.4785 23.0833 26.1684 22.6966 26.9217 22.5014L30.8505 21.4837M26.9619 22.6154L30.9319 28.5456M24.9952 23.7177L27.982 30.199M28.7868 25.8712L26.8201 26.9735M38.0001 18.1232C37.3775 18.1232 36.8728 17.6184 36.8728 16.9959C36.8728 16.3734 37.3775 15.8687 38.0001 15.8687C38.6226 15.8687 39.1273 16.3734 39.1273 16.9959C39.1273 17.6184 38.6226 18.1232 38.0001 18.1232ZM50.9526 21.5057C50.4095 21.2013 50.216 20.5143 50.5205 19.9712C50.8249 19.4281 51.5119 19.2346 52.055 19.539C52.5981 19.8434 52.7916 20.5304 52.4871 21.0735C52.1827 21.6166 51.4957 21.8101 50.9526 21.5057ZM25.0476 21.5057C25.5906 21.2013 25.7841 20.5143 25.4797 19.9712C25.1753 19.4281 24.4883 19.2346 23.9452 19.539C23.4021 19.8434 23.2086 20.5304 23.5131 21.0735C23.8175 21.6166 24.5045 21.8101 25.0476 21.5057Z" stroke="white" stroke-width="1.2" stroke-miterlimit="10" stroke-linecap="round" stroke-linejoin="round"/>
</g>
<defs>
<clipPath id="clip0_1536_3492">
<rect width="36" height="36" fill="white" transform="translate(20 12.2412)"/>
</clipPath>
</defs>
</svg>
