<svg width="159" height="188" viewBox="0 0 159 188" fill="none" xmlns="http://www.w3.org/2000/svg">
<mask id="mask0_1532_3491" style="mask-type:alpha" maskUnits="userSpaceOnUse" x="0" y="0" width="562" height="188">
<path d="M0 44C0 19.6995 19.6995 0 44 0H518C542.301 0 562 19.6995 562 44V188H0V44Z" fill="#F6F2FF"/>
</mask>
<g mask="url(#mask0_1532_3491)">
<circle cx="43" cy="94" r="116" fill="#FF00FE"/>
<circle cx="-50" cy="232" r="116" fill="#8F00FF"/>
</g>
<g clip-path="url(#clip0_1532_3491)">
<path d="M103.44 63.5537C102.632 63.4717 101.818 63.6386 101.107 64.032C100.935 63.4759 100.642 62.9649 100.249 62.5361C99.8558 62.1073 99.372 61.7713 98.8328 61.5526C98.2936 61.3339 97.7124 61.2379 97.1315 61.2715C96.5506 61.3052 95.9845 61.4676 95.4741 61.7472C95.1949 60.8826 94.6274 60.14 93.8664 59.6437C93.1054 59.1474 92.197 58.9273 91.2933 59.0204C90.6953 59.0883 90.1208 59.2927 89.6143 59.6177C89.1077 59.9427 88.6826 60.3797 88.3715 60.8949C87.9063 60.5505 87.37 60.3142 86.8019 60.2033C86.2337 60.0925 85.648 60.1098 85.0874 60.254C84.5268 60.3981 84.0054 60.6656 83.5613 61.0369C83.1171 61.4081 82.7614 61.8738 82.5201 62.4H71.3591C71.1523 62.3984 70.9498 62.3409 70.7731 62.2334L66.191 59.4918C65.6643 59.1735 65.0612 59.0035 64.4457 59H47.6622C46.6603 58.9865 45.6883 59.3416 44.9309 59.9976C44.1735 60.6537 43.6835 61.565 43.5538 62.5586C43.472 63.3674 43.6388 64.1819 44.0321 64.8933C43.4759 65.0645 42.9648 65.3574 42.5358 65.7507C42.1069 66.144 41.7709 66.6278 41.5522 67.1672C41.3336 67.7065 41.2378 68.2877 41.2717 68.8687C41.3056 69.4496 41.4685 70.0158 41.7484 70.526C40.8826 70.8041 40.1389 71.3717 39.6422 72.1335C39.1454 72.8952 38.9259 73.8046 39.0205 74.7091C39.0882 75.3072 39.2925 75.8817 39.6175 76.3883C39.9425 76.8949 40.3796 77.32 40.895 77.6308C40.3204 78.4242 40.0564 79.4011 40.1538 80.3758C40.2335 81.0423 40.4815 81.6777 40.8745 82.2219C41.2674 82.7662 41.7925 83.2015 42.4001 83.4868V94.6433C42.3981 94.8491 42.3401 95.0505 42.2324 95.2258L39.467 99.8317C39.1661 100.357 39.0053 100.95 39.0001 101.556V118.339C38.9875 119.341 39.343 120.312 39.9992 121.069C40.6553 121.826 41.5665 122.316 42.5599 122.446C43.3682 122.526 44.1817 122.359 44.8934 121.968C45.0648 122.524 45.3578 123.035 45.7512 123.464C46.1446 123.893 46.6286 124.229 47.168 124.448C47.7074 124.667 48.2887 124.762 48.8697 124.728C49.4508 124.694 50.017 124.532 50.5272 124.252C50.7831 125.051 51.2866 125.748 51.9649 126.242C52.6431 126.736 53.461 127.001 54.3001 127C54.9717 127 55.6318 126.826 56.2155 126.494C56.7993 126.162 57.2867 125.683 57.6298 125.106C58.0956 125.451 58.6322 125.687 59.2007 125.798C59.7692 125.908 60.3553 125.891 60.9163 125.747C61.4772 125.602 61.999 125.335 62.4435 124.964C62.888 124.592 63.244 124.126 63.4858 123.6H74.6412C74.8475 123.601 75.0503 123.659 75.2271 123.767L79.8092 126.51C80.3362 126.828 80.9391 126.997 81.5545 126.999H98.3381C99.34 127.012 100.312 126.657 101.069 126.001C101.827 125.345 102.317 124.434 102.446 123.44C102.528 122.632 102.361 121.818 101.968 121.107C102.524 120.935 103.035 120.643 103.464 120.249C103.893 119.856 104.229 119.372 104.448 118.833C104.667 118.293 104.762 117.712 104.729 117.131C104.695 116.55 104.532 115.984 104.252 115.474C105.117 115.196 105.861 114.629 106.357 113.867C106.854 113.106 107.074 112.197 106.98 111.293C106.912 110.695 106.708 110.121 106.383 109.614C106.058 109.107 105.621 108.682 105.105 108.371C105.68 107.578 105.944 106.601 105.846 105.626C105.766 104.961 105.518 104.326 105.125 103.783C104.732 103.239 104.207 102.805 103.6 102.52V91.3566C103.602 91.1504 103.66 90.9486 103.767 90.7718L106.512 86.1909C106.829 85.6639 106.998 85.0598 107 84.4444V67.6609C107.013 66.6591 106.657 65.6876 106.001 64.9305C105.345 64.1734 104.434 63.6835 103.44 63.5537ZM41.2758 74.4847C41.2499 74.2472 41.2743 74.0069 41.3474 73.7795C41.4206 73.552 41.5409 73.3425 41.7004 73.1647C41.86 72.9869 42.0552 72.8447 42.2734 72.7474C42.4916 72.6501 42.7279 72.5998 42.9668 72.6H50.3334C50.634 72.6 50.9223 72.4806 51.1348 72.268C51.3474 72.0555 51.4668 71.7672 51.4668 71.4666C51.4668 71.1661 51.3474 70.8778 51.1348 70.6652C50.9223 70.4527 50.634 70.3333 50.3334 70.3333H45.2334C44.9946 70.3339 44.7582 70.2841 44.5399 70.1872C44.3215 70.0903 44.1261 69.9485 43.9662 69.771C43.8063 69.5935 43.6857 69.3843 43.6121 69.157C43.5385 68.9297 43.5136 68.6895 43.5391 68.452C43.6092 68.0156 43.8368 67.62 44.1789 67.3401C44.521 67.0602 44.9539 66.9155 45.3955 66.9333H52.6001C52.9007 66.9333 53.189 66.8139 53.4015 66.6014C53.614 66.3888 53.7334 66.1005 53.7334 65.8C53.7334 65.4994 53.614 65.2111 53.4015 64.9986C53.189 64.786 52.9007 64.6666 52.6001 64.6666H47.5001C47.2612 64.6672 47.0249 64.6174 46.8066 64.5205C46.5882 64.4236 46.3927 64.2818 46.2329 64.1043C46.073 63.9268 45.9523 63.7176 45.8787 63.4903C45.8052 63.263 45.7803 63.0228 45.8058 62.7853C45.8756 62.3488 46.1032 61.9531 46.4454 61.6732C46.7875 61.3932 47.2205 61.2486 47.6622 61.2666H64.4457C64.6523 61.2682 64.8545 61.3262 65.0305 61.4344L69.6137 64.1793C70.1407 64.4955 70.7436 64.6644 71.3591 64.6666H82.0668V74.7408L80.1039 73.1338C79.3908 72.5896 78.507 72.3176 77.6114 72.3668C76.7158 72.4161 75.8671 72.7833 75.2181 73.4024C74.7304 73.8753 74.3878 74.4776 74.2306 75.1385C74.0734 75.7994 74.1081 76.4914 74.3307 77.1333H70.5306C69.6386 77.1371 68.7839 77.4912 68.1506 78.1193L57.4848 88.6978L57.4621 88.7205L56.9906 89.1874C56.725 89.4471 56.3676 89.5914 55.9962 89.5888C55.6247 89.5863 55.2693 89.4371 55.0073 89.1738C54.7667 88.9323 54.6225 88.6113 54.6016 88.271C54.5807 87.9307 54.6847 87.5945 54.894 87.3254L58.0106 83.5174C58.1464 83.3513 58.2323 83.1501 58.2583 82.9372C58.2842 82.7243 58.2493 82.5084 58.1574 82.3146C58.0655 82.1207 57.9205 81.957 57.7393 81.8423C57.558 81.7276 57.3479 81.6667 57.1334 81.6666H44.2622C43.8212 81.6839 43.3892 81.539 43.0478 81.2594C42.7064 80.9798 42.4792 80.5848 42.4092 80.1491C42.3836 79.9118 42.4082 79.6717 42.4815 79.4445C42.5548 79.2174 42.6751 79.0082 42.8347 78.8306C42.9942 78.653 43.1893 78.511 43.4073 78.4139C43.6254 78.3167 43.8614 78.2665 44.1001 78.2666H50.3334C50.634 78.2666 50.9223 78.1472 51.1348 77.9347C51.3474 77.7222 51.4668 77.4339 51.4668 77.1333C51.4668 76.8327 51.3474 76.5445 51.1348 76.3319C50.9223 76.1194 50.634 76 50.3334 76H43.1288C42.6883 76.017 42.2567 75.8724 41.9154 75.5933C41.5741 75.3142 41.3466 74.9199 41.2758 74.4847ZM86.6001 96.0112L76.2528 106.272C76.0447 106.48 75.7628 106.598 75.4685 106.599H69.9877L59.7276 96.256C59.5191 96.0478 59.4013 95.7654 59.4001 95.4706V89.9853L69.7441 79.7275C69.9525 79.5185 70.2354 79.4007 70.5306 79.4H76.0159L86.276 89.7428C86.483 89.9523 86.5994 90.2348 86.6001 90.5293V96.0112ZM60.139 123.591C59.9031 123.616 59.6645 123.592 59.4389 123.518C59.2133 123.445 59.0058 123.324 58.83 123.165C58.6535 123.005 58.5122 122.809 58.4152 122.592C58.3182 122.374 58.2677 122.138 58.2668 121.9V115.667C58.2668 115.366 58.1474 115.078 57.9348 114.865C57.7223 114.653 57.434 114.533 57.1334 114.533C56.8329 114.533 56.5446 114.653 56.3321 114.865C56.1195 115.078 56.0001 115.366 56.0001 115.667V122.874C56.0152 123.316 55.8677 123.749 55.5857 124.09C55.3036 124.432 54.9064 124.658 54.469 124.727C53.993 124.779 53.517 124.623 53.1634 124.3C52.9864 124.14 52.8449 123.945 52.7479 123.726C52.6509 123.508 52.6005 123.272 52.6001 123.033V115.667C52.6001 115.366 52.4807 115.078 52.2682 114.865C52.0556 114.653 51.7674 114.533 51.4668 114.533C51.1662 114.533 50.8779 114.653 50.6654 114.865C50.4529 115.078 50.3334 115.366 50.3334 115.667V120.78C50.332 121.018 50.2806 121.253 50.1828 121.469C50.085 121.686 49.9429 121.879 49.7656 122.038C49.5884 122.196 49.3799 122.315 49.1536 122.388C48.9274 122.461 48.6884 122.485 48.4521 122.46C48.0158 122.39 47.6202 122.163 47.3404 121.821C47.0605 121.479 46.9157 121.046 46.9334 120.605V113.4C46.9334 113.099 46.814 112.811 46.6015 112.599C46.389 112.386 46.1007 112.267 45.8001 112.267C45.4995 112.267 45.2113 112.386 44.9987 112.599C44.7862 112.811 44.6668 113.099 44.6668 113.4V118.51C44.6657 118.748 44.6148 118.983 44.5173 119.2C44.4198 119.417 44.2778 119.611 44.1006 119.769C43.9234 119.928 43.7149 120.048 43.4886 120.121C43.2622 120.194 43.0231 120.218 42.7866 120.193C42.3504 120.123 41.9548 119.896 41.6748 119.555C41.3947 119.213 41.2496 118.78 41.2668 118.339V101.556C41.269 101.352 41.3223 101.151 41.422 100.973L44.1794 96.3875C44.495 95.8602 44.6633 95.2578 44.6668 94.6433V83.9333H54.7398L53.1316 85.8974C52.6271 86.5111 52.3364 87.2727 52.3038 88.0666C52.2712 88.8605 52.4985 89.6433 52.951 90.2964C53.4036 90.9494 54.0569 91.4371 54.8117 91.6853C55.5665 91.9335 56.3816 91.9287 57.1334 91.6717V95.4706C57.1372 96.3626 57.4913 97.2174 58.1194 97.8506L68.6889 108.504C68.7012 108.517 68.714 108.53 68.7274 108.543L69.1887 109.007C69.3829 109.205 69.5144 109.456 69.5665 109.728C69.6186 110 69.5891 110.281 69.4816 110.537C69.3742 110.792 69.1936 111.01 68.9627 111.163C68.7317 111.317 68.4606 111.398 68.1834 111.397C67.875 111.399 67.5753 111.295 67.3334 111.104L63.5266 107.988C63.3606 107.85 63.1585 107.761 62.944 107.734C62.7295 107.707 62.5116 107.741 62.3161 107.833C62.1206 107.926 61.9555 108.072 61.8405 108.255C61.7254 108.438 61.6652 108.65 61.6668 108.867V121.738C61.6819 122.18 61.535 122.612 61.2536 122.954C60.9723 123.295 60.5759 123.522 60.139 123.591ZM104.724 111.515C104.75 111.753 104.726 111.993 104.653 112.22C104.58 112.448 104.459 112.657 104.3 112.835C104.14 113.013 103.945 113.155 103.727 113.253C103.509 113.35 103.272 113.4 103.033 113.4H95.6668C95.3662 113.4 95.0779 113.519 94.8654 113.732C94.6529 113.944 94.5335 114.233 94.5335 114.533C94.5335 114.834 94.6529 115.122 94.8654 115.335C95.0779 115.547 95.3662 115.667 95.6668 115.667H100.767C101.006 115.666 101.242 115.716 101.46 115.813C101.679 115.91 101.874 116.051 102.034 116.229C102.194 116.406 102.315 116.616 102.388 116.843C102.462 117.07 102.487 117.31 102.461 117.548C102.391 117.984 102.163 118.38 101.821 118.66C101.479 118.94 101.046 119.084 100.605 119.067H93.4001C93.0995 119.067 92.8113 119.186 92.5987 119.399C92.3862 119.611 92.2668 119.899 92.2668 120.2C92.2668 120.501 92.3862 120.789 92.5987 121.001C92.8113 121.214 93.0995 121.333 93.4001 121.333H98.5001C98.739 121.333 98.9753 121.383 99.1937 121.479C99.412 121.576 99.6075 121.718 99.7674 121.896C99.9272 122.073 100.048 122.282 100.121 122.51C100.195 122.737 100.22 122.977 100.194 123.215C100.125 123.651 99.897 124.047 99.5549 124.327C99.2127 124.607 98.7798 124.751 98.3381 124.733H81.5545C81.3479 124.732 81.1457 124.674 80.9697 124.566L76.3865 121.821C75.8591 121.504 75.2562 121.336 74.6412 121.333H63.9334V111.257L65.8964 112.864C66.6086 113.41 67.4928 113.683 68.389 113.634C69.2852 113.585 70.1341 113.216 70.7822 112.595C71.27 112.123 71.6129 111.521 71.7707 110.861C71.9285 110.2 71.8946 109.509 71.673 108.867H75.4697C76.3616 108.863 77.2164 108.509 77.8496 107.881L88.5121 97.3066L88.5517 97.2681L89.013 96.8148C89.2786 96.5551 89.636 96.4108 90.0075 96.4134C90.3789 96.4159 90.7343 96.5651 90.9963 96.8284C91.495 97.3282 91.5426 98.1204 91.1096 98.6768L87.993 102.485C87.8581 102.651 87.7728 102.851 87.7471 103.064C87.7214 103.276 87.7562 103.491 87.8476 103.684C87.9389 103.878 88.0831 104.041 88.2635 104.156C88.4438 104.271 88.653 104.332 88.8668 104.333H101.738C102.179 104.316 102.611 104.461 102.952 104.741C103.294 105.02 103.521 105.415 103.591 105.851C103.617 106.088 103.592 106.328 103.519 106.555C103.445 106.783 103.325 106.992 103.166 107.169C103.006 107.347 102.811 107.489 102.593 107.586C102.375 107.683 102.139 107.733 101.9 107.733H95.6668C95.3662 107.733 95.0779 107.853 94.8654 108.065C94.6529 108.278 94.5335 108.566 94.5335 108.867C94.5335 109.167 94.6529 109.455 94.8654 109.668C95.0779 109.881 95.3662 110 95.6668 110H102.875C103.315 109.984 103.746 110.129 104.086 110.408C104.427 110.687 104.654 111.081 104.724 111.515ZM104.733 84.4444C104.731 84.6507 104.675 84.8524 104.567 85.0292L101.821 89.6124C101.505 90.1395 101.336 90.742 101.333 91.3566V102.067H91.257L92.8652 100.103C93.429 99.3979 93.7131 98.5101 93.6631 97.609C93.6131 96.708 93.2326 95.857 92.5943 95.219C92.1084 94.7528 91.5053 94.4267 90.849 94.2754C90.1928 94.1242 89.5078 94.1534 88.8668 94.36V90.5293C88.863 89.6374 88.5089 88.7826 87.8808 88.1493L77.3068 77.4801L77.2852 77.4586L76.8172 76.9871C76.6857 76.8573 76.5816 76.7024 76.511 76.5317C76.4404 76.361 76.4046 76.1779 76.4059 75.9931C76.4072 75.8084 76.4454 75.6258 76.5184 75.456C76.5914 75.2863 76.6976 75.1329 76.8308 75.0049C77.0761 74.7708 77.3964 74.631 77.7349 74.6103C78.0734 74.5896 78.4083 74.6892 78.6804 74.8916L82.4872 78.0071C82.6531 78.1413 82.8536 78.226 83.0655 78.2514C83.2773 78.2767 83.4921 78.2417 83.685 78.1505C83.8779 78.0592 84.0411 77.9153 84.1558 77.7353C84.2705 77.5554 84.3321 77.3467 84.3335 77.1333V64.262C84.3165 63.821 84.4616 63.389 84.7414 63.0476C85.0212 62.7062 85.4163 62.479 85.8521 62.409C86.0894 62.3836 86.3293 62.4084 86.5563 62.4817C86.7834 62.5551 86.9924 62.6755 87.1698 62.835C87.3473 62.9945 87.4892 63.1895 87.5863 63.4075C87.6834 63.6254 87.7335 63.8614 87.7335 64.1V70.3333C87.7335 70.6339 87.8529 70.9221 88.0654 71.1347C88.2779 71.3472 88.5662 71.4666 88.8668 71.4666C89.1674 71.4666 89.4556 71.3472 89.6682 71.1347C89.8807 70.9221 90.0001 70.6339 90.0001 70.3333V63.1287C89.9829 62.6876 90.128 62.2554 90.4078 61.914C90.6876 61.5726 91.0829 61.3455 91.5188 61.2757C91.756 61.2502 91.996 61.275 92.223 61.3484C92.45 61.4218 92.6591 61.5421 92.8365 61.7016C93.014 61.8611 93.1559 62.0562 93.253 62.2741C93.3501 62.4921 93.4002 62.728 93.4001 62.9666V70.3333C93.4001 70.6339 93.5195 70.9221 93.7321 71.1347C93.9446 71.3472 94.2329 71.4666 94.5335 71.4666C94.834 71.4666 95.1223 71.3472 95.3348 71.1347C95.5474 70.9221 95.6668 70.6339 95.6668 70.3333V65.2333C95.6664 64.9945 95.7163 64.7583 95.8132 64.5401C95.9102 64.3219 96.0521 64.1265 96.2295 63.9668C96.407 63.8071 96.6162 63.6865 96.8434 63.613C97.0706 63.5395 97.3107 63.5146 97.5481 63.5401C98.4514 63.6852 99.1031 64.4808 99.0668 65.3954V72.6C99.0668 72.9005 99.1862 73.1888 99.3987 73.4014C99.6113 73.6139 99.8995 73.7333 100.2 73.7333C100.501 73.7333 100.789 73.6139 101.002 73.4014C101.214 73.1888 101.333 72.9005 101.333 72.6V67.5C101.333 67.2612 101.383 67.025 101.48 66.8068C101.577 66.5886 101.719 66.3932 101.896 66.2335C102.074 66.0737 102.283 65.9532 102.51 65.8796C102.737 65.8061 102.977 65.7813 103.215 65.8068C104.117 65.9518 104.769 66.7474 104.733 67.6609V84.4444Z" fill="white"/>
</g>
<defs>
<clipPath id="clip0_1532_3491">
<rect width="68" height="68" fill="white" transform="translate(39 59)"/>
</clipPath>
</defs>
</svg>
