<svg width="159" height="188" viewBox="0 0 159 188" fill="none" xmlns="http://www.w3.org/2000/svg">
<mask id="mask0_1532_3488" style="mask-type:alpha" maskUnits="userSpaceOnUse" x="0" y="0" width="562" height="188">
<path d="M0 44C0 19.6995 19.6995 0 44 0H518C542.301 0 562 19.6995 562 44V188H0V44Z" fill="#F6F2FF"/>
</mask>
<g mask="url(#mask0_1532_3488)">
<circle cx="43" cy="94" r="116" fill="#FF00A7"/>
<circle cx="-50" cy="232" r="116" fill="#4800FF"/>
</g>
<g clip-path="url(#clip0_1532_3488)">
<path d="M39.9961 121.148C39.9961 102.921 54.7724 88.1445 73 88.1445C91.2276 88.1445 106.004 102.921 106.004 121.148M43.4482 106.656L45.5381 121.148" stroke="white" stroke-width="2.2" stroke-miterlimit="10" stroke-linecap="round" stroke-linejoin="round"/>
<path d="M58.91 97.2549L59.7615 96.7874C61.1991 95.9981 63.0009 96.426 63.9302 97.7772L64.3331 98.3632C64.6267 98.79 65.0196 99.139 65.4781 99.3802C65.9365 99.6213 66.4468 99.7473 66.9648 99.7474H68.9152C69.5474 99.7474 70.1653 99.5597 70.6908 99.2083C71.2163 98.8568 71.6257 98.3573 71.867 97.773L73.0277 94.9637C73.2878 94.334 73.3931 93.651 73.3346 92.9721C73.2761 92.2932 73.0556 91.6383 72.6915 91.0624L70.9647 88.3303M45.4712 119.171L49.6259 116.503C50.0121 116.255 50.4681 116.139 50.9259 116.171C51.3838 116.203 51.819 116.383 52.1666 116.682L52.7504 117.186C53.4611 117.798 54.5684 117.435 54.7782 116.521L55.4007 113.809C55.5638 113.098 55.9066 112.441 56.3962 111.901C56.8859 111.361 57.506 110.955 58.1972 110.724L62.791 109.183C64.1028 108.743 64.6532 107.188 63.9104 106.021L61.8222 102.74C61.2483 101.838 60.0949 101.501 59.1262 101.953L57.2763 102.815C56.8369 103.02 56.339 103.062 55.8715 102.934C55.4039 102.806 54.997 102.516 54.7232 102.116C54.0404 101.118 54.3673 99.7488 55.4271 99.167M77.6648 121.148C76.969 120.094 76.599 118.859 76.601 117.596C76.601 114.028 79.4933 111.136 83.0611 111.136H92.4262C93.6474 111.136 94.6373 110.146 94.6373 108.924C94.6373 107.703 93.6474 106.713 92.4262 106.713H84.5631C84.1417 106.713 83.7355 106.871 83.4252 107.157C83.1148 107.442 82.9227 107.833 82.887 108.253V108.254C82.7485 109.883 81.3853 111.136 79.7497 111.136C78.0108 111.136 76.6011 109.726 76.6011 107.987V107.176C76.6011 106.436 76.7938 105.709 77.1603 105.067C77.5268 104.424 78.0544 103.888 78.6911 103.511L85.6181 99.4123C86.7308 98.7539 86.9467 97.234 86.0615 96.2917C85.7791 95.9911 85.4114 95.7841 85.0078 95.6987C84.6043 95.6133 84.1842 95.6535 83.8042 95.814L83.1151 96.105C82.049 96.5551 80.8187 96.0708 80.3454 95.015C80.1574 94.5955 80.1102 94.1265 80.211 93.678C80.3117 93.2295 80.5549 92.8257 80.9043 92.527L83.6828 90.1511M105.39 116.772L104.62 117.439C104.179 117.821 103.664 118.109 103.107 118.284C102.55 118.459 101.963 118.517 101.382 118.456L99.4065 118.246L100.211 121.148M82.5816 76.4333L75.1681 74.4816C73.7468 74.1075 72.2528 74.1075 70.8315 74.4816L63.418 76.4333M70.8706 74.7066L69.8059 88.1443M75.1291 74.7066L76.1937 88.1443M70.8706 81.7566H75.1291M103.221 86.8278L97.7086 81.5005C96.6517 80.4792 95.3485 79.7487 93.9257 79.3802L86.5046 77.4578M91.4613 83.1631L86.3508 90.7969M97.5645 81.6776L91.9229 93.9201M90.4028 85.7452L94.1175 87.8273M42.7783 86.8278L48.291 81.5005C49.3479 80.4792 50.6511 79.7487 52.0739 79.3802L59.495 77.4578M52.1498 79.5955L59.6488 90.7969M48.4351 81.6776L54.0767 93.9201M55.5969 85.7452L51.8821 87.8273M72.9998 71.1101C71.8239 71.1101 70.8706 70.1567 70.8706 68.9808C70.8706 67.8049 71.8239 66.8516 72.9998 66.8516C74.1757 66.8516 75.1291 67.8049 75.1291 68.9808C75.1291 70.1567 74.1757 71.1101 72.9998 71.1101ZM97.4657 77.4993C96.4399 76.9243 96.0744 75.6266 96.6495 74.6008C97.2244 73.5749 98.5221 73.2094 99.548 73.7845C100.574 74.3595 100.939 75.6572 100.364 76.683C99.7891 77.7087 98.4914 78.0742 97.4657 77.4993ZM48.5339 77.4993C49.5597 76.9243 49.9252 75.6266 49.3501 74.6008C48.7752 73.5749 47.4775 73.2094 46.4516 73.7845C45.4258 74.3595 45.0603 75.6572 45.6354 76.683C46.2105 77.7087 47.5082 78.0742 48.5339 77.4993Z" stroke="white" stroke-width="2.2" stroke-miterlimit="10" stroke-linecap="round" stroke-linejoin="round"/>
</g>
<defs>
<clipPath id="clip0_1532_3488">
<rect width="68" height="68" fill="white" transform="translate(39 60)"/>
</clipPath>
</defs>
</svg>
