<svg width="81" height="68" viewBox="0 0 81 68" fill="none" xmlns="http://www.w3.org/2000/svg">
<mask id="mask0_1536_3495" style="mask-type:alpha" maskUnits="userSpaceOnUse" x="0" y="0" width="320" height="111">
<path d="M0 24.2412C0 10.9864 10.7452 0.241211 24 0.241211H296C309.255 0.241211 320 10.9864 320 24.2412V110.241H0V24.2412Z" fill="#F6F2FF"/>
</mask>
<g mask="url(#mask0_1536_3495)">
<circle cx="30" cy="16.2412" r="51" fill="#FF00FE"/>
</g>
<g clip-path="url(#clip0_1536_3495)">
<path d="M52.2202 18.5183C51.816 18.4773 51.4089 18.5607 51.0534 18.7574C50.9677 18.4794 50.8212 18.2239 50.6245 18.0095C50.4279 17.7951 50.186 17.6271 49.9164 17.5178C49.6468 17.4084 49.3562 17.3604 49.0658 17.3772C48.7753 17.394 48.4922 17.4753 48.2371 17.615C48.0975 17.1827 47.8137 16.8115 47.4332 16.5633C47.0527 16.3151 46.5985 16.2051 46.1466 16.2516C45.8476 16.2856 45.5604 16.3878 45.3071 16.5503C45.0539 16.7128 44.8413 16.9313 44.6858 17.1889C44.4531 17.0167 44.185 16.8986 43.9009 16.8431C43.6169 16.7877 43.324 16.7963 43.0437 16.8684C42.7634 16.9405 42.5027 17.0743 42.2806 17.2599C42.0586 17.4455 41.8807 17.6784 41.7601 17.9414H36.1795C36.0761 17.9407 35.9749 17.9119 35.8866 17.8581L33.5955 16.4874C33.3321 16.3282 33.0306 16.2432 32.7229 16.2414H24.3311C23.8301 16.2347 23.3442 16.4122 22.9655 16.7403C22.5868 17.0683 22.3417 17.524 22.2769 18.0208C22.236 18.4252 22.3194 18.8324 22.5161 19.1881C22.2379 19.2737 21.9824 19.4201 21.7679 19.6168C21.5534 19.8134 21.3855 20.0554 21.2761 20.325C21.1668 20.5947 21.1189 20.8853 21.1358 21.1758C21.1528 21.4663 21.2342 21.7493 21.3742 22.0044C20.9413 22.1435 20.5695 22.4273 20.3211 22.8082C20.0727 23.1891 19.963 23.6438 20.0103 24.096C20.0441 24.395 20.1463 24.6823 20.3088 24.9356C20.4713 25.1889 20.6898 25.4015 20.9475 25.5569C20.6602 25.9535 20.5282 26.442 20.5769 26.9293C20.6167 27.2626 20.7407 27.5803 20.9372 27.8524C21.1337 28.1245 21.3962 28.3422 21.7001 28.4848V34.0631C21.6991 34.166 21.6701 34.2667 21.6162 34.3544L20.2335 36.6573C20.083 36.9198 20.0026 37.2166 20.0001 37.5192V45.911C19.9938 46.4119 20.1715 46.8976 20.4996 47.2762C20.8277 47.6547 21.2833 47.8997 21.78 47.9646C22.1841 48.0045 22.5909 47.9211 22.9467 47.7254C23.0324 48.0036 23.1789 48.2591 23.3756 48.4736C23.5723 48.6881 23.8143 48.8561 24.084 48.9654C24.3537 49.0747 24.6443 49.1226 24.9349 49.1057C25.2254 49.0887 25.5085 49.0073 25.7636 48.8673C25.8916 49.2669 26.1433 49.6154 26.4824 49.8624C26.8216 50.1094 27.2305 50.2422 27.6501 50.2414C27.9858 50.2415 28.3159 50.1543 28.6078 49.9883C28.8996 49.8223 29.1433 49.5832 29.3149 49.2945C29.5478 49.4667 29.8161 49.5849 30.1004 49.6403C30.3846 49.6957 30.6777 49.687 30.9581 49.6148C31.2386 49.5427 31.4995 49.4089 31.7217 49.2232C31.944 49.0375 32.122 48.8046 32.2429 48.5414H37.8206C37.9237 48.542 38.0252 48.5709 38.1136 48.6247L40.4046 49.9966C40.6681 50.1553 40.9696 50.2397 41.2773 50.2409H49.669C50.17 50.2476 50.656 50.0701 51.0347 49.7421C51.4133 49.414 51.6584 48.9583 51.7232 48.4615C51.764 48.0574 51.6806 47.6503 51.4841 47.2948C51.7622 47.2092 52.0177 47.0628 52.2322 46.8661C52.4467 46.6694 52.6147 46.4275 52.724 46.1579C52.8333 45.8882 52.8812 45.5976 52.8643 45.3071C52.8473 45.0166 52.7659 44.7335 52.6259 44.4784C53.0586 44.3394 53.4303 44.0558 53.6786 43.6751C53.927 43.2945 54.0369 42.8401 53.9899 42.388C53.956 42.089 53.8539 41.8017 53.6914 41.5484C53.5288 41.2951 53.3103 41.0826 53.0526 40.9271C53.3399 40.5305 53.4719 40.042 53.4232 39.5547C53.3831 39.2218 53.2589 38.9046 53.0624 38.6329C52.866 38.3611 52.6036 38.1439 52.3001 38.0014V32.4198C52.3012 32.3166 52.3301 32.2158 52.3834 32.1274L53.7558 29.8369C53.9145 29.5734 53.9989 29.2714 54.0001 28.9637V20.5719C54.0064 20.071 53.8286 19.5852 53.5005 19.2067C53.1725 18.8282 52.7169 18.5832 52.2202 18.5183ZM21.1379 23.9838C21.1249 23.8651 21.1371 23.7449 21.1737 23.6312C21.2103 23.5175 21.2704 23.4127 21.3502 23.3238C21.43 23.2349 21.5276 23.1638 21.6367 23.1151C21.7458 23.0665 21.8639 23.0414 21.9834 23.0414H25.6667C25.817 23.0414 25.9611 22.9817 26.0674 22.8755C26.1737 22.7692 26.2334 22.6251 26.2334 22.4748C26.2334 22.3245 26.1737 22.1803 26.0674 22.0741C25.9611 21.9678 25.817 21.9081 25.6667 21.9081H23.1167C22.9973 21.9084 22.8791 21.8835 22.7699 21.8351C22.6608 21.7866 22.563 21.7157 22.4831 21.6269C22.4032 21.5382 22.3428 21.4336 22.306 21.3199C22.2692 21.2063 22.2568 21.0862 22.2696 20.9674C22.3046 20.7492 22.4184 20.5514 22.5895 20.4115C22.7605 20.2716 22.9769 20.1992 23.1978 20.2081H26.8001C26.9503 20.2081 27.0945 20.1484 27.2008 20.0421C27.307 19.9359 27.3667 19.7917 27.3667 19.6414C27.3667 19.4911 27.307 19.347 27.2008 19.2407C27.0945 19.1345 26.9503 19.0748 26.8001 19.0748H24.2501C24.1306 19.0751 24.0125 19.0502 23.9033 19.0017C23.7941 18.9533 23.6964 18.8824 23.6164 18.7936C23.5365 18.7049 23.4762 18.6002 23.4394 18.4866C23.4026 18.373 23.3901 18.2529 23.4029 18.1341C23.4378 17.9158 23.5516 17.718 23.7227 17.578C23.8938 17.4381 24.1102 17.3658 24.3311 17.3748H32.7229C32.8261 17.3756 32.9273 17.4046 33.0153 17.4586L35.3069 18.8311C35.5704 18.9892 35.8718 19.0736 36.1795 19.0748H41.5334V24.1119L40.5519 23.3083C40.1954 23.0362 39.7535 22.9003 39.3057 22.9249C38.8579 22.9495 38.4336 23.1331 38.109 23.4426C37.8652 23.6791 37.6939 23.9803 37.6153 24.3107C37.5367 24.6412 37.5541 24.9872 37.6653 25.3081H35.7653C35.3193 25.31 34.8919 25.487 34.5753 25.8011L29.2424 31.0904L29.2311 31.1017L28.9953 31.3352C28.8625 31.465 28.6838 31.5371 28.4981 31.5359C28.3124 31.5346 28.1347 31.46 28.0037 31.3284C27.8834 31.2076 27.8112 31.0471 27.8008 30.877C27.7904 30.7068 27.8423 30.5387 27.947 30.4041L29.5053 28.5001C29.5732 28.4171 29.6161 28.3165 29.6291 28.2101C29.6421 28.1036 29.6246 27.9957 29.5787 27.8987C29.5328 27.8018 29.4603 27.7199 29.3696 27.6626C29.279 27.6052 29.174 27.5748 29.0667 27.5748H22.6311C22.4106 27.5834 22.1946 27.5109 22.0239 27.3711C21.8532 27.2313 21.7396 27.0339 21.7046 26.816C21.6918 26.6973 21.7041 26.5773 21.7408 26.4637C21.7774 26.3501 21.8376 26.2456 21.9173 26.1568C21.9971 26.068 22.0946 25.997 22.2037 25.9484C22.3127 25.8998 22.4307 25.8747 22.5501 25.8748H25.6667C25.817 25.8748 25.9611 25.8151 26.0674 25.7088C26.1737 25.6025 26.2334 25.4584 26.2334 25.3081C26.2334 25.1578 26.1737 25.0137 26.0674 24.9074C25.9611 24.8011 25.817 24.7414 25.6667 24.7414H22.0644C21.8441 24.75 21.6283 24.6776 21.4577 24.5381C21.287 24.3985 21.1733 24.2014 21.1379 23.9838ZM43.8001 34.7471L38.6264 39.8777C38.5223 39.9817 38.3814 40.0403 38.2343 40.0409H35.4939L30.3638 34.8695C30.2595 34.7653 30.2007 34.6242 30.2001 34.4768V31.7341L35.372 26.6052C35.4763 26.5007 35.6177 26.4418 35.7653 26.4414H38.508L43.638 31.6128C43.7415 31.7176 43.7997 31.8588 43.8001 32.0061V34.7471ZM30.5695 48.5369C30.4516 48.5496 30.3323 48.5372 30.2194 48.5005C30.1066 48.4638 30.0029 48.4036 29.915 48.3238C29.8267 48.2438 29.7561 48.1462 29.7076 48.0373C29.6591 47.9284 29.6338 47.8106 29.6334 47.6914V44.5748C29.6334 44.4245 29.5737 44.2804 29.4674 44.1741C29.3611 44.0678 29.217 44.0081 29.0667 44.0081C28.9164 44.0081 28.7723 44.0678 28.666 44.1741C28.5598 44.2804 28.5001 44.4245 28.5001 44.5748V48.1782C28.5076 48.3995 28.4339 48.6159 28.2928 48.7865C28.1518 48.9572 27.9532 49.0704 27.7345 49.1047C27.4965 49.1308 27.2585 49.0531 27.0817 48.8916C26.9932 48.8115 26.9224 48.7137 26.8739 48.6046C26.8254 48.4955 26.8003 48.3775 26.8001 48.2581V44.5748C26.8001 44.4245 26.7404 44.2804 26.6341 44.1741C26.5278 44.0678 26.3837 44.0081 26.2334 44.0081C26.0831 44.0081 25.939 44.0678 25.8327 44.1741C25.7264 44.2804 25.6667 44.4245 25.6667 44.5748V47.1316C25.666 47.2504 25.6403 47.3677 25.5914 47.476C25.5425 47.5843 25.4715 47.6812 25.3828 47.7603C25.2942 47.8394 25.1899 47.8991 25.0768 47.9355C24.9637 47.9718 24.8442 47.9841 24.7261 47.9714C24.5079 47.9365 24.3101 47.8228 24.1702 47.6518C24.0302 47.4808 23.9578 47.2645 23.9667 47.0437V43.4414C23.9667 43.2912 23.907 43.147 23.8008 43.0407C23.6945 42.9345 23.5503 42.8748 23.4001 42.8748C23.2498 42.8748 23.1056 42.9345 22.9994 43.0407C22.8931 43.147 22.8334 43.2912 22.8334 43.4414V45.9965C22.8329 46.1155 22.8074 46.2329 22.7586 46.3414C22.7099 46.4498 22.6389 46.5469 22.5503 46.6262C22.4617 46.7055 22.3574 46.7653 22.2443 46.8018C22.1311 46.8383 22.0115 46.8506 21.8933 46.838C21.6752 46.8032 21.4774 46.6896 21.3374 46.5187C21.1974 46.3479 21.1248 46.1317 21.1334 45.911V37.5192C21.1345 37.4172 21.1612 37.3169 21.211 37.2279L22.5897 34.9352C22.7475 34.6715 22.8317 34.3704 22.8334 34.0631V28.7081H27.8699L27.0658 29.6901C26.8135 29.997 26.6682 30.3778 26.6519 30.7748C26.6356 31.1717 26.7492 31.5631 26.9755 31.8897C27.2018 32.2162 27.5284 32.46 27.9058 32.5841C28.2832 32.7082 28.6908 32.7058 29.0667 32.5773V34.4768C29.0686 34.9228 29.2457 35.3501 29.5597 35.6668L34.8445 40.9934C34.8506 41.0001 34.857 41.0066 34.8637 41.0127L35.0944 41.245C35.1915 41.3439 35.2572 41.4692 35.2832 41.6053C35.3093 41.7414 35.2945 41.8822 35.2408 42.0099C35.1871 42.1376 35.0968 42.2466 34.9813 42.3232C34.8658 42.3997 34.7303 42.4404 34.5917 42.4401C34.4375 42.4408 34.2877 42.3891 34.1667 42.2934L32.2633 40.7356C32.1803 40.6663 32.0792 40.6222 31.972 40.6085C31.8647 40.5947 31.7558 40.612 31.658 40.6581C31.5603 40.7043 31.4778 40.7775 31.4202 40.869C31.3627 40.9606 31.3326 41.0667 31.3334 41.1748V47.6104C31.341 47.8314 31.2675 48.0476 31.1268 48.2182C30.9861 48.3889 30.7879 48.5022 30.5695 48.5369ZM52.8622 42.4991C52.8752 42.6178 52.863 42.738 52.8264 42.8517C52.7898 42.9654 52.7297 43.0702 52.6499 43.1591C52.5701 43.248 52.4725 43.3191 52.3634 43.3678C52.2543 43.4164 52.1362 43.4415 52.0167 43.4414H48.3334C48.1831 43.4414 48.039 43.5011 47.9327 43.6074C47.8264 43.7137 47.7667 43.8578 47.7667 44.0081C47.7667 44.1584 47.8264 44.3025 47.9327 44.4088C48.039 44.5151 48.1831 44.5748 48.3334 44.5748H50.8834C51.0028 44.5745 51.121 44.5994 51.2302 44.6478C51.3393 44.6963 51.4371 44.7672 51.517 44.8559C51.597 44.9447 51.6573 45.0493 51.6941 45.1629C51.7309 45.2766 51.7433 45.3967 51.7306 45.5154C51.6955 45.7336 51.5817 45.9314 51.4107 46.0714C51.2396 46.2113 51.0232 46.2837 50.8024 46.2748H47.2001C47.0498 46.2748 46.9056 46.3345 46.7994 46.4408C46.6931 46.547 46.6334 46.6912 46.6334 46.8414C46.6334 46.9917 46.6931 47.1359 46.7994 47.2421C46.9056 47.3484 47.0498 47.4081 47.2001 47.4081H49.7501C49.8695 47.4078 49.9877 47.4327 50.0968 47.4812C50.206 47.5296 50.3038 47.6005 50.3837 47.6893C50.4636 47.778 50.5239 47.8826 50.5607 47.9963C50.5975 48.1099 50.61 48.23 50.5972 48.3488C50.5623 48.567 50.4485 48.7649 50.2774 48.9049C50.1064 49.0448 49.8899 49.1171 49.669 49.1081H41.2773C41.174 49.1073 41.0729 49.0783 40.9849 49.0242L38.6933 47.6518C38.4295 47.4937 38.1281 47.4095 37.8206 47.4081H32.4667V42.3699L33.4482 43.1734C33.8043 43.4465 34.2464 43.5831 34.6945 43.5585C35.1426 43.5338 35.5671 43.3496 35.8911 43.0391C36.135 42.8029 36.3065 42.5021 36.3854 42.1718C36.4643 41.8416 36.4473 41.4957 36.3365 41.1748H38.2348C38.6808 41.1729 39.1082 40.9958 39.4248 40.6818L44.756 35.3948L44.7759 35.3755L45.0065 35.1488C45.1393 35.019 45.318 34.9469 45.5037 34.9481C45.6894 34.9494 45.8671 35.024 45.9982 35.1556C46.2475 35.4055 46.2713 35.8016 46.0548 36.0799L44.4965 37.9839C44.429 38.0668 44.3864 38.1671 44.3736 38.2733C44.3607 38.3794 44.3781 38.487 44.4238 38.5836C44.4695 38.6803 44.5416 38.762 44.6317 38.8194C44.7219 38.8769 44.8265 38.9076 44.9334 38.9081H51.369C51.5895 38.8995 51.8055 38.9719 51.9762 39.1117C52.1469 39.2515 52.2605 39.449 52.2955 39.6669C52.3083 39.7855 52.296 39.9056 52.2594 40.0192C52.2227 40.1327 52.1625 40.2373 52.0828 40.3261C52.003 40.4149 51.9055 40.4859 51.7965 40.5345C51.6874 40.5831 51.5694 40.6082 51.4501 40.6081H48.3334C48.1831 40.6081 48.039 40.6678 47.9327 40.7741C47.8264 40.8804 47.7667 41.0245 47.7667 41.1748C47.7667 41.3251 47.8264 41.4692 47.9327 41.5755C48.039 41.6817 48.1831 41.7414 48.3334 41.7414H51.9374C52.1574 41.7333 52.3728 41.8059 52.5431 41.9454C52.7134 42.0849 52.8268 42.2818 52.8622 42.4991ZM52.8667 28.9637C52.8656 29.0668 52.8373 29.1677 52.7834 29.2561L51.4104 31.5477C51.2523 31.8112 51.1682 32.1125 51.1667 32.4198V37.7748H46.1285L46.9326 36.7927C47.2145 36.4404 47.3565 35.9965 47.3315 35.546C47.3066 35.0954 47.1163 34.67 46.7972 34.351C46.5542 34.1178 46.2526 33.9548 45.9245 33.8792C45.5964 33.8036 45.2539 33.8182 44.9334 33.9214V32.0061C44.9315 31.5601 44.7545 31.1328 44.4404 30.8161L39.1534 25.4815L39.1426 25.4707L38.9086 25.235C38.8429 25.1701 38.7908 25.0927 38.7555 25.0073C38.7202 24.922 38.7023 24.8304 38.7029 24.738C38.7036 24.6456 38.7227 24.5543 38.7592 24.4695C38.7957 24.3846 38.8488 24.3079 38.9154 24.2439C39.0381 24.1269 39.1982 24.057 39.3674 24.0466C39.5367 24.0362 39.7041 24.0861 39.8402 24.1872L41.7436 25.745C41.8266 25.8121 41.9268 25.8545 42.0327 25.8671C42.1387 25.8798 42.246 25.8623 42.3425 25.8167C42.4389 25.771 42.5205 25.6991 42.5779 25.6091C42.6353 25.5191 42.666 25.4148 42.6667 25.3081V18.8725C42.6583 18.6519 42.7308 18.4359 42.8707 18.2652C43.0106 18.0945 43.2082 17.981 43.4261 17.946C43.5447 17.9332 43.6646 17.9456 43.7782 17.9823C43.8917 18.019 43.9962 18.0792 44.0849 18.1589C44.1737 18.2387 44.2446 18.3362 44.2931 18.4452C44.3417 18.5542 44.3668 18.6721 44.3667 18.7914V21.9081C44.3667 22.0584 44.4264 22.2025 44.5327 22.3088C44.639 22.4151 44.7831 22.4748 44.9334 22.4748C45.0837 22.4748 45.2278 22.4151 45.3341 22.3088C45.4404 22.2025 45.5001 22.0584 45.5001 21.9081V18.3058C45.4915 18.0852 45.564 17.8692 45.7039 17.6985C45.8438 17.5277 46.0414 17.4142 46.2594 17.3793C46.378 17.3666 46.498 17.379 46.6115 17.4157C46.725 17.4524 46.8295 17.5125 46.9183 17.5923C47.007 17.672 47.0779 17.7696 47.1265 17.8785C47.175 17.9875 47.2001 18.1055 47.2001 18.2248V21.9081C47.2001 22.0584 47.2598 22.2025 47.366 22.3088C47.4723 22.4151 47.6164 22.4748 47.7667 22.4748C47.917 22.4748 48.0611 22.4151 48.1674 22.3088C48.2737 22.2025 48.3334 22.0584 48.3334 21.9081V19.3581C48.3332 19.2387 48.3581 19.1206 48.4066 19.0115C48.4551 18.9024 48.526 18.8047 48.6148 18.7249C48.7035 18.645 48.8081 18.5847 48.9217 18.5479C49.0353 18.5112 49.1553 18.4988 49.2741 18.5115C49.7257 18.584 50.0515 18.9818 50.0334 19.4391V23.0414C50.0334 23.1917 50.0931 23.3359 50.1994 23.4421C50.3056 23.5484 50.4498 23.6081 50.6001 23.6081C50.7503 23.6081 50.8945 23.5484 51.0008 23.4421C51.107 23.3359 51.1667 23.1917 51.1667 23.0414V20.4914C51.1665 20.372 51.1915 20.2539 51.24 20.1448C51.2884 20.0357 51.3594 19.9381 51.4481 19.8582C51.5368 19.7783 51.6414 19.718 51.755 19.6813C51.8686 19.6445 51.9887 19.6321 52.1074 19.6448C52.5585 19.7174 52.8843 20.1152 52.8667 20.5719V28.9637Z" fill="white"/>
</g>
<defs>
<clipPath id="clip0_1536_3495">
<rect width="34" height="34" fill="white" transform="translate(20 16.2412)"/>
</clipPath>
</defs>
</svg>
