<svg width="81" height="68" viewBox="0 0 81 68" fill="none" xmlns="http://www.w3.org/2000/svg">
<mask id="mask0_1536_3494" style="mask-type:alpha" maskUnits="userSpaceOnUse" x="0" y="0" width="320" height="111">
<path d="M0 24.2412C0 10.9864 10.7452 0.241211 24 0.241211H296C309.255 0.241211 320 10.9864 320 24.2412V110.241H0V24.2412Z" fill="#F6F2FF"/>
</mask>
<g mask="url(#mask0_1536_3494)">
<circle cx="30" cy="16.2412" r="51" fill="#8F00FF"/>
</g>
<g clip-path="url(#clip0_1536_3494)">
<path d="M53.3 21.3412H45.9333V19.0745C45.9314 17.5104 44.6641 16.2431 43.1 16.2412H32.9C31.3359 16.2431 30.0686 17.5104 30.0667 19.0745V21.3412H22.7C21.7612 21.3412 21 22.1024 21 23.0412V35.6551C21.0017 36.0059 21.1114 36.3476 21.3142 36.6339C21.5169 36.9201 21.803 37.137 22.1333 37.2549V45.1412C22.1333 46.08 22.8945 46.8412 23.8333 46.8412H52.1667C53.1055 46.8412 53.8667 46.08 53.8667 45.1412V37.2555C54.1971 37.1374 54.4831 36.9205 54.6859 36.6341C54.8887 36.3478 54.9984 36.0059 55 35.6551V23.0412C55 22.1024 54.2388 21.3412 53.3 21.3412ZM31.2 19.0745C31.2 18.1357 31.9612 17.3745 32.9 17.3745H43.1C44.0388 17.3745 44.8 18.1357 44.8 19.0745V21.3412H43.6667V19.0745C43.6667 18.9243 43.607 18.7801 43.5007 18.6739C43.3944 18.5676 43.2503 18.5079 43.1 18.5079H32.9C32.7497 18.5079 32.6056 18.5676 32.4993 18.6739C32.393 18.7801 32.3333 18.9243 32.3333 19.0745V21.3412H31.2V19.0745ZM42.5333 21.3412H33.4667V19.6412H42.5333V21.3412ZM52.7333 45.1412C52.7333 45.2915 52.6736 45.4356 52.5674 45.5419C52.4611 45.6482 52.317 45.7079 52.1667 45.7079H23.8333C23.683 45.7079 23.5389 45.6482 23.4326 45.5419C23.3264 45.4356 23.2667 45.2915 23.2667 45.1412V37.4497L35.7333 39.1691V40.6079C35.7333 41.5467 36.4945 42.3079 37.4333 42.3079H38.5667C39.5055 42.3079 40.2667 41.5467 40.2667 40.6079V39.169L52.7333 37.4497V45.1412ZM39.1333 40.6079C39.1333 40.7582 39.0736 40.9023 38.9674 41.0086C38.8611 41.1148 38.717 41.1745 38.5667 41.1745H37.4333C37.283 41.1745 37.1389 41.1148 37.0326 41.0086C36.9264 40.9023 36.8667 40.7582 36.8667 40.6079V37.2079C36.8667 37.0576 36.9264 36.9135 37.0326 36.8072C37.1389 36.7009 37.283 36.6412 37.4333 36.6412H38.5667C38.717 36.6412 38.8611 36.7009 38.9674 36.8072C39.0736 36.9135 39.1333 37.0576 39.1333 37.2079V40.6079ZM53.8667 35.6551C53.8668 35.7917 53.8176 35.9238 53.7281 36.027C53.6385 36.1302 53.5147 36.1976 53.3794 36.2168L53.2222 36.2384L40.2667 38.0249V37.2079C40.2667 36.2691 39.5055 35.5079 38.5667 35.5079H37.4333C36.4945 35.5079 35.7333 36.2691 35.7333 37.2079V38.0249L22.6212 36.2168C22.4858 36.1977 22.3618 36.1304 22.2722 36.0272C22.1825 35.924 22.1332 35.7918 22.1333 35.6551V23.0412C22.1333 22.8909 22.193 22.7468 22.2993 22.6405C22.4056 22.5342 22.5497 22.4745 22.7 22.4745H53.3C53.4503 22.4745 53.5944 22.5342 53.7007 22.6405C53.807 22.7468 53.8667 22.8909 53.8667 23.0412V35.6551Z" fill="white"/>
</g>
<defs>
<clipPath id="clip0_1536_3494">
<rect width="34" height="34" fill="white" transform="translate(21 16.2412)"/>
</clipPath>
</defs>
</svg>
