<svg width="62" height="44" viewBox="0 0 62 44" fill="none" xmlns="http://www.w3.org/2000/svg">
<g clip-path="url(#clip0_139_380)">
<circle cx="30.5" cy="21.5" r="14.5" fill="white"/>
<path d="M1.34839 37.1744C2.61422 41.6642 6.48664 42.4857 6.74497 42.6433C13.1181 44.3793 48.8404 44.3844 55.3091 42.6433C59.7395 41.3619 60.5532 37.4327 60.7056 37.1744C62.3926 28.1999 62.5036 16.4999 60.6281 6.31643L60.7056 6.82276C59.4398 2.33293 55.5674 1.51143 55.3091 1.35385C49.0212 -0.353737 13.2059 -0.41832 6.74497 1.35385C2.31455 2.63776 1.5008 6.56443 1.34839 6.82276C-0.457363 16.2545 -0.54778 27.0761 1.34839 37.1744ZM24.8206 31.4316V12.5913L41.0077 22.0257L24.8206 31.4316Z" fill="#E53935"/>
</g>
<defs>
<clipPath id="clip0_139_380">
<rect width="62" height="44" fill="white"/>
</clipPath>
</defs>
</svg>
